%TF.GenerationSoftware,KiCad,Pcbnew,(6.0.1)*%
%TF.CreationDate,2022-03-04T16:45:31-06:00*%
%TF.ProjectId,samara,73616d61-7261-42e6-9b69-6361645f7063,rev?*%
%TF.SameCoordinates,PX7df6181PY82ce53f*%
%TF.FileFunction,Legend,Bot*%
%TF.FilePolarity,Positive*%
%FSLAX46Y46*%
G04 Gerber Fmt 4.6, Leading zero omitted, Abs format (unit mm)*
G04 Created by KiCad (PCBNEW (6.0.1)) date 2022-03-04 16:45:31*
%MOMM*%
%LPD*%
G01*
G04 APERTURE LIST*
%ADD10C,0.150000*%
%ADD11C,0.200000*%
%ADD12C,0.120000*%
%ADD13C,0.203200*%
G04 APERTURE END LIST*
D10*
X25073999Y3491238D02*
X24978760Y3443619D01*
X24788284Y3443619D01*
X24693046Y3491238D01*
X24645427Y3586476D01*
X24645427Y3634095D01*
X24693046Y3729333D01*
X24788284Y3776952D01*
X24931141Y3776952D01*
X25026379Y3824571D01*
X25073999Y3919809D01*
X25073999Y3967428D01*
X25026379Y4062666D01*
X24931141Y4110285D01*
X24788284Y4110285D01*
X24693046Y4062666D01*
X23788284Y3443619D02*
X23788284Y3967428D01*
X23835903Y4062666D01*
X23931141Y4110285D01*
X24121618Y4110285D01*
X24216856Y4062666D01*
X23788284Y3491238D02*
X23883522Y3443619D01*
X24121618Y3443619D01*
X24216856Y3491238D01*
X24264475Y3586476D01*
X24264475Y3681714D01*
X24216856Y3776952D01*
X24121618Y3824571D01*
X23883522Y3824571D01*
X23788284Y3872190D01*
X23312094Y3443619D02*
X23312094Y4110285D01*
X23312094Y4015047D02*
X23264475Y4062666D01*
X23169237Y4110285D01*
X23026379Y4110285D01*
X22931141Y4062666D01*
X22883522Y3967428D01*
X22883522Y3443619D01*
X22883522Y3967428D02*
X22835903Y4062666D01*
X22740665Y4110285D01*
X22597808Y4110285D01*
X22502570Y4062666D01*
X22454951Y3967428D01*
X22454951Y3443619D01*
X21550189Y3443619D02*
X21550189Y3967428D01*
X21597808Y4062666D01*
X21693046Y4110285D01*
X21883522Y4110285D01*
X21978760Y4062666D01*
X21550189Y3491238D02*
X21645427Y3443619D01*
X21883522Y3443619D01*
X21978760Y3491238D01*
X22026379Y3586476D01*
X22026379Y3681714D01*
X21978760Y3776952D01*
X21883522Y3824571D01*
X21645427Y3824571D01*
X21550189Y3872190D01*
X21073999Y3443619D02*
X21073999Y4110285D01*
X21073999Y3919809D02*
X21026379Y4015047D01*
X20978760Y4062666D01*
X20883522Y4110285D01*
X20788284Y4110285D01*
X20026379Y3443619D02*
X20026379Y3967428D01*
X20073999Y4062666D01*
X20169237Y4110285D01*
X20359713Y4110285D01*
X20454951Y4062666D01*
X20026379Y3491238D02*
X20121618Y3443619D01*
X20359713Y3443619D01*
X20454951Y3491238D01*
X20502570Y3586476D01*
X20502570Y3681714D01*
X20454951Y3776952D01*
X20359713Y3824571D01*
X20121618Y3824571D01*
X20026379Y3872190D01*
X18883522Y4110285D02*
X18645427Y3443619D01*
X18407332Y4110285D01*
X17835903Y4443619D02*
X17740665Y4443619D01*
X17645427Y4395999D01*
X17597808Y4348380D01*
X17550189Y4253142D01*
X17502570Y4062666D01*
X17502570Y3824571D01*
X17550189Y3634095D01*
X17597808Y3538857D01*
X17645427Y3491238D01*
X17740665Y3443619D01*
X17835903Y3443619D01*
X17931141Y3491238D01*
X17978760Y3538857D01*
X18026379Y3634095D01*
X18073999Y3824571D01*
X18073999Y4062666D01*
X18026379Y4253142D01*
X17978760Y4348380D01*
X17931141Y4395999D01*
X17835903Y4443619D01*
X17073999Y3538857D02*
X17026379Y3491238D01*
X17073999Y3443619D01*
X17121618Y3491238D01*
X17073999Y3538857D01*
X17073999Y3443619D01*
X16073999Y3443619D02*
X16645427Y3443619D01*
X16359713Y3443619D02*
X16359713Y4443619D01*
X16454951Y4300761D01*
X16550189Y4205523D01*
X16645427Y4157904D01*
X23478760Y1833619D02*
X23812094Y2309809D01*
X24050189Y1833619D02*
X24050189Y2833619D01*
X23669237Y2833619D01*
X23573999Y2785999D01*
X23526379Y2738380D01*
X23478760Y2643142D01*
X23478760Y2500285D01*
X23526379Y2405047D01*
X23573999Y2357428D01*
X23669237Y2309809D01*
X24050189Y2309809D01*
X22669237Y1881238D02*
X22764475Y1833619D01*
X22954951Y1833619D01*
X23050189Y1881238D01*
X23097808Y1976476D01*
X23097808Y2357428D01*
X23050189Y2452666D01*
X22954951Y2500285D01*
X22764475Y2500285D01*
X22669237Y2452666D01*
X22621618Y2357428D01*
X22621618Y2262190D01*
X23097808Y2166952D01*
X21764475Y1833619D02*
X21764475Y2833619D01*
X21764475Y1881238D02*
X21859713Y1833619D01*
X22050189Y1833619D01*
X22145427Y1881238D01*
X22193046Y1928857D01*
X22240665Y2024095D01*
X22240665Y2309809D01*
X22193046Y2405047D01*
X22145427Y2452666D01*
X22050189Y2500285D01*
X21859713Y2500285D01*
X21764475Y2452666D01*
X20621618Y2833619D02*
X20383522Y1833619D01*
X20193046Y2547904D01*
X20002570Y1833619D01*
X19764475Y2833619D01*
X19240665Y1833619D02*
X19335903Y1881238D01*
X19383522Y1928857D01*
X19431141Y2024095D01*
X19431141Y2309809D01*
X19383522Y2405047D01*
X19335903Y2452666D01*
X19240665Y2500285D01*
X19097808Y2500285D01*
X19002570Y2452666D01*
X18954951Y2405047D01*
X18907332Y2309809D01*
X18907332Y2024095D01*
X18954951Y1928857D01*
X19002570Y1881238D01*
X19097808Y1833619D01*
X19240665Y1833619D01*
X18335903Y1833619D02*
X18431141Y1881238D01*
X18478760Y1976476D01*
X18478760Y2833619D01*
X18097808Y2500285D02*
X17716856Y2500285D01*
X17954951Y1833619D02*
X17954951Y2690761D01*
X17907332Y2785999D01*
X17812094Y2833619D01*
X17716856Y2833619D01*
X26145427Y271238D02*
X26002570Y223619D01*
X25764475Y223619D01*
X25669237Y271238D01*
X25621618Y318857D01*
X25573999Y414095D01*
X25573999Y509333D01*
X25621618Y604571D01*
X25669237Y652190D01*
X25764475Y699809D01*
X25954951Y747428D01*
X26050189Y795047D01*
X26097808Y842666D01*
X26145427Y937904D01*
X26145427Y1033142D01*
X26097808Y1128380D01*
X26050189Y1175999D01*
X25954951Y1223619D01*
X25716856Y1223619D01*
X25573999Y1175999D01*
X25145427Y890285D02*
X25145427Y-109715D01*
X25145427Y842666D02*
X25050189Y890285D01*
X24859713Y890285D01*
X24764475Y842666D01*
X24716856Y795047D01*
X24669237Y699809D01*
X24669237Y414095D01*
X24716856Y318857D01*
X24764475Y271238D01*
X24859713Y223619D01*
X25050189Y223619D01*
X25145427Y271238D01*
X23812094Y223619D02*
X23812094Y747428D01*
X23859713Y842666D01*
X23954951Y890285D01*
X24145427Y890285D01*
X24240665Y842666D01*
X23812094Y271238D02*
X23907332Y223619D01*
X24145427Y223619D01*
X24240665Y271238D01*
X24288284Y366476D01*
X24288284Y461714D01*
X24240665Y556952D01*
X24145427Y604571D01*
X23907332Y604571D01*
X23812094Y652190D01*
X22907332Y271238D02*
X23002570Y223619D01*
X23193046Y223619D01*
X23288284Y271238D01*
X23335903Y318857D01*
X23383522Y414095D01*
X23383522Y699809D01*
X23335903Y795047D01*
X23288284Y842666D01*
X23193046Y890285D01*
X23002570Y890285D01*
X22907332Y842666D01*
X22097808Y271238D02*
X22193046Y223619D01*
X22383522Y223619D01*
X22478760Y271238D01*
X22526379Y366476D01*
X22526379Y747428D01*
X22478760Y842666D01*
X22383522Y890285D01*
X22193046Y890285D01*
X22097808Y842666D01*
X22050189Y747428D01*
X22050189Y652190D01*
X22526379Y556952D01*
X20859713Y223619D02*
X20859713Y1223619D01*
X20478760Y1223619D01*
X20383522Y1175999D01*
X20335903Y1128380D01*
X20288284Y1033142D01*
X20288284Y890285D01*
X20335903Y795047D01*
X20383522Y747428D01*
X20478760Y699809D01*
X20859713Y699809D01*
X19859713Y223619D02*
X19859713Y890285D01*
X19859713Y699809D02*
X19812094Y795047D01*
X19764475Y842666D01*
X19669237Y890285D01*
X19573999Y890285D01*
X19097808Y223619D02*
X19193046Y271238D01*
X19240665Y318857D01*
X19288284Y414095D01*
X19288284Y699809D01*
X19240665Y795047D01*
X19193046Y842666D01*
X19097808Y890285D01*
X18954951Y890285D01*
X18859713Y842666D01*
X18812094Y795047D01*
X18764475Y699809D01*
X18764475Y414095D01*
X18812094Y318857D01*
X18859713Y271238D01*
X18954951Y223619D01*
X19097808Y223619D01*
X17907332Y890285D02*
X17907332Y80761D01*
X17954951Y-14477D01*
X18002570Y-62096D01*
X18097808Y-109715D01*
X18240665Y-109715D01*
X18335903Y-62096D01*
X17907332Y271238D02*
X18002570Y223619D01*
X18193046Y223619D01*
X18288284Y271238D01*
X18335903Y318857D01*
X18383522Y414095D01*
X18383522Y699809D01*
X18335903Y795047D01*
X18288284Y842666D01*
X18193046Y890285D01*
X18002570Y890285D01*
X17907332Y842666D01*
X17431141Y223619D02*
X17431141Y890285D01*
X17431141Y699809D02*
X17383522Y795047D01*
X17335903Y842666D01*
X17240665Y890285D01*
X17145427Y890285D01*
X16383522Y223619D02*
X16383522Y747428D01*
X16431141Y842666D01*
X16526379Y890285D01*
X16716856Y890285D01*
X16812094Y842666D01*
X16383522Y271238D02*
X16478760Y223619D01*
X16716856Y223619D01*
X16812094Y271238D01*
X16859713Y366476D01*
X16859713Y461714D01*
X16812094Y556952D01*
X16716856Y604571D01*
X16478760Y604571D01*
X16383522Y652190D01*
X15907332Y223619D02*
X15907332Y890285D01*
X15907332Y795047D02*
X15859713Y842666D01*
X15764475Y890285D01*
X15621618Y890285D01*
X15526379Y842666D01*
X15478760Y747428D01*
X15478760Y223619D01*
X15478760Y747428D02*
X15431141Y842666D01*
X15335903Y890285D01*
X15193046Y890285D01*
X15097808Y842666D01*
X15050189Y747428D01*
X15050189Y223619D01*
D11*
%TO.C,J2*%
X3147999Y23761999D02*
G75*
G03*
X3147999Y23761999I-100000J0D01*
G01*
D12*
%TO.C,C12*%
X25507835Y20213999D02*
X25292163Y20213999D01*
X25507835Y20933999D02*
X25292163Y20933999D01*
%TO.C,C5*%
X25292163Y18943999D02*
X25507835Y18943999D01*
X25292163Y19663999D02*
X25507835Y19663999D01*
%TO.C,C11*%
X25507835Y21483999D02*
X25292163Y21483999D01*
X25507835Y22203999D02*
X25292163Y22203999D01*
%TO.C,R13*%
X4191999Y13869640D02*
X4191999Y13562358D01*
X4951999Y13869640D02*
X4951999Y13562358D01*
D13*
%TO.C,LS1*%
X-73661Y12580619D02*
G75*
G03*
X-2173175Y10983145I1772917J-4508496D01*
G01*
X-2075181Y5783579D02*
G75*
G03*
X-1523800Y5082091I3378179J2087863D01*
G01*
X4825999Y11429999D02*
G75*
G03*
X3182110Y12569604I-3329947J-3048011D01*
G01*
X3121659Y4183379D02*
G75*
G03*
X5842199Y9647976I-1564641J4188460D01*
G01*
D12*
%TO.C,U5*%
X6885999Y22069999D02*
X7285999Y22069999D01*
X22735999Y5869999D02*
X22735999Y4969999D01*
X6885999Y5869999D02*
X6885999Y22069999D01*
X7285999Y5869999D02*
X6885999Y5869999D01*
X23085999Y5869999D02*
X23085999Y22069999D01*
X23085999Y5869999D02*
X22735999Y5869999D01*
X23085999Y22069999D02*
X22685999Y22069999D01*
%TD*%
M02*
