%TF.GenerationSoftware,KiCad,Pcbnew,(6.0.1)*%
%TF.CreationDate,2022-03-04T16:45:31-06:00*%
%TF.ProjectId,samara,73616d61-7261-42e6-9b69-6361645f7063,rev?*%
%TF.SameCoordinates,PX7df6181PY82ce53f*%
%TF.FileFunction,Soldermask,Top*%
%TF.FilePolarity,Negative*%
%FSLAX46Y46*%
G04 Gerber Fmt 4.6, Leading zero omitted, Abs format (unit mm)*
G04 Created by KiCad (PCBNEW (6.0.1)) date 2022-03-04 16:45:31*
%MOMM*%
%LPD*%
G01*
G04 APERTURE LIST*
G04 Aperture macros list*
%AMRoundRect*
0 Rectangle with rounded corners*
0 $1 Rounding radius*
0 $2 $3 $4 $5 $6 $7 $8 $9 X,Y pos of 4 corners*
0 Add a 4 corners polygon primitive as box body*
4,1,4,$2,$3,$4,$5,$6,$7,$8,$9,$2,$3,0*
0 Add four circle primitives for the rounded corners*
1,1,$1+$1,$2,$3*
1,1,$1+$1,$4,$5*
1,1,$1+$1,$6,$7*
1,1,$1+$1,$8,$9*
0 Add four rect primitives between the rounded corners*
20,1,$1+$1,$2,$3,$4,$5,0*
20,1,$1+$1,$4,$5,$6,$7,0*
20,1,$1+$1,$6,$7,$8,$9,0*
20,1,$1+$1,$8,$9,$2,$3,0*%
G04 Aperture macros list end*
%ADD10C,0.001000*%
%ADD11C,2.082800*%
%ADD12R,1.500000X3.500000*%
%ADD13RoundRect,0.135000X-0.135000X-0.185000X0.135000X-0.185000X0.135000X0.185000X-0.135000X0.185000X0*%
%ADD14RoundRect,0.150000X-0.587500X-0.150000X0.587500X-0.150000X0.587500X0.150000X-0.587500X0.150000X0*%
%ADD15RoundRect,0.135000X0.135000X0.185000X-0.135000X0.185000X-0.135000X-0.185000X0.135000X-0.185000X0*%
%ADD16R,0.600000X1.000000*%
%ADD17RoundRect,0.150000X-0.825000X-0.150000X0.825000X-0.150000X0.825000X0.150000X-0.825000X0.150000X0*%
%ADD18RoundRect,0.140000X-0.140000X-0.170000X0.140000X-0.170000X0.140000X0.170000X-0.140000X0.170000X0*%
%ADD19C,0.650000*%
%ADD20R,0.300000X1.150000*%
%ADD21O,1.000000X2.100000*%
%ADD22O,1.000000X1.600000*%
%ADD23RoundRect,0.140000X0.170000X-0.140000X0.170000X0.140000X-0.170000X0.140000X-0.170000X-0.140000X0*%
%ADD24R,1.400000X2.100000*%
%ADD25RoundRect,0.101600X-0.248920X-0.173990X0.248920X-0.173990X0.248920X0.173990X-0.248920X0.173990X0*%
%ADD26RoundRect,0.150000X0.150000X-0.512500X0.150000X0.512500X-0.150000X0.512500X-0.150000X-0.512500X0*%
%ADD27RoundRect,0.101600X0.299720X0.674370X-0.299720X0.674370X-0.299720X-0.674370X0.299720X-0.674370X0*%
%ADD28RoundRect,0.101600X0.599440X0.999490X-0.599440X0.999490X-0.599440X-0.999490X0.599440X-0.999490X0*%
%ADD29RoundRect,0.135000X0.185000X-0.135000X0.185000X0.135000X-0.185000X0.135000X-0.185000X-0.135000X0*%
%ADD30RoundRect,0.140000X-0.170000X0.140000X-0.170000X-0.140000X0.170000X-0.140000X0.170000X0.140000X0*%
%ADD31C,3.800000*%
%ADD32C,2.600000*%
%ADD33RoundRect,0.135000X-0.185000X0.135000X-0.185000X-0.135000X0.185000X-0.135000X0.185000X0.135000X0*%
%ADD34RoundRect,0.050000X-0.050000X0.387500X-0.050000X-0.387500X0.050000X-0.387500X0.050000X0.387500X0*%
%ADD35RoundRect,0.050000X-0.387500X0.050000X-0.387500X-0.050000X0.387500X-0.050000X0.387500X0.050000X0*%
%ADD36RoundRect,0.144000X-1.456000X1.456000X-1.456000X-1.456000X1.456000X-1.456000X1.456000X1.456000X0*%
%ADD37RoundRect,0.250000X1.500000X-0.250000X1.500000X0.250000X-1.500000X0.250000X-1.500000X-0.250000X0*%
%ADD38RoundRect,0.250001X1.449999X-0.499999X1.449999X0.499999X-1.449999X0.499999X-1.449999X-0.499999X0*%
%ADD39RoundRect,0.101600X-0.635000X0.317500X-0.635000X-0.317500X0.635000X-0.317500X0.635000X0.317500X0*%
%ADD40RoundRect,0.218750X-0.218750X-0.256250X0.218750X-0.256250X0.218750X0.256250X-0.218750X0.256250X0*%
%ADD41RoundRect,0.101600X-0.549910X0.599440X-0.549910X-0.599440X0.549910X-0.599440X0.549910X0.599440X0*%
%ADD42RoundRect,0.101600X0.549910X-0.599440X0.549910X0.599440X-0.549910X0.599440X-0.549910X-0.599440X0*%
%ADD43RoundRect,0.101600X-0.317500X-0.635000X0.317500X-0.635000X0.317500X0.635000X-0.317500X0.635000X0*%
%ADD44C,1.000760*%
G04 APERTURE END LIST*
D10*
%TO.C,U2*%
X1850599Y22469999D02*
X1850599Y22019999D01*
X1850599Y22019999D02*
X1850599Y22012999D01*
X1850599Y22012999D02*
X1850599Y22005999D01*
X1850599Y22005999D02*
X1849599Y21999999D01*
X1849599Y21999999D02*
X1848599Y21992999D01*
X1848599Y21992999D02*
X1846599Y21986999D01*
X1846599Y21986999D02*
X1844599Y21979999D01*
X1844599Y21979999D02*
X1842599Y21973999D01*
X1842599Y21973999D02*
X1840599Y21967999D01*
X1840599Y21967999D02*
X1837599Y21961999D01*
X1837599Y21961999D02*
X1834599Y21955999D01*
X1834599Y21955999D02*
X1831599Y21949999D01*
X1831599Y21949999D02*
X1827599Y21943999D01*
X1827599Y21943999D02*
X1823599Y21938999D01*
X1823599Y21938999D02*
X1819599Y21933999D01*
X1819599Y21933999D02*
X1814599Y21928999D01*
X1814599Y21928999D02*
X1809599Y21923999D01*
X1809599Y21923999D02*
X1804599Y21919999D01*
X1804599Y21919999D02*
X1799599Y21915999D01*
X1799599Y21915999D02*
X1794599Y21911999D01*
X1794599Y21911999D02*
X1788599Y21907999D01*
X1788599Y21907999D02*
X1782599Y21904999D01*
X1782599Y21904999D02*
X1776599Y21901999D01*
X1776599Y21901999D02*
X1770599Y21898999D01*
X1770599Y21898999D02*
X1764599Y21896999D01*
X1764599Y21896999D02*
X1758599Y21894999D01*
X1758599Y21894999D02*
X1751599Y21892999D01*
X1751599Y21892999D02*
X1745599Y21891999D01*
X1745599Y21891999D02*
X1738599Y21890999D01*
X1738599Y21890999D02*
X1731599Y21889999D01*
X1731599Y21889999D02*
X1725599Y21889999D01*
X1725599Y21889999D02*
X1525599Y21889999D01*
X1525599Y21889999D02*
X1519599Y21889999D01*
X1519599Y21889999D02*
X1512599Y21890999D01*
X1512599Y21890999D02*
X1505599Y21891999D01*
X1505599Y21891999D02*
X1499599Y21892999D01*
X1499599Y21892999D02*
X1492599Y21894999D01*
X1492599Y21894999D02*
X1486599Y21896999D01*
X1486599Y21896999D02*
X1480599Y21898999D01*
X1480599Y21898999D02*
X1474599Y21901999D01*
X1474599Y21901999D02*
X1468599Y21904999D01*
X1468599Y21904999D02*
X1462599Y21907999D01*
X1462599Y21907999D02*
X1456599Y21911999D01*
X1456599Y21911999D02*
X1451599Y21915999D01*
X1451599Y21915999D02*
X1446599Y21919999D01*
X1446599Y21919999D02*
X1441599Y21923999D01*
X1441599Y21923999D02*
X1436599Y21928999D01*
X1436599Y21928999D02*
X1431599Y21933999D01*
X1431599Y21933999D02*
X1427599Y21938999D01*
X1427599Y21938999D02*
X1423599Y21943999D01*
X1423599Y21943999D02*
X1419599Y21949999D01*
X1419599Y21949999D02*
X1416599Y21955999D01*
X1416599Y21955999D02*
X1413599Y21961999D01*
X1413599Y21961999D02*
X1410599Y21967999D01*
X1410599Y21967999D02*
X1408599Y21973999D01*
X1408599Y21973999D02*
X1406599Y21979999D01*
X1406599Y21979999D02*
X1404599Y21986999D01*
X1404599Y21986999D02*
X1402599Y21992999D01*
X1402599Y21992999D02*
X1401599Y21999999D01*
X1401599Y21999999D02*
X1400599Y22005999D01*
X1400599Y22005999D02*
X1400599Y22012999D01*
X1400599Y22012999D02*
X1400599Y22019999D01*
X1400599Y22019999D02*
X1400599Y22469999D01*
X1400599Y22469999D02*
X1401599Y22474999D01*
X1401599Y22474999D02*
X1402599Y22480999D01*
X1402599Y22480999D02*
X1403599Y22486999D01*
X1403599Y22486999D02*
X1405599Y22491999D01*
X1405599Y22491999D02*
X1407599Y22497999D01*
X1407599Y22497999D02*
X1409599Y22503999D01*
X1409599Y22503999D02*
X1412599Y22508999D01*
X1412599Y22508999D02*
X1414599Y22513999D01*
X1414599Y22513999D02*
X1418599Y22518999D01*
X1418599Y22518999D02*
X1421599Y22523999D01*
X1421599Y22523999D02*
X1425599Y22528999D01*
X1425599Y22528999D02*
X1428599Y22532999D01*
X1428599Y22532999D02*
X1432599Y22537999D01*
X1432599Y22537999D02*
X1437599Y22541999D01*
X1437599Y22541999D02*
X1441599Y22544999D01*
X1441599Y22544999D02*
X1446599Y22548999D01*
X1446599Y22548999D02*
X1451599Y22551999D01*
X1451599Y22551999D02*
X1456599Y22555999D01*
X1456599Y22555999D02*
X1461599Y22557999D01*
X1461599Y22557999D02*
X1466599Y22560999D01*
X1466599Y22560999D02*
X1472599Y22562999D01*
X1472599Y22562999D02*
X1478599Y22564999D01*
X1478599Y22564999D02*
X1483599Y22566999D01*
X1483599Y22566999D02*
X1489599Y22567999D01*
X1489599Y22567999D02*
X1495599Y22568999D01*
X1495599Y22568999D02*
X1501599Y22569999D01*
X1501599Y22569999D02*
X1507599Y22570999D01*
X1507599Y22570999D02*
X1513599Y22570999D01*
X1513599Y22570999D02*
X1518599Y22570999D01*
X1518599Y22570999D02*
X1525599Y22569999D01*
X1525599Y22569999D02*
X1725599Y22569999D01*
X1725599Y22569999D02*
X1732599Y22570999D01*
X1732599Y22570999D02*
X1737599Y22570999D01*
X1737599Y22570999D02*
X1743599Y22570999D01*
X1743599Y22570999D02*
X1749599Y22569999D01*
X1749599Y22569999D02*
X1755599Y22568999D01*
X1755599Y22568999D02*
X1761599Y22567999D01*
X1761599Y22567999D02*
X1767599Y22566999D01*
X1767599Y22566999D02*
X1772599Y22564999D01*
X1772599Y22564999D02*
X1778599Y22562999D01*
X1778599Y22562999D02*
X1784599Y22560999D01*
X1784599Y22560999D02*
X1789599Y22557999D01*
X1789599Y22557999D02*
X1794599Y22555999D01*
X1794599Y22555999D02*
X1799599Y22551999D01*
X1799599Y22551999D02*
X1804599Y22548999D01*
X1804599Y22548999D02*
X1809599Y22544999D01*
X1809599Y22544999D02*
X1813599Y22541999D01*
X1813599Y22541999D02*
X1818599Y22537999D01*
X1818599Y22537999D02*
X1822599Y22532999D01*
X1822599Y22532999D02*
X1825599Y22528999D01*
X1825599Y22528999D02*
X1829599Y22523999D01*
X1829599Y22523999D02*
X1832599Y22518999D01*
X1832599Y22518999D02*
X1836599Y22513999D01*
X1836599Y22513999D02*
X1838599Y22508999D01*
X1838599Y22508999D02*
X1841599Y22503999D01*
X1841599Y22503999D02*
X1843599Y22497999D01*
X1843599Y22497999D02*
X1845599Y22491999D01*
X1845599Y22491999D02*
X1847599Y22486999D01*
X1847599Y22486999D02*
X1848599Y22480999D01*
X1848599Y22480999D02*
X1849599Y22474999D01*
X1849599Y22474999D02*
X1850599Y22469999D01*
X1850599Y22469999D02*
X1850599Y22469999D01*
G36*
X1525599Y22569999D02*
G01*
X1725599Y22569999D01*
X1732599Y22570999D01*
X1743599Y22570999D01*
X1767599Y22566999D01*
X1772599Y22564999D01*
X1784599Y22560999D01*
X1789599Y22557999D01*
X1794599Y22555999D01*
X1799599Y22551999D01*
X1804599Y22548999D01*
X1809599Y22544999D01*
X1813599Y22541999D01*
X1818599Y22537999D01*
X1822599Y22532999D01*
X1825599Y22528999D01*
X1829599Y22523999D01*
X1832599Y22518999D01*
X1836599Y22513999D01*
X1838599Y22508999D01*
X1841599Y22503999D01*
X1845599Y22491999D01*
X1847599Y22486999D01*
X1849599Y22474999D01*
X1850599Y22469999D01*
X1850599Y22005999D01*
X1849599Y21999999D01*
X1848599Y21992999D01*
X1846599Y21986999D01*
X1844599Y21979999D01*
X1840599Y21967999D01*
X1831599Y21949999D01*
X1827599Y21943999D01*
X1819599Y21933999D01*
X1809599Y21923999D01*
X1794599Y21911999D01*
X1788599Y21907999D01*
X1770599Y21898999D01*
X1758599Y21894999D01*
X1751599Y21892999D01*
X1745599Y21891999D01*
X1731599Y21889999D01*
X1519599Y21889999D01*
X1505599Y21891999D01*
X1499599Y21892999D01*
X1492599Y21894999D01*
X1480599Y21898999D01*
X1462599Y21907999D01*
X1456599Y21911999D01*
X1441599Y21923999D01*
X1431599Y21933999D01*
X1423599Y21943999D01*
X1419599Y21949999D01*
X1410599Y21967999D01*
X1406599Y21979999D01*
X1404599Y21986999D01*
X1402599Y21992999D01*
X1401599Y21999999D01*
X1400599Y22005999D01*
X1400599Y22469999D01*
X1401599Y22474999D01*
X1403599Y22486999D01*
X1405599Y22491999D01*
X1409599Y22503999D01*
X1412599Y22508999D01*
X1414599Y22513999D01*
X1418599Y22518999D01*
X1421599Y22523999D01*
X1425599Y22528999D01*
X1428599Y22532999D01*
X1432599Y22537999D01*
X1437599Y22541999D01*
X1441599Y22544999D01*
X1446599Y22548999D01*
X1451599Y22551999D01*
X1456599Y22555999D01*
X1461599Y22557999D01*
X1466599Y22560999D01*
X1478599Y22564999D01*
X1483599Y22566999D01*
X1507599Y22570999D01*
X1518599Y22570999D01*
X1525599Y22569999D01*
G37*
X1525599Y22569999D02*
X1725599Y22569999D01*
X1732599Y22570999D01*
X1743599Y22570999D01*
X1767599Y22566999D01*
X1772599Y22564999D01*
X1784599Y22560999D01*
X1789599Y22557999D01*
X1794599Y22555999D01*
X1799599Y22551999D01*
X1804599Y22548999D01*
X1809599Y22544999D01*
X1813599Y22541999D01*
X1818599Y22537999D01*
X1822599Y22532999D01*
X1825599Y22528999D01*
X1829599Y22523999D01*
X1832599Y22518999D01*
X1836599Y22513999D01*
X1838599Y22508999D01*
X1841599Y22503999D01*
X1845599Y22491999D01*
X1847599Y22486999D01*
X1849599Y22474999D01*
X1850599Y22469999D01*
X1850599Y22005999D01*
X1849599Y21999999D01*
X1848599Y21992999D01*
X1846599Y21986999D01*
X1844599Y21979999D01*
X1840599Y21967999D01*
X1831599Y21949999D01*
X1827599Y21943999D01*
X1819599Y21933999D01*
X1809599Y21923999D01*
X1794599Y21911999D01*
X1788599Y21907999D01*
X1770599Y21898999D01*
X1758599Y21894999D01*
X1751599Y21892999D01*
X1745599Y21891999D01*
X1731599Y21889999D01*
X1519599Y21889999D01*
X1505599Y21891999D01*
X1499599Y21892999D01*
X1492599Y21894999D01*
X1480599Y21898999D01*
X1462599Y21907999D01*
X1456599Y21911999D01*
X1441599Y21923999D01*
X1431599Y21933999D01*
X1423599Y21943999D01*
X1419599Y21949999D01*
X1410599Y21967999D01*
X1406599Y21979999D01*
X1404599Y21986999D01*
X1402599Y21992999D01*
X1401599Y21999999D01*
X1400599Y22005999D01*
X1400599Y22469999D01*
X1401599Y22474999D01*
X1403599Y22486999D01*
X1405599Y22491999D01*
X1409599Y22503999D01*
X1412599Y22508999D01*
X1414599Y22513999D01*
X1418599Y22518999D01*
X1421599Y22523999D01*
X1425599Y22528999D01*
X1428599Y22532999D01*
X1432599Y22537999D01*
X1437599Y22541999D01*
X1441599Y22544999D01*
X1446599Y22548999D01*
X1451599Y22551999D01*
X1456599Y22555999D01*
X1461599Y22557999D01*
X1466599Y22560999D01*
X1478599Y22564999D01*
X1483599Y22566999D01*
X1507599Y22570999D01*
X1518599Y22570999D01*
X1525599Y22569999D01*
X1850599Y18649999D02*
X1850599Y18199999D01*
X1850599Y18199999D02*
X1850599Y18192999D01*
X1850599Y18192999D02*
X1850599Y18185999D01*
X1850599Y18185999D02*
X1849599Y18179999D01*
X1849599Y18179999D02*
X1848599Y18172999D01*
X1848599Y18172999D02*
X1846599Y18166999D01*
X1846599Y18166999D02*
X1844599Y18159999D01*
X1844599Y18159999D02*
X1842599Y18153999D01*
X1842599Y18153999D02*
X1840599Y18147999D01*
X1840599Y18147999D02*
X1837599Y18141999D01*
X1837599Y18141999D02*
X1834599Y18135999D01*
X1834599Y18135999D02*
X1831599Y18129999D01*
X1831599Y18129999D02*
X1827599Y18123999D01*
X1827599Y18123999D02*
X1823599Y18118999D01*
X1823599Y18118999D02*
X1819599Y18113999D01*
X1819599Y18113999D02*
X1814599Y18108999D01*
X1814599Y18108999D02*
X1809599Y18103999D01*
X1809599Y18103999D02*
X1804599Y18099999D01*
X1804599Y18099999D02*
X1799599Y18095999D01*
X1799599Y18095999D02*
X1794599Y18091999D01*
X1794599Y18091999D02*
X1788599Y18087999D01*
X1788599Y18087999D02*
X1782599Y18084999D01*
X1782599Y18084999D02*
X1776599Y18081999D01*
X1776599Y18081999D02*
X1770599Y18078999D01*
X1770599Y18078999D02*
X1764599Y18076999D01*
X1764599Y18076999D02*
X1758599Y18074999D01*
X1758599Y18074999D02*
X1751599Y18072999D01*
X1751599Y18072999D02*
X1745599Y18071999D01*
X1745599Y18071999D02*
X1738599Y18070999D01*
X1738599Y18070999D02*
X1731599Y18069999D01*
X1731599Y18069999D02*
X1725599Y18069999D01*
X1725599Y18069999D02*
X1525599Y18069999D01*
X1525599Y18069999D02*
X1519599Y18069999D01*
X1519599Y18069999D02*
X1512599Y18070999D01*
X1512599Y18070999D02*
X1505599Y18071999D01*
X1505599Y18071999D02*
X1499599Y18072999D01*
X1499599Y18072999D02*
X1492599Y18074999D01*
X1492599Y18074999D02*
X1486599Y18076999D01*
X1486599Y18076999D02*
X1480599Y18078999D01*
X1480599Y18078999D02*
X1474599Y18081999D01*
X1474599Y18081999D02*
X1468599Y18084999D01*
X1468599Y18084999D02*
X1462599Y18087999D01*
X1462599Y18087999D02*
X1456599Y18091999D01*
X1456599Y18091999D02*
X1451599Y18095999D01*
X1451599Y18095999D02*
X1446599Y18099999D01*
X1446599Y18099999D02*
X1441599Y18103999D01*
X1441599Y18103999D02*
X1436599Y18108999D01*
X1436599Y18108999D02*
X1431599Y18113999D01*
X1431599Y18113999D02*
X1427599Y18118999D01*
X1427599Y18118999D02*
X1423599Y18123999D01*
X1423599Y18123999D02*
X1419599Y18129999D01*
X1419599Y18129999D02*
X1416599Y18135999D01*
X1416599Y18135999D02*
X1413599Y18141999D01*
X1413599Y18141999D02*
X1410599Y18147999D01*
X1410599Y18147999D02*
X1408599Y18153999D01*
X1408599Y18153999D02*
X1406599Y18159999D01*
X1406599Y18159999D02*
X1404599Y18166999D01*
X1404599Y18166999D02*
X1402599Y18172999D01*
X1402599Y18172999D02*
X1401599Y18179999D01*
X1401599Y18179999D02*
X1400599Y18185999D01*
X1400599Y18185999D02*
X1400599Y18192999D01*
X1400599Y18192999D02*
X1400599Y18199999D01*
X1400599Y18199999D02*
X1400599Y18649999D01*
X1400599Y18649999D02*
X1401599Y18654999D01*
X1401599Y18654999D02*
X1402599Y18660999D01*
X1402599Y18660999D02*
X1403599Y18666999D01*
X1403599Y18666999D02*
X1405599Y18671999D01*
X1405599Y18671999D02*
X1407599Y18677999D01*
X1407599Y18677999D02*
X1409599Y18683999D01*
X1409599Y18683999D02*
X1412599Y18688999D01*
X1412599Y18688999D02*
X1414599Y18693999D01*
X1414599Y18693999D02*
X1418599Y18698999D01*
X1418599Y18698999D02*
X1421599Y18703999D01*
X1421599Y18703999D02*
X1425599Y18708999D01*
X1425599Y18708999D02*
X1428599Y18712999D01*
X1428599Y18712999D02*
X1432599Y18717999D01*
X1432599Y18717999D02*
X1437599Y18721999D01*
X1437599Y18721999D02*
X1441599Y18724999D01*
X1441599Y18724999D02*
X1446599Y18728999D01*
X1446599Y18728999D02*
X1451599Y18731999D01*
X1451599Y18731999D02*
X1456599Y18735999D01*
X1456599Y18735999D02*
X1461599Y18737999D01*
X1461599Y18737999D02*
X1466599Y18740999D01*
X1466599Y18740999D02*
X1472599Y18742999D01*
X1472599Y18742999D02*
X1478599Y18744999D01*
X1478599Y18744999D02*
X1483599Y18746999D01*
X1483599Y18746999D02*
X1489599Y18747999D01*
X1489599Y18747999D02*
X1495599Y18748999D01*
X1495599Y18748999D02*
X1501599Y18749999D01*
X1501599Y18749999D02*
X1507599Y18750999D01*
X1507599Y18750999D02*
X1512599Y18750999D01*
X1512599Y18750999D02*
X1518599Y18750999D01*
X1518599Y18750999D02*
X1525599Y18749999D01*
X1525599Y18749999D02*
X1725599Y18749999D01*
X1725599Y18749999D02*
X1732599Y18750999D01*
X1732599Y18750999D02*
X1738599Y18750999D01*
X1738599Y18750999D02*
X1743599Y18750999D01*
X1743599Y18750999D02*
X1749599Y18749999D01*
X1749599Y18749999D02*
X1755599Y18748999D01*
X1755599Y18748999D02*
X1761599Y18747999D01*
X1761599Y18747999D02*
X1767599Y18746999D01*
X1767599Y18746999D02*
X1772599Y18744999D01*
X1772599Y18744999D02*
X1778599Y18742999D01*
X1778599Y18742999D02*
X1784599Y18740999D01*
X1784599Y18740999D02*
X1789599Y18737999D01*
X1789599Y18737999D02*
X1794599Y18735999D01*
X1794599Y18735999D02*
X1799599Y18731999D01*
X1799599Y18731999D02*
X1804599Y18728999D01*
X1804599Y18728999D02*
X1809599Y18724999D01*
X1809599Y18724999D02*
X1813599Y18721999D01*
X1813599Y18721999D02*
X1818599Y18717999D01*
X1818599Y18717999D02*
X1822599Y18712999D01*
X1822599Y18712999D02*
X1825599Y18708999D01*
X1825599Y18708999D02*
X1829599Y18703999D01*
X1829599Y18703999D02*
X1832599Y18698999D01*
X1832599Y18698999D02*
X1836599Y18693999D01*
X1836599Y18693999D02*
X1838599Y18688999D01*
X1838599Y18688999D02*
X1841599Y18683999D01*
X1841599Y18683999D02*
X1843599Y18677999D01*
X1843599Y18677999D02*
X1845599Y18671999D01*
X1845599Y18671999D02*
X1847599Y18666999D01*
X1847599Y18666999D02*
X1848599Y18660999D01*
X1848599Y18660999D02*
X1849599Y18654999D01*
X1849599Y18654999D02*
X1850599Y18649999D01*
X1850599Y18649999D02*
X1850599Y18649999D01*
G36*
X1525599Y18749999D02*
G01*
X1725599Y18749999D01*
X1732599Y18750999D01*
X1743599Y18750999D01*
X1767599Y18746999D01*
X1772599Y18744999D01*
X1784599Y18740999D01*
X1789599Y18737999D01*
X1794599Y18735999D01*
X1799599Y18731999D01*
X1804599Y18728999D01*
X1809599Y18724999D01*
X1813599Y18721999D01*
X1818599Y18717999D01*
X1822599Y18712999D01*
X1825599Y18708999D01*
X1829599Y18703999D01*
X1832599Y18698999D01*
X1836599Y18693999D01*
X1838599Y18688999D01*
X1841599Y18683999D01*
X1845599Y18671999D01*
X1847599Y18666999D01*
X1849599Y18654999D01*
X1850599Y18649999D01*
X1850599Y18185999D01*
X1849599Y18179999D01*
X1848599Y18172999D01*
X1846599Y18166999D01*
X1844599Y18159999D01*
X1840599Y18147999D01*
X1831599Y18129999D01*
X1827599Y18123999D01*
X1819599Y18113999D01*
X1809599Y18103999D01*
X1794599Y18091999D01*
X1788599Y18087999D01*
X1770599Y18078999D01*
X1758599Y18074999D01*
X1751599Y18072999D01*
X1745599Y18071999D01*
X1731599Y18069999D01*
X1519599Y18069999D01*
X1505599Y18071999D01*
X1499599Y18072999D01*
X1492599Y18074999D01*
X1480599Y18078999D01*
X1462599Y18087999D01*
X1456599Y18091999D01*
X1441599Y18103999D01*
X1431599Y18113999D01*
X1423599Y18123999D01*
X1419599Y18129999D01*
X1410599Y18147999D01*
X1406599Y18159999D01*
X1404599Y18166999D01*
X1402599Y18172999D01*
X1401599Y18179999D01*
X1400599Y18185999D01*
X1400599Y18649999D01*
X1401599Y18654999D01*
X1403599Y18666999D01*
X1405599Y18671999D01*
X1409599Y18683999D01*
X1412599Y18688999D01*
X1414599Y18693999D01*
X1418599Y18698999D01*
X1421599Y18703999D01*
X1425599Y18708999D01*
X1428599Y18712999D01*
X1432599Y18717999D01*
X1437599Y18721999D01*
X1441599Y18724999D01*
X1446599Y18728999D01*
X1451599Y18731999D01*
X1456599Y18735999D01*
X1461599Y18737999D01*
X1466599Y18740999D01*
X1478599Y18744999D01*
X1483599Y18746999D01*
X1507599Y18750999D01*
X1518599Y18750999D01*
X1525599Y18749999D01*
G37*
X1525599Y18749999D02*
X1725599Y18749999D01*
X1732599Y18750999D01*
X1743599Y18750999D01*
X1767599Y18746999D01*
X1772599Y18744999D01*
X1784599Y18740999D01*
X1789599Y18737999D01*
X1794599Y18735999D01*
X1799599Y18731999D01*
X1804599Y18728999D01*
X1809599Y18724999D01*
X1813599Y18721999D01*
X1818599Y18717999D01*
X1822599Y18712999D01*
X1825599Y18708999D01*
X1829599Y18703999D01*
X1832599Y18698999D01*
X1836599Y18693999D01*
X1838599Y18688999D01*
X1841599Y18683999D01*
X1845599Y18671999D01*
X1847599Y18666999D01*
X1849599Y18654999D01*
X1850599Y18649999D01*
X1850599Y18185999D01*
X1849599Y18179999D01*
X1848599Y18172999D01*
X1846599Y18166999D01*
X1844599Y18159999D01*
X1840599Y18147999D01*
X1831599Y18129999D01*
X1827599Y18123999D01*
X1819599Y18113999D01*
X1809599Y18103999D01*
X1794599Y18091999D01*
X1788599Y18087999D01*
X1770599Y18078999D01*
X1758599Y18074999D01*
X1751599Y18072999D01*
X1745599Y18071999D01*
X1731599Y18069999D01*
X1519599Y18069999D01*
X1505599Y18071999D01*
X1499599Y18072999D01*
X1492599Y18074999D01*
X1480599Y18078999D01*
X1462599Y18087999D01*
X1456599Y18091999D01*
X1441599Y18103999D01*
X1431599Y18113999D01*
X1423599Y18123999D01*
X1419599Y18129999D01*
X1410599Y18147999D01*
X1406599Y18159999D01*
X1404599Y18166999D01*
X1402599Y18172999D01*
X1401599Y18179999D01*
X1400599Y18185999D01*
X1400599Y18649999D01*
X1401599Y18654999D01*
X1403599Y18666999D01*
X1405599Y18671999D01*
X1409599Y18683999D01*
X1412599Y18688999D01*
X1414599Y18693999D01*
X1418599Y18698999D01*
X1421599Y18703999D01*
X1425599Y18708999D01*
X1428599Y18712999D01*
X1432599Y18717999D01*
X1437599Y18721999D01*
X1441599Y18724999D01*
X1446599Y18728999D01*
X1451599Y18731999D01*
X1456599Y18735999D01*
X1461599Y18737999D01*
X1466599Y18740999D01*
X1478599Y18744999D01*
X1483599Y18746999D01*
X1507599Y18750999D01*
X1518599Y18750999D01*
X1525599Y18749999D01*
X225599Y22044999D02*
X675599Y22044999D01*
X675599Y22044999D02*
X682599Y22044999D01*
X682599Y22044999D02*
X689599Y22044999D01*
X689599Y22044999D02*
X695599Y22043999D01*
X695599Y22043999D02*
X702599Y22042999D01*
X702599Y22042999D02*
X708599Y22040999D01*
X708599Y22040999D02*
X715599Y22038999D01*
X715599Y22038999D02*
X721599Y22036999D01*
X721599Y22036999D02*
X727599Y22034999D01*
X727599Y22034999D02*
X733599Y22031999D01*
X733599Y22031999D02*
X739599Y22028999D01*
X739599Y22028999D02*
X745599Y22025999D01*
X745599Y22025999D02*
X751599Y22021999D01*
X751599Y22021999D02*
X756599Y22017999D01*
X756599Y22017999D02*
X761599Y22013999D01*
X761599Y22013999D02*
X766599Y22008999D01*
X766599Y22008999D02*
X771599Y22003999D01*
X771599Y22003999D02*
X775599Y21998999D01*
X775599Y21998999D02*
X779599Y21993999D01*
X779599Y21993999D02*
X783599Y21988999D01*
X783599Y21988999D02*
X787599Y21982999D01*
X787599Y21982999D02*
X790599Y21976999D01*
X790599Y21976999D02*
X793599Y21970999D01*
X793599Y21970999D02*
X796599Y21964999D01*
X796599Y21964999D02*
X798599Y21958999D01*
X798599Y21958999D02*
X800599Y21952999D01*
X800599Y21952999D02*
X802599Y21945999D01*
X802599Y21945999D02*
X803599Y21939999D01*
X803599Y21939999D02*
X804599Y21932999D01*
X804599Y21932999D02*
X805599Y21925999D01*
X805599Y21925999D02*
X805599Y21919999D01*
X805599Y21919999D02*
X805599Y21719999D01*
X805599Y21719999D02*
X805599Y21713999D01*
X805599Y21713999D02*
X804599Y21706999D01*
X804599Y21706999D02*
X803599Y21699999D01*
X803599Y21699999D02*
X802599Y21693999D01*
X802599Y21693999D02*
X800599Y21686999D01*
X800599Y21686999D02*
X798599Y21680999D01*
X798599Y21680999D02*
X796599Y21674999D01*
X796599Y21674999D02*
X793599Y21668999D01*
X793599Y21668999D02*
X790599Y21662999D01*
X790599Y21662999D02*
X787599Y21656999D01*
X787599Y21656999D02*
X783599Y21650999D01*
X783599Y21650999D02*
X779599Y21645999D01*
X779599Y21645999D02*
X775599Y21640999D01*
X775599Y21640999D02*
X771599Y21635999D01*
X771599Y21635999D02*
X766599Y21630999D01*
X766599Y21630999D02*
X761599Y21625999D01*
X761599Y21625999D02*
X756599Y21621999D01*
X756599Y21621999D02*
X751599Y21617999D01*
X751599Y21617999D02*
X745599Y21613999D01*
X745599Y21613999D02*
X739599Y21610999D01*
X739599Y21610999D02*
X733599Y21607999D01*
X733599Y21607999D02*
X727599Y21604999D01*
X727599Y21604999D02*
X721599Y21602999D01*
X721599Y21602999D02*
X715599Y21600999D01*
X715599Y21600999D02*
X708599Y21598999D01*
X708599Y21598999D02*
X702599Y21596999D01*
X702599Y21596999D02*
X695599Y21595999D01*
X695599Y21595999D02*
X689599Y21594999D01*
X689599Y21594999D02*
X682599Y21594999D01*
X682599Y21594999D02*
X675599Y21594999D01*
X675599Y21594999D02*
X225599Y21594999D01*
X225599Y21594999D02*
X220599Y21595999D01*
X220599Y21595999D02*
X214599Y21596999D01*
X214599Y21596999D02*
X208599Y21597999D01*
X208599Y21597999D02*
X203599Y21599999D01*
X203599Y21599999D02*
X197599Y21601999D01*
X197599Y21601999D02*
X191599Y21603999D01*
X191599Y21603999D02*
X186599Y21606999D01*
X186599Y21606999D02*
X181599Y21608999D01*
X181599Y21608999D02*
X176599Y21612999D01*
X176599Y21612999D02*
X171599Y21615999D01*
X171599Y21615999D02*
X166599Y21619999D01*
X166599Y21619999D02*
X162599Y21622999D01*
X162599Y21622999D02*
X157599Y21626999D01*
X157599Y21626999D02*
X153599Y21631999D01*
X153599Y21631999D02*
X150599Y21635999D01*
X150599Y21635999D02*
X146599Y21640999D01*
X146599Y21640999D02*
X143599Y21645999D01*
X143599Y21645999D02*
X139599Y21650999D01*
X139599Y21650999D02*
X137599Y21655999D01*
X137599Y21655999D02*
X134599Y21660999D01*
X134599Y21660999D02*
X132599Y21666999D01*
X132599Y21666999D02*
X130599Y21672999D01*
X130599Y21672999D02*
X128599Y21677999D01*
X128599Y21677999D02*
X127599Y21683999D01*
X127599Y21683999D02*
X126599Y21689999D01*
X126599Y21689999D02*
X125599Y21695999D01*
X125599Y21695999D02*
X124599Y21701999D01*
X124599Y21701999D02*
X124599Y21706999D01*
X124599Y21706999D02*
X124599Y21712999D01*
X124599Y21712999D02*
X125599Y21719999D01*
X125599Y21719999D02*
X125599Y21919999D01*
X125599Y21919999D02*
X124599Y21926999D01*
X124599Y21926999D02*
X124599Y21932999D01*
X124599Y21932999D02*
X124599Y21937999D01*
X124599Y21937999D02*
X125599Y21943999D01*
X125599Y21943999D02*
X126599Y21949999D01*
X126599Y21949999D02*
X127599Y21955999D01*
X127599Y21955999D02*
X128599Y21961999D01*
X128599Y21961999D02*
X130599Y21966999D01*
X130599Y21966999D02*
X132599Y21972999D01*
X132599Y21972999D02*
X134599Y21978999D01*
X134599Y21978999D02*
X137599Y21983999D01*
X137599Y21983999D02*
X139599Y21988999D01*
X139599Y21988999D02*
X143599Y21993999D01*
X143599Y21993999D02*
X146599Y21998999D01*
X146599Y21998999D02*
X150599Y22003999D01*
X150599Y22003999D02*
X153599Y22007999D01*
X153599Y22007999D02*
X157599Y22012999D01*
X157599Y22012999D02*
X162599Y22016999D01*
X162599Y22016999D02*
X166599Y22019999D01*
X166599Y22019999D02*
X171599Y22023999D01*
X171599Y22023999D02*
X176599Y22026999D01*
X176599Y22026999D02*
X181599Y22030999D01*
X181599Y22030999D02*
X186599Y22032999D01*
X186599Y22032999D02*
X191599Y22035999D01*
X191599Y22035999D02*
X197599Y22037999D01*
X197599Y22037999D02*
X203599Y22039999D01*
X203599Y22039999D02*
X208599Y22041999D01*
X208599Y22041999D02*
X214599Y22042999D01*
X214599Y22042999D02*
X220599Y22043999D01*
X220599Y22043999D02*
X225599Y22044999D01*
X225599Y22044999D02*
X225599Y22044999D01*
G36*
X695599Y22043999D02*
G01*
X702599Y22042999D01*
X708599Y22040999D01*
X715599Y22038999D01*
X727599Y22034999D01*
X745599Y22025999D01*
X751599Y22021999D01*
X761599Y22013999D01*
X771599Y22003999D01*
X783599Y21988999D01*
X787599Y21982999D01*
X796599Y21964999D01*
X800599Y21952999D01*
X802599Y21945999D01*
X803599Y21939999D01*
X805599Y21925999D01*
X805599Y21713999D01*
X803599Y21699999D01*
X802599Y21693999D01*
X800599Y21686999D01*
X796599Y21674999D01*
X787599Y21656999D01*
X783599Y21650999D01*
X771599Y21635999D01*
X761599Y21625999D01*
X751599Y21617999D01*
X745599Y21613999D01*
X727599Y21604999D01*
X715599Y21600999D01*
X708599Y21598999D01*
X702599Y21596999D01*
X695599Y21595999D01*
X689599Y21594999D01*
X225599Y21594999D01*
X220599Y21595999D01*
X208599Y21597999D01*
X203599Y21599999D01*
X191599Y21603999D01*
X186599Y21606999D01*
X181599Y21608999D01*
X176599Y21612999D01*
X171599Y21615999D01*
X166599Y21619999D01*
X162599Y21622999D01*
X157599Y21626999D01*
X153599Y21631999D01*
X150599Y21635999D01*
X146599Y21640999D01*
X143599Y21645999D01*
X139599Y21650999D01*
X137599Y21655999D01*
X134599Y21660999D01*
X130599Y21672999D01*
X128599Y21677999D01*
X124599Y21701999D01*
X124599Y21712999D01*
X125599Y21719999D01*
X125599Y21919999D01*
X124599Y21926999D01*
X124599Y21937999D01*
X128599Y21961999D01*
X130599Y21966999D01*
X134599Y21978999D01*
X137599Y21983999D01*
X139599Y21988999D01*
X143599Y21993999D01*
X146599Y21998999D01*
X150599Y22003999D01*
X153599Y22007999D01*
X157599Y22012999D01*
X162599Y22016999D01*
X166599Y22019999D01*
X171599Y22023999D01*
X176599Y22026999D01*
X181599Y22030999D01*
X186599Y22032999D01*
X191599Y22035999D01*
X203599Y22039999D01*
X208599Y22041999D01*
X220599Y22043999D01*
X225599Y22044999D01*
X689599Y22044999D01*
X695599Y22043999D01*
G37*
X695599Y22043999D02*
X702599Y22042999D01*
X708599Y22040999D01*
X715599Y22038999D01*
X727599Y22034999D01*
X745599Y22025999D01*
X751599Y22021999D01*
X761599Y22013999D01*
X771599Y22003999D01*
X783599Y21988999D01*
X787599Y21982999D01*
X796599Y21964999D01*
X800599Y21952999D01*
X802599Y21945999D01*
X803599Y21939999D01*
X805599Y21925999D01*
X805599Y21713999D01*
X803599Y21699999D01*
X802599Y21693999D01*
X800599Y21686999D01*
X796599Y21674999D01*
X787599Y21656999D01*
X783599Y21650999D01*
X771599Y21635999D01*
X761599Y21625999D01*
X751599Y21617999D01*
X745599Y21613999D01*
X727599Y21604999D01*
X715599Y21600999D01*
X708599Y21598999D01*
X702599Y21596999D01*
X695599Y21595999D01*
X689599Y21594999D01*
X225599Y21594999D01*
X220599Y21595999D01*
X208599Y21597999D01*
X203599Y21599999D01*
X191599Y21603999D01*
X186599Y21606999D01*
X181599Y21608999D01*
X176599Y21612999D01*
X171599Y21615999D01*
X166599Y21619999D01*
X162599Y21622999D01*
X157599Y21626999D01*
X153599Y21631999D01*
X150599Y21635999D01*
X146599Y21640999D01*
X143599Y21645999D01*
X139599Y21650999D01*
X137599Y21655999D01*
X134599Y21660999D01*
X130599Y21672999D01*
X128599Y21677999D01*
X124599Y21701999D01*
X124599Y21712999D01*
X125599Y21719999D01*
X125599Y21919999D01*
X124599Y21926999D01*
X124599Y21937999D01*
X128599Y21961999D01*
X130599Y21966999D01*
X134599Y21978999D01*
X137599Y21983999D01*
X139599Y21988999D01*
X143599Y21993999D01*
X146599Y21998999D01*
X150599Y22003999D01*
X153599Y22007999D01*
X157599Y22012999D01*
X162599Y22016999D01*
X166599Y22019999D01*
X171599Y22023999D01*
X176599Y22026999D01*
X181599Y22030999D01*
X186599Y22032999D01*
X191599Y22035999D01*
X203599Y22039999D01*
X208599Y22041999D01*
X220599Y22043999D01*
X225599Y22044999D01*
X689599Y22044999D01*
X695599Y22043999D01*
X225599Y21544999D02*
X675599Y21544999D01*
X675599Y21544999D02*
X682599Y21544999D01*
X682599Y21544999D02*
X689599Y21544999D01*
X689599Y21544999D02*
X695599Y21543999D01*
X695599Y21543999D02*
X702599Y21542999D01*
X702599Y21542999D02*
X708599Y21540999D01*
X708599Y21540999D02*
X715599Y21538999D01*
X715599Y21538999D02*
X721599Y21536999D01*
X721599Y21536999D02*
X727599Y21534999D01*
X727599Y21534999D02*
X733599Y21531999D01*
X733599Y21531999D02*
X739599Y21528999D01*
X739599Y21528999D02*
X745599Y21525999D01*
X745599Y21525999D02*
X751599Y21521999D01*
X751599Y21521999D02*
X756599Y21517999D01*
X756599Y21517999D02*
X761599Y21513999D01*
X761599Y21513999D02*
X766599Y21508999D01*
X766599Y21508999D02*
X771599Y21503999D01*
X771599Y21503999D02*
X775599Y21498999D01*
X775599Y21498999D02*
X779599Y21493999D01*
X779599Y21493999D02*
X783599Y21488999D01*
X783599Y21488999D02*
X787599Y21482999D01*
X787599Y21482999D02*
X790599Y21476999D01*
X790599Y21476999D02*
X793599Y21470999D01*
X793599Y21470999D02*
X796599Y21464999D01*
X796599Y21464999D02*
X798599Y21458999D01*
X798599Y21458999D02*
X800599Y21452999D01*
X800599Y21452999D02*
X802599Y21445999D01*
X802599Y21445999D02*
X803599Y21439999D01*
X803599Y21439999D02*
X804599Y21432999D01*
X804599Y21432999D02*
X805599Y21425999D01*
X805599Y21425999D02*
X805599Y21419999D01*
X805599Y21419999D02*
X805599Y21219999D01*
X805599Y21219999D02*
X805599Y21213999D01*
X805599Y21213999D02*
X804599Y21206999D01*
X804599Y21206999D02*
X803599Y21199999D01*
X803599Y21199999D02*
X802599Y21193999D01*
X802599Y21193999D02*
X800599Y21186999D01*
X800599Y21186999D02*
X798599Y21180999D01*
X798599Y21180999D02*
X796599Y21174999D01*
X796599Y21174999D02*
X793599Y21168999D01*
X793599Y21168999D02*
X790599Y21162999D01*
X790599Y21162999D02*
X787599Y21156999D01*
X787599Y21156999D02*
X783599Y21150999D01*
X783599Y21150999D02*
X779599Y21145999D01*
X779599Y21145999D02*
X775599Y21140999D01*
X775599Y21140999D02*
X771599Y21135999D01*
X771599Y21135999D02*
X766599Y21130999D01*
X766599Y21130999D02*
X761599Y21125999D01*
X761599Y21125999D02*
X756599Y21121999D01*
X756599Y21121999D02*
X751599Y21117999D01*
X751599Y21117999D02*
X745599Y21113999D01*
X745599Y21113999D02*
X739599Y21110999D01*
X739599Y21110999D02*
X733599Y21107999D01*
X733599Y21107999D02*
X727599Y21104999D01*
X727599Y21104999D02*
X721599Y21102999D01*
X721599Y21102999D02*
X715599Y21100999D01*
X715599Y21100999D02*
X708599Y21098999D01*
X708599Y21098999D02*
X702599Y21096999D01*
X702599Y21096999D02*
X695599Y21095999D01*
X695599Y21095999D02*
X689599Y21094999D01*
X689599Y21094999D02*
X682599Y21094999D01*
X682599Y21094999D02*
X675599Y21094999D01*
X675599Y21094999D02*
X225599Y21094999D01*
X225599Y21094999D02*
X220599Y21095999D01*
X220599Y21095999D02*
X214599Y21096999D01*
X214599Y21096999D02*
X208599Y21097999D01*
X208599Y21097999D02*
X203599Y21099999D01*
X203599Y21099999D02*
X197599Y21101999D01*
X197599Y21101999D02*
X191599Y21103999D01*
X191599Y21103999D02*
X186599Y21106999D01*
X186599Y21106999D02*
X181599Y21108999D01*
X181599Y21108999D02*
X176599Y21112999D01*
X176599Y21112999D02*
X171599Y21115999D01*
X171599Y21115999D02*
X166599Y21119999D01*
X166599Y21119999D02*
X162599Y21122999D01*
X162599Y21122999D02*
X157599Y21126999D01*
X157599Y21126999D02*
X153599Y21131999D01*
X153599Y21131999D02*
X150599Y21135999D01*
X150599Y21135999D02*
X146599Y21140999D01*
X146599Y21140999D02*
X143599Y21145999D01*
X143599Y21145999D02*
X139599Y21150999D01*
X139599Y21150999D02*
X137599Y21155999D01*
X137599Y21155999D02*
X134599Y21160999D01*
X134599Y21160999D02*
X132599Y21166999D01*
X132599Y21166999D02*
X130599Y21172999D01*
X130599Y21172999D02*
X128599Y21177999D01*
X128599Y21177999D02*
X127599Y21183999D01*
X127599Y21183999D02*
X126599Y21189999D01*
X126599Y21189999D02*
X125599Y21195999D01*
X125599Y21195999D02*
X124599Y21201999D01*
X124599Y21201999D02*
X124599Y21207999D01*
X124599Y21207999D02*
X124599Y21212999D01*
X124599Y21212999D02*
X125599Y21219999D01*
X125599Y21219999D02*
X125599Y21419999D01*
X125599Y21419999D02*
X124599Y21426999D01*
X124599Y21426999D02*
X124599Y21432999D01*
X124599Y21432999D02*
X124599Y21437999D01*
X124599Y21437999D02*
X125599Y21443999D01*
X125599Y21443999D02*
X126599Y21449999D01*
X126599Y21449999D02*
X127599Y21455999D01*
X127599Y21455999D02*
X128599Y21461999D01*
X128599Y21461999D02*
X130599Y21466999D01*
X130599Y21466999D02*
X132599Y21472999D01*
X132599Y21472999D02*
X134599Y21478999D01*
X134599Y21478999D02*
X137599Y21483999D01*
X137599Y21483999D02*
X139599Y21488999D01*
X139599Y21488999D02*
X143599Y21493999D01*
X143599Y21493999D02*
X146599Y21498999D01*
X146599Y21498999D02*
X150599Y21503999D01*
X150599Y21503999D02*
X153599Y21507999D01*
X153599Y21507999D02*
X157599Y21512999D01*
X157599Y21512999D02*
X162599Y21516999D01*
X162599Y21516999D02*
X166599Y21519999D01*
X166599Y21519999D02*
X171599Y21523999D01*
X171599Y21523999D02*
X176599Y21526999D01*
X176599Y21526999D02*
X181599Y21530999D01*
X181599Y21530999D02*
X186599Y21532999D01*
X186599Y21532999D02*
X191599Y21535999D01*
X191599Y21535999D02*
X197599Y21537999D01*
X197599Y21537999D02*
X203599Y21539999D01*
X203599Y21539999D02*
X208599Y21541999D01*
X208599Y21541999D02*
X214599Y21542999D01*
X214599Y21542999D02*
X220599Y21543999D01*
X220599Y21543999D02*
X225599Y21544999D01*
X225599Y21544999D02*
X225599Y21544999D01*
G36*
X695599Y21543999D02*
G01*
X702599Y21542999D01*
X708599Y21540999D01*
X715599Y21538999D01*
X727599Y21534999D01*
X745599Y21525999D01*
X751599Y21521999D01*
X761599Y21513999D01*
X771599Y21503999D01*
X783599Y21488999D01*
X787599Y21482999D01*
X796599Y21464999D01*
X800599Y21452999D01*
X802599Y21445999D01*
X803599Y21439999D01*
X805599Y21425999D01*
X805599Y21213999D01*
X803599Y21199999D01*
X802599Y21193999D01*
X800599Y21186999D01*
X796599Y21174999D01*
X787599Y21156999D01*
X783599Y21150999D01*
X771599Y21135999D01*
X761599Y21125999D01*
X751599Y21117999D01*
X745599Y21113999D01*
X727599Y21104999D01*
X715599Y21100999D01*
X708599Y21098999D01*
X702599Y21096999D01*
X695599Y21095999D01*
X689599Y21094999D01*
X225599Y21094999D01*
X220599Y21095999D01*
X208599Y21097999D01*
X203599Y21099999D01*
X191599Y21103999D01*
X186599Y21106999D01*
X181599Y21108999D01*
X176599Y21112999D01*
X171599Y21115999D01*
X166599Y21119999D01*
X162599Y21122999D01*
X157599Y21126999D01*
X153599Y21131999D01*
X150599Y21135999D01*
X146599Y21140999D01*
X143599Y21145999D01*
X139599Y21150999D01*
X137599Y21155999D01*
X134599Y21160999D01*
X130599Y21172999D01*
X128599Y21177999D01*
X124599Y21201999D01*
X124599Y21212999D01*
X125599Y21219999D01*
X125599Y21419999D01*
X124599Y21426999D01*
X124599Y21437999D01*
X128599Y21461999D01*
X130599Y21466999D01*
X134599Y21478999D01*
X137599Y21483999D01*
X139599Y21488999D01*
X143599Y21493999D01*
X146599Y21498999D01*
X150599Y21503999D01*
X153599Y21507999D01*
X157599Y21512999D01*
X162599Y21516999D01*
X166599Y21519999D01*
X171599Y21523999D01*
X176599Y21526999D01*
X181599Y21530999D01*
X186599Y21532999D01*
X191599Y21535999D01*
X203599Y21539999D01*
X208599Y21541999D01*
X220599Y21543999D01*
X225599Y21544999D01*
X689599Y21544999D01*
X695599Y21543999D01*
G37*
X695599Y21543999D02*
X702599Y21542999D01*
X708599Y21540999D01*
X715599Y21538999D01*
X727599Y21534999D01*
X745599Y21525999D01*
X751599Y21521999D01*
X761599Y21513999D01*
X771599Y21503999D01*
X783599Y21488999D01*
X787599Y21482999D01*
X796599Y21464999D01*
X800599Y21452999D01*
X802599Y21445999D01*
X803599Y21439999D01*
X805599Y21425999D01*
X805599Y21213999D01*
X803599Y21199999D01*
X802599Y21193999D01*
X800599Y21186999D01*
X796599Y21174999D01*
X787599Y21156999D01*
X783599Y21150999D01*
X771599Y21135999D01*
X761599Y21125999D01*
X751599Y21117999D01*
X745599Y21113999D01*
X727599Y21104999D01*
X715599Y21100999D01*
X708599Y21098999D01*
X702599Y21096999D01*
X695599Y21095999D01*
X689599Y21094999D01*
X225599Y21094999D01*
X220599Y21095999D01*
X208599Y21097999D01*
X203599Y21099999D01*
X191599Y21103999D01*
X186599Y21106999D01*
X181599Y21108999D01*
X176599Y21112999D01*
X171599Y21115999D01*
X166599Y21119999D01*
X162599Y21122999D01*
X157599Y21126999D01*
X153599Y21131999D01*
X150599Y21135999D01*
X146599Y21140999D01*
X143599Y21145999D01*
X139599Y21150999D01*
X137599Y21155999D01*
X134599Y21160999D01*
X130599Y21172999D01*
X128599Y21177999D01*
X124599Y21201999D01*
X124599Y21212999D01*
X125599Y21219999D01*
X125599Y21419999D01*
X124599Y21426999D01*
X124599Y21437999D01*
X128599Y21461999D01*
X130599Y21466999D01*
X134599Y21478999D01*
X137599Y21483999D01*
X139599Y21488999D01*
X143599Y21493999D01*
X146599Y21498999D01*
X150599Y21503999D01*
X153599Y21507999D01*
X157599Y21512999D01*
X162599Y21516999D01*
X166599Y21519999D01*
X171599Y21523999D01*
X176599Y21526999D01*
X181599Y21530999D01*
X186599Y21532999D01*
X191599Y21535999D01*
X203599Y21539999D01*
X208599Y21541999D01*
X220599Y21543999D01*
X225599Y21544999D01*
X689599Y21544999D01*
X695599Y21543999D01*
X225599Y21044999D02*
X675599Y21044999D01*
X675599Y21044999D02*
X682599Y21044999D01*
X682599Y21044999D02*
X689599Y21044999D01*
X689599Y21044999D02*
X695599Y21043999D01*
X695599Y21043999D02*
X702599Y21042999D01*
X702599Y21042999D02*
X708599Y21040999D01*
X708599Y21040999D02*
X715599Y21038999D01*
X715599Y21038999D02*
X721599Y21036999D01*
X721599Y21036999D02*
X727599Y21034999D01*
X727599Y21034999D02*
X733599Y21031999D01*
X733599Y21031999D02*
X739599Y21028999D01*
X739599Y21028999D02*
X745599Y21025999D01*
X745599Y21025999D02*
X751599Y21021999D01*
X751599Y21021999D02*
X756599Y21017999D01*
X756599Y21017999D02*
X761599Y21013999D01*
X761599Y21013999D02*
X766599Y21008999D01*
X766599Y21008999D02*
X771599Y21003999D01*
X771599Y21003999D02*
X775599Y20998999D01*
X775599Y20998999D02*
X779599Y20993999D01*
X779599Y20993999D02*
X783599Y20988999D01*
X783599Y20988999D02*
X787599Y20982999D01*
X787599Y20982999D02*
X790599Y20976999D01*
X790599Y20976999D02*
X793599Y20970999D01*
X793599Y20970999D02*
X796599Y20964999D01*
X796599Y20964999D02*
X798599Y20958999D01*
X798599Y20958999D02*
X800599Y20952999D01*
X800599Y20952999D02*
X802599Y20945999D01*
X802599Y20945999D02*
X803599Y20939999D01*
X803599Y20939999D02*
X804599Y20932999D01*
X804599Y20932999D02*
X805599Y20925999D01*
X805599Y20925999D02*
X805599Y20919999D01*
X805599Y20919999D02*
X805599Y20719999D01*
X805599Y20719999D02*
X805599Y20713999D01*
X805599Y20713999D02*
X804599Y20706999D01*
X804599Y20706999D02*
X803599Y20699999D01*
X803599Y20699999D02*
X802599Y20693999D01*
X802599Y20693999D02*
X800599Y20686999D01*
X800599Y20686999D02*
X798599Y20680999D01*
X798599Y20680999D02*
X796599Y20674999D01*
X796599Y20674999D02*
X793599Y20668999D01*
X793599Y20668999D02*
X790599Y20662999D01*
X790599Y20662999D02*
X787599Y20656999D01*
X787599Y20656999D02*
X783599Y20650999D01*
X783599Y20650999D02*
X779599Y20645999D01*
X779599Y20645999D02*
X775599Y20640999D01*
X775599Y20640999D02*
X771599Y20635999D01*
X771599Y20635999D02*
X766599Y20630999D01*
X766599Y20630999D02*
X761599Y20625999D01*
X761599Y20625999D02*
X756599Y20621999D01*
X756599Y20621999D02*
X751599Y20617999D01*
X751599Y20617999D02*
X745599Y20613999D01*
X745599Y20613999D02*
X739599Y20610999D01*
X739599Y20610999D02*
X733599Y20607999D01*
X733599Y20607999D02*
X727599Y20604999D01*
X727599Y20604999D02*
X721599Y20602999D01*
X721599Y20602999D02*
X715599Y20600999D01*
X715599Y20600999D02*
X708599Y20598999D01*
X708599Y20598999D02*
X702599Y20596999D01*
X702599Y20596999D02*
X695599Y20595999D01*
X695599Y20595999D02*
X689599Y20594999D01*
X689599Y20594999D02*
X682599Y20594999D01*
X682599Y20594999D02*
X675599Y20594999D01*
X675599Y20594999D02*
X225599Y20594999D01*
X225599Y20594999D02*
X220599Y20595999D01*
X220599Y20595999D02*
X214599Y20596999D01*
X214599Y20596999D02*
X208599Y20597999D01*
X208599Y20597999D02*
X203599Y20599999D01*
X203599Y20599999D02*
X197599Y20601999D01*
X197599Y20601999D02*
X191599Y20603999D01*
X191599Y20603999D02*
X186599Y20606999D01*
X186599Y20606999D02*
X181599Y20608999D01*
X181599Y20608999D02*
X176599Y20612999D01*
X176599Y20612999D02*
X171599Y20615999D01*
X171599Y20615999D02*
X166599Y20619999D01*
X166599Y20619999D02*
X162599Y20622999D01*
X162599Y20622999D02*
X157599Y20626999D01*
X157599Y20626999D02*
X153599Y20631999D01*
X153599Y20631999D02*
X150599Y20635999D01*
X150599Y20635999D02*
X146599Y20640999D01*
X146599Y20640999D02*
X143599Y20645999D01*
X143599Y20645999D02*
X139599Y20650999D01*
X139599Y20650999D02*
X137599Y20655999D01*
X137599Y20655999D02*
X134599Y20660999D01*
X134599Y20660999D02*
X132599Y20666999D01*
X132599Y20666999D02*
X130599Y20672999D01*
X130599Y20672999D02*
X128599Y20677999D01*
X128599Y20677999D02*
X127599Y20683999D01*
X127599Y20683999D02*
X126599Y20689999D01*
X126599Y20689999D02*
X125599Y20695999D01*
X125599Y20695999D02*
X124599Y20701999D01*
X124599Y20701999D02*
X124599Y20707999D01*
X124599Y20707999D02*
X124599Y20712999D01*
X124599Y20712999D02*
X125599Y20719999D01*
X125599Y20719999D02*
X125599Y20919999D01*
X125599Y20919999D02*
X124599Y20926999D01*
X124599Y20926999D02*
X124599Y20931999D01*
X124599Y20931999D02*
X124599Y20937999D01*
X124599Y20937999D02*
X125599Y20943999D01*
X125599Y20943999D02*
X126599Y20949999D01*
X126599Y20949999D02*
X127599Y20955999D01*
X127599Y20955999D02*
X128599Y20961999D01*
X128599Y20961999D02*
X130599Y20966999D01*
X130599Y20966999D02*
X132599Y20972999D01*
X132599Y20972999D02*
X134599Y20978999D01*
X134599Y20978999D02*
X137599Y20983999D01*
X137599Y20983999D02*
X139599Y20988999D01*
X139599Y20988999D02*
X143599Y20993999D01*
X143599Y20993999D02*
X146599Y20998999D01*
X146599Y20998999D02*
X150599Y21003999D01*
X150599Y21003999D02*
X153599Y21007999D01*
X153599Y21007999D02*
X157599Y21012999D01*
X157599Y21012999D02*
X162599Y21016999D01*
X162599Y21016999D02*
X166599Y21019999D01*
X166599Y21019999D02*
X171599Y21023999D01*
X171599Y21023999D02*
X176599Y21026999D01*
X176599Y21026999D02*
X181599Y21030999D01*
X181599Y21030999D02*
X186599Y21032999D01*
X186599Y21032999D02*
X191599Y21035999D01*
X191599Y21035999D02*
X197599Y21037999D01*
X197599Y21037999D02*
X203599Y21039999D01*
X203599Y21039999D02*
X208599Y21041999D01*
X208599Y21041999D02*
X214599Y21042999D01*
X214599Y21042999D02*
X220599Y21043999D01*
X220599Y21043999D02*
X225599Y21044999D01*
X225599Y21044999D02*
X225599Y21044999D01*
G36*
X695599Y21043999D02*
G01*
X702599Y21042999D01*
X708599Y21040999D01*
X715599Y21038999D01*
X727599Y21034999D01*
X745599Y21025999D01*
X751599Y21021999D01*
X761599Y21013999D01*
X771599Y21003999D01*
X783599Y20988999D01*
X787599Y20982999D01*
X796599Y20964999D01*
X800599Y20952999D01*
X802599Y20945999D01*
X803599Y20939999D01*
X805599Y20925999D01*
X805599Y20713999D01*
X803599Y20699999D01*
X802599Y20693999D01*
X800599Y20686999D01*
X796599Y20674999D01*
X787599Y20656999D01*
X783599Y20650999D01*
X771599Y20635999D01*
X761599Y20625999D01*
X751599Y20617999D01*
X745599Y20613999D01*
X727599Y20604999D01*
X715599Y20600999D01*
X708599Y20598999D01*
X702599Y20596999D01*
X695599Y20595999D01*
X689599Y20594999D01*
X225599Y20594999D01*
X220599Y20595999D01*
X208599Y20597999D01*
X203599Y20599999D01*
X191599Y20603999D01*
X186599Y20606999D01*
X181599Y20608999D01*
X176599Y20612999D01*
X171599Y20615999D01*
X166599Y20619999D01*
X162599Y20622999D01*
X157599Y20626999D01*
X153599Y20631999D01*
X150599Y20635999D01*
X146599Y20640999D01*
X143599Y20645999D01*
X139599Y20650999D01*
X137599Y20655999D01*
X134599Y20660999D01*
X130599Y20672999D01*
X128599Y20677999D01*
X124599Y20701999D01*
X124599Y20712999D01*
X125599Y20719999D01*
X125599Y20919999D01*
X124599Y20926999D01*
X124599Y20937999D01*
X128599Y20961999D01*
X130599Y20966999D01*
X134599Y20978999D01*
X137599Y20983999D01*
X139599Y20988999D01*
X143599Y20993999D01*
X146599Y20998999D01*
X150599Y21003999D01*
X153599Y21007999D01*
X157599Y21012999D01*
X162599Y21016999D01*
X166599Y21019999D01*
X171599Y21023999D01*
X176599Y21026999D01*
X181599Y21030999D01*
X186599Y21032999D01*
X191599Y21035999D01*
X203599Y21039999D01*
X208599Y21041999D01*
X220599Y21043999D01*
X225599Y21044999D01*
X689599Y21044999D01*
X695599Y21043999D01*
G37*
X695599Y21043999D02*
X702599Y21042999D01*
X708599Y21040999D01*
X715599Y21038999D01*
X727599Y21034999D01*
X745599Y21025999D01*
X751599Y21021999D01*
X761599Y21013999D01*
X771599Y21003999D01*
X783599Y20988999D01*
X787599Y20982999D01*
X796599Y20964999D01*
X800599Y20952999D01*
X802599Y20945999D01*
X803599Y20939999D01*
X805599Y20925999D01*
X805599Y20713999D01*
X803599Y20699999D01*
X802599Y20693999D01*
X800599Y20686999D01*
X796599Y20674999D01*
X787599Y20656999D01*
X783599Y20650999D01*
X771599Y20635999D01*
X761599Y20625999D01*
X751599Y20617999D01*
X745599Y20613999D01*
X727599Y20604999D01*
X715599Y20600999D01*
X708599Y20598999D01*
X702599Y20596999D01*
X695599Y20595999D01*
X689599Y20594999D01*
X225599Y20594999D01*
X220599Y20595999D01*
X208599Y20597999D01*
X203599Y20599999D01*
X191599Y20603999D01*
X186599Y20606999D01*
X181599Y20608999D01*
X176599Y20612999D01*
X171599Y20615999D01*
X166599Y20619999D01*
X162599Y20622999D01*
X157599Y20626999D01*
X153599Y20631999D01*
X150599Y20635999D01*
X146599Y20640999D01*
X143599Y20645999D01*
X139599Y20650999D01*
X137599Y20655999D01*
X134599Y20660999D01*
X130599Y20672999D01*
X128599Y20677999D01*
X124599Y20701999D01*
X124599Y20712999D01*
X125599Y20719999D01*
X125599Y20919999D01*
X124599Y20926999D01*
X124599Y20937999D01*
X128599Y20961999D01*
X130599Y20966999D01*
X134599Y20978999D01*
X137599Y20983999D01*
X139599Y20988999D01*
X143599Y20993999D01*
X146599Y20998999D01*
X150599Y21003999D01*
X153599Y21007999D01*
X157599Y21012999D01*
X162599Y21016999D01*
X166599Y21019999D01*
X171599Y21023999D01*
X176599Y21026999D01*
X181599Y21030999D01*
X186599Y21032999D01*
X191599Y21035999D01*
X203599Y21039999D01*
X208599Y21041999D01*
X220599Y21043999D01*
X225599Y21044999D01*
X689599Y21044999D01*
X695599Y21043999D01*
X225599Y19044999D02*
X675599Y19044999D01*
X675599Y19044999D02*
X682599Y19044999D01*
X682599Y19044999D02*
X689599Y19044999D01*
X689599Y19044999D02*
X695599Y19043999D01*
X695599Y19043999D02*
X702599Y19042999D01*
X702599Y19042999D02*
X708599Y19040999D01*
X708599Y19040999D02*
X715599Y19038999D01*
X715599Y19038999D02*
X721599Y19036999D01*
X721599Y19036999D02*
X727599Y19034999D01*
X727599Y19034999D02*
X733599Y19031999D01*
X733599Y19031999D02*
X739599Y19028999D01*
X739599Y19028999D02*
X745599Y19025999D01*
X745599Y19025999D02*
X751599Y19021999D01*
X751599Y19021999D02*
X756599Y19017999D01*
X756599Y19017999D02*
X761599Y19013999D01*
X761599Y19013999D02*
X766599Y19008999D01*
X766599Y19008999D02*
X771599Y19003999D01*
X771599Y19003999D02*
X775599Y18998999D01*
X775599Y18998999D02*
X779599Y18993999D01*
X779599Y18993999D02*
X783599Y18988999D01*
X783599Y18988999D02*
X787599Y18982999D01*
X787599Y18982999D02*
X790599Y18976999D01*
X790599Y18976999D02*
X793599Y18970999D01*
X793599Y18970999D02*
X796599Y18964999D01*
X796599Y18964999D02*
X798599Y18958999D01*
X798599Y18958999D02*
X800599Y18952999D01*
X800599Y18952999D02*
X802599Y18945999D01*
X802599Y18945999D02*
X803599Y18939999D01*
X803599Y18939999D02*
X804599Y18932999D01*
X804599Y18932999D02*
X805599Y18925999D01*
X805599Y18925999D02*
X805599Y18919999D01*
X805599Y18919999D02*
X805599Y18719999D01*
X805599Y18719999D02*
X805599Y18713999D01*
X805599Y18713999D02*
X804599Y18706999D01*
X804599Y18706999D02*
X803599Y18699999D01*
X803599Y18699999D02*
X802599Y18693999D01*
X802599Y18693999D02*
X800599Y18686999D01*
X800599Y18686999D02*
X798599Y18680999D01*
X798599Y18680999D02*
X796599Y18674999D01*
X796599Y18674999D02*
X793599Y18668999D01*
X793599Y18668999D02*
X790599Y18662999D01*
X790599Y18662999D02*
X787599Y18656999D01*
X787599Y18656999D02*
X783599Y18650999D01*
X783599Y18650999D02*
X779599Y18645999D01*
X779599Y18645999D02*
X775599Y18640999D01*
X775599Y18640999D02*
X771599Y18635999D01*
X771599Y18635999D02*
X766599Y18630999D01*
X766599Y18630999D02*
X761599Y18625999D01*
X761599Y18625999D02*
X756599Y18621999D01*
X756599Y18621999D02*
X751599Y18617999D01*
X751599Y18617999D02*
X745599Y18613999D01*
X745599Y18613999D02*
X739599Y18610999D01*
X739599Y18610999D02*
X733599Y18607999D01*
X733599Y18607999D02*
X727599Y18604999D01*
X727599Y18604999D02*
X721599Y18602999D01*
X721599Y18602999D02*
X715599Y18600999D01*
X715599Y18600999D02*
X708599Y18598999D01*
X708599Y18598999D02*
X702599Y18596999D01*
X702599Y18596999D02*
X695599Y18595999D01*
X695599Y18595999D02*
X689599Y18594999D01*
X689599Y18594999D02*
X682599Y18594999D01*
X682599Y18594999D02*
X675599Y18594999D01*
X675599Y18594999D02*
X225599Y18594999D01*
X225599Y18594999D02*
X220599Y18595999D01*
X220599Y18595999D02*
X214599Y18596999D01*
X214599Y18596999D02*
X208599Y18597999D01*
X208599Y18597999D02*
X203599Y18599999D01*
X203599Y18599999D02*
X197599Y18601999D01*
X197599Y18601999D02*
X191599Y18603999D01*
X191599Y18603999D02*
X186599Y18606999D01*
X186599Y18606999D02*
X181599Y18608999D01*
X181599Y18608999D02*
X176599Y18612999D01*
X176599Y18612999D02*
X171599Y18615999D01*
X171599Y18615999D02*
X166599Y18619999D01*
X166599Y18619999D02*
X162599Y18622999D01*
X162599Y18622999D02*
X157599Y18626999D01*
X157599Y18626999D02*
X153599Y18631999D01*
X153599Y18631999D02*
X150599Y18635999D01*
X150599Y18635999D02*
X146599Y18640999D01*
X146599Y18640999D02*
X143599Y18645999D01*
X143599Y18645999D02*
X139599Y18650999D01*
X139599Y18650999D02*
X137599Y18655999D01*
X137599Y18655999D02*
X134599Y18660999D01*
X134599Y18660999D02*
X132599Y18666999D01*
X132599Y18666999D02*
X130599Y18672999D01*
X130599Y18672999D02*
X128599Y18677999D01*
X128599Y18677999D02*
X127599Y18683999D01*
X127599Y18683999D02*
X126599Y18689999D01*
X126599Y18689999D02*
X125599Y18695999D01*
X125599Y18695999D02*
X124599Y18701999D01*
X124599Y18701999D02*
X124599Y18706999D01*
X124599Y18706999D02*
X124599Y18712999D01*
X124599Y18712999D02*
X125599Y18719999D01*
X125599Y18719999D02*
X125599Y18919999D01*
X125599Y18919999D02*
X124599Y18926999D01*
X124599Y18926999D02*
X124599Y18932999D01*
X124599Y18932999D02*
X124599Y18937999D01*
X124599Y18937999D02*
X125599Y18943999D01*
X125599Y18943999D02*
X126599Y18949999D01*
X126599Y18949999D02*
X127599Y18955999D01*
X127599Y18955999D02*
X128599Y18961999D01*
X128599Y18961999D02*
X130599Y18966999D01*
X130599Y18966999D02*
X132599Y18972999D01*
X132599Y18972999D02*
X134599Y18978999D01*
X134599Y18978999D02*
X137599Y18983999D01*
X137599Y18983999D02*
X139599Y18988999D01*
X139599Y18988999D02*
X143599Y18993999D01*
X143599Y18993999D02*
X146599Y18998999D01*
X146599Y18998999D02*
X150599Y19003999D01*
X150599Y19003999D02*
X153599Y19007999D01*
X153599Y19007999D02*
X157599Y19012999D01*
X157599Y19012999D02*
X162599Y19016999D01*
X162599Y19016999D02*
X166599Y19019999D01*
X166599Y19019999D02*
X171599Y19023999D01*
X171599Y19023999D02*
X176599Y19026999D01*
X176599Y19026999D02*
X181599Y19030999D01*
X181599Y19030999D02*
X186599Y19032999D01*
X186599Y19032999D02*
X191599Y19035999D01*
X191599Y19035999D02*
X197599Y19037999D01*
X197599Y19037999D02*
X203599Y19039999D01*
X203599Y19039999D02*
X208599Y19041999D01*
X208599Y19041999D02*
X214599Y19042999D01*
X214599Y19042999D02*
X220599Y19043999D01*
X220599Y19043999D02*
X225599Y19044999D01*
X225599Y19044999D02*
X225599Y19044999D01*
G36*
X695599Y19043999D02*
G01*
X702599Y19042999D01*
X708599Y19040999D01*
X715599Y19038999D01*
X727599Y19034999D01*
X745599Y19025999D01*
X751599Y19021999D01*
X761599Y19013999D01*
X771599Y19003999D01*
X783599Y18988999D01*
X787599Y18982999D01*
X796599Y18964999D01*
X800599Y18952999D01*
X802599Y18945999D01*
X803599Y18939999D01*
X805599Y18925999D01*
X805599Y18713999D01*
X803599Y18699999D01*
X802599Y18693999D01*
X800599Y18686999D01*
X796599Y18674999D01*
X787599Y18656999D01*
X783599Y18650999D01*
X771599Y18635999D01*
X761599Y18625999D01*
X751599Y18617999D01*
X745599Y18613999D01*
X727599Y18604999D01*
X715599Y18600999D01*
X708599Y18598999D01*
X702599Y18596999D01*
X695599Y18595999D01*
X689599Y18594999D01*
X225599Y18594999D01*
X220599Y18595999D01*
X208599Y18597999D01*
X203599Y18599999D01*
X191599Y18603999D01*
X186599Y18606999D01*
X181599Y18608999D01*
X176599Y18612999D01*
X171599Y18615999D01*
X166599Y18619999D01*
X162599Y18622999D01*
X157599Y18626999D01*
X153599Y18631999D01*
X150599Y18635999D01*
X146599Y18640999D01*
X143599Y18645999D01*
X139599Y18650999D01*
X137599Y18655999D01*
X134599Y18660999D01*
X130599Y18672999D01*
X128599Y18677999D01*
X124599Y18701999D01*
X124599Y18712999D01*
X125599Y18719999D01*
X125599Y18919999D01*
X124599Y18926999D01*
X124599Y18937999D01*
X128599Y18961999D01*
X130599Y18966999D01*
X134599Y18978999D01*
X137599Y18983999D01*
X139599Y18988999D01*
X143599Y18993999D01*
X146599Y18998999D01*
X150599Y19003999D01*
X153599Y19007999D01*
X157599Y19012999D01*
X162599Y19016999D01*
X166599Y19019999D01*
X171599Y19023999D01*
X176599Y19026999D01*
X181599Y19030999D01*
X186599Y19032999D01*
X191599Y19035999D01*
X203599Y19039999D01*
X208599Y19041999D01*
X220599Y19043999D01*
X225599Y19044999D01*
X689599Y19044999D01*
X695599Y19043999D01*
G37*
X695599Y19043999D02*
X702599Y19042999D01*
X708599Y19040999D01*
X715599Y19038999D01*
X727599Y19034999D01*
X745599Y19025999D01*
X751599Y19021999D01*
X761599Y19013999D01*
X771599Y19003999D01*
X783599Y18988999D01*
X787599Y18982999D01*
X796599Y18964999D01*
X800599Y18952999D01*
X802599Y18945999D01*
X803599Y18939999D01*
X805599Y18925999D01*
X805599Y18713999D01*
X803599Y18699999D01*
X802599Y18693999D01*
X800599Y18686999D01*
X796599Y18674999D01*
X787599Y18656999D01*
X783599Y18650999D01*
X771599Y18635999D01*
X761599Y18625999D01*
X751599Y18617999D01*
X745599Y18613999D01*
X727599Y18604999D01*
X715599Y18600999D01*
X708599Y18598999D01*
X702599Y18596999D01*
X695599Y18595999D01*
X689599Y18594999D01*
X225599Y18594999D01*
X220599Y18595999D01*
X208599Y18597999D01*
X203599Y18599999D01*
X191599Y18603999D01*
X186599Y18606999D01*
X181599Y18608999D01*
X176599Y18612999D01*
X171599Y18615999D01*
X166599Y18619999D01*
X162599Y18622999D01*
X157599Y18626999D01*
X153599Y18631999D01*
X150599Y18635999D01*
X146599Y18640999D01*
X143599Y18645999D01*
X139599Y18650999D01*
X137599Y18655999D01*
X134599Y18660999D01*
X130599Y18672999D01*
X128599Y18677999D01*
X124599Y18701999D01*
X124599Y18712999D01*
X125599Y18719999D01*
X125599Y18919999D01*
X124599Y18926999D01*
X124599Y18937999D01*
X128599Y18961999D01*
X130599Y18966999D01*
X134599Y18978999D01*
X137599Y18983999D01*
X139599Y18988999D01*
X143599Y18993999D01*
X146599Y18998999D01*
X150599Y19003999D01*
X153599Y19007999D01*
X157599Y19012999D01*
X162599Y19016999D01*
X166599Y19019999D01*
X171599Y19023999D01*
X176599Y19026999D01*
X181599Y19030999D01*
X186599Y19032999D01*
X191599Y19035999D01*
X203599Y19039999D01*
X208599Y19041999D01*
X220599Y19043999D01*
X225599Y19044999D01*
X689599Y19044999D01*
X695599Y19043999D01*
X225599Y19544999D02*
X675599Y19544999D01*
X675599Y19544999D02*
X682599Y19544999D01*
X682599Y19544999D02*
X689599Y19544999D01*
X689599Y19544999D02*
X695599Y19543999D01*
X695599Y19543999D02*
X702599Y19542999D01*
X702599Y19542999D02*
X708599Y19540999D01*
X708599Y19540999D02*
X715599Y19538999D01*
X715599Y19538999D02*
X721599Y19536999D01*
X721599Y19536999D02*
X727599Y19534999D01*
X727599Y19534999D02*
X733599Y19531999D01*
X733599Y19531999D02*
X739599Y19528999D01*
X739599Y19528999D02*
X745599Y19525999D01*
X745599Y19525999D02*
X751599Y19521999D01*
X751599Y19521999D02*
X756599Y19517999D01*
X756599Y19517999D02*
X761599Y19513999D01*
X761599Y19513999D02*
X766599Y19508999D01*
X766599Y19508999D02*
X771599Y19503999D01*
X771599Y19503999D02*
X775599Y19498999D01*
X775599Y19498999D02*
X779599Y19493999D01*
X779599Y19493999D02*
X783599Y19488999D01*
X783599Y19488999D02*
X787599Y19482999D01*
X787599Y19482999D02*
X790599Y19476999D01*
X790599Y19476999D02*
X793599Y19470999D01*
X793599Y19470999D02*
X796599Y19464999D01*
X796599Y19464999D02*
X798599Y19458999D01*
X798599Y19458999D02*
X800599Y19452999D01*
X800599Y19452999D02*
X802599Y19445999D01*
X802599Y19445999D02*
X803599Y19439999D01*
X803599Y19439999D02*
X804599Y19432999D01*
X804599Y19432999D02*
X805599Y19425999D01*
X805599Y19425999D02*
X805599Y19419999D01*
X805599Y19419999D02*
X805599Y19219999D01*
X805599Y19219999D02*
X805599Y19213999D01*
X805599Y19213999D02*
X804599Y19206999D01*
X804599Y19206999D02*
X803599Y19199999D01*
X803599Y19199999D02*
X802599Y19193999D01*
X802599Y19193999D02*
X800599Y19186999D01*
X800599Y19186999D02*
X798599Y19180999D01*
X798599Y19180999D02*
X796599Y19174999D01*
X796599Y19174999D02*
X793599Y19168999D01*
X793599Y19168999D02*
X790599Y19162999D01*
X790599Y19162999D02*
X787599Y19156999D01*
X787599Y19156999D02*
X783599Y19150999D01*
X783599Y19150999D02*
X779599Y19145999D01*
X779599Y19145999D02*
X775599Y19140999D01*
X775599Y19140999D02*
X771599Y19135999D01*
X771599Y19135999D02*
X766599Y19130999D01*
X766599Y19130999D02*
X761599Y19125999D01*
X761599Y19125999D02*
X756599Y19121999D01*
X756599Y19121999D02*
X751599Y19117999D01*
X751599Y19117999D02*
X745599Y19113999D01*
X745599Y19113999D02*
X739599Y19110999D01*
X739599Y19110999D02*
X733599Y19107999D01*
X733599Y19107999D02*
X727599Y19104999D01*
X727599Y19104999D02*
X721599Y19102999D01*
X721599Y19102999D02*
X715599Y19100999D01*
X715599Y19100999D02*
X708599Y19098999D01*
X708599Y19098999D02*
X702599Y19096999D01*
X702599Y19096999D02*
X695599Y19095999D01*
X695599Y19095999D02*
X689599Y19094999D01*
X689599Y19094999D02*
X682599Y19094999D01*
X682599Y19094999D02*
X675599Y19094999D01*
X675599Y19094999D02*
X225599Y19094999D01*
X225599Y19094999D02*
X220599Y19095999D01*
X220599Y19095999D02*
X214599Y19096999D01*
X214599Y19096999D02*
X208599Y19097999D01*
X208599Y19097999D02*
X203599Y19099999D01*
X203599Y19099999D02*
X197599Y19101999D01*
X197599Y19101999D02*
X191599Y19103999D01*
X191599Y19103999D02*
X186599Y19106999D01*
X186599Y19106999D02*
X181599Y19108999D01*
X181599Y19108999D02*
X176599Y19112999D01*
X176599Y19112999D02*
X171599Y19115999D01*
X171599Y19115999D02*
X166599Y19119999D01*
X166599Y19119999D02*
X162599Y19122999D01*
X162599Y19122999D02*
X157599Y19126999D01*
X157599Y19126999D02*
X153599Y19131999D01*
X153599Y19131999D02*
X150599Y19135999D01*
X150599Y19135999D02*
X146599Y19140999D01*
X146599Y19140999D02*
X143599Y19145999D01*
X143599Y19145999D02*
X139599Y19150999D01*
X139599Y19150999D02*
X137599Y19155999D01*
X137599Y19155999D02*
X134599Y19160999D01*
X134599Y19160999D02*
X132599Y19166999D01*
X132599Y19166999D02*
X130599Y19172999D01*
X130599Y19172999D02*
X128599Y19177999D01*
X128599Y19177999D02*
X127599Y19183999D01*
X127599Y19183999D02*
X126599Y19189999D01*
X126599Y19189999D02*
X125599Y19195999D01*
X125599Y19195999D02*
X124599Y19201999D01*
X124599Y19201999D02*
X124599Y19206999D01*
X124599Y19206999D02*
X124599Y19212999D01*
X124599Y19212999D02*
X125599Y19219999D01*
X125599Y19219999D02*
X125599Y19419999D01*
X125599Y19419999D02*
X124599Y19426999D01*
X124599Y19426999D02*
X124599Y19431999D01*
X124599Y19431999D02*
X124599Y19437999D01*
X124599Y19437999D02*
X125599Y19443999D01*
X125599Y19443999D02*
X126599Y19449999D01*
X126599Y19449999D02*
X127599Y19455999D01*
X127599Y19455999D02*
X128599Y19461999D01*
X128599Y19461999D02*
X130599Y19466999D01*
X130599Y19466999D02*
X132599Y19472999D01*
X132599Y19472999D02*
X134599Y19478999D01*
X134599Y19478999D02*
X137599Y19483999D01*
X137599Y19483999D02*
X139599Y19488999D01*
X139599Y19488999D02*
X143599Y19493999D01*
X143599Y19493999D02*
X146599Y19498999D01*
X146599Y19498999D02*
X150599Y19503999D01*
X150599Y19503999D02*
X153599Y19507999D01*
X153599Y19507999D02*
X157599Y19512999D01*
X157599Y19512999D02*
X162599Y19516999D01*
X162599Y19516999D02*
X166599Y19519999D01*
X166599Y19519999D02*
X171599Y19523999D01*
X171599Y19523999D02*
X176599Y19526999D01*
X176599Y19526999D02*
X181599Y19530999D01*
X181599Y19530999D02*
X186599Y19532999D01*
X186599Y19532999D02*
X191599Y19535999D01*
X191599Y19535999D02*
X197599Y19537999D01*
X197599Y19537999D02*
X203599Y19539999D01*
X203599Y19539999D02*
X208599Y19541999D01*
X208599Y19541999D02*
X214599Y19542999D01*
X214599Y19542999D02*
X220599Y19543999D01*
X220599Y19543999D02*
X225599Y19544999D01*
X225599Y19544999D02*
X225599Y19544999D01*
G36*
X695599Y19543999D02*
G01*
X702599Y19542999D01*
X708599Y19540999D01*
X715599Y19538999D01*
X727599Y19534999D01*
X745599Y19525999D01*
X751599Y19521999D01*
X761599Y19513999D01*
X771599Y19503999D01*
X783599Y19488999D01*
X787599Y19482999D01*
X796599Y19464999D01*
X800599Y19452999D01*
X802599Y19445999D01*
X803599Y19439999D01*
X805599Y19425999D01*
X805599Y19213999D01*
X803599Y19199999D01*
X802599Y19193999D01*
X800599Y19186999D01*
X796599Y19174999D01*
X787599Y19156999D01*
X783599Y19150999D01*
X771599Y19135999D01*
X761599Y19125999D01*
X751599Y19117999D01*
X745599Y19113999D01*
X727599Y19104999D01*
X715599Y19100999D01*
X708599Y19098999D01*
X702599Y19096999D01*
X695599Y19095999D01*
X689599Y19094999D01*
X225599Y19094999D01*
X220599Y19095999D01*
X208599Y19097999D01*
X203599Y19099999D01*
X191599Y19103999D01*
X186599Y19106999D01*
X181599Y19108999D01*
X176599Y19112999D01*
X171599Y19115999D01*
X166599Y19119999D01*
X162599Y19122999D01*
X157599Y19126999D01*
X153599Y19131999D01*
X150599Y19135999D01*
X146599Y19140999D01*
X143599Y19145999D01*
X139599Y19150999D01*
X137599Y19155999D01*
X134599Y19160999D01*
X130599Y19172999D01*
X128599Y19177999D01*
X124599Y19201999D01*
X124599Y19212999D01*
X125599Y19219999D01*
X125599Y19419999D01*
X124599Y19426999D01*
X124599Y19437999D01*
X128599Y19461999D01*
X130599Y19466999D01*
X134599Y19478999D01*
X137599Y19483999D01*
X139599Y19488999D01*
X143599Y19493999D01*
X146599Y19498999D01*
X150599Y19503999D01*
X153599Y19507999D01*
X157599Y19512999D01*
X162599Y19516999D01*
X166599Y19519999D01*
X171599Y19523999D01*
X176599Y19526999D01*
X181599Y19530999D01*
X186599Y19532999D01*
X191599Y19535999D01*
X203599Y19539999D01*
X208599Y19541999D01*
X220599Y19543999D01*
X225599Y19544999D01*
X689599Y19544999D01*
X695599Y19543999D01*
G37*
X695599Y19543999D02*
X702599Y19542999D01*
X708599Y19540999D01*
X715599Y19538999D01*
X727599Y19534999D01*
X745599Y19525999D01*
X751599Y19521999D01*
X761599Y19513999D01*
X771599Y19503999D01*
X783599Y19488999D01*
X787599Y19482999D01*
X796599Y19464999D01*
X800599Y19452999D01*
X802599Y19445999D01*
X803599Y19439999D01*
X805599Y19425999D01*
X805599Y19213999D01*
X803599Y19199999D01*
X802599Y19193999D01*
X800599Y19186999D01*
X796599Y19174999D01*
X787599Y19156999D01*
X783599Y19150999D01*
X771599Y19135999D01*
X761599Y19125999D01*
X751599Y19117999D01*
X745599Y19113999D01*
X727599Y19104999D01*
X715599Y19100999D01*
X708599Y19098999D01*
X702599Y19096999D01*
X695599Y19095999D01*
X689599Y19094999D01*
X225599Y19094999D01*
X220599Y19095999D01*
X208599Y19097999D01*
X203599Y19099999D01*
X191599Y19103999D01*
X186599Y19106999D01*
X181599Y19108999D01*
X176599Y19112999D01*
X171599Y19115999D01*
X166599Y19119999D01*
X162599Y19122999D01*
X157599Y19126999D01*
X153599Y19131999D01*
X150599Y19135999D01*
X146599Y19140999D01*
X143599Y19145999D01*
X139599Y19150999D01*
X137599Y19155999D01*
X134599Y19160999D01*
X130599Y19172999D01*
X128599Y19177999D01*
X124599Y19201999D01*
X124599Y19212999D01*
X125599Y19219999D01*
X125599Y19419999D01*
X124599Y19426999D01*
X124599Y19437999D01*
X128599Y19461999D01*
X130599Y19466999D01*
X134599Y19478999D01*
X137599Y19483999D01*
X139599Y19488999D01*
X143599Y19493999D01*
X146599Y19498999D01*
X150599Y19503999D01*
X153599Y19507999D01*
X157599Y19512999D01*
X162599Y19516999D01*
X166599Y19519999D01*
X171599Y19523999D01*
X176599Y19526999D01*
X181599Y19530999D01*
X186599Y19532999D01*
X191599Y19535999D01*
X203599Y19539999D01*
X208599Y19541999D01*
X220599Y19543999D01*
X225599Y19544999D01*
X689599Y19544999D01*
X695599Y19543999D01*
X225599Y20044999D02*
X675599Y20044999D01*
X675599Y20044999D02*
X682599Y20044999D01*
X682599Y20044999D02*
X689599Y20044999D01*
X689599Y20044999D02*
X695599Y20043999D01*
X695599Y20043999D02*
X702599Y20042999D01*
X702599Y20042999D02*
X708599Y20040999D01*
X708599Y20040999D02*
X715599Y20038999D01*
X715599Y20038999D02*
X721599Y20036999D01*
X721599Y20036999D02*
X727599Y20034999D01*
X727599Y20034999D02*
X733599Y20031999D01*
X733599Y20031999D02*
X739599Y20028999D01*
X739599Y20028999D02*
X745599Y20025999D01*
X745599Y20025999D02*
X751599Y20021999D01*
X751599Y20021999D02*
X756599Y20017999D01*
X756599Y20017999D02*
X761599Y20013999D01*
X761599Y20013999D02*
X766599Y20008999D01*
X766599Y20008999D02*
X771599Y20003999D01*
X771599Y20003999D02*
X775599Y19998999D01*
X775599Y19998999D02*
X779599Y19993999D01*
X779599Y19993999D02*
X783599Y19988999D01*
X783599Y19988999D02*
X787599Y19982999D01*
X787599Y19982999D02*
X790599Y19976999D01*
X790599Y19976999D02*
X793599Y19970999D01*
X793599Y19970999D02*
X796599Y19964999D01*
X796599Y19964999D02*
X798599Y19958999D01*
X798599Y19958999D02*
X800599Y19952999D01*
X800599Y19952999D02*
X802599Y19945999D01*
X802599Y19945999D02*
X803599Y19939999D01*
X803599Y19939999D02*
X804599Y19932999D01*
X804599Y19932999D02*
X805599Y19925999D01*
X805599Y19925999D02*
X805599Y19919999D01*
X805599Y19919999D02*
X805599Y19719999D01*
X805599Y19719999D02*
X805599Y19713999D01*
X805599Y19713999D02*
X804599Y19706999D01*
X804599Y19706999D02*
X803599Y19699999D01*
X803599Y19699999D02*
X802599Y19693999D01*
X802599Y19693999D02*
X800599Y19686999D01*
X800599Y19686999D02*
X798599Y19680999D01*
X798599Y19680999D02*
X796599Y19674999D01*
X796599Y19674999D02*
X793599Y19668999D01*
X793599Y19668999D02*
X790599Y19662999D01*
X790599Y19662999D02*
X787599Y19656999D01*
X787599Y19656999D02*
X783599Y19650999D01*
X783599Y19650999D02*
X779599Y19645999D01*
X779599Y19645999D02*
X775599Y19640999D01*
X775599Y19640999D02*
X771599Y19635999D01*
X771599Y19635999D02*
X766599Y19630999D01*
X766599Y19630999D02*
X761599Y19625999D01*
X761599Y19625999D02*
X756599Y19621999D01*
X756599Y19621999D02*
X751599Y19617999D01*
X751599Y19617999D02*
X745599Y19613999D01*
X745599Y19613999D02*
X739599Y19610999D01*
X739599Y19610999D02*
X733599Y19607999D01*
X733599Y19607999D02*
X727599Y19604999D01*
X727599Y19604999D02*
X721599Y19602999D01*
X721599Y19602999D02*
X715599Y19600999D01*
X715599Y19600999D02*
X708599Y19598999D01*
X708599Y19598999D02*
X702599Y19596999D01*
X702599Y19596999D02*
X695599Y19595999D01*
X695599Y19595999D02*
X689599Y19594999D01*
X689599Y19594999D02*
X682599Y19594999D01*
X682599Y19594999D02*
X675599Y19594999D01*
X675599Y19594999D02*
X225599Y19594999D01*
X225599Y19594999D02*
X220599Y19595999D01*
X220599Y19595999D02*
X214599Y19596999D01*
X214599Y19596999D02*
X208599Y19597999D01*
X208599Y19597999D02*
X203599Y19599999D01*
X203599Y19599999D02*
X197599Y19601999D01*
X197599Y19601999D02*
X191599Y19603999D01*
X191599Y19603999D02*
X186599Y19606999D01*
X186599Y19606999D02*
X181599Y19608999D01*
X181599Y19608999D02*
X176599Y19612999D01*
X176599Y19612999D02*
X171599Y19615999D01*
X171599Y19615999D02*
X166599Y19619999D01*
X166599Y19619999D02*
X162599Y19622999D01*
X162599Y19622999D02*
X157599Y19626999D01*
X157599Y19626999D02*
X153599Y19631999D01*
X153599Y19631999D02*
X150599Y19635999D01*
X150599Y19635999D02*
X146599Y19640999D01*
X146599Y19640999D02*
X143599Y19645999D01*
X143599Y19645999D02*
X139599Y19650999D01*
X139599Y19650999D02*
X137599Y19655999D01*
X137599Y19655999D02*
X134599Y19660999D01*
X134599Y19660999D02*
X132599Y19666999D01*
X132599Y19666999D02*
X130599Y19672999D01*
X130599Y19672999D02*
X128599Y19677999D01*
X128599Y19677999D02*
X127599Y19683999D01*
X127599Y19683999D02*
X126599Y19689999D01*
X126599Y19689999D02*
X125599Y19695999D01*
X125599Y19695999D02*
X124599Y19701999D01*
X124599Y19701999D02*
X124599Y19707999D01*
X124599Y19707999D02*
X124599Y19712999D01*
X124599Y19712999D02*
X125599Y19719999D01*
X125599Y19719999D02*
X125599Y19919999D01*
X125599Y19919999D02*
X124599Y19926999D01*
X124599Y19926999D02*
X124599Y19931999D01*
X124599Y19931999D02*
X124599Y19937999D01*
X124599Y19937999D02*
X125599Y19943999D01*
X125599Y19943999D02*
X126599Y19949999D01*
X126599Y19949999D02*
X127599Y19955999D01*
X127599Y19955999D02*
X128599Y19961999D01*
X128599Y19961999D02*
X130599Y19966999D01*
X130599Y19966999D02*
X132599Y19972999D01*
X132599Y19972999D02*
X134599Y19978999D01*
X134599Y19978999D02*
X137599Y19983999D01*
X137599Y19983999D02*
X139599Y19988999D01*
X139599Y19988999D02*
X143599Y19993999D01*
X143599Y19993999D02*
X146599Y19998999D01*
X146599Y19998999D02*
X150599Y20003999D01*
X150599Y20003999D02*
X153599Y20007999D01*
X153599Y20007999D02*
X157599Y20012999D01*
X157599Y20012999D02*
X162599Y20016999D01*
X162599Y20016999D02*
X166599Y20019999D01*
X166599Y20019999D02*
X171599Y20023999D01*
X171599Y20023999D02*
X176599Y20026999D01*
X176599Y20026999D02*
X181599Y20030999D01*
X181599Y20030999D02*
X186599Y20032999D01*
X186599Y20032999D02*
X191599Y20035999D01*
X191599Y20035999D02*
X197599Y20037999D01*
X197599Y20037999D02*
X203599Y20039999D01*
X203599Y20039999D02*
X208599Y20041999D01*
X208599Y20041999D02*
X214599Y20042999D01*
X214599Y20042999D02*
X220599Y20043999D01*
X220599Y20043999D02*
X225599Y20044999D01*
X225599Y20044999D02*
X225599Y20044999D01*
G36*
X695599Y20043999D02*
G01*
X702599Y20042999D01*
X708599Y20040999D01*
X715599Y20038999D01*
X727599Y20034999D01*
X745599Y20025999D01*
X751599Y20021999D01*
X761599Y20013999D01*
X771599Y20003999D01*
X783599Y19988999D01*
X787599Y19982999D01*
X796599Y19964999D01*
X800599Y19952999D01*
X802599Y19945999D01*
X803599Y19939999D01*
X805599Y19925999D01*
X805599Y19713999D01*
X803599Y19699999D01*
X802599Y19693999D01*
X800599Y19686999D01*
X796599Y19674999D01*
X787599Y19656999D01*
X783599Y19650999D01*
X771599Y19635999D01*
X761599Y19625999D01*
X751599Y19617999D01*
X745599Y19613999D01*
X727599Y19604999D01*
X715599Y19600999D01*
X708599Y19598999D01*
X702599Y19596999D01*
X695599Y19595999D01*
X689599Y19594999D01*
X225599Y19594999D01*
X220599Y19595999D01*
X208599Y19597999D01*
X203599Y19599999D01*
X191599Y19603999D01*
X186599Y19606999D01*
X181599Y19608999D01*
X176599Y19612999D01*
X171599Y19615999D01*
X166599Y19619999D01*
X162599Y19622999D01*
X157599Y19626999D01*
X153599Y19631999D01*
X150599Y19635999D01*
X146599Y19640999D01*
X143599Y19645999D01*
X139599Y19650999D01*
X137599Y19655999D01*
X134599Y19660999D01*
X130599Y19672999D01*
X128599Y19677999D01*
X124599Y19701999D01*
X124599Y19712999D01*
X125599Y19719999D01*
X125599Y19919999D01*
X124599Y19926999D01*
X124599Y19937999D01*
X128599Y19961999D01*
X130599Y19966999D01*
X134599Y19978999D01*
X137599Y19983999D01*
X139599Y19988999D01*
X143599Y19993999D01*
X146599Y19998999D01*
X150599Y20003999D01*
X153599Y20007999D01*
X157599Y20012999D01*
X162599Y20016999D01*
X166599Y20019999D01*
X171599Y20023999D01*
X176599Y20026999D01*
X181599Y20030999D01*
X186599Y20032999D01*
X191599Y20035999D01*
X203599Y20039999D01*
X208599Y20041999D01*
X220599Y20043999D01*
X225599Y20044999D01*
X689599Y20044999D01*
X695599Y20043999D01*
G37*
X695599Y20043999D02*
X702599Y20042999D01*
X708599Y20040999D01*
X715599Y20038999D01*
X727599Y20034999D01*
X745599Y20025999D01*
X751599Y20021999D01*
X761599Y20013999D01*
X771599Y20003999D01*
X783599Y19988999D01*
X787599Y19982999D01*
X796599Y19964999D01*
X800599Y19952999D01*
X802599Y19945999D01*
X803599Y19939999D01*
X805599Y19925999D01*
X805599Y19713999D01*
X803599Y19699999D01*
X802599Y19693999D01*
X800599Y19686999D01*
X796599Y19674999D01*
X787599Y19656999D01*
X783599Y19650999D01*
X771599Y19635999D01*
X761599Y19625999D01*
X751599Y19617999D01*
X745599Y19613999D01*
X727599Y19604999D01*
X715599Y19600999D01*
X708599Y19598999D01*
X702599Y19596999D01*
X695599Y19595999D01*
X689599Y19594999D01*
X225599Y19594999D01*
X220599Y19595999D01*
X208599Y19597999D01*
X203599Y19599999D01*
X191599Y19603999D01*
X186599Y19606999D01*
X181599Y19608999D01*
X176599Y19612999D01*
X171599Y19615999D01*
X166599Y19619999D01*
X162599Y19622999D01*
X157599Y19626999D01*
X153599Y19631999D01*
X150599Y19635999D01*
X146599Y19640999D01*
X143599Y19645999D01*
X139599Y19650999D01*
X137599Y19655999D01*
X134599Y19660999D01*
X130599Y19672999D01*
X128599Y19677999D01*
X124599Y19701999D01*
X124599Y19712999D01*
X125599Y19719999D01*
X125599Y19919999D01*
X124599Y19926999D01*
X124599Y19937999D01*
X128599Y19961999D01*
X130599Y19966999D01*
X134599Y19978999D01*
X137599Y19983999D01*
X139599Y19988999D01*
X143599Y19993999D01*
X146599Y19998999D01*
X150599Y20003999D01*
X153599Y20007999D01*
X157599Y20012999D01*
X162599Y20016999D01*
X166599Y20019999D01*
X171599Y20023999D01*
X176599Y20026999D01*
X181599Y20030999D01*
X186599Y20032999D01*
X191599Y20035999D01*
X203599Y20039999D01*
X208599Y20041999D01*
X220599Y20043999D01*
X225599Y20044999D01*
X689599Y20044999D01*
X695599Y20043999D01*
X225599Y20544999D02*
X675599Y20544999D01*
X675599Y20544999D02*
X682599Y20544999D01*
X682599Y20544999D02*
X689599Y20544999D01*
X689599Y20544999D02*
X695599Y20543999D01*
X695599Y20543999D02*
X702599Y20542999D01*
X702599Y20542999D02*
X708599Y20540999D01*
X708599Y20540999D02*
X715599Y20538999D01*
X715599Y20538999D02*
X721599Y20536999D01*
X721599Y20536999D02*
X727599Y20534999D01*
X727599Y20534999D02*
X733599Y20531999D01*
X733599Y20531999D02*
X739599Y20528999D01*
X739599Y20528999D02*
X745599Y20525999D01*
X745599Y20525999D02*
X751599Y20521999D01*
X751599Y20521999D02*
X756599Y20517999D01*
X756599Y20517999D02*
X761599Y20513999D01*
X761599Y20513999D02*
X766599Y20508999D01*
X766599Y20508999D02*
X771599Y20503999D01*
X771599Y20503999D02*
X775599Y20498999D01*
X775599Y20498999D02*
X779599Y20493999D01*
X779599Y20493999D02*
X783599Y20488999D01*
X783599Y20488999D02*
X787599Y20482999D01*
X787599Y20482999D02*
X790599Y20476999D01*
X790599Y20476999D02*
X793599Y20470999D01*
X793599Y20470999D02*
X796599Y20464999D01*
X796599Y20464999D02*
X798599Y20458999D01*
X798599Y20458999D02*
X800599Y20452999D01*
X800599Y20452999D02*
X802599Y20445999D01*
X802599Y20445999D02*
X803599Y20439999D01*
X803599Y20439999D02*
X804599Y20432999D01*
X804599Y20432999D02*
X805599Y20425999D01*
X805599Y20425999D02*
X805599Y20419999D01*
X805599Y20419999D02*
X805599Y20219999D01*
X805599Y20219999D02*
X805599Y20213999D01*
X805599Y20213999D02*
X804599Y20206999D01*
X804599Y20206999D02*
X803599Y20199999D01*
X803599Y20199999D02*
X802599Y20193999D01*
X802599Y20193999D02*
X800599Y20186999D01*
X800599Y20186999D02*
X798599Y20180999D01*
X798599Y20180999D02*
X796599Y20174999D01*
X796599Y20174999D02*
X793599Y20168999D01*
X793599Y20168999D02*
X790599Y20162999D01*
X790599Y20162999D02*
X787599Y20156999D01*
X787599Y20156999D02*
X783599Y20150999D01*
X783599Y20150999D02*
X779599Y20145999D01*
X779599Y20145999D02*
X775599Y20140999D01*
X775599Y20140999D02*
X771599Y20135999D01*
X771599Y20135999D02*
X766599Y20130999D01*
X766599Y20130999D02*
X761599Y20125999D01*
X761599Y20125999D02*
X756599Y20121999D01*
X756599Y20121999D02*
X751599Y20117999D01*
X751599Y20117999D02*
X745599Y20113999D01*
X745599Y20113999D02*
X739599Y20110999D01*
X739599Y20110999D02*
X733599Y20107999D01*
X733599Y20107999D02*
X727599Y20104999D01*
X727599Y20104999D02*
X721599Y20102999D01*
X721599Y20102999D02*
X715599Y20100999D01*
X715599Y20100999D02*
X708599Y20098999D01*
X708599Y20098999D02*
X702599Y20096999D01*
X702599Y20096999D02*
X695599Y20095999D01*
X695599Y20095999D02*
X689599Y20094999D01*
X689599Y20094999D02*
X682599Y20094999D01*
X682599Y20094999D02*
X675599Y20094999D01*
X675599Y20094999D02*
X225599Y20094999D01*
X225599Y20094999D02*
X220599Y20095999D01*
X220599Y20095999D02*
X214599Y20096999D01*
X214599Y20096999D02*
X208599Y20097999D01*
X208599Y20097999D02*
X203599Y20099999D01*
X203599Y20099999D02*
X197599Y20101999D01*
X197599Y20101999D02*
X191599Y20103999D01*
X191599Y20103999D02*
X186599Y20106999D01*
X186599Y20106999D02*
X181599Y20108999D01*
X181599Y20108999D02*
X176599Y20112999D01*
X176599Y20112999D02*
X171599Y20115999D01*
X171599Y20115999D02*
X166599Y20119999D01*
X166599Y20119999D02*
X162599Y20122999D01*
X162599Y20122999D02*
X157599Y20126999D01*
X157599Y20126999D02*
X153599Y20131999D01*
X153599Y20131999D02*
X150599Y20135999D01*
X150599Y20135999D02*
X146599Y20140999D01*
X146599Y20140999D02*
X143599Y20145999D01*
X143599Y20145999D02*
X139599Y20150999D01*
X139599Y20150999D02*
X137599Y20155999D01*
X137599Y20155999D02*
X134599Y20160999D01*
X134599Y20160999D02*
X132599Y20166999D01*
X132599Y20166999D02*
X130599Y20172999D01*
X130599Y20172999D02*
X128599Y20177999D01*
X128599Y20177999D02*
X127599Y20183999D01*
X127599Y20183999D02*
X126599Y20189999D01*
X126599Y20189999D02*
X125599Y20195999D01*
X125599Y20195999D02*
X124599Y20201999D01*
X124599Y20201999D02*
X124599Y20207999D01*
X124599Y20207999D02*
X124599Y20212999D01*
X124599Y20212999D02*
X125599Y20219999D01*
X125599Y20219999D02*
X125599Y20419999D01*
X125599Y20419999D02*
X124599Y20426999D01*
X124599Y20426999D02*
X124599Y20431999D01*
X124599Y20431999D02*
X124599Y20437999D01*
X124599Y20437999D02*
X125599Y20443999D01*
X125599Y20443999D02*
X126599Y20449999D01*
X126599Y20449999D02*
X127599Y20455999D01*
X127599Y20455999D02*
X128599Y20461999D01*
X128599Y20461999D02*
X130599Y20466999D01*
X130599Y20466999D02*
X132599Y20472999D01*
X132599Y20472999D02*
X134599Y20478999D01*
X134599Y20478999D02*
X137599Y20483999D01*
X137599Y20483999D02*
X139599Y20488999D01*
X139599Y20488999D02*
X143599Y20493999D01*
X143599Y20493999D02*
X146599Y20498999D01*
X146599Y20498999D02*
X150599Y20503999D01*
X150599Y20503999D02*
X153599Y20507999D01*
X153599Y20507999D02*
X157599Y20512999D01*
X157599Y20512999D02*
X162599Y20516999D01*
X162599Y20516999D02*
X166599Y20519999D01*
X166599Y20519999D02*
X171599Y20523999D01*
X171599Y20523999D02*
X176599Y20526999D01*
X176599Y20526999D02*
X181599Y20530999D01*
X181599Y20530999D02*
X186599Y20532999D01*
X186599Y20532999D02*
X191599Y20535999D01*
X191599Y20535999D02*
X197599Y20537999D01*
X197599Y20537999D02*
X203599Y20539999D01*
X203599Y20539999D02*
X208599Y20541999D01*
X208599Y20541999D02*
X214599Y20542999D01*
X214599Y20542999D02*
X220599Y20543999D01*
X220599Y20543999D02*
X225599Y20544999D01*
X225599Y20544999D02*
X225599Y20544999D01*
G36*
X695599Y20543999D02*
G01*
X702599Y20542999D01*
X708599Y20540999D01*
X715599Y20538999D01*
X727599Y20534999D01*
X745599Y20525999D01*
X751599Y20521999D01*
X761599Y20513999D01*
X771599Y20503999D01*
X783599Y20488999D01*
X787599Y20482999D01*
X796599Y20464999D01*
X800599Y20452999D01*
X802599Y20445999D01*
X803599Y20439999D01*
X805599Y20425999D01*
X805599Y20213999D01*
X803599Y20199999D01*
X802599Y20193999D01*
X800599Y20186999D01*
X796599Y20174999D01*
X787599Y20156999D01*
X783599Y20150999D01*
X771599Y20135999D01*
X761599Y20125999D01*
X751599Y20117999D01*
X745599Y20113999D01*
X727599Y20104999D01*
X715599Y20100999D01*
X708599Y20098999D01*
X702599Y20096999D01*
X695599Y20095999D01*
X689599Y20094999D01*
X225599Y20094999D01*
X220599Y20095999D01*
X208599Y20097999D01*
X203599Y20099999D01*
X191599Y20103999D01*
X186599Y20106999D01*
X181599Y20108999D01*
X176599Y20112999D01*
X171599Y20115999D01*
X166599Y20119999D01*
X162599Y20122999D01*
X157599Y20126999D01*
X153599Y20131999D01*
X150599Y20135999D01*
X146599Y20140999D01*
X143599Y20145999D01*
X139599Y20150999D01*
X137599Y20155999D01*
X134599Y20160999D01*
X130599Y20172999D01*
X128599Y20177999D01*
X124599Y20201999D01*
X124599Y20212999D01*
X125599Y20219999D01*
X125599Y20419999D01*
X124599Y20426999D01*
X124599Y20437999D01*
X128599Y20461999D01*
X130599Y20466999D01*
X134599Y20478999D01*
X137599Y20483999D01*
X139599Y20488999D01*
X143599Y20493999D01*
X146599Y20498999D01*
X150599Y20503999D01*
X153599Y20507999D01*
X157599Y20512999D01*
X162599Y20516999D01*
X166599Y20519999D01*
X171599Y20523999D01*
X176599Y20526999D01*
X181599Y20530999D01*
X186599Y20532999D01*
X191599Y20535999D01*
X203599Y20539999D01*
X208599Y20541999D01*
X220599Y20543999D01*
X225599Y20544999D01*
X689599Y20544999D01*
X695599Y20543999D01*
G37*
X695599Y20543999D02*
X702599Y20542999D01*
X708599Y20540999D01*
X715599Y20538999D01*
X727599Y20534999D01*
X745599Y20525999D01*
X751599Y20521999D01*
X761599Y20513999D01*
X771599Y20503999D01*
X783599Y20488999D01*
X787599Y20482999D01*
X796599Y20464999D01*
X800599Y20452999D01*
X802599Y20445999D01*
X803599Y20439999D01*
X805599Y20425999D01*
X805599Y20213999D01*
X803599Y20199999D01*
X802599Y20193999D01*
X800599Y20186999D01*
X796599Y20174999D01*
X787599Y20156999D01*
X783599Y20150999D01*
X771599Y20135999D01*
X761599Y20125999D01*
X751599Y20117999D01*
X745599Y20113999D01*
X727599Y20104999D01*
X715599Y20100999D01*
X708599Y20098999D01*
X702599Y20096999D01*
X695599Y20095999D01*
X689599Y20094999D01*
X225599Y20094999D01*
X220599Y20095999D01*
X208599Y20097999D01*
X203599Y20099999D01*
X191599Y20103999D01*
X186599Y20106999D01*
X181599Y20108999D01*
X176599Y20112999D01*
X171599Y20115999D01*
X166599Y20119999D01*
X162599Y20122999D01*
X157599Y20126999D01*
X153599Y20131999D01*
X150599Y20135999D01*
X146599Y20140999D01*
X143599Y20145999D01*
X139599Y20150999D01*
X137599Y20155999D01*
X134599Y20160999D01*
X130599Y20172999D01*
X128599Y20177999D01*
X124599Y20201999D01*
X124599Y20212999D01*
X125599Y20219999D01*
X125599Y20419999D01*
X124599Y20426999D01*
X124599Y20437999D01*
X128599Y20461999D01*
X130599Y20466999D01*
X134599Y20478999D01*
X137599Y20483999D01*
X139599Y20488999D01*
X143599Y20493999D01*
X146599Y20498999D01*
X150599Y20503999D01*
X153599Y20507999D01*
X157599Y20512999D01*
X162599Y20516999D01*
X166599Y20519999D01*
X171599Y20523999D01*
X176599Y20526999D01*
X181599Y20530999D01*
X186599Y20532999D01*
X191599Y20535999D01*
X203599Y20539999D01*
X208599Y20541999D01*
X220599Y20543999D01*
X225599Y20544999D01*
X689599Y20544999D01*
X695599Y20543999D01*
X3025599Y18594999D02*
X2575599Y18594999D01*
X2575599Y18594999D02*
X2568599Y18594999D01*
X2568599Y18594999D02*
X2561599Y18594999D01*
X2561599Y18594999D02*
X2555599Y18595999D01*
X2555599Y18595999D02*
X2548599Y18596999D01*
X2548599Y18596999D02*
X2542599Y18598999D01*
X2542599Y18598999D02*
X2535599Y18600999D01*
X2535599Y18600999D02*
X2529599Y18602999D01*
X2529599Y18602999D02*
X2523599Y18604999D01*
X2523599Y18604999D02*
X2517599Y18607999D01*
X2517599Y18607999D02*
X2511599Y18610999D01*
X2511599Y18610999D02*
X2505599Y18613999D01*
X2505599Y18613999D02*
X2499599Y18617999D01*
X2499599Y18617999D02*
X2494599Y18621999D01*
X2494599Y18621999D02*
X2489599Y18625999D01*
X2489599Y18625999D02*
X2484599Y18630999D01*
X2484599Y18630999D02*
X2479599Y18635999D01*
X2479599Y18635999D02*
X2475599Y18640999D01*
X2475599Y18640999D02*
X2471599Y18645999D01*
X2471599Y18645999D02*
X2467599Y18650999D01*
X2467599Y18650999D02*
X2463599Y18656999D01*
X2463599Y18656999D02*
X2460599Y18662999D01*
X2460599Y18662999D02*
X2457599Y18668999D01*
X2457599Y18668999D02*
X2454599Y18674999D01*
X2454599Y18674999D02*
X2452599Y18680999D01*
X2452599Y18680999D02*
X2450599Y18686999D01*
X2450599Y18686999D02*
X2448599Y18693999D01*
X2448599Y18693999D02*
X2447599Y18699999D01*
X2447599Y18699999D02*
X2446599Y18706999D01*
X2446599Y18706999D02*
X2445599Y18713999D01*
X2445599Y18713999D02*
X2445599Y18719999D01*
X2445599Y18719999D02*
X2445599Y18919999D01*
X2445599Y18919999D02*
X2445599Y18925999D01*
X2445599Y18925999D02*
X2446599Y18932999D01*
X2446599Y18932999D02*
X2447599Y18939999D01*
X2447599Y18939999D02*
X2448599Y18945999D01*
X2448599Y18945999D02*
X2450599Y18952999D01*
X2450599Y18952999D02*
X2452599Y18958999D01*
X2452599Y18958999D02*
X2454599Y18964999D01*
X2454599Y18964999D02*
X2457599Y18970999D01*
X2457599Y18970999D02*
X2460599Y18976999D01*
X2460599Y18976999D02*
X2463599Y18982999D01*
X2463599Y18982999D02*
X2467599Y18988999D01*
X2467599Y18988999D02*
X2471599Y18993999D01*
X2471599Y18993999D02*
X2475599Y18998999D01*
X2475599Y18998999D02*
X2479599Y19003999D01*
X2479599Y19003999D02*
X2484599Y19008999D01*
X2484599Y19008999D02*
X2489599Y19013999D01*
X2489599Y19013999D02*
X2494599Y19017999D01*
X2494599Y19017999D02*
X2499599Y19021999D01*
X2499599Y19021999D02*
X2505599Y19025999D01*
X2505599Y19025999D02*
X2511599Y19028999D01*
X2511599Y19028999D02*
X2517599Y19031999D01*
X2517599Y19031999D02*
X2523599Y19034999D01*
X2523599Y19034999D02*
X2529599Y19036999D01*
X2529599Y19036999D02*
X2535599Y19038999D01*
X2535599Y19038999D02*
X2542599Y19040999D01*
X2542599Y19040999D02*
X2548599Y19042999D01*
X2548599Y19042999D02*
X2555599Y19043999D01*
X2555599Y19043999D02*
X2561599Y19044999D01*
X2561599Y19044999D02*
X2568599Y19044999D01*
X2568599Y19044999D02*
X2575599Y19044999D01*
X2575599Y19044999D02*
X3025599Y19044999D01*
X3025599Y19044999D02*
X3030599Y19043999D01*
X3030599Y19043999D02*
X3036599Y19042999D01*
X3036599Y19042999D02*
X3042599Y19041999D01*
X3042599Y19041999D02*
X3047599Y19039999D01*
X3047599Y19039999D02*
X3053599Y19037999D01*
X3053599Y19037999D02*
X3059599Y19035999D01*
X3059599Y19035999D02*
X3064599Y19032999D01*
X3064599Y19032999D02*
X3069599Y19030999D01*
X3069599Y19030999D02*
X3074599Y19026999D01*
X3074599Y19026999D02*
X3079599Y19023999D01*
X3079599Y19023999D02*
X3084599Y19019999D01*
X3084599Y19019999D02*
X3088599Y19016999D01*
X3088599Y19016999D02*
X3093599Y19012999D01*
X3093599Y19012999D02*
X3097599Y19007999D01*
X3097599Y19007999D02*
X3100599Y19003999D01*
X3100599Y19003999D02*
X3104599Y18998999D01*
X3104599Y18998999D02*
X3107599Y18993999D01*
X3107599Y18993999D02*
X3111599Y18988999D01*
X3111599Y18988999D02*
X3113599Y18983999D01*
X3113599Y18983999D02*
X3116599Y18978999D01*
X3116599Y18978999D02*
X3118599Y18972999D01*
X3118599Y18972999D02*
X3120599Y18966999D01*
X3120599Y18966999D02*
X3122599Y18961999D01*
X3122599Y18961999D02*
X3123599Y18955999D01*
X3123599Y18955999D02*
X3124599Y18949999D01*
X3124599Y18949999D02*
X3125599Y18943999D01*
X3125599Y18943999D02*
X3126599Y18937999D01*
X3126599Y18937999D02*
X3126599Y18932999D01*
X3126599Y18932999D02*
X3126599Y18926999D01*
X3126599Y18926999D02*
X3125599Y18919999D01*
X3125599Y18919999D02*
X3125599Y18719999D01*
X3125599Y18719999D02*
X3126599Y18712999D01*
X3126599Y18712999D02*
X3126599Y18706999D01*
X3126599Y18706999D02*
X3126599Y18701999D01*
X3126599Y18701999D02*
X3125599Y18695999D01*
X3125599Y18695999D02*
X3124599Y18689999D01*
X3124599Y18689999D02*
X3123599Y18683999D01*
X3123599Y18683999D02*
X3122599Y18677999D01*
X3122599Y18677999D02*
X3120599Y18672999D01*
X3120599Y18672999D02*
X3118599Y18666999D01*
X3118599Y18666999D02*
X3116599Y18660999D01*
X3116599Y18660999D02*
X3113599Y18655999D01*
X3113599Y18655999D02*
X3111599Y18650999D01*
X3111599Y18650999D02*
X3107599Y18645999D01*
X3107599Y18645999D02*
X3104599Y18640999D01*
X3104599Y18640999D02*
X3100599Y18635999D01*
X3100599Y18635999D02*
X3097599Y18631999D01*
X3097599Y18631999D02*
X3093599Y18626999D01*
X3093599Y18626999D02*
X3088599Y18622999D01*
X3088599Y18622999D02*
X3084599Y18619999D01*
X3084599Y18619999D02*
X3079599Y18615999D01*
X3079599Y18615999D02*
X3074599Y18612999D01*
X3074599Y18612999D02*
X3069599Y18608999D01*
X3069599Y18608999D02*
X3064599Y18606999D01*
X3064599Y18606999D02*
X3059599Y18603999D01*
X3059599Y18603999D02*
X3053599Y18601999D01*
X3053599Y18601999D02*
X3047599Y18599999D01*
X3047599Y18599999D02*
X3042599Y18597999D01*
X3042599Y18597999D02*
X3036599Y18596999D01*
X3036599Y18596999D02*
X3030599Y18595999D01*
X3030599Y18595999D02*
X3025599Y18594999D01*
X3025599Y18594999D02*
X3025599Y18594999D01*
G36*
X3030599Y19043999D02*
G01*
X3042599Y19041999D01*
X3047599Y19039999D01*
X3059599Y19035999D01*
X3064599Y19032999D01*
X3069599Y19030999D01*
X3074599Y19026999D01*
X3079599Y19023999D01*
X3084599Y19019999D01*
X3088599Y19016999D01*
X3093599Y19012999D01*
X3097599Y19007999D01*
X3100599Y19003999D01*
X3104599Y18998999D01*
X3107599Y18993999D01*
X3111599Y18988999D01*
X3113599Y18983999D01*
X3116599Y18978999D01*
X3120599Y18966999D01*
X3122599Y18961999D01*
X3126599Y18937999D01*
X3126599Y18926999D01*
X3125599Y18919999D01*
X3125599Y18719999D01*
X3126599Y18712999D01*
X3126599Y18701999D01*
X3122599Y18677999D01*
X3120599Y18672999D01*
X3116599Y18660999D01*
X3113599Y18655999D01*
X3111599Y18650999D01*
X3107599Y18645999D01*
X3104599Y18640999D01*
X3100599Y18635999D01*
X3097599Y18631999D01*
X3093599Y18626999D01*
X3088599Y18622999D01*
X3084599Y18619999D01*
X3079599Y18615999D01*
X3074599Y18612999D01*
X3069599Y18608999D01*
X3064599Y18606999D01*
X3059599Y18603999D01*
X3047599Y18599999D01*
X3042599Y18597999D01*
X3030599Y18595999D01*
X3025599Y18594999D01*
X2561599Y18594999D01*
X2555599Y18595999D01*
X2548599Y18596999D01*
X2542599Y18598999D01*
X2535599Y18600999D01*
X2523599Y18604999D01*
X2505599Y18613999D01*
X2499599Y18617999D01*
X2489599Y18625999D01*
X2479599Y18635999D01*
X2467599Y18650999D01*
X2463599Y18656999D01*
X2454599Y18674999D01*
X2450599Y18686999D01*
X2448599Y18693999D01*
X2447599Y18699999D01*
X2445599Y18713999D01*
X2445599Y18925999D01*
X2447599Y18939999D01*
X2448599Y18945999D01*
X2450599Y18952999D01*
X2454599Y18964999D01*
X2463599Y18982999D01*
X2467599Y18988999D01*
X2479599Y19003999D01*
X2489599Y19013999D01*
X2499599Y19021999D01*
X2505599Y19025999D01*
X2523599Y19034999D01*
X2535599Y19038999D01*
X2542599Y19040999D01*
X2548599Y19042999D01*
X2555599Y19043999D01*
X2561599Y19044999D01*
X3025599Y19044999D01*
X3030599Y19043999D01*
G37*
X3030599Y19043999D02*
X3042599Y19041999D01*
X3047599Y19039999D01*
X3059599Y19035999D01*
X3064599Y19032999D01*
X3069599Y19030999D01*
X3074599Y19026999D01*
X3079599Y19023999D01*
X3084599Y19019999D01*
X3088599Y19016999D01*
X3093599Y19012999D01*
X3097599Y19007999D01*
X3100599Y19003999D01*
X3104599Y18998999D01*
X3107599Y18993999D01*
X3111599Y18988999D01*
X3113599Y18983999D01*
X3116599Y18978999D01*
X3120599Y18966999D01*
X3122599Y18961999D01*
X3126599Y18937999D01*
X3126599Y18926999D01*
X3125599Y18919999D01*
X3125599Y18719999D01*
X3126599Y18712999D01*
X3126599Y18701999D01*
X3122599Y18677999D01*
X3120599Y18672999D01*
X3116599Y18660999D01*
X3113599Y18655999D01*
X3111599Y18650999D01*
X3107599Y18645999D01*
X3104599Y18640999D01*
X3100599Y18635999D01*
X3097599Y18631999D01*
X3093599Y18626999D01*
X3088599Y18622999D01*
X3084599Y18619999D01*
X3079599Y18615999D01*
X3074599Y18612999D01*
X3069599Y18608999D01*
X3064599Y18606999D01*
X3059599Y18603999D01*
X3047599Y18599999D01*
X3042599Y18597999D01*
X3030599Y18595999D01*
X3025599Y18594999D01*
X2561599Y18594999D01*
X2555599Y18595999D01*
X2548599Y18596999D01*
X2542599Y18598999D01*
X2535599Y18600999D01*
X2523599Y18604999D01*
X2505599Y18613999D01*
X2499599Y18617999D01*
X2489599Y18625999D01*
X2479599Y18635999D01*
X2467599Y18650999D01*
X2463599Y18656999D01*
X2454599Y18674999D01*
X2450599Y18686999D01*
X2448599Y18693999D01*
X2447599Y18699999D01*
X2445599Y18713999D01*
X2445599Y18925999D01*
X2447599Y18939999D01*
X2448599Y18945999D01*
X2450599Y18952999D01*
X2454599Y18964999D01*
X2463599Y18982999D01*
X2467599Y18988999D01*
X2479599Y19003999D01*
X2489599Y19013999D01*
X2499599Y19021999D01*
X2505599Y19025999D01*
X2523599Y19034999D01*
X2535599Y19038999D01*
X2542599Y19040999D01*
X2548599Y19042999D01*
X2555599Y19043999D01*
X2561599Y19044999D01*
X3025599Y19044999D01*
X3030599Y19043999D01*
X3025599Y19094999D02*
X2575599Y19094999D01*
X2575599Y19094999D02*
X2568599Y19094999D01*
X2568599Y19094999D02*
X2561599Y19094999D01*
X2561599Y19094999D02*
X2555599Y19095999D01*
X2555599Y19095999D02*
X2548599Y19096999D01*
X2548599Y19096999D02*
X2542599Y19098999D01*
X2542599Y19098999D02*
X2535599Y19100999D01*
X2535599Y19100999D02*
X2529599Y19102999D01*
X2529599Y19102999D02*
X2523599Y19104999D01*
X2523599Y19104999D02*
X2517599Y19107999D01*
X2517599Y19107999D02*
X2511599Y19110999D01*
X2511599Y19110999D02*
X2505599Y19113999D01*
X2505599Y19113999D02*
X2499599Y19117999D01*
X2499599Y19117999D02*
X2494599Y19121999D01*
X2494599Y19121999D02*
X2489599Y19125999D01*
X2489599Y19125999D02*
X2484599Y19130999D01*
X2484599Y19130999D02*
X2479599Y19135999D01*
X2479599Y19135999D02*
X2475599Y19140999D01*
X2475599Y19140999D02*
X2471599Y19145999D01*
X2471599Y19145999D02*
X2467599Y19150999D01*
X2467599Y19150999D02*
X2463599Y19156999D01*
X2463599Y19156999D02*
X2460599Y19162999D01*
X2460599Y19162999D02*
X2457599Y19168999D01*
X2457599Y19168999D02*
X2454599Y19174999D01*
X2454599Y19174999D02*
X2452599Y19180999D01*
X2452599Y19180999D02*
X2450599Y19186999D01*
X2450599Y19186999D02*
X2448599Y19193999D01*
X2448599Y19193999D02*
X2447599Y19199999D01*
X2447599Y19199999D02*
X2446599Y19206999D01*
X2446599Y19206999D02*
X2445599Y19213999D01*
X2445599Y19213999D02*
X2445599Y19219999D01*
X2445599Y19219999D02*
X2445599Y19419999D01*
X2445599Y19419999D02*
X2445599Y19425999D01*
X2445599Y19425999D02*
X2446599Y19432999D01*
X2446599Y19432999D02*
X2447599Y19439999D01*
X2447599Y19439999D02*
X2448599Y19445999D01*
X2448599Y19445999D02*
X2450599Y19452999D01*
X2450599Y19452999D02*
X2452599Y19458999D01*
X2452599Y19458999D02*
X2454599Y19464999D01*
X2454599Y19464999D02*
X2457599Y19470999D01*
X2457599Y19470999D02*
X2460599Y19476999D01*
X2460599Y19476999D02*
X2463599Y19482999D01*
X2463599Y19482999D02*
X2467599Y19488999D01*
X2467599Y19488999D02*
X2471599Y19493999D01*
X2471599Y19493999D02*
X2475599Y19498999D01*
X2475599Y19498999D02*
X2479599Y19503999D01*
X2479599Y19503999D02*
X2484599Y19508999D01*
X2484599Y19508999D02*
X2489599Y19513999D01*
X2489599Y19513999D02*
X2494599Y19517999D01*
X2494599Y19517999D02*
X2499599Y19521999D01*
X2499599Y19521999D02*
X2505599Y19525999D01*
X2505599Y19525999D02*
X2511599Y19528999D01*
X2511599Y19528999D02*
X2517599Y19531999D01*
X2517599Y19531999D02*
X2523599Y19534999D01*
X2523599Y19534999D02*
X2529599Y19536999D01*
X2529599Y19536999D02*
X2535599Y19538999D01*
X2535599Y19538999D02*
X2542599Y19540999D01*
X2542599Y19540999D02*
X2548599Y19542999D01*
X2548599Y19542999D02*
X2555599Y19543999D01*
X2555599Y19543999D02*
X2561599Y19544999D01*
X2561599Y19544999D02*
X2568599Y19544999D01*
X2568599Y19544999D02*
X2575599Y19544999D01*
X2575599Y19544999D02*
X3025599Y19544999D01*
X3025599Y19544999D02*
X3030599Y19543999D01*
X3030599Y19543999D02*
X3036599Y19542999D01*
X3036599Y19542999D02*
X3042599Y19541999D01*
X3042599Y19541999D02*
X3047599Y19539999D01*
X3047599Y19539999D02*
X3053599Y19537999D01*
X3053599Y19537999D02*
X3059599Y19535999D01*
X3059599Y19535999D02*
X3064599Y19532999D01*
X3064599Y19532999D02*
X3069599Y19530999D01*
X3069599Y19530999D02*
X3074599Y19526999D01*
X3074599Y19526999D02*
X3079599Y19523999D01*
X3079599Y19523999D02*
X3084599Y19519999D01*
X3084599Y19519999D02*
X3088599Y19516999D01*
X3088599Y19516999D02*
X3093599Y19512999D01*
X3093599Y19512999D02*
X3097599Y19507999D01*
X3097599Y19507999D02*
X3100599Y19503999D01*
X3100599Y19503999D02*
X3104599Y19498999D01*
X3104599Y19498999D02*
X3107599Y19493999D01*
X3107599Y19493999D02*
X3111599Y19488999D01*
X3111599Y19488999D02*
X3113599Y19483999D01*
X3113599Y19483999D02*
X3116599Y19478999D01*
X3116599Y19478999D02*
X3118599Y19472999D01*
X3118599Y19472999D02*
X3120599Y19466999D01*
X3120599Y19466999D02*
X3122599Y19461999D01*
X3122599Y19461999D02*
X3123599Y19455999D01*
X3123599Y19455999D02*
X3124599Y19449999D01*
X3124599Y19449999D02*
X3125599Y19443999D01*
X3125599Y19443999D02*
X3126599Y19437999D01*
X3126599Y19437999D02*
X3126599Y19431999D01*
X3126599Y19431999D02*
X3126599Y19426999D01*
X3126599Y19426999D02*
X3125599Y19419999D01*
X3125599Y19419999D02*
X3125599Y19219999D01*
X3125599Y19219999D02*
X3126599Y19212999D01*
X3126599Y19212999D02*
X3126599Y19206999D01*
X3126599Y19206999D02*
X3126599Y19201999D01*
X3126599Y19201999D02*
X3125599Y19195999D01*
X3125599Y19195999D02*
X3124599Y19189999D01*
X3124599Y19189999D02*
X3123599Y19183999D01*
X3123599Y19183999D02*
X3122599Y19177999D01*
X3122599Y19177999D02*
X3120599Y19172999D01*
X3120599Y19172999D02*
X3118599Y19166999D01*
X3118599Y19166999D02*
X3116599Y19160999D01*
X3116599Y19160999D02*
X3113599Y19155999D01*
X3113599Y19155999D02*
X3111599Y19150999D01*
X3111599Y19150999D02*
X3107599Y19145999D01*
X3107599Y19145999D02*
X3104599Y19140999D01*
X3104599Y19140999D02*
X3100599Y19135999D01*
X3100599Y19135999D02*
X3097599Y19131999D01*
X3097599Y19131999D02*
X3093599Y19126999D01*
X3093599Y19126999D02*
X3088599Y19122999D01*
X3088599Y19122999D02*
X3084599Y19119999D01*
X3084599Y19119999D02*
X3079599Y19115999D01*
X3079599Y19115999D02*
X3074599Y19112999D01*
X3074599Y19112999D02*
X3069599Y19108999D01*
X3069599Y19108999D02*
X3064599Y19106999D01*
X3064599Y19106999D02*
X3059599Y19103999D01*
X3059599Y19103999D02*
X3053599Y19101999D01*
X3053599Y19101999D02*
X3047599Y19099999D01*
X3047599Y19099999D02*
X3042599Y19097999D01*
X3042599Y19097999D02*
X3036599Y19096999D01*
X3036599Y19096999D02*
X3030599Y19095999D01*
X3030599Y19095999D02*
X3025599Y19094999D01*
X3025599Y19094999D02*
X3025599Y19094999D01*
G36*
X3030599Y19543999D02*
G01*
X3042599Y19541999D01*
X3047599Y19539999D01*
X3059599Y19535999D01*
X3064599Y19532999D01*
X3069599Y19530999D01*
X3074599Y19526999D01*
X3079599Y19523999D01*
X3084599Y19519999D01*
X3088599Y19516999D01*
X3093599Y19512999D01*
X3097599Y19507999D01*
X3100599Y19503999D01*
X3104599Y19498999D01*
X3107599Y19493999D01*
X3111599Y19488999D01*
X3113599Y19483999D01*
X3116599Y19478999D01*
X3120599Y19466999D01*
X3122599Y19461999D01*
X3126599Y19437999D01*
X3126599Y19426999D01*
X3125599Y19419999D01*
X3125599Y19219999D01*
X3126599Y19212999D01*
X3126599Y19201999D01*
X3122599Y19177999D01*
X3120599Y19172999D01*
X3116599Y19160999D01*
X3113599Y19155999D01*
X3111599Y19150999D01*
X3107599Y19145999D01*
X3104599Y19140999D01*
X3100599Y19135999D01*
X3097599Y19131999D01*
X3093599Y19126999D01*
X3088599Y19122999D01*
X3084599Y19119999D01*
X3079599Y19115999D01*
X3074599Y19112999D01*
X3069599Y19108999D01*
X3064599Y19106999D01*
X3059599Y19103999D01*
X3047599Y19099999D01*
X3042599Y19097999D01*
X3030599Y19095999D01*
X3025599Y19094999D01*
X2561599Y19094999D01*
X2555599Y19095999D01*
X2548599Y19096999D01*
X2542599Y19098999D01*
X2535599Y19100999D01*
X2523599Y19104999D01*
X2505599Y19113999D01*
X2499599Y19117999D01*
X2489599Y19125999D01*
X2479599Y19135999D01*
X2467599Y19150999D01*
X2463599Y19156999D01*
X2454599Y19174999D01*
X2450599Y19186999D01*
X2448599Y19193999D01*
X2447599Y19199999D01*
X2445599Y19213999D01*
X2445599Y19425999D01*
X2447599Y19439999D01*
X2448599Y19445999D01*
X2450599Y19452999D01*
X2454599Y19464999D01*
X2463599Y19482999D01*
X2467599Y19488999D01*
X2479599Y19503999D01*
X2489599Y19513999D01*
X2499599Y19521999D01*
X2505599Y19525999D01*
X2523599Y19534999D01*
X2535599Y19538999D01*
X2542599Y19540999D01*
X2548599Y19542999D01*
X2555599Y19543999D01*
X2561599Y19544999D01*
X3025599Y19544999D01*
X3030599Y19543999D01*
G37*
X3030599Y19543999D02*
X3042599Y19541999D01*
X3047599Y19539999D01*
X3059599Y19535999D01*
X3064599Y19532999D01*
X3069599Y19530999D01*
X3074599Y19526999D01*
X3079599Y19523999D01*
X3084599Y19519999D01*
X3088599Y19516999D01*
X3093599Y19512999D01*
X3097599Y19507999D01*
X3100599Y19503999D01*
X3104599Y19498999D01*
X3107599Y19493999D01*
X3111599Y19488999D01*
X3113599Y19483999D01*
X3116599Y19478999D01*
X3120599Y19466999D01*
X3122599Y19461999D01*
X3126599Y19437999D01*
X3126599Y19426999D01*
X3125599Y19419999D01*
X3125599Y19219999D01*
X3126599Y19212999D01*
X3126599Y19201999D01*
X3122599Y19177999D01*
X3120599Y19172999D01*
X3116599Y19160999D01*
X3113599Y19155999D01*
X3111599Y19150999D01*
X3107599Y19145999D01*
X3104599Y19140999D01*
X3100599Y19135999D01*
X3097599Y19131999D01*
X3093599Y19126999D01*
X3088599Y19122999D01*
X3084599Y19119999D01*
X3079599Y19115999D01*
X3074599Y19112999D01*
X3069599Y19108999D01*
X3064599Y19106999D01*
X3059599Y19103999D01*
X3047599Y19099999D01*
X3042599Y19097999D01*
X3030599Y19095999D01*
X3025599Y19094999D01*
X2561599Y19094999D01*
X2555599Y19095999D01*
X2548599Y19096999D01*
X2542599Y19098999D01*
X2535599Y19100999D01*
X2523599Y19104999D01*
X2505599Y19113999D01*
X2499599Y19117999D01*
X2489599Y19125999D01*
X2479599Y19135999D01*
X2467599Y19150999D01*
X2463599Y19156999D01*
X2454599Y19174999D01*
X2450599Y19186999D01*
X2448599Y19193999D01*
X2447599Y19199999D01*
X2445599Y19213999D01*
X2445599Y19425999D01*
X2447599Y19439999D01*
X2448599Y19445999D01*
X2450599Y19452999D01*
X2454599Y19464999D01*
X2463599Y19482999D01*
X2467599Y19488999D01*
X2479599Y19503999D01*
X2489599Y19513999D01*
X2499599Y19521999D01*
X2505599Y19525999D01*
X2523599Y19534999D01*
X2535599Y19538999D01*
X2542599Y19540999D01*
X2548599Y19542999D01*
X2555599Y19543999D01*
X2561599Y19544999D01*
X3025599Y19544999D01*
X3030599Y19543999D01*
X3025599Y19594999D02*
X2575599Y19594999D01*
X2575599Y19594999D02*
X2568599Y19594999D01*
X2568599Y19594999D02*
X2561599Y19594999D01*
X2561599Y19594999D02*
X2555599Y19595999D01*
X2555599Y19595999D02*
X2548599Y19596999D01*
X2548599Y19596999D02*
X2542599Y19598999D01*
X2542599Y19598999D02*
X2535599Y19600999D01*
X2535599Y19600999D02*
X2529599Y19602999D01*
X2529599Y19602999D02*
X2523599Y19604999D01*
X2523599Y19604999D02*
X2517599Y19607999D01*
X2517599Y19607999D02*
X2511599Y19610999D01*
X2511599Y19610999D02*
X2505599Y19613999D01*
X2505599Y19613999D02*
X2499599Y19617999D01*
X2499599Y19617999D02*
X2494599Y19621999D01*
X2494599Y19621999D02*
X2489599Y19625999D01*
X2489599Y19625999D02*
X2484599Y19630999D01*
X2484599Y19630999D02*
X2479599Y19635999D01*
X2479599Y19635999D02*
X2475599Y19640999D01*
X2475599Y19640999D02*
X2471599Y19645999D01*
X2471599Y19645999D02*
X2467599Y19650999D01*
X2467599Y19650999D02*
X2463599Y19656999D01*
X2463599Y19656999D02*
X2460599Y19662999D01*
X2460599Y19662999D02*
X2457599Y19668999D01*
X2457599Y19668999D02*
X2454599Y19674999D01*
X2454599Y19674999D02*
X2452599Y19680999D01*
X2452599Y19680999D02*
X2450599Y19686999D01*
X2450599Y19686999D02*
X2448599Y19693999D01*
X2448599Y19693999D02*
X2447599Y19699999D01*
X2447599Y19699999D02*
X2446599Y19706999D01*
X2446599Y19706999D02*
X2445599Y19713999D01*
X2445599Y19713999D02*
X2445599Y19719999D01*
X2445599Y19719999D02*
X2445599Y19919999D01*
X2445599Y19919999D02*
X2445599Y19925999D01*
X2445599Y19925999D02*
X2446599Y19932999D01*
X2446599Y19932999D02*
X2447599Y19939999D01*
X2447599Y19939999D02*
X2448599Y19945999D01*
X2448599Y19945999D02*
X2450599Y19952999D01*
X2450599Y19952999D02*
X2452599Y19958999D01*
X2452599Y19958999D02*
X2454599Y19964999D01*
X2454599Y19964999D02*
X2457599Y19970999D01*
X2457599Y19970999D02*
X2460599Y19976999D01*
X2460599Y19976999D02*
X2463599Y19982999D01*
X2463599Y19982999D02*
X2467599Y19988999D01*
X2467599Y19988999D02*
X2471599Y19993999D01*
X2471599Y19993999D02*
X2475599Y19998999D01*
X2475599Y19998999D02*
X2479599Y20003999D01*
X2479599Y20003999D02*
X2484599Y20008999D01*
X2484599Y20008999D02*
X2489599Y20013999D01*
X2489599Y20013999D02*
X2494599Y20017999D01*
X2494599Y20017999D02*
X2499599Y20021999D01*
X2499599Y20021999D02*
X2505599Y20025999D01*
X2505599Y20025999D02*
X2511599Y20028999D01*
X2511599Y20028999D02*
X2517599Y20031999D01*
X2517599Y20031999D02*
X2523599Y20034999D01*
X2523599Y20034999D02*
X2529599Y20036999D01*
X2529599Y20036999D02*
X2535599Y20038999D01*
X2535599Y20038999D02*
X2542599Y20040999D01*
X2542599Y20040999D02*
X2548599Y20042999D01*
X2548599Y20042999D02*
X2555599Y20043999D01*
X2555599Y20043999D02*
X2561599Y20044999D01*
X2561599Y20044999D02*
X2568599Y20044999D01*
X2568599Y20044999D02*
X2575599Y20044999D01*
X2575599Y20044999D02*
X3025599Y20044999D01*
X3025599Y20044999D02*
X3030599Y20043999D01*
X3030599Y20043999D02*
X3036599Y20042999D01*
X3036599Y20042999D02*
X3042599Y20041999D01*
X3042599Y20041999D02*
X3047599Y20039999D01*
X3047599Y20039999D02*
X3053599Y20037999D01*
X3053599Y20037999D02*
X3059599Y20035999D01*
X3059599Y20035999D02*
X3064599Y20032999D01*
X3064599Y20032999D02*
X3069599Y20030999D01*
X3069599Y20030999D02*
X3074599Y20026999D01*
X3074599Y20026999D02*
X3079599Y20023999D01*
X3079599Y20023999D02*
X3084599Y20019999D01*
X3084599Y20019999D02*
X3088599Y20016999D01*
X3088599Y20016999D02*
X3093599Y20012999D01*
X3093599Y20012999D02*
X3097599Y20007999D01*
X3097599Y20007999D02*
X3100599Y20003999D01*
X3100599Y20003999D02*
X3104599Y19998999D01*
X3104599Y19998999D02*
X3107599Y19993999D01*
X3107599Y19993999D02*
X3111599Y19988999D01*
X3111599Y19988999D02*
X3113599Y19983999D01*
X3113599Y19983999D02*
X3116599Y19978999D01*
X3116599Y19978999D02*
X3118599Y19972999D01*
X3118599Y19972999D02*
X3120599Y19966999D01*
X3120599Y19966999D02*
X3122599Y19961999D01*
X3122599Y19961999D02*
X3123599Y19955999D01*
X3123599Y19955999D02*
X3124599Y19949999D01*
X3124599Y19949999D02*
X3125599Y19943999D01*
X3125599Y19943999D02*
X3126599Y19937999D01*
X3126599Y19937999D02*
X3126599Y19931999D01*
X3126599Y19931999D02*
X3126599Y19926999D01*
X3126599Y19926999D02*
X3125599Y19919999D01*
X3125599Y19919999D02*
X3125599Y19719999D01*
X3125599Y19719999D02*
X3126599Y19712999D01*
X3126599Y19712999D02*
X3126599Y19707999D01*
X3126599Y19707999D02*
X3126599Y19701999D01*
X3126599Y19701999D02*
X3125599Y19695999D01*
X3125599Y19695999D02*
X3124599Y19689999D01*
X3124599Y19689999D02*
X3123599Y19683999D01*
X3123599Y19683999D02*
X3122599Y19677999D01*
X3122599Y19677999D02*
X3120599Y19672999D01*
X3120599Y19672999D02*
X3118599Y19666999D01*
X3118599Y19666999D02*
X3116599Y19660999D01*
X3116599Y19660999D02*
X3113599Y19655999D01*
X3113599Y19655999D02*
X3111599Y19650999D01*
X3111599Y19650999D02*
X3107599Y19645999D01*
X3107599Y19645999D02*
X3104599Y19640999D01*
X3104599Y19640999D02*
X3100599Y19635999D01*
X3100599Y19635999D02*
X3097599Y19631999D01*
X3097599Y19631999D02*
X3093599Y19626999D01*
X3093599Y19626999D02*
X3088599Y19622999D01*
X3088599Y19622999D02*
X3084599Y19619999D01*
X3084599Y19619999D02*
X3079599Y19615999D01*
X3079599Y19615999D02*
X3074599Y19612999D01*
X3074599Y19612999D02*
X3069599Y19608999D01*
X3069599Y19608999D02*
X3064599Y19606999D01*
X3064599Y19606999D02*
X3059599Y19603999D01*
X3059599Y19603999D02*
X3053599Y19601999D01*
X3053599Y19601999D02*
X3047599Y19599999D01*
X3047599Y19599999D02*
X3042599Y19597999D01*
X3042599Y19597999D02*
X3036599Y19596999D01*
X3036599Y19596999D02*
X3030599Y19595999D01*
X3030599Y19595999D02*
X3025599Y19594999D01*
X3025599Y19594999D02*
X3025599Y19594999D01*
G36*
X3030599Y20043999D02*
G01*
X3042599Y20041999D01*
X3047599Y20039999D01*
X3059599Y20035999D01*
X3064599Y20032999D01*
X3069599Y20030999D01*
X3074599Y20026999D01*
X3079599Y20023999D01*
X3084599Y20019999D01*
X3088599Y20016999D01*
X3093599Y20012999D01*
X3097599Y20007999D01*
X3100599Y20003999D01*
X3104599Y19998999D01*
X3107599Y19993999D01*
X3111599Y19988999D01*
X3113599Y19983999D01*
X3116599Y19978999D01*
X3120599Y19966999D01*
X3122599Y19961999D01*
X3126599Y19937999D01*
X3126599Y19926999D01*
X3125599Y19919999D01*
X3125599Y19719999D01*
X3126599Y19712999D01*
X3126599Y19701999D01*
X3122599Y19677999D01*
X3120599Y19672999D01*
X3116599Y19660999D01*
X3113599Y19655999D01*
X3111599Y19650999D01*
X3107599Y19645999D01*
X3104599Y19640999D01*
X3100599Y19635999D01*
X3097599Y19631999D01*
X3093599Y19626999D01*
X3088599Y19622999D01*
X3084599Y19619999D01*
X3079599Y19615999D01*
X3074599Y19612999D01*
X3069599Y19608999D01*
X3064599Y19606999D01*
X3059599Y19603999D01*
X3047599Y19599999D01*
X3042599Y19597999D01*
X3030599Y19595999D01*
X3025599Y19594999D01*
X2561599Y19594999D01*
X2555599Y19595999D01*
X2548599Y19596999D01*
X2542599Y19598999D01*
X2535599Y19600999D01*
X2523599Y19604999D01*
X2505599Y19613999D01*
X2499599Y19617999D01*
X2489599Y19625999D01*
X2479599Y19635999D01*
X2467599Y19650999D01*
X2463599Y19656999D01*
X2454599Y19674999D01*
X2450599Y19686999D01*
X2448599Y19693999D01*
X2447599Y19699999D01*
X2445599Y19713999D01*
X2445599Y19925999D01*
X2447599Y19939999D01*
X2448599Y19945999D01*
X2450599Y19952999D01*
X2454599Y19964999D01*
X2463599Y19982999D01*
X2467599Y19988999D01*
X2479599Y20003999D01*
X2489599Y20013999D01*
X2499599Y20021999D01*
X2505599Y20025999D01*
X2523599Y20034999D01*
X2535599Y20038999D01*
X2542599Y20040999D01*
X2548599Y20042999D01*
X2555599Y20043999D01*
X2561599Y20044999D01*
X3025599Y20044999D01*
X3030599Y20043999D01*
G37*
X3030599Y20043999D02*
X3042599Y20041999D01*
X3047599Y20039999D01*
X3059599Y20035999D01*
X3064599Y20032999D01*
X3069599Y20030999D01*
X3074599Y20026999D01*
X3079599Y20023999D01*
X3084599Y20019999D01*
X3088599Y20016999D01*
X3093599Y20012999D01*
X3097599Y20007999D01*
X3100599Y20003999D01*
X3104599Y19998999D01*
X3107599Y19993999D01*
X3111599Y19988999D01*
X3113599Y19983999D01*
X3116599Y19978999D01*
X3120599Y19966999D01*
X3122599Y19961999D01*
X3126599Y19937999D01*
X3126599Y19926999D01*
X3125599Y19919999D01*
X3125599Y19719999D01*
X3126599Y19712999D01*
X3126599Y19701999D01*
X3122599Y19677999D01*
X3120599Y19672999D01*
X3116599Y19660999D01*
X3113599Y19655999D01*
X3111599Y19650999D01*
X3107599Y19645999D01*
X3104599Y19640999D01*
X3100599Y19635999D01*
X3097599Y19631999D01*
X3093599Y19626999D01*
X3088599Y19622999D01*
X3084599Y19619999D01*
X3079599Y19615999D01*
X3074599Y19612999D01*
X3069599Y19608999D01*
X3064599Y19606999D01*
X3059599Y19603999D01*
X3047599Y19599999D01*
X3042599Y19597999D01*
X3030599Y19595999D01*
X3025599Y19594999D01*
X2561599Y19594999D01*
X2555599Y19595999D01*
X2548599Y19596999D01*
X2542599Y19598999D01*
X2535599Y19600999D01*
X2523599Y19604999D01*
X2505599Y19613999D01*
X2499599Y19617999D01*
X2489599Y19625999D01*
X2479599Y19635999D01*
X2467599Y19650999D01*
X2463599Y19656999D01*
X2454599Y19674999D01*
X2450599Y19686999D01*
X2448599Y19693999D01*
X2447599Y19699999D01*
X2445599Y19713999D01*
X2445599Y19925999D01*
X2447599Y19939999D01*
X2448599Y19945999D01*
X2450599Y19952999D01*
X2454599Y19964999D01*
X2463599Y19982999D01*
X2467599Y19988999D01*
X2479599Y20003999D01*
X2489599Y20013999D01*
X2499599Y20021999D01*
X2505599Y20025999D01*
X2523599Y20034999D01*
X2535599Y20038999D01*
X2542599Y20040999D01*
X2548599Y20042999D01*
X2555599Y20043999D01*
X2561599Y20044999D01*
X3025599Y20044999D01*
X3030599Y20043999D01*
X3025599Y21594999D02*
X2575599Y21594999D01*
X2575599Y21594999D02*
X2568599Y21594999D01*
X2568599Y21594999D02*
X2561599Y21594999D01*
X2561599Y21594999D02*
X2555599Y21595999D01*
X2555599Y21595999D02*
X2548599Y21596999D01*
X2548599Y21596999D02*
X2542599Y21598999D01*
X2542599Y21598999D02*
X2535599Y21600999D01*
X2535599Y21600999D02*
X2529599Y21602999D01*
X2529599Y21602999D02*
X2523599Y21604999D01*
X2523599Y21604999D02*
X2517599Y21607999D01*
X2517599Y21607999D02*
X2511599Y21610999D01*
X2511599Y21610999D02*
X2505599Y21613999D01*
X2505599Y21613999D02*
X2499599Y21617999D01*
X2499599Y21617999D02*
X2494599Y21621999D01*
X2494599Y21621999D02*
X2489599Y21625999D01*
X2489599Y21625999D02*
X2484599Y21630999D01*
X2484599Y21630999D02*
X2479599Y21635999D01*
X2479599Y21635999D02*
X2475599Y21640999D01*
X2475599Y21640999D02*
X2471599Y21645999D01*
X2471599Y21645999D02*
X2467599Y21650999D01*
X2467599Y21650999D02*
X2463599Y21656999D01*
X2463599Y21656999D02*
X2460599Y21662999D01*
X2460599Y21662999D02*
X2457599Y21668999D01*
X2457599Y21668999D02*
X2454599Y21674999D01*
X2454599Y21674999D02*
X2452599Y21680999D01*
X2452599Y21680999D02*
X2450599Y21686999D01*
X2450599Y21686999D02*
X2448599Y21693999D01*
X2448599Y21693999D02*
X2447599Y21699999D01*
X2447599Y21699999D02*
X2446599Y21706999D01*
X2446599Y21706999D02*
X2445599Y21713999D01*
X2445599Y21713999D02*
X2445599Y21719999D01*
X2445599Y21719999D02*
X2445599Y21919999D01*
X2445599Y21919999D02*
X2445599Y21925999D01*
X2445599Y21925999D02*
X2446599Y21932999D01*
X2446599Y21932999D02*
X2447599Y21939999D01*
X2447599Y21939999D02*
X2448599Y21945999D01*
X2448599Y21945999D02*
X2450599Y21952999D01*
X2450599Y21952999D02*
X2452599Y21958999D01*
X2452599Y21958999D02*
X2454599Y21964999D01*
X2454599Y21964999D02*
X2457599Y21970999D01*
X2457599Y21970999D02*
X2460599Y21976999D01*
X2460599Y21976999D02*
X2463599Y21982999D01*
X2463599Y21982999D02*
X2467599Y21988999D01*
X2467599Y21988999D02*
X2471599Y21993999D01*
X2471599Y21993999D02*
X2475599Y21998999D01*
X2475599Y21998999D02*
X2479599Y22003999D01*
X2479599Y22003999D02*
X2484599Y22008999D01*
X2484599Y22008999D02*
X2489599Y22013999D01*
X2489599Y22013999D02*
X2494599Y22017999D01*
X2494599Y22017999D02*
X2499599Y22021999D01*
X2499599Y22021999D02*
X2505599Y22025999D01*
X2505599Y22025999D02*
X2511599Y22028999D01*
X2511599Y22028999D02*
X2517599Y22031999D01*
X2517599Y22031999D02*
X2523599Y22034999D01*
X2523599Y22034999D02*
X2529599Y22036999D01*
X2529599Y22036999D02*
X2535599Y22038999D01*
X2535599Y22038999D02*
X2542599Y22040999D01*
X2542599Y22040999D02*
X2548599Y22042999D01*
X2548599Y22042999D02*
X2555599Y22043999D01*
X2555599Y22043999D02*
X2561599Y22044999D01*
X2561599Y22044999D02*
X2568599Y22044999D01*
X2568599Y22044999D02*
X2575599Y22044999D01*
X2575599Y22044999D02*
X3025599Y22044999D01*
X3025599Y22044999D02*
X3030599Y22043999D01*
X3030599Y22043999D02*
X3036599Y22042999D01*
X3036599Y22042999D02*
X3042599Y22041999D01*
X3042599Y22041999D02*
X3047599Y22039999D01*
X3047599Y22039999D02*
X3053599Y22037999D01*
X3053599Y22037999D02*
X3059599Y22035999D01*
X3059599Y22035999D02*
X3064599Y22032999D01*
X3064599Y22032999D02*
X3069599Y22030999D01*
X3069599Y22030999D02*
X3074599Y22026999D01*
X3074599Y22026999D02*
X3079599Y22023999D01*
X3079599Y22023999D02*
X3084599Y22019999D01*
X3084599Y22019999D02*
X3088599Y22016999D01*
X3088599Y22016999D02*
X3093599Y22012999D01*
X3093599Y22012999D02*
X3097599Y22007999D01*
X3097599Y22007999D02*
X3100599Y22003999D01*
X3100599Y22003999D02*
X3104599Y21998999D01*
X3104599Y21998999D02*
X3107599Y21993999D01*
X3107599Y21993999D02*
X3111599Y21988999D01*
X3111599Y21988999D02*
X3113599Y21983999D01*
X3113599Y21983999D02*
X3116599Y21978999D01*
X3116599Y21978999D02*
X3118599Y21972999D01*
X3118599Y21972999D02*
X3120599Y21966999D01*
X3120599Y21966999D02*
X3122599Y21961999D01*
X3122599Y21961999D02*
X3123599Y21955999D01*
X3123599Y21955999D02*
X3124599Y21949999D01*
X3124599Y21949999D02*
X3125599Y21943999D01*
X3125599Y21943999D02*
X3126599Y21937999D01*
X3126599Y21937999D02*
X3126599Y21932999D01*
X3126599Y21932999D02*
X3126599Y21926999D01*
X3126599Y21926999D02*
X3125599Y21919999D01*
X3125599Y21919999D02*
X3125599Y21719999D01*
X3125599Y21719999D02*
X3126599Y21712999D01*
X3126599Y21712999D02*
X3126599Y21706999D01*
X3126599Y21706999D02*
X3126599Y21701999D01*
X3126599Y21701999D02*
X3125599Y21695999D01*
X3125599Y21695999D02*
X3124599Y21689999D01*
X3124599Y21689999D02*
X3123599Y21683999D01*
X3123599Y21683999D02*
X3122599Y21677999D01*
X3122599Y21677999D02*
X3120599Y21672999D01*
X3120599Y21672999D02*
X3118599Y21666999D01*
X3118599Y21666999D02*
X3116599Y21660999D01*
X3116599Y21660999D02*
X3113599Y21655999D01*
X3113599Y21655999D02*
X3111599Y21650999D01*
X3111599Y21650999D02*
X3107599Y21645999D01*
X3107599Y21645999D02*
X3104599Y21640999D01*
X3104599Y21640999D02*
X3100599Y21635999D01*
X3100599Y21635999D02*
X3097599Y21631999D01*
X3097599Y21631999D02*
X3093599Y21626999D01*
X3093599Y21626999D02*
X3088599Y21622999D01*
X3088599Y21622999D02*
X3084599Y21619999D01*
X3084599Y21619999D02*
X3079599Y21615999D01*
X3079599Y21615999D02*
X3074599Y21612999D01*
X3074599Y21612999D02*
X3069599Y21608999D01*
X3069599Y21608999D02*
X3064599Y21606999D01*
X3064599Y21606999D02*
X3059599Y21603999D01*
X3059599Y21603999D02*
X3053599Y21601999D01*
X3053599Y21601999D02*
X3047599Y21599999D01*
X3047599Y21599999D02*
X3042599Y21597999D01*
X3042599Y21597999D02*
X3036599Y21596999D01*
X3036599Y21596999D02*
X3030599Y21595999D01*
X3030599Y21595999D02*
X3025599Y21594999D01*
X3025599Y21594999D02*
X3025599Y21594999D01*
G36*
X3030599Y22043999D02*
G01*
X3042599Y22041999D01*
X3047599Y22039999D01*
X3059599Y22035999D01*
X3064599Y22032999D01*
X3069599Y22030999D01*
X3074599Y22026999D01*
X3079599Y22023999D01*
X3084599Y22019999D01*
X3088599Y22016999D01*
X3093599Y22012999D01*
X3097599Y22007999D01*
X3100599Y22003999D01*
X3104599Y21998999D01*
X3107599Y21993999D01*
X3111599Y21988999D01*
X3113599Y21983999D01*
X3116599Y21978999D01*
X3120599Y21966999D01*
X3122599Y21961999D01*
X3126599Y21937999D01*
X3126599Y21926999D01*
X3125599Y21919999D01*
X3125599Y21719999D01*
X3126599Y21712999D01*
X3126599Y21701999D01*
X3122599Y21677999D01*
X3120599Y21672999D01*
X3116599Y21660999D01*
X3113599Y21655999D01*
X3111599Y21650999D01*
X3107599Y21645999D01*
X3104599Y21640999D01*
X3100599Y21635999D01*
X3097599Y21631999D01*
X3093599Y21626999D01*
X3088599Y21622999D01*
X3084599Y21619999D01*
X3079599Y21615999D01*
X3074599Y21612999D01*
X3069599Y21608999D01*
X3064599Y21606999D01*
X3059599Y21603999D01*
X3047599Y21599999D01*
X3042599Y21597999D01*
X3030599Y21595999D01*
X3025599Y21594999D01*
X2561599Y21594999D01*
X2555599Y21595999D01*
X2548599Y21596999D01*
X2542599Y21598999D01*
X2535599Y21600999D01*
X2523599Y21604999D01*
X2505599Y21613999D01*
X2499599Y21617999D01*
X2489599Y21625999D01*
X2479599Y21635999D01*
X2467599Y21650999D01*
X2463599Y21656999D01*
X2454599Y21674999D01*
X2450599Y21686999D01*
X2448599Y21693999D01*
X2447599Y21699999D01*
X2445599Y21713999D01*
X2445599Y21925999D01*
X2447599Y21939999D01*
X2448599Y21945999D01*
X2450599Y21952999D01*
X2454599Y21964999D01*
X2463599Y21982999D01*
X2467599Y21988999D01*
X2479599Y22003999D01*
X2489599Y22013999D01*
X2499599Y22021999D01*
X2505599Y22025999D01*
X2523599Y22034999D01*
X2535599Y22038999D01*
X2542599Y22040999D01*
X2548599Y22042999D01*
X2555599Y22043999D01*
X2561599Y22044999D01*
X3025599Y22044999D01*
X3030599Y22043999D01*
G37*
X3030599Y22043999D02*
X3042599Y22041999D01*
X3047599Y22039999D01*
X3059599Y22035999D01*
X3064599Y22032999D01*
X3069599Y22030999D01*
X3074599Y22026999D01*
X3079599Y22023999D01*
X3084599Y22019999D01*
X3088599Y22016999D01*
X3093599Y22012999D01*
X3097599Y22007999D01*
X3100599Y22003999D01*
X3104599Y21998999D01*
X3107599Y21993999D01*
X3111599Y21988999D01*
X3113599Y21983999D01*
X3116599Y21978999D01*
X3120599Y21966999D01*
X3122599Y21961999D01*
X3126599Y21937999D01*
X3126599Y21926999D01*
X3125599Y21919999D01*
X3125599Y21719999D01*
X3126599Y21712999D01*
X3126599Y21701999D01*
X3122599Y21677999D01*
X3120599Y21672999D01*
X3116599Y21660999D01*
X3113599Y21655999D01*
X3111599Y21650999D01*
X3107599Y21645999D01*
X3104599Y21640999D01*
X3100599Y21635999D01*
X3097599Y21631999D01*
X3093599Y21626999D01*
X3088599Y21622999D01*
X3084599Y21619999D01*
X3079599Y21615999D01*
X3074599Y21612999D01*
X3069599Y21608999D01*
X3064599Y21606999D01*
X3059599Y21603999D01*
X3047599Y21599999D01*
X3042599Y21597999D01*
X3030599Y21595999D01*
X3025599Y21594999D01*
X2561599Y21594999D01*
X2555599Y21595999D01*
X2548599Y21596999D01*
X2542599Y21598999D01*
X2535599Y21600999D01*
X2523599Y21604999D01*
X2505599Y21613999D01*
X2499599Y21617999D01*
X2489599Y21625999D01*
X2479599Y21635999D01*
X2467599Y21650999D01*
X2463599Y21656999D01*
X2454599Y21674999D01*
X2450599Y21686999D01*
X2448599Y21693999D01*
X2447599Y21699999D01*
X2445599Y21713999D01*
X2445599Y21925999D01*
X2447599Y21939999D01*
X2448599Y21945999D01*
X2450599Y21952999D01*
X2454599Y21964999D01*
X2463599Y21982999D01*
X2467599Y21988999D01*
X2479599Y22003999D01*
X2489599Y22013999D01*
X2499599Y22021999D01*
X2505599Y22025999D01*
X2523599Y22034999D01*
X2535599Y22038999D01*
X2542599Y22040999D01*
X2548599Y22042999D01*
X2555599Y22043999D01*
X2561599Y22044999D01*
X3025599Y22044999D01*
X3030599Y22043999D01*
X3025599Y21094999D02*
X2575599Y21094999D01*
X2575599Y21094999D02*
X2568599Y21094999D01*
X2568599Y21094999D02*
X2561599Y21094999D01*
X2561599Y21094999D02*
X2555599Y21095999D01*
X2555599Y21095999D02*
X2548599Y21096999D01*
X2548599Y21096999D02*
X2542599Y21098999D01*
X2542599Y21098999D02*
X2535599Y21100999D01*
X2535599Y21100999D02*
X2529599Y21102999D01*
X2529599Y21102999D02*
X2523599Y21104999D01*
X2523599Y21104999D02*
X2517599Y21107999D01*
X2517599Y21107999D02*
X2511599Y21110999D01*
X2511599Y21110999D02*
X2505599Y21113999D01*
X2505599Y21113999D02*
X2499599Y21117999D01*
X2499599Y21117999D02*
X2494599Y21121999D01*
X2494599Y21121999D02*
X2489599Y21125999D01*
X2489599Y21125999D02*
X2484599Y21130999D01*
X2484599Y21130999D02*
X2479599Y21135999D01*
X2479599Y21135999D02*
X2475599Y21140999D01*
X2475599Y21140999D02*
X2471599Y21145999D01*
X2471599Y21145999D02*
X2467599Y21150999D01*
X2467599Y21150999D02*
X2463599Y21156999D01*
X2463599Y21156999D02*
X2460599Y21162999D01*
X2460599Y21162999D02*
X2457599Y21168999D01*
X2457599Y21168999D02*
X2454599Y21174999D01*
X2454599Y21174999D02*
X2452599Y21180999D01*
X2452599Y21180999D02*
X2450599Y21186999D01*
X2450599Y21186999D02*
X2448599Y21193999D01*
X2448599Y21193999D02*
X2447599Y21199999D01*
X2447599Y21199999D02*
X2446599Y21206999D01*
X2446599Y21206999D02*
X2445599Y21213999D01*
X2445599Y21213999D02*
X2445599Y21219999D01*
X2445599Y21219999D02*
X2445599Y21419999D01*
X2445599Y21419999D02*
X2445599Y21425999D01*
X2445599Y21425999D02*
X2446599Y21432999D01*
X2446599Y21432999D02*
X2447599Y21439999D01*
X2447599Y21439999D02*
X2448599Y21445999D01*
X2448599Y21445999D02*
X2450599Y21452999D01*
X2450599Y21452999D02*
X2452599Y21458999D01*
X2452599Y21458999D02*
X2454599Y21464999D01*
X2454599Y21464999D02*
X2457599Y21470999D01*
X2457599Y21470999D02*
X2460599Y21476999D01*
X2460599Y21476999D02*
X2463599Y21482999D01*
X2463599Y21482999D02*
X2467599Y21488999D01*
X2467599Y21488999D02*
X2471599Y21493999D01*
X2471599Y21493999D02*
X2475599Y21498999D01*
X2475599Y21498999D02*
X2479599Y21503999D01*
X2479599Y21503999D02*
X2484599Y21508999D01*
X2484599Y21508999D02*
X2489599Y21513999D01*
X2489599Y21513999D02*
X2494599Y21517999D01*
X2494599Y21517999D02*
X2499599Y21521999D01*
X2499599Y21521999D02*
X2505599Y21525999D01*
X2505599Y21525999D02*
X2511599Y21528999D01*
X2511599Y21528999D02*
X2517599Y21531999D01*
X2517599Y21531999D02*
X2523599Y21534999D01*
X2523599Y21534999D02*
X2529599Y21536999D01*
X2529599Y21536999D02*
X2535599Y21538999D01*
X2535599Y21538999D02*
X2542599Y21540999D01*
X2542599Y21540999D02*
X2548599Y21542999D01*
X2548599Y21542999D02*
X2555599Y21543999D01*
X2555599Y21543999D02*
X2561599Y21544999D01*
X2561599Y21544999D02*
X2568599Y21544999D01*
X2568599Y21544999D02*
X2575599Y21544999D01*
X2575599Y21544999D02*
X3025599Y21544999D01*
X3025599Y21544999D02*
X3030599Y21543999D01*
X3030599Y21543999D02*
X3036599Y21542999D01*
X3036599Y21542999D02*
X3042599Y21541999D01*
X3042599Y21541999D02*
X3047599Y21539999D01*
X3047599Y21539999D02*
X3053599Y21537999D01*
X3053599Y21537999D02*
X3059599Y21535999D01*
X3059599Y21535999D02*
X3064599Y21532999D01*
X3064599Y21532999D02*
X3069599Y21530999D01*
X3069599Y21530999D02*
X3074599Y21526999D01*
X3074599Y21526999D02*
X3079599Y21523999D01*
X3079599Y21523999D02*
X3084599Y21519999D01*
X3084599Y21519999D02*
X3088599Y21516999D01*
X3088599Y21516999D02*
X3093599Y21512999D01*
X3093599Y21512999D02*
X3097599Y21507999D01*
X3097599Y21507999D02*
X3100599Y21503999D01*
X3100599Y21503999D02*
X3104599Y21498999D01*
X3104599Y21498999D02*
X3107599Y21493999D01*
X3107599Y21493999D02*
X3111599Y21488999D01*
X3111599Y21488999D02*
X3113599Y21483999D01*
X3113599Y21483999D02*
X3116599Y21478999D01*
X3116599Y21478999D02*
X3118599Y21472999D01*
X3118599Y21472999D02*
X3120599Y21466999D01*
X3120599Y21466999D02*
X3122599Y21461999D01*
X3122599Y21461999D02*
X3123599Y21455999D01*
X3123599Y21455999D02*
X3124599Y21449999D01*
X3124599Y21449999D02*
X3125599Y21443999D01*
X3125599Y21443999D02*
X3126599Y21437999D01*
X3126599Y21437999D02*
X3126599Y21432999D01*
X3126599Y21432999D02*
X3126599Y21426999D01*
X3126599Y21426999D02*
X3125599Y21419999D01*
X3125599Y21419999D02*
X3125599Y21219999D01*
X3125599Y21219999D02*
X3126599Y21212999D01*
X3126599Y21212999D02*
X3126599Y21207999D01*
X3126599Y21207999D02*
X3126599Y21201999D01*
X3126599Y21201999D02*
X3125599Y21195999D01*
X3125599Y21195999D02*
X3124599Y21189999D01*
X3124599Y21189999D02*
X3123599Y21183999D01*
X3123599Y21183999D02*
X3122599Y21177999D01*
X3122599Y21177999D02*
X3120599Y21172999D01*
X3120599Y21172999D02*
X3118599Y21166999D01*
X3118599Y21166999D02*
X3116599Y21160999D01*
X3116599Y21160999D02*
X3113599Y21155999D01*
X3113599Y21155999D02*
X3111599Y21150999D01*
X3111599Y21150999D02*
X3107599Y21145999D01*
X3107599Y21145999D02*
X3104599Y21140999D01*
X3104599Y21140999D02*
X3100599Y21135999D01*
X3100599Y21135999D02*
X3097599Y21131999D01*
X3097599Y21131999D02*
X3093599Y21126999D01*
X3093599Y21126999D02*
X3088599Y21122999D01*
X3088599Y21122999D02*
X3084599Y21119999D01*
X3084599Y21119999D02*
X3079599Y21115999D01*
X3079599Y21115999D02*
X3074599Y21112999D01*
X3074599Y21112999D02*
X3069599Y21108999D01*
X3069599Y21108999D02*
X3064599Y21106999D01*
X3064599Y21106999D02*
X3059599Y21103999D01*
X3059599Y21103999D02*
X3053599Y21101999D01*
X3053599Y21101999D02*
X3047599Y21099999D01*
X3047599Y21099999D02*
X3042599Y21097999D01*
X3042599Y21097999D02*
X3036599Y21096999D01*
X3036599Y21096999D02*
X3030599Y21095999D01*
X3030599Y21095999D02*
X3025599Y21094999D01*
X3025599Y21094999D02*
X3025599Y21094999D01*
G36*
X3030599Y21543999D02*
G01*
X3042599Y21541999D01*
X3047599Y21539999D01*
X3059599Y21535999D01*
X3064599Y21532999D01*
X3069599Y21530999D01*
X3074599Y21526999D01*
X3079599Y21523999D01*
X3084599Y21519999D01*
X3088599Y21516999D01*
X3093599Y21512999D01*
X3097599Y21507999D01*
X3100599Y21503999D01*
X3104599Y21498999D01*
X3107599Y21493999D01*
X3111599Y21488999D01*
X3113599Y21483999D01*
X3116599Y21478999D01*
X3120599Y21466999D01*
X3122599Y21461999D01*
X3126599Y21437999D01*
X3126599Y21426999D01*
X3125599Y21419999D01*
X3125599Y21219999D01*
X3126599Y21212999D01*
X3126599Y21201999D01*
X3122599Y21177999D01*
X3120599Y21172999D01*
X3116599Y21160999D01*
X3113599Y21155999D01*
X3111599Y21150999D01*
X3107599Y21145999D01*
X3104599Y21140999D01*
X3100599Y21135999D01*
X3097599Y21131999D01*
X3093599Y21126999D01*
X3088599Y21122999D01*
X3084599Y21119999D01*
X3079599Y21115999D01*
X3074599Y21112999D01*
X3069599Y21108999D01*
X3064599Y21106999D01*
X3059599Y21103999D01*
X3047599Y21099999D01*
X3042599Y21097999D01*
X3030599Y21095999D01*
X3025599Y21094999D01*
X2561599Y21094999D01*
X2555599Y21095999D01*
X2548599Y21096999D01*
X2542599Y21098999D01*
X2535599Y21100999D01*
X2523599Y21104999D01*
X2505599Y21113999D01*
X2499599Y21117999D01*
X2489599Y21125999D01*
X2479599Y21135999D01*
X2467599Y21150999D01*
X2463599Y21156999D01*
X2454599Y21174999D01*
X2450599Y21186999D01*
X2448599Y21193999D01*
X2447599Y21199999D01*
X2445599Y21213999D01*
X2445599Y21425999D01*
X2447599Y21439999D01*
X2448599Y21445999D01*
X2450599Y21452999D01*
X2454599Y21464999D01*
X2463599Y21482999D01*
X2467599Y21488999D01*
X2479599Y21503999D01*
X2489599Y21513999D01*
X2499599Y21521999D01*
X2505599Y21525999D01*
X2523599Y21534999D01*
X2535599Y21538999D01*
X2542599Y21540999D01*
X2548599Y21542999D01*
X2555599Y21543999D01*
X2561599Y21544999D01*
X3025599Y21544999D01*
X3030599Y21543999D01*
G37*
X3030599Y21543999D02*
X3042599Y21541999D01*
X3047599Y21539999D01*
X3059599Y21535999D01*
X3064599Y21532999D01*
X3069599Y21530999D01*
X3074599Y21526999D01*
X3079599Y21523999D01*
X3084599Y21519999D01*
X3088599Y21516999D01*
X3093599Y21512999D01*
X3097599Y21507999D01*
X3100599Y21503999D01*
X3104599Y21498999D01*
X3107599Y21493999D01*
X3111599Y21488999D01*
X3113599Y21483999D01*
X3116599Y21478999D01*
X3120599Y21466999D01*
X3122599Y21461999D01*
X3126599Y21437999D01*
X3126599Y21426999D01*
X3125599Y21419999D01*
X3125599Y21219999D01*
X3126599Y21212999D01*
X3126599Y21201999D01*
X3122599Y21177999D01*
X3120599Y21172999D01*
X3116599Y21160999D01*
X3113599Y21155999D01*
X3111599Y21150999D01*
X3107599Y21145999D01*
X3104599Y21140999D01*
X3100599Y21135999D01*
X3097599Y21131999D01*
X3093599Y21126999D01*
X3088599Y21122999D01*
X3084599Y21119999D01*
X3079599Y21115999D01*
X3074599Y21112999D01*
X3069599Y21108999D01*
X3064599Y21106999D01*
X3059599Y21103999D01*
X3047599Y21099999D01*
X3042599Y21097999D01*
X3030599Y21095999D01*
X3025599Y21094999D01*
X2561599Y21094999D01*
X2555599Y21095999D01*
X2548599Y21096999D01*
X2542599Y21098999D01*
X2535599Y21100999D01*
X2523599Y21104999D01*
X2505599Y21113999D01*
X2499599Y21117999D01*
X2489599Y21125999D01*
X2479599Y21135999D01*
X2467599Y21150999D01*
X2463599Y21156999D01*
X2454599Y21174999D01*
X2450599Y21186999D01*
X2448599Y21193999D01*
X2447599Y21199999D01*
X2445599Y21213999D01*
X2445599Y21425999D01*
X2447599Y21439999D01*
X2448599Y21445999D01*
X2450599Y21452999D01*
X2454599Y21464999D01*
X2463599Y21482999D01*
X2467599Y21488999D01*
X2479599Y21503999D01*
X2489599Y21513999D01*
X2499599Y21521999D01*
X2505599Y21525999D01*
X2523599Y21534999D01*
X2535599Y21538999D01*
X2542599Y21540999D01*
X2548599Y21542999D01*
X2555599Y21543999D01*
X2561599Y21544999D01*
X3025599Y21544999D01*
X3030599Y21543999D01*
X3025599Y20594999D02*
X2575599Y20594999D01*
X2575599Y20594999D02*
X2568599Y20594999D01*
X2568599Y20594999D02*
X2561599Y20594999D01*
X2561599Y20594999D02*
X2555599Y20595999D01*
X2555599Y20595999D02*
X2548599Y20596999D01*
X2548599Y20596999D02*
X2542599Y20598999D01*
X2542599Y20598999D02*
X2535599Y20600999D01*
X2535599Y20600999D02*
X2529599Y20602999D01*
X2529599Y20602999D02*
X2523599Y20604999D01*
X2523599Y20604999D02*
X2517599Y20607999D01*
X2517599Y20607999D02*
X2511599Y20610999D01*
X2511599Y20610999D02*
X2505599Y20613999D01*
X2505599Y20613999D02*
X2499599Y20617999D01*
X2499599Y20617999D02*
X2494599Y20621999D01*
X2494599Y20621999D02*
X2489599Y20625999D01*
X2489599Y20625999D02*
X2484599Y20630999D01*
X2484599Y20630999D02*
X2479599Y20635999D01*
X2479599Y20635999D02*
X2475599Y20640999D01*
X2475599Y20640999D02*
X2471599Y20645999D01*
X2471599Y20645999D02*
X2467599Y20650999D01*
X2467599Y20650999D02*
X2463599Y20656999D01*
X2463599Y20656999D02*
X2460599Y20662999D01*
X2460599Y20662999D02*
X2457599Y20668999D01*
X2457599Y20668999D02*
X2454599Y20674999D01*
X2454599Y20674999D02*
X2452599Y20680999D01*
X2452599Y20680999D02*
X2450599Y20686999D01*
X2450599Y20686999D02*
X2448599Y20693999D01*
X2448599Y20693999D02*
X2447599Y20699999D01*
X2447599Y20699999D02*
X2446599Y20706999D01*
X2446599Y20706999D02*
X2445599Y20713999D01*
X2445599Y20713999D02*
X2445599Y20719999D01*
X2445599Y20719999D02*
X2445599Y20919999D01*
X2445599Y20919999D02*
X2445599Y20925999D01*
X2445599Y20925999D02*
X2446599Y20932999D01*
X2446599Y20932999D02*
X2447599Y20939999D01*
X2447599Y20939999D02*
X2448599Y20945999D01*
X2448599Y20945999D02*
X2450599Y20952999D01*
X2450599Y20952999D02*
X2452599Y20958999D01*
X2452599Y20958999D02*
X2454599Y20964999D01*
X2454599Y20964999D02*
X2457599Y20970999D01*
X2457599Y20970999D02*
X2460599Y20976999D01*
X2460599Y20976999D02*
X2463599Y20982999D01*
X2463599Y20982999D02*
X2467599Y20988999D01*
X2467599Y20988999D02*
X2471599Y20993999D01*
X2471599Y20993999D02*
X2475599Y20998999D01*
X2475599Y20998999D02*
X2479599Y21003999D01*
X2479599Y21003999D02*
X2484599Y21008999D01*
X2484599Y21008999D02*
X2489599Y21013999D01*
X2489599Y21013999D02*
X2494599Y21017999D01*
X2494599Y21017999D02*
X2499599Y21021999D01*
X2499599Y21021999D02*
X2505599Y21025999D01*
X2505599Y21025999D02*
X2511599Y21028999D01*
X2511599Y21028999D02*
X2517599Y21031999D01*
X2517599Y21031999D02*
X2523599Y21034999D01*
X2523599Y21034999D02*
X2529599Y21036999D01*
X2529599Y21036999D02*
X2535599Y21038999D01*
X2535599Y21038999D02*
X2542599Y21040999D01*
X2542599Y21040999D02*
X2548599Y21042999D01*
X2548599Y21042999D02*
X2555599Y21043999D01*
X2555599Y21043999D02*
X2561599Y21044999D01*
X2561599Y21044999D02*
X2568599Y21044999D01*
X2568599Y21044999D02*
X2575599Y21044999D01*
X2575599Y21044999D02*
X3025599Y21044999D01*
X3025599Y21044999D02*
X3030599Y21043999D01*
X3030599Y21043999D02*
X3036599Y21042999D01*
X3036599Y21042999D02*
X3042599Y21041999D01*
X3042599Y21041999D02*
X3047599Y21039999D01*
X3047599Y21039999D02*
X3053599Y21037999D01*
X3053599Y21037999D02*
X3059599Y21035999D01*
X3059599Y21035999D02*
X3064599Y21032999D01*
X3064599Y21032999D02*
X3069599Y21030999D01*
X3069599Y21030999D02*
X3074599Y21026999D01*
X3074599Y21026999D02*
X3079599Y21023999D01*
X3079599Y21023999D02*
X3084599Y21019999D01*
X3084599Y21019999D02*
X3088599Y21016999D01*
X3088599Y21016999D02*
X3093599Y21012999D01*
X3093599Y21012999D02*
X3097599Y21007999D01*
X3097599Y21007999D02*
X3100599Y21003999D01*
X3100599Y21003999D02*
X3104599Y20998999D01*
X3104599Y20998999D02*
X3107599Y20993999D01*
X3107599Y20993999D02*
X3111599Y20988999D01*
X3111599Y20988999D02*
X3113599Y20983999D01*
X3113599Y20983999D02*
X3116599Y20978999D01*
X3116599Y20978999D02*
X3118599Y20972999D01*
X3118599Y20972999D02*
X3120599Y20966999D01*
X3120599Y20966999D02*
X3122599Y20961999D01*
X3122599Y20961999D02*
X3123599Y20955999D01*
X3123599Y20955999D02*
X3124599Y20949999D01*
X3124599Y20949999D02*
X3125599Y20943999D01*
X3125599Y20943999D02*
X3126599Y20937999D01*
X3126599Y20937999D02*
X3126599Y20931999D01*
X3126599Y20931999D02*
X3126599Y20926999D01*
X3126599Y20926999D02*
X3125599Y20919999D01*
X3125599Y20919999D02*
X3125599Y20719999D01*
X3125599Y20719999D02*
X3126599Y20712999D01*
X3126599Y20712999D02*
X3126599Y20707999D01*
X3126599Y20707999D02*
X3126599Y20701999D01*
X3126599Y20701999D02*
X3125599Y20695999D01*
X3125599Y20695999D02*
X3124599Y20689999D01*
X3124599Y20689999D02*
X3123599Y20683999D01*
X3123599Y20683999D02*
X3122599Y20677999D01*
X3122599Y20677999D02*
X3120599Y20672999D01*
X3120599Y20672999D02*
X3118599Y20666999D01*
X3118599Y20666999D02*
X3116599Y20660999D01*
X3116599Y20660999D02*
X3113599Y20655999D01*
X3113599Y20655999D02*
X3111599Y20650999D01*
X3111599Y20650999D02*
X3107599Y20645999D01*
X3107599Y20645999D02*
X3104599Y20640999D01*
X3104599Y20640999D02*
X3100599Y20635999D01*
X3100599Y20635999D02*
X3097599Y20631999D01*
X3097599Y20631999D02*
X3093599Y20626999D01*
X3093599Y20626999D02*
X3088599Y20622999D01*
X3088599Y20622999D02*
X3084599Y20619999D01*
X3084599Y20619999D02*
X3079599Y20615999D01*
X3079599Y20615999D02*
X3074599Y20612999D01*
X3074599Y20612999D02*
X3069599Y20608999D01*
X3069599Y20608999D02*
X3064599Y20606999D01*
X3064599Y20606999D02*
X3059599Y20603999D01*
X3059599Y20603999D02*
X3053599Y20601999D01*
X3053599Y20601999D02*
X3047599Y20599999D01*
X3047599Y20599999D02*
X3042599Y20597999D01*
X3042599Y20597999D02*
X3036599Y20596999D01*
X3036599Y20596999D02*
X3030599Y20595999D01*
X3030599Y20595999D02*
X3025599Y20594999D01*
X3025599Y20594999D02*
X3025599Y20594999D01*
G36*
X3030599Y21043999D02*
G01*
X3042599Y21041999D01*
X3047599Y21039999D01*
X3059599Y21035999D01*
X3064599Y21032999D01*
X3069599Y21030999D01*
X3074599Y21026999D01*
X3079599Y21023999D01*
X3084599Y21019999D01*
X3088599Y21016999D01*
X3093599Y21012999D01*
X3097599Y21007999D01*
X3100599Y21003999D01*
X3104599Y20998999D01*
X3107599Y20993999D01*
X3111599Y20988999D01*
X3113599Y20983999D01*
X3116599Y20978999D01*
X3120599Y20966999D01*
X3122599Y20961999D01*
X3126599Y20937999D01*
X3126599Y20926999D01*
X3125599Y20919999D01*
X3125599Y20719999D01*
X3126599Y20712999D01*
X3126599Y20701999D01*
X3122599Y20677999D01*
X3120599Y20672999D01*
X3116599Y20660999D01*
X3113599Y20655999D01*
X3111599Y20650999D01*
X3107599Y20645999D01*
X3104599Y20640999D01*
X3100599Y20635999D01*
X3097599Y20631999D01*
X3093599Y20626999D01*
X3088599Y20622999D01*
X3084599Y20619999D01*
X3079599Y20615999D01*
X3074599Y20612999D01*
X3069599Y20608999D01*
X3064599Y20606999D01*
X3059599Y20603999D01*
X3047599Y20599999D01*
X3042599Y20597999D01*
X3030599Y20595999D01*
X3025599Y20594999D01*
X2561599Y20594999D01*
X2555599Y20595999D01*
X2548599Y20596999D01*
X2542599Y20598999D01*
X2535599Y20600999D01*
X2523599Y20604999D01*
X2505599Y20613999D01*
X2499599Y20617999D01*
X2489599Y20625999D01*
X2479599Y20635999D01*
X2467599Y20650999D01*
X2463599Y20656999D01*
X2454599Y20674999D01*
X2450599Y20686999D01*
X2448599Y20693999D01*
X2447599Y20699999D01*
X2445599Y20713999D01*
X2445599Y20925999D01*
X2447599Y20939999D01*
X2448599Y20945999D01*
X2450599Y20952999D01*
X2454599Y20964999D01*
X2463599Y20982999D01*
X2467599Y20988999D01*
X2479599Y21003999D01*
X2489599Y21013999D01*
X2499599Y21021999D01*
X2505599Y21025999D01*
X2523599Y21034999D01*
X2535599Y21038999D01*
X2542599Y21040999D01*
X2548599Y21042999D01*
X2555599Y21043999D01*
X2561599Y21044999D01*
X3025599Y21044999D01*
X3030599Y21043999D01*
G37*
X3030599Y21043999D02*
X3042599Y21041999D01*
X3047599Y21039999D01*
X3059599Y21035999D01*
X3064599Y21032999D01*
X3069599Y21030999D01*
X3074599Y21026999D01*
X3079599Y21023999D01*
X3084599Y21019999D01*
X3088599Y21016999D01*
X3093599Y21012999D01*
X3097599Y21007999D01*
X3100599Y21003999D01*
X3104599Y20998999D01*
X3107599Y20993999D01*
X3111599Y20988999D01*
X3113599Y20983999D01*
X3116599Y20978999D01*
X3120599Y20966999D01*
X3122599Y20961999D01*
X3126599Y20937999D01*
X3126599Y20926999D01*
X3125599Y20919999D01*
X3125599Y20719999D01*
X3126599Y20712999D01*
X3126599Y20701999D01*
X3122599Y20677999D01*
X3120599Y20672999D01*
X3116599Y20660999D01*
X3113599Y20655999D01*
X3111599Y20650999D01*
X3107599Y20645999D01*
X3104599Y20640999D01*
X3100599Y20635999D01*
X3097599Y20631999D01*
X3093599Y20626999D01*
X3088599Y20622999D01*
X3084599Y20619999D01*
X3079599Y20615999D01*
X3074599Y20612999D01*
X3069599Y20608999D01*
X3064599Y20606999D01*
X3059599Y20603999D01*
X3047599Y20599999D01*
X3042599Y20597999D01*
X3030599Y20595999D01*
X3025599Y20594999D01*
X2561599Y20594999D01*
X2555599Y20595999D01*
X2548599Y20596999D01*
X2542599Y20598999D01*
X2535599Y20600999D01*
X2523599Y20604999D01*
X2505599Y20613999D01*
X2499599Y20617999D01*
X2489599Y20625999D01*
X2479599Y20635999D01*
X2467599Y20650999D01*
X2463599Y20656999D01*
X2454599Y20674999D01*
X2450599Y20686999D01*
X2448599Y20693999D01*
X2447599Y20699999D01*
X2445599Y20713999D01*
X2445599Y20925999D01*
X2447599Y20939999D01*
X2448599Y20945999D01*
X2450599Y20952999D01*
X2454599Y20964999D01*
X2463599Y20982999D01*
X2467599Y20988999D01*
X2479599Y21003999D01*
X2489599Y21013999D01*
X2499599Y21021999D01*
X2505599Y21025999D01*
X2523599Y21034999D01*
X2535599Y21038999D01*
X2542599Y21040999D01*
X2548599Y21042999D01*
X2555599Y21043999D01*
X2561599Y21044999D01*
X3025599Y21044999D01*
X3030599Y21043999D01*
X3025599Y20094999D02*
X2575599Y20094999D01*
X2575599Y20094999D02*
X2568599Y20094999D01*
X2568599Y20094999D02*
X2561599Y20094999D01*
X2561599Y20094999D02*
X2555599Y20095999D01*
X2555599Y20095999D02*
X2548599Y20096999D01*
X2548599Y20096999D02*
X2542599Y20098999D01*
X2542599Y20098999D02*
X2535599Y20100999D01*
X2535599Y20100999D02*
X2529599Y20102999D01*
X2529599Y20102999D02*
X2523599Y20104999D01*
X2523599Y20104999D02*
X2517599Y20107999D01*
X2517599Y20107999D02*
X2511599Y20110999D01*
X2511599Y20110999D02*
X2505599Y20113999D01*
X2505599Y20113999D02*
X2499599Y20117999D01*
X2499599Y20117999D02*
X2494599Y20121999D01*
X2494599Y20121999D02*
X2489599Y20125999D01*
X2489599Y20125999D02*
X2484599Y20130999D01*
X2484599Y20130999D02*
X2479599Y20135999D01*
X2479599Y20135999D02*
X2475599Y20140999D01*
X2475599Y20140999D02*
X2471599Y20145999D01*
X2471599Y20145999D02*
X2467599Y20150999D01*
X2467599Y20150999D02*
X2463599Y20156999D01*
X2463599Y20156999D02*
X2460599Y20162999D01*
X2460599Y20162999D02*
X2457599Y20168999D01*
X2457599Y20168999D02*
X2454599Y20174999D01*
X2454599Y20174999D02*
X2452599Y20180999D01*
X2452599Y20180999D02*
X2450599Y20186999D01*
X2450599Y20186999D02*
X2448599Y20193999D01*
X2448599Y20193999D02*
X2447599Y20199999D01*
X2447599Y20199999D02*
X2446599Y20206999D01*
X2446599Y20206999D02*
X2445599Y20213999D01*
X2445599Y20213999D02*
X2445599Y20219999D01*
X2445599Y20219999D02*
X2445599Y20419999D01*
X2445599Y20419999D02*
X2445599Y20425999D01*
X2445599Y20425999D02*
X2446599Y20432999D01*
X2446599Y20432999D02*
X2447599Y20439999D01*
X2447599Y20439999D02*
X2448599Y20445999D01*
X2448599Y20445999D02*
X2450599Y20452999D01*
X2450599Y20452999D02*
X2452599Y20458999D01*
X2452599Y20458999D02*
X2454599Y20464999D01*
X2454599Y20464999D02*
X2457599Y20470999D01*
X2457599Y20470999D02*
X2460599Y20476999D01*
X2460599Y20476999D02*
X2463599Y20482999D01*
X2463599Y20482999D02*
X2467599Y20488999D01*
X2467599Y20488999D02*
X2471599Y20493999D01*
X2471599Y20493999D02*
X2475599Y20498999D01*
X2475599Y20498999D02*
X2479599Y20503999D01*
X2479599Y20503999D02*
X2484599Y20508999D01*
X2484599Y20508999D02*
X2489599Y20513999D01*
X2489599Y20513999D02*
X2494599Y20517999D01*
X2494599Y20517999D02*
X2499599Y20521999D01*
X2499599Y20521999D02*
X2505599Y20525999D01*
X2505599Y20525999D02*
X2511599Y20528999D01*
X2511599Y20528999D02*
X2517599Y20531999D01*
X2517599Y20531999D02*
X2523599Y20534999D01*
X2523599Y20534999D02*
X2529599Y20536999D01*
X2529599Y20536999D02*
X2535599Y20538999D01*
X2535599Y20538999D02*
X2542599Y20540999D01*
X2542599Y20540999D02*
X2548599Y20542999D01*
X2548599Y20542999D02*
X2555599Y20543999D01*
X2555599Y20543999D02*
X2561599Y20544999D01*
X2561599Y20544999D02*
X2568599Y20544999D01*
X2568599Y20544999D02*
X2575599Y20544999D01*
X2575599Y20544999D02*
X3025599Y20544999D01*
X3025599Y20544999D02*
X3030599Y20543999D01*
X3030599Y20543999D02*
X3036599Y20542999D01*
X3036599Y20542999D02*
X3042599Y20541999D01*
X3042599Y20541999D02*
X3047599Y20539999D01*
X3047599Y20539999D02*
X3053599Y20537999D01*
X3053599Y20537999D02*
X3059599Y20535999D01*
X3059599Y20535999D02*
X3064599Y20532999D01*
X3064599Y20532999D02*
X3069599Y20530999D01*
X3069599Y20530999D02*
X3074599Y20526999D01*
X3074599Y20526999D02*
X3079599Y20523999D01*
X3079599Y20523999D02*
X3084599Y20519999D01*
X3084599Y20519999D02*
X3088599Y20516999D01*
X3088599Y20516999D02*
X3093599Y20512999D01*
X3093599Y20512999D02*
X3097599Y20507999D01*
X3097599Y20507999D02*
X3100599Y20503999D01*
X3100599Y20503999D02*
X3104599Y20498999D01*
X3104599Y20498999D02*
X3107599Y20493999D01*
X3107599Y20493999D02*
X3111599Y20488999D01*
X3111599Y20488999D02*
X3113599Y20483999D01*
X3113599Y20483999D02*
X3116599Y20478999D01*
X3116599Y20478999D02*
X3118599Y20472999D01*
X3118599Y20472999D02*
X3120599Y20466999D01*
X3120599Y20466999D02*
X3122599Y20461999D01*
X3122599Y20461999D02*
X3123599Y20455999D01*
X3123599Y20455999D02*
X3124599Y20449999D01*
X3124599Y20449999D02*
X3125599Y20443999D01*
X3125599Y20443999D02*
X3126599Y20437999D01*
X3126599Y20437999D02*
X3126599Y20431999D01*
X3126599Y20431999D02*
X3126599Y20426999D01*
X3126599Y20426999D02*
X3125599Y20419999D01*
X3125599Y20419999D02*
X3125599Y20219999D01*
X3125599Y20219999D02*
X3126599Y20212999D01*
X3126599Y20212999D02*
X3126599Y20207999D01*
X3126599Y20207999D02*
X3126599Y20201999D01*
X3126599Y20201999D02*
X3125599Y20195999D01*
X3125599Y20195999D02*
X3124599Y20189999D01*
X3124599Y20189999D02*
X3123599Y20183999D01*
X3123599Y20183999D02*
X3122599Y20177999D01*
X3122599Y20177999D02*
X3120599Y20172999D01*
X3120599Y20172999D02*
X3118599Y20166999D01*
X3118599Y20166999D02*
X3116599Y20160999D01*
X3116599Y20160999D02*
X3113599Y20155999D01*
X3113599Y20155999D02*
X3111599Y20150999D01*
X3111599Y20150999D02*
X3107599Y20145999D01*
X3107599Y20145999D02*
X3104599Y20140999D01*
X3104599Y20140999D02*
X3100599Y20135999D01*
X3100599Y20135999D02*
X3097599Y20131999D01*
X3097599Y20131999D02*
X3093599Y20126999D01*
X3093599Y20126999D02*
X3088599Y20122999D01*
X3088599Y20122999D02*
X3084599Y20119999D01*
X3084599Y20119999D02*
X3079599Y20115999D01*
X3079599Y20115999D02*
X3074599Y20112999D01*
X3074599Y20112999D02*
X3069599Y20108999D01*
X3069599Y20108999D02*
X3064599Y20106999D01*
X3064599Y20106999D02*
X3059599Y20103999D01*
X3059599Y20103999D02*
X3053599Y20101999D01*
X3053599Y20101999D02*
X3047599Y20099999D01*
X3047599Y20099999D02*
X3042599Y20097999D01*
X3042599Y20097999D02*
X3036599Y20096999D01*
X3036599Y20096999D02*
X3030599Y20095999D01*
X3030599Y20095999D02*
X3025599Y20094999D01*
X3025599Y20094999D02*
X3025599Y20094999D01*
G36*
X3030599Y20543999D02*
G01*
X3042599Y20541999D01*
X3047599Y20539999D01*
X3059599Y20535999D01*
X3064599Y20532999D01*
X3069599Y20530999D01*
X3074599Y20526999D01*
X3079599Y20523999D01*
X3084599Y20519999D01*
X3088599Y20516999D01*
X3093599Y20512999D01*
X3097599Y20507999D01*
X3100599Y20503999D01*
X3104599Y20498999D01*
X3107599Y20493999D01*
X3111599Y20488999D01*
X3113599Y20483999D01*
X3116599Y20478999D01*
X3120599Y20466999D01*
X3122599Y20461999D01*
X3126599Y20437999D01*
X3126599Y20426999D01*
X3125599Y20419999D01*
X3125599Y20219999D01*
X3126599Y20212999D01*
X3126599Y20201999D01*
X3122599Y20177999D01*
X3120599Y20172999D01*
X3116599Y20160999D01*
X3113599Y20155999D01*
X3111599Y20150999D01*
X3107599Y20145999D01*
X3104599Y20140999D01*
X3100599Y20135999D01*
X3097599Y20131999D01*
X3093599Y20126999D01*
X3088599Y20122999D01*
X3084599Y20119999D01*
X3079599Y20115999D01*
X3074599Y20112999D01*
X3069599Y20108999D01*
X3064599Y20106999D01*
X3059599Y20103999D01*
X3047599Y20099999D01*
X3042599Y20097999D01*
X3030599Y20095999D01*
X3025599Y20094999D01*
X2561599Y20094999D01*
X2555599Y20095999D01*
X2548599Y20096999D01*
X2542599Y20098999D01*
X2535599Y20100999D01*
X2523599Y20104999D01*
X2505599Y20113999D01*
X2499599Y20117999D01*
X2489599Y20125999D01*
X2479599Y20135999D01*
X2467599Y20150999D01*
X2463599Y20156999D01*
X2454599Y20174999D01*
X2450599Y20186999D01*
X2448599Y20193999D01*
X2447599Y20199999D01*
X2445599Y20213999D01*
X2445599Y20425999D01*
X2447599Y20439999D01*
X2448599Y20445999D01*
X2450599Y20452999D01*
X2454599Y20464999D01*
X2463599Y20482999D01*
X2467599Y20488999D01*
X2479599Y20503999D01*
X2489599Y20513999D01*
X2499599Y20521999D01*
X2505599Y20525999D01*
X2523599Y20534999D01*
X2535599Y20538999D01*
X2542599Y20540999D01*
X2548599Y20542999D01*
X2555599Y20543999D01*
X2561599Y20544999D01*
X3025599Y20544999D01*
X3030599Y20543999D01*
G37*
X3030599Y20543999D02*
X3042599Y20541999D01*
X3047599Y20539999D01*
X3059599Y20535999D01*
X3064599Y20532999D01*
X3069599Y20530999D01*
X3074599Y20526999D01*
X3079599Y20523999D01*
X3084599Y20519999D01*
X3088599Y20516999D01*
X3093599Y20512999D01*
X3097599Y20507999D01*
X3100599Y20503999D01*
X3104599Y20498999D01*
X3107599Y20493999D01*
X3111599Y20488999D01*
X3113599Y20483999D01*
X3116599Y20478999D01*
X3120599Y20466999D01*
X3122599Y20461999D01*
X3126599Y20437999D01*
X3126599Y20426999D01*
X3125599Y20419999D01*
X3125599Y20219999D01*
X3126599Y20212999D01*
X3126599Y20201999D01*
X3122599Y20177999D01*
X3120599Y20172999D01*
X3116599Y20160999D01*
X3113599Y20155999D01*
X3111599Y20150999D01*
X3107599Y20145999D01*
X3104599Y20140999D01*
X3100599Y20135999D01*
X3097599Y20131999D01*
X3093599Y20126999D01*
X3088599Y20122999D01*
X3084599Y20119999D01*
X3079599Y20115999D01*
X3074599Y20112999D01*
X3069599Y20108999D01*
X3064599Y20106999D01*
X3059599Y20103999D01*
X3047599Y20099999D01*
X3042599Y20097999D01*
X3030599Y20095999D01*
X3025599Y20094999D01*
X2561599Y20094999D01*
X2555599Y20095999D01*
X2548599Y20096999D01*
X2542599Y20098999D01*
X2535599Y20100999D01*
X2523599Y20104999D01*
X2505599Y20113999D01*
X2499599Y20117999D01*
X2489599Y20125999D01*
X2479599Y20135999D01*
X2467599Y20150999D01*
X2463599Y20156999D01*
X2454599Y20174999D01*
X2450599Y20186999D01*
X2448599Y20193999D01*
X2447599Y20199999D01*
X2445599Y20213999D01*
X2445599Y20425999D01*
X2447599Y20439999D01*
X2448599Y20445999D01*
X2450599Y20452999D01*
X2454599Y20464999D01*
X2463599Y20482999D01*
X2467599Y20488999D01*
X2479599Y20503999D01*
X2489599Y20513999D01*
X2499599Y20521999D01*
X2505599Y20525999D01*
X2523599Y20534999D01*
X2535599Y20538999D01*
X2542599Y20540999D01*
X2548599Y20542999D01*
X2555599Y20543999D01*
X2561599Y20544999D01*
X3025599Y20544999D01*
X3030599Y20543999D01*
%TD*%
D11*
%TO.C,J6*%
X16509999Y26111199D03*
X19049999Y26111199D03*
X21589999Y26111199D03*
%TD*%
%TO.C,J5*%
X1777999Y16255999D03*
X-762001Y16255999D03*
%TD*%
D12*
%TO.C,J2*%
X347999Y26161999D03*
X5747999Y26161999D03*
%TD*%
D13*
%TO.C,R19*%
X8456199Y20878799D03*
X9476199Y20878799D03*
%TD*%
D14*
%TO.C,Q1*%
X23954499Y9839999D03*
X23954499Y7939999D03*
X25829499Y8889999D03*
%TD*%
D15*
%TO.C,R14*%
X16558799Y23875999D03*
X17578799Y23875999D03*
%TD*%
D16*
%TO.C,D3*%
X1432799Y5527799D03*
X2732799Y5527799D03*
X2732799Y7527799D03*
X1432799Y7527799D03*
%TD*%
D17*
%TO.C,U4*%
X20384999Y21970999D03*
X20384999Y20700999D03*
X20384999Y19430999D03*
X20384999Y18160999D03*
X25334999Y18160999D03*
X25334999Y19430999D03*
X25334999Y20700999D03*
X25334999Y21970999D03*
%TD*%
D18*
%TO.C,C4*%
X18823999Y10667999D03*
X19783999Y10667999D03*
%TD*%
D15*
%TO.C,R11*%
X21845999Y10667999D03*
X20825999Y10667999D03*
%TD*%
D13*
%TO.C,R2*%
X3807999Y14477999D03*
X4827999Y14477999D03*
%TD*%
D19*
%TO.C,P1*%
X13303999Y2604999D03*
X7523999Y2604999D03*
D20*
X7063999Y3669999D03*
X7863999Y3669999D03*
X9163999Y3669999D03*
X10163999Y3669999D03*
X10663999Y3669999D03*
X11663999Y3669999D03*
X12963999Y3669999D03*
X13763999Y3669999D03*
X13463999Y3669999D03*
X12663999Y3669999D03*
X12163999Y3669999D03*
X11163999Y3669999D03*
X9663999Y3669999D03*
X8663999Y3669999D03*
X8163999Y3669999D03*
X7363999Y3669999D03*
D21*
X14733999Y3104999D03*
D22*
X14733999Y-1075001D03*
D21*
X6093999Y3104999D03*
D22*
X6093999Y-1075001D03*
%TD*%
D18*
%TO.C,C8*%
X3837999Y16763999D03*
X4797999Y16763999D03*
%TD*%
D23*
%TO.C,C3*%
X17271999Y5135999D03*
X17271999Y6095999D03*
%TD*%
D15*
%TO.C,R8*%
X23115999Y16001999D03*
X22095999Y16001999D03*
%TD*%
D24*
%TO.C,D2*%
X21757999Y8381999D03*
X17357999Y8381999D03*
%TD*%
D25*
%TO.C,U3*%
X17787619Y22816819D03*
X17787619Y22166579D03*
X17787619Y21521419D03*
X17787619Y20871179D03*
X15740379Y20871179D03*
X15740379Y21521419D03*
X15740379Y22166579D03*
X15740379Y22816819D03*
%TD*%
D26*
%TO.C,U7*%
X18861999Y12832499D03*
X19811999Y12832499D03*
X20761999Y12832499D03*
X20761999Y15107499D03*
X18861999Y15107499D03*
%TD*%
D23*
%TO.C,C1*%
X3809999Y12473999D03*
X3809999Y13433999D03*
%TD*%
D27*
%TO.C,J3*%
X12572999Y22916514D03*
X11572239Y22916514D03*
X10576559Y22916514D03*
X9575799Y22916514D03*
D28*
X8275319Y26589354D03*
X13873479Y26589354D03*
%TD*%
D29*
%TO.C,R7*%
X11683999Y5839999D03*
X11683999Y6859999D03*
%TD*%
D30*
%TO.C,C6*%
X5029199Y20215799D03*
X5029199Y19255799D03*
%TD*%
D31*
%TO.C,H1*%
X25399999Y25399999D03*
D32*
X25399999Y25399999D03*
%TD*%
D26*
%TO.C,U6*%
X23433999Y12070499D03*
X24383999Y12070499D03*
X25333999Y12070499D03*
X25333999Y14345499D03*
X23433999Y14345499D03*
%TD*%
D15*
%TO.C,R3*%
X22557199Y23418799D03*
X21537199Y23418799D03*
%TD*%
D30*
%TO.C,C9*%
X-1168401Y19529999D03*
X-1168401Y18569999D03*
%TD*%
D33*
%TO.C,R9*%
X22097999Y14225999D03*
X22097999Y13205999D03*
%TD*%
%TO.C,R1*%
X4825999Y13463999D03*
X4825999Y12443999D03*
%TD*%
D34*
%TO.C,U1*%
X13267999Y17407499D03*
X12867999Y17407499D03*
X12467999Y17407499D03*
X12067999Y17407499D03*
X11667999Y17407499D03*
X11267999Y17407499D03*
X10867999Y17407499D03*
X10467999Y17407499D03*
X10067999Y17407499D03*
X9667999Y17407499D03*
X9267999Y17407499D03*
X8867999Y17407499D03*
X8467999Y17407499D03*
X8067999Y17407499D03*
D35*
X7230499Y16569999D03*
X7230499Y16169999D03*
X7230499Y15769999D03*
X7230499Y15369999D03*
X7230499Y14969999D03*
X7230499Y14569999D03*
X7230499Y14169999D03*
X7230499Y13769999D03*
X7230499Y13369999D03*
X7230499Y12969999D03*
X7230499Y12569999D03*
X7230499Y12169999D03*
X7230499Y11769999D03*
X7230499Y11369999D03*
D34*
X8067999Y10532499D03*
X8467999Y10532499D03*
X8867999Y10532499D03*
X9267999Y10532499D03*
X9667999Y10532499D03*
X10067999Y10532499D03*
X10467999Y10532499D03*
X10867999Y10532499D03*
X11267999Y10532499D03*
X11667999Y10532499D03*
X12067999Y10532499D03*
X12467999Y10532499D03*
X12867999Y10532499D03*
X13267999Y10532499D03*
D35*
X14105499Y11369999D03*
X14105499Y11769999D03*
X14105499Y12169999D03*
X14105499Y12569999D03*
X14105499Y12969999D03*
X14105499Y13369999D03*
X14105499Y13769999D03*
X14105499Y14169999D03*
X14105499Y14569999D03*
X14105499Y14969999D03*
X14105499Y15369999D03*
X14105499Y15769999D03*
X14105499Y16169999D03*
X14105499Y16569999D03*
D36*
X10667999Y13969999D03*
%TD*%
D18*
%TO.C,C2*%
X3837999Y15493999D03*
X4797999Y15493999D03*
%TD*%
D15*
%TO.C,R18*%
X9450799Y19862799D03*
X8430799Y19862799D03*
%TD*%
D30*
%TO.C,C7*%
X26669999Y12671999D03*
X26669999Y11711999D03*
%TD*%
D37*
%TO.C,J1*%
X18739999Y1285999D03*
X18739999Y3285999D03*
D38*
X24489999Y-1064001D03*
X24489999Y5635999D03*
%TD*%
D29*
%TO.C,R5*%
X9651999Y5839999D03*
X9651999Y6859999D03*
%TD*%
D39*
%TO.C,JP1*%
X7111999Y21869399D03*
X7111999Y20853399D03*
X7111999Y19837399D03*
%TD*%
D29*
%TO.C,R6*%
X8635999Y5839999D03*
X8635999Y6859999D03*
%TD*%
D40*
%TO.C,D1*%
X24358499Y16001999D03*
X25933499Y16001999D03*
%TD*%
D41*
%TO.C,Y1*%
X1889759Y11018519D03*
D42*
X1889759Y13365479D03*
X142239Y13365479D03*
D41*
X142239Y11018519D03*
%TD*%
D31*
%TO.C,H2*%
X-1Y-1D03*
D32*
X-1Y-1D03*
%TD*%
D29*
%TO.C,R10*%
X12699999Y5839999D03*
X12699999Y6859999D03*
%TD*%
D43*
%TO.C,JP2*%
X19608799Y23444199D03*
X20421599Y23444199D03*
%TD*%
D29*
%TO.C,R4*%
X10667999Y5839999D03*
X10667999Y6859999D03*
%TD*%
D44*
%TO.C,LS1*%
X-723901Y4483099D03*
X5422899Y10629899D03*
%TD*%
M02*
