%TF.GenerationSoftware,KiCad,Pcbnew,(6.0.1)*%
%TF.CreationDate,2022-03-04T16:45:30-06:00*%
%TF.ProjectId,samara,73616d61-7261-42e6-9b69-6361645f7063,rev?*%
%TF.SameCoordinates,PX7df6181PY82ce53f*%
%TF.FileFunction,Copper,L1,Top*%
%TF.FilePolarity,Positive*%
%FSLAX46Y46*%
G04 Gerber Fmt 4.6, Leading zero omitted, Abs format (unit mm)*
G04 Created by KiCad (PCBNEW (6.0.1)) date 2022-03-04 16:45:30*
%MOMM*%
%LPD*%
G01*
G04 APERTURE LIST*
G04 Aperture macros list*
%AMRoundRect*
0 Rectangle with rounded corners*
0 $1 Rounding radius*
0 $2 $3 $4 $5 $6 $7 $8 $9 X,Y pos of 4 corners*
0 Add a 4 corners polygon primitive as box body*
4,1,4,$2,$3,$4,$5,$6,$7,$8,$9,$2,$3,0*
0 Add four circle primitives for the rounded corners*
1,1,$1+$1,$2,$3*
1,1,$1+$1,$4,$5*
1,1,$1+$1,$6,$7*
1,1,$1+$1,$8,$9*
0 Add four rect primitives between the rounded corners*
20,1,$1+$1,$2,$3,$4,$5,0*
20,1,$1+$1,$4,$5,$6,$7,0*
20,1,$1+$1,$6,$7,$8,$9,0*
20,1,$1+$1,$8,$9,$2,$3,0*%
G04 Aperture macros list end*
%TA.AperFunction,EtchedComponent*%
%ADD10C,0.254000*%
%TD*%
%TA.AperFunction,SMDPad,CuDef*%
%ADD11RoundRect,0.049000X0.126000X0.241000X-0.126000X0.241000X-0.126000X-0.241000X0.126000X-0.241000X0*%
%TD*%
%TA.AperFunction,SMDPad,CuDef*%
%ADD12RoundRect,0.049000X0.241000X-0.126000X0.241000X0.126000X-0.241000X0.126000X-0.241000X-0.126000X0*%
%TD*%
%TA.AperFunction,ComponentPad*%
%ADD13C,1.879600*%
%TD*%
%TA.AperFunction,SMDPad,CuDef*%
%ADD14R,1.500000X3.500000*%
%TD*%
%TA.AperFunction,SMDPad,CuDef*%
%ADD15RoundRect,0.135000X-0.135000X-0.185000X0.135000X-0.185000X0.135000X0.185000X-0.135000X0.185000X0*%
%TD*%
%TA.AperFunction,SMDPad,CuDef*%
%ADD16RoundRect,0.150000X-0.587500X-0.150000X0.587500X-0.150000X0.587500X0.150000X-0.587500X0.150000X0*%
%TD*%
%TA.AperFunction,SMDPad,CuDef*%
%ADD17RoundRect,0.135000X0.135000X0.185000X-0.135000X0.185000X-0.135000X-0.185000X0.135000X-0.185000X0*%
%TD*%
%TA.AperFunction,SMDPad,CuDef*%
%ADD18R,0.600000X1.000000*%
%TD*%
%TA.AperFunction,SMDPad,CuDef*%
%ADD19RoundRect,0.150000X-0.825000X-0.150000X0.825000X-0.150000X0.825000X0.150000X-0.825000X0.150000X0*%
%TD*%
%TA.AperFunction,SMDPad,CuDef*%
%ADD20RoundRect,0.140000X-0.140000X-0.170000X0.140000X-0.170000X0.140000X0.170000X-0.140000X0.170000X0*%
%TD*%
%TA.AperFunction,SMDPad,CuDef*%
%ADD21R,0.300000X1.150000*%
%TD*%
%TA.AperFunction,ComponentPad*%
%ADD22O,1.000000X2.100000*%
%TD*%
%TA.AperFunction,ComponentPad*%
%ADD23O,1.000000X1.600000*%
%TD*%
%TA.AperFunction,SMDPad,CuDef*%
%ADD24RoundRect,0.140000X0.170000X-0.140000X0.170000X0.140000X-0.170000X0.140000X-0.170000X-0.140000X0*%
%TD*%
%TA.AperFunction,SMDPad,CuDef*%
%ADD25R,1.400000X2.100000*%
%TD*%
%TA.AperFunction,SMDPad,CuDef*%
%ADD26R,0.497840X0.347980*%
%TD*%
%TA.AperFunction,SMDPad,CuDef*%
%ADD27RoundRect,0.150000X0.150000X-0.512500X0.150000X0.512500X-0.150000X0.512500X-0.150000X-0.512500X0*%
%TD*%
%TA.AperFunction,SMDPad,CuDef*%
%ADD28R,0.599440X1.348740*%
%TD*%
%TA.AperFunction,SMDPad,CuDef*%
%ADD29R,1.198880X1.998980*%
%TD*%
%TA.AperFunction,SMDPad,CuDef*%
%ADD30RoundRect,0.135000X0.185000X-0.135000X0.185000X0.135000X-0.185000X0.135000X-0.185000X-0.135000X0*%
%TD*%
%TA.AperFunction,SMDPad,CuDef*%
%ADD31RoundRect,0.140000X-0.170000X0.140000X-0.170000X-0.140000X0.170000X-0.140000X0.170000X0.140000X0*%
%TD*%
%TA.AperFunction,ConnectorPad*%
%ADD32C,3.800000*%
%TD*%
%TA.AperFunction,ComponentPad*%
%ADD33C,2.600000*%
%TD*%
%TA.AperFunction,SMDPad,CuDef*%
%ADD34RoundRect,0.135000X-0.185000X0.135000X-0.185000X-0.135000X0.185000X-0.135000X0.185000X0.135000X0*%
%TD*%
%TA.AperFunction,SMDPad,CuDef*%
%ADD35RoundRect,0.050000X-0.050000X0.387500X-0.050000X-0.387500X0.050000X-0.387500X0.050000X0.387500X0*%
%TD*%
%TA.AperFunction,SMDPad,CuDef*%
%ADD36RoundRect,0.050000X-0.387500X0.050000X-0.387500X-0.050000X0.387500X-0.050000X0.387500X0.050000X0*%
%TD*%
%TA.AperFunction,ComponentPad*%
%ADD37C,0.600000*%
%TD*%
%TA.AperFunction,SMDPad,CuDef*%
%ADD38RoundRect,0.144000X-1.456000X1.456000X-1.456000X-1.456000X1.456000X-1.456000X1.456000X1.456000X0*%
%TD*%
%TA.AperFunction,SMDPad,CuDef*%
%ADD39RoundRect,0.250000X1.500000X-0.250000X1.500000X0.250000X-1.500000X0.250000X-1.500000X-0.250000X0*%
%TD*%
%TA.AperFunction,SMDPad,CuDef*%
%ADD40RoundRect,0.250001X1.449999X-0.499999X1.449999X0.499999X-1.449999X0.499999X-1.449999X-0.499999X0*%
%TD*%
%TA.AperFunction,SMDPad,CuDef*%
%ADD41R,1.270000X0.635000*%
%TD*%
%TA.AperFunction,SMDPad,CuDef*%
%ADD42RoundRect,0.218750X-0.218750X-0.256250X0.218750X-0.256250X0.218750X0.256250X-0.218750X0.256250X0*%
%TD*%
%TA.AperFunction,SMDPad,CuDef*%
%ADD43R,1.099820X1.198880*%
%TD*%
%TA.AperFunction,SMDPad,CuDef*%
%ADD44R,0.635000X1.270000*%
%TD*%
%TA.AperFunction,ViaPad*%
%ADD45C,0.800000*%
%TD*%
%TA.AperFunction,Conductor*%
%ADD46C,0.160000*%
%TD*%
%TA.AperFunction,Conductor*%
%ADD47C,0.200000*%
%TD*%
G04 APERTURE END LIST*
D10*
%TO.C,JP1*%
X7111999Y20853399D02*
X7111999Y19837399D01*
X7111999Y20853399D02*
X7111999Y21869399D01*
%TD*%
D11*
%TO.P,U2,16,INT1*%
%TO.N,unconnected-(U2-Pad16)*%
X1625599Y18409999D03*
D12*
%TO.P,U2,15,SDO1*%
%TO.N,GND*%
X2785599Y18819999D03*
%TO.P,U2,14,CSB1*%
%TO.N,unconnected-(U2-Pad14)*%
X2785599Y19319999D03*
%TO.P,U2,13,INT4*%
%TO.N,unconnected-(U2-Pad13)*%
X2785599Y19819999D03*
%TO.P,U2,12,INT3*%
%TO.N,unconnected-(U2-Pad12)*%
X2785599Y20319999D03*
%TO.P,U2,11,VDDIO*%
%TO.N,+3V3*%
X2785599Y20819999D03*
%TO.P,U2,10,SDO2*%
%TO.N,GND*%
X2785599Y21319999D03*
%TO.P,U2,9,SDA/SDI*%
%TO.N,/SDA*%
X2785599Y21819999D03*
D11*
%TO.P,U2,8,SCL/SCK*%
%TO.N,/SCL*%
X1625599Y22229999D03*
D12*
%TO.P,U2,7,PS*%
%TO.N,+3V3*%
X465599Y21819999D03*
%TO.P,U2,6,GNDIO*%
%TO.N,GND*%
X465599Y21319999D03*
%TO.P,U2,5,CSB2*%
%TO.N,unconnected-(U2-Pad5)*%
X465599Y20819999D03*
%TO.P,U2,4,GNDA*%
%TO.N,GND*%
X465599Y20319999D03*
%TO.P,U2,3,VDD*%
%TO.N,+3V3*%
X465599Y19819999D03*
%TO.P,U2,2*%
%TO.N,N/C*%
X465599Y19319999D03*
%TO.P,U2,1,INT2*%
%TO.N,unconnected-(U2-Pad1)*%
X465599Y18819999D03*
%TD*%
D13*
%TO.P,J6,1,1*%
%TO.N,GND*%
X16509999Y26111199D03*
%TO.P,J6,2,2*%
%TO.N,/RX*%
X19049999Y26111199D03*
%TO.P,J6,3,3*%
%TO.N,/TX*%
X21589999Y26111199D03*
%TD*%
%TO.P,J5,1,1*%
%TO.N,GND*%
X1777999Y16255999D03*
%TO.P,J5,2,2*%
%TO.N,Net-(J5-Pad2)*%
X-762001Y16255999D03*
%TD*%
D14*
%TO.P,J2,G3*%
%TO.N,GND*%
X347999Y26161999D03*
%TO.P,J2,G4*%
X5747999Y26161999D03*
%TD*%
D15*
%TO.P,R19,1*%
%TO.N,Net-(JP1-Pad1)*%
X8456199Y20878799D03*
%TO.P,R19,2*%
%TO.N,/SDA*%
X9476199Y20878799D03*
%TD*%
D16*
%TO.P,Q1,1,G*%
%TO.N,VBUS*%
X23954499Y9839999D03*
%TO.P,Q1,2,S*%
%TO.N,Net-(C4-Pad1)*%
X23954499Y7939999D03*
%TO.P,Q1,3,D*%
%TO.N,+BATT*%
X25829499Y8889999D03*
%TD*%
D17*
%TO.P,R14,2*%
%TO.N,Net-(R14-Pad2)*%
X16558799Y23875999D03*
%TO.P,R14,1*%
%TO.N,+3V3*%
X17578799Y23875999D03*
%TD*%
D18*
%TO.P,D3,1,DOUT*%
%TO.N,unconnected-(D3-Pad1)*%
X1432799Y5527799D03*
%TO.P,D3,2,VSS*%
%TO.N,GND*%
X2732799Y5527799D03*
%TO.P,D3,3,DIN*%
%TO.N,/LED1*%
X2732799Y7527799D03*
%TO.P,D3,4,VDD*%
%TO.N,+3V3*%
X1432799Y7527799D03*
%TD*%
D19*
%TO.P,U4,1,~{CS}*%
%TO.N,/QSPI_CS*%
X20384999Y21970999D03*
%TO.P,U4,2,DO(IO1)*%
%TO.N,/QSPI_DATA1*%
X20384999Y20700999D03*
%TO.P,U4,3,IO2*%
%TO.N,/QSPI_DATA2*%
X20384999Y19430999D03*
%TO.P,U4,4,GND*%
%TO.N,GND*%
X20384999Y18160999D03*
%TO.P,U4,5,DI(IO0)*%
%TO.N,/QSPI_DATA0*%
X25334999Y18160999D03*
%TO.P,U4,6,CLK*%
%TO.N,/QSPI_SCLK*%
X25334999Y19430999D03*
%TO.P,U4,7,IO3*%
%TO.N,/QSPI_DATA3*%
X25334999Y20700999D03*
%TO.P,U4,8,VCC*%
%TO.N,+3V3*%
X25334999Y21970999D03*
%TD*%
D20*
%TO.P,C4,1*%
%TO.N,Net-(C4-Pad1)*%
X18823999Y10667999D03*
%TO.P,C4,2*%
%TO.N,GND*%
X19783999Y10667999D03*
%TD*%
D17*
%TO.P,R11,1*%
%TO.N,Net-(C4-Pad1)*%
X21845999Y10667999D03*
%TO.P,R11,2*%
%TO.N,Net-(R11-Pad2)*%
X20825999Y10667999D03*
%TD*%
D15*
%TO.P,R2,1*%
%TO.N,Net-(C1-Pad2)*%
X3807999Y14477999D03*
%TO.P,R2,2*%
%TO.N,Net-(R2-Pad2)*%
X4827999Y14477999D03*
%TD*%
D21*
%TO.P,P1,A1,GND*%
%TO.N,GND*%
X7063999Y3669999D03*
%TO.P,P1,A4,VBUS*%
%TO.N,VBUS*%
X7863999Y3669999D03*
%TO.P,P1,A5,CC*%
%TO.N,Net-(P1-PadA5)*%
X9163999Y3669999D03*
%TO.P,P1,A6,D+*%
%TO.N,Net-(P1-PadA6)*%
X10163999Y3669999D03*
%TO.P,P1,A7,D-*%
%TO.N,Net-(P1-PadA7)*%
X10663999Y3669999D03*
%TO.P,P1,A8*%
%TO.N,N/C*%
X11663999Y3669999D03*
%TO.P,P1,A9,VBUS*%
%TO.N,VBUS*%
X12963999Y3669999D03*
%TO.P,P1,A12,GND*%
%TO.N,GND*%
X13763999Y3669999D03*
%TO.P,P1,B1,GND*%
X13463999Y3669999D03*
%TO.P,P1,B4,VBUS*%
%TO.N,VBUS*%
X12663999Y3669999D03*
%TO.P,P1,B5,VCONN*%
%TO.N,Net-(P1-PadB5)*%
X12163999Y3669999D03*
%TO.P,P1,B6*%
%TO.N,N/C*%
X11163999Y3669999D03*
%TO.P,P1,B7*%
X9663999Y3669999D03*
%TO.P,P1,B8*%
X8663999Y3669999D03*
%TO.P,P1,B9,VBUS*%
%TO.N,VBUS*%
X8163999Y3669999D03*
%TO.P,P1,B12,GND*%
%TO.N,GND*%
X7363999Y3669999D03*
D22*
%TO.P,P1,S1,SHIELD*%
%TO.N,unconnected-(P1-PadS1)*%
X14733999Y3104999D03*
D23*
X14733999Y-1075001D03*
D22*
X6093999Y3104999D03*
D23*
X6093999Y-1075001D03*
%TD*%
D20*
%TO.P,C8,1*%
%TO.N,+3V3*%
X3837999Y16763999D03*
%TO.P,C8,2*%
%TO.N,GND*%
X4797999Y16763999D03*
%TD*%
D24*
%TO.P,C3,1*%
%TO.N,+BATT*%
X17271999Y5135999D03*
%TO.P,C3,2*%
%TO.N,GND*%
X17271999Y6095999D03*
%TD*%
D17*
%TO.P,R8,1*%
%TO.N,Net-(D1-Pad1)*%
X23115999Y16001999D03*
%TO.P,R8,2*%
%TO.N,Net-(R8-Pad2)*%
X22095999Y16001999D03*
%TD*%
D25*
%TO.P,D2,1,K*%
%TO.N,Net-(C4-Pad1)*%
X21757999Y8381999D03*
%TO.P,D2,2,A*%
%TO.N,VBUS*%
X17357999Y8381999D03*
%TD*%
D26*
%TO.P,U3,1,GND*%
%TO.N,GND*%
X17787619Y22816819D03*
%TO.P,U3,2,~{CS}*%
%TO.N,Net-(R14-Pad2)*%
X17787619Y22166579D03*
%TO.P,U3,3,SDI/SDA*%
%TO.N,/SDA*%
X17787619Y21521419D03*
%TO.P,U3,4,SCK/SCL*%
%TO.N,/SCL*%
X17787619Y20871179D03*
%TO.P,U3,5,SDO/ADR*%
%TO.N,/ADR*%
X15740379Y20871179D03*
%TO.P,U3,6,VDDIO*%
%TO.N,+3V3*%
X15740379Y21521419D03*
%TO.P,U3,7,GND*%
%TO.N,GND*%
X15740379Y22166579D03*
%TO.P,U3,8,VDD*%
%TO.N,+3V3*%
X15740379Y22816819D03*
%TD*%
D27*
%TO.P,U7,1,VIN*%
%TO.N,Net-(C4-Pad1)*%
X18861999Y12832499D03*
%TO.P,U7,2,GND*%
%TO.N,GND*%
X19811999Y12832499D03*
%TO.P,U7,3,EN*%
%TO.N,Net-(R11-Pad2)*%
X20761999Y12832499D03*
%TO.P,U7,4,NC*%
%TO.N,unconnected-(U7-Pad4)*%
X20761999Y15107499D03*
%TO.P,U7,5,VOUT*%
%TO.N,+3V3*%
X18861999Y15107499D03*
%TD*%
D24*
%TO.P,C1,1*%
%TO.N,GND*%
X3809999Y12473999D03*
%TO.P,C1,2*%
%TO.N,Net-(C1-Pad2)*%
X3809999Y13433999D03*
%TD*%
D28*
%TO.P,J3,1,GND*%
%TO.N,GND*%
X12572999Y22916514D03*
%TO.P,J3,2,VCC*%
%TO.N,+3V3*%
X11572239Y22916514D03*
%TO.P,J3,3,SDA*%
%TO.N,/SDA*%
X10576559Y22916514D03*
%TO.P,J3,4,SCL*%
%TO.N,/SCL*%
X9575799Y22916514D03*
D29*
%TO.P,J3,NC1*%
%TO.N,N/C*%
X8275319Y26589354D03*
%TO.P,J3,NC2*%
X13873479Y26589354D03*
%TD*%
D30*
%TO.P,R7,1*%
%TO.N,Net-(P1-PadB5)*%
X11683999Y5839999D03*
%TO.P,R7,2*%
%TO.N,GND*%
X11683999Y6859999D03*
%TD*%
D31*
%TO.P,C6,1*%
%TO.N,+3V3*%
X5029199Y20215799D03*
%TO.P,C6,2*%
%TO.N,GND*%
X5029199Y19255799D03*
%TD*%
D32*
%TO.P,H1,1,1*%
%TO.N,GND*%
X25399999Y25399999D03*
D33*
X25399999Y25399999D03*
%TD*%
D27*
%TO.P,U6,1,STAT*%
%TO.N,Net-(R8-Pad2)*%
X23433999Y12070499D03*
%TO.P,U6,2,VSS*%
%TO.N,GND*%
X24383999Y12070499D03*
%TO.P,U6,3,VBAT*%
%TO.N,+BATT*%
X25333999Y12070499D03*
%TO.P,U6,4,VIN*%
%TO.N,VBUS*%
X25333999Y14345499D03*
%TO.P,U6,5,PROG*%
%TO.N,Net-(R9-Pad1)*%
X23433999Y14345499D03*
%TD*%
D17*
%TO.P,R3,1*%
%TO.N,+3V3*%
X22557199Y23418799D03*
%TO.P,R3,2*%
%TO.N,/QSPI_CS*%
X21537199Y23418799D03*
%TD*%
D31*
%TO.P,C9,1*%
%TO.N,+3V3*%
X-1168401Y19529999D03*
%TO.P,C9,2*%
%TO.N,GND*%
X-1168401Y18569999D03*
%TD*%
D34*
%TO.P,R9,1*%
%TO.N,Net-(R9-Pad1)*%
X22097999Y14225999D03*
%TO.P,R9,2*%
%TO.N,GND*%
X22097999Y13205999D03*
%TD*%
%TO.P,R1,1*%
%TO.N,+3V3*%
X4825999Y13463999D03*
%TO.P,R1,2*%
%TO.N,Net-(J5-Pad2)*%
X4825999Y12443999D03*
%TD*%
D35*
%TO.P,U1,1,IOVDD*%
%TO.N,+3V3*%
X13267999Y17407499D03*
%TO.P,U1,2,GPIO0*%
%TO.N,/TX*%
X12867999Y17407499D03*
%TO.P,U1,3,GPIO1*%
%TO.N,/RX*%
X12467999Y17407499D03*
%TO.P,U1,4,GPIO2*%
%TO.N,/SDA*%
X12067999Y17407499D03*
%TO.P,U1,5,GPIO3*%
%TO.N,/SCL*%
X11667999Y17407499D03*
%TO.P,U1,6,GPIO4*%
%TO.N,unconnected-(U1-Pad6)*%
X11267999Y17407499D03*
%TO.P,U1,7,GPIO5*%
%TO.N,unconnected-(U1-Pad7)*%
X10867999Y17407499D03*
%TO.P,U1,8,GPIO6*%
%TO.N,unconnected-(U1-Pad8)*%
X10467999Y17407499D03*
%TO.P,U1,9,GPIO7*%
%TO.N,unconnected-(U1-Pad9)*%
X10067999Y17407499D03*
%TO.P,U1,10,IOVDD*%
%TO.N,unconnected-(U1-Pad10)*%
X9667999Y17407499D03*
%TO.P,U1,11,GPIO8*%
%TO.N,unconnected-(U1-Pad11)*%
X9267999Y17407499D03*
%TO.P,U1,12,GPIO9*%
%TO.N,unconnected-(U1-Pad12)*%
X8867999Y17407499D03*
%TO.P,U1,13,GPIO10*%
%TO.N,unconnected-(U1-Pad13)*%
X8467999Y17407499D03*
%TO.P,U1,14,GPIO11*%
%TO.N,/BUZZ*%
X8067999Y17407499D03*
D36*
%TO.P,U1,15,GPIO12*%
%TO.N,unconnected-(U1-Pad15)*%
X7230499Y16569999D03*
%TO.P,U1,16,GPIO13*%
%TO.N,unconnected-(U1-Pad16)*%
X7230499Y16169999D03*
%TO.P,U1,17,GPIO14*%
%TO.N,unconnected-(U1-Pad17)*%
X7230499Y15769999D03*
%TO.P,U1,18,GPIO15*%
%TO.N,unconnected-(U1-Pad18)*%
X7230499Y15369999D03*
%TO.P,U1,19,TESTEN*%
%TO.N,GND*%
X7230499Y14969999D03*
%TO.P,U1,20,XIN*%
%TO.N,Net-(C2-Pad2)*%
X7230499Y14569999D03*
%TO.P,U1,21,XOUT*%
%TO.N,Net-(R2-Pad2)*%
X7230499Y14169999D03*
%TO.P,U1,22,IOVDD*%
%TO.N,unconnected-(U1-Pad22)*%
X7230499Y13769999D03*
%TO.P,U1,23,DVDD*%
%TO.N,unconnected-(U1-Pad23)*%
X7230499Y13369999D03*
%TO.P,U1,24,SWCLK*%
%TO.N,unconnected-(U1-Pad24)*%
X7230499Y12969999D03*
%TO.P,U1,25,SWD*%
%TO.N,unconnected-(U1-Pad25)*%
X7230499Y12569999D03*
%TO.P,U1,26,RUN*%
%TO.N,Net-(J5-Pad2)*%
X7230499Y12169999D03*
%TO.P,U1,27,GPIO16*%
%TO.N,/LED1*%
X7230499Y11769999D03*
%TO.P,U1,28,GPIO17*%
%TO.N,unconnected-(U1-Pad28)*%
X7230499Y11369999D03*
D35*
%TO.P,U1,29,GPIO18*%
%TO.N,unconnected-(U1-Pad29)*%
X8067999Y10532499D03*
%TO.P,U1,30,GPIO19*%
%TO.N,/SCK*%
X8467999Y10532499D03*
%TO.P,U1,31,GPIO20*%
%TO.N,/PICO*%
X8867999Y10532499D03*
%TO.P,U1,32,GPIO21*%
%TO.N,/POCI*%
X9267999Y10532499D03*
%TO.P,U1,33,IOVDD*%
%TO.N,unconnected-(U1-Pad33)*%
X9667999Y10532499D03*
%TO.P,U1,34,GPIO22*%
%TO.N,unconnected-(U1-Pad34)*%
X10067999Y10532499D03*
%TO.P,U1,35,GPIO23*%
%TO.N,unconnected-(U1-Pad35)*%
X10467999Y10532499D03*
%TO.P,U1,36,GPIO24*%
%TO.N,unconnected-(U1-Pad36)*%
X10867999Y10532499D03*
%TO.P,U1,37,GPIO25*%
%TO.N,unconnected-(U1-Pad37)*%
X11267999Y10532499D03*
%TO.P,U1,38,GPIO26_ADC0*%
%TO.N,unconnected-(U1-Pad38)*%
X11667999Y10532499D03*
%TO.P,U1,39,GPIO27_ADC1*%
%TO.N,unconnected-(U1-Pad39)*%
X12067999Y10532499D03*
%TO.P,U1,40,GPIO28_ADC2*%
%TO.N,unconnected-(U1-Pad40)*%
X12467999Y10532499D03*
%TO.P,U1,41,GPIO29_ADC3*%
%TO.N,unconnected-(U1-Pad41)*%
X12867999Y10532499D03*
%TO.P,U1,42,IOVDD*%
%TO.N,unconnected-(U1-Pad42)*%
X13267999Y10532499D03*
D36*
%TO.P,U1,43,ADC_AVDD*%
%TO.N,+3V3*%
X14105499Y11369999D03*
%TO.P,U1,44,VREG_IN*%
X14105499Y11769999D03*
%TO.P,U1,45,VREG_VOUT*%
%TO.N,unconnected-(U1-Pad45)*%
X14105499Y12169999D03*
%TO.P,U1,46,USB_DM*%
%TO.N,/D-*%
X14105499Y12569999D03*
%TO.P,U1,47,USB_DP*%
%TO.N,/D+*%
X14105499Y12969999D03*
%TO.P,U1,48,USB_VDD*%
%TO.N,+3V3*%
X14105499Y13369999D03*
%TO.P,U1,49,IOVDD*%
%TO.N,unconnected-(U1-Pad49)*%
X14105499Y13769999D03*
%TO.P,U1,50,DVDD*%
%TO.N,unconnected-(U1-Pad50)*%
X14105499Y14169999D03*
%TO.P,U1,51,QSPI_SD3*%
%TO.N,/QSPI_DATA3*%
X14105499Y14569999D03*
%TO.P,U1,52,QSPI_SCLK*%
%TO.N,/QSPI_SCLK*%
X14105499Y14969999D03*
%TO.P,U1,53,QSPI_SD0*%
%TO.N,/QSPI_DATA0*%
X14105499Y15369999D03*
%TO.P,U1,54,QSPI_SD2*%
%TO.N,/QSPI_DATA2*%
X14105499Y15769999D03*
%TO.P,U1,55,QSPI_SD1*%
%TO.N,/QSPI_DATA1*%
X14105499Y16169999D03*
%TO.P,U1,56,QSPI_SS*%
%TO.N,/QSPI_CS*%
X14105499Y16569999D03*
D37*
%TO.P,U1,57,GND*%
%TO.N,GND*%
X9392999Y12694999D03*
D38*
X10667999Y13969999D03*
D37*
X11942999Y13969999D03*
X11942999Y12694999D03*
X9392999Y15244999D03*
X10667999Y15244999D03*
X11942999Y15244999D03*
X10667999Y13969999D03*
X10667999Y12694999D03*
X9392999Y13969999D03*
%TD*%
D20*
%TO.P,C2,1*%
%TO.N,GND*%
X3837999Y15493999D03*
%TO.P,C2,2*%
%TO.N,Net-(C2-Pad2)*%
X4797999Y15493999D03*
%TD*%
D17*
%TO.P,R18,1*%
%TO.N,/SCL*%
X9450799Y19862799D03*
%TO.P,R18,2*%
%TO.N,Net-(JP1-Pad3)*%
X8430799Y19862799D03*
%TD*%
D31*
%TO.P,C7,1*%
%TO.N,VBUS*%
X26669999Y12671999D03*
%TO.P,C7,2*%
%TO.N,GND*%
X26669999Y11711999D03*
%TD*%
D39*
%TO.P,J1,1,1*%
%TO.N,GND*%
X18739999Y1285999D03*
%TO.P,J1,2,2*%
%TO.N,+BATT*%
X18739999Y3285999D03*
D40*
%TO.P,J1,MP*%
%TO.N,N/C*%
X24489999Y-1064001D03*
X24489999Y5635999D03*
%TD*%
D30*
%TO.P,R5,1*%
%TO.N,Net-(P1-PadA6)*%
X9651999Y5839999D03*
%TO.P,R5,2*%
%TO.N,/D+*%
X9651999Y6859999D03*
%TD*%
D41*
%TO.P,JP1,1,1*%
%TO.N,Net-(JP1-Pad1)*%
X7111999Y21869399D03*
%TO.P,JP1,2,2*%
%TO.N,+3V3*%
X7111999Y20853399D03*
%TO.P,JP1,3,3*%
%TO.N,Net-(JP1-Pad3)*%
X7111999Y19837399D03*
%TD*%
D30*
%TO.P,R6,1*%
%TO.N,Net-(P1-PadA5)*%
X8635999Y5839999D03*
%TO.P,R6,2*%
%TO.N,GND*%
X8635999Y6859999D03*
%TD*%
D42*
%TO.P,D1,1,K*%
%TO.N,Net-(D1-Pad1)*%
X24358499Y16001999D03*
%TO.P,D1,2,A*%
%TO.N,VBUS*%
X25933499Y16001999D03*
%TD*%
D43*
%TO.P,Y1,1,1*%
%TO.N,Net-(C1-Pad2)*%
X1889759Y11018519D03*
%TO.P,Y1,2*%
%TO.N,N/C*%
X1889759Y13365479D03*
%TO.P,Y1,3,2*%
%TO.N,Net-(C2-Pad2)*%
X142239Y13365479D03*
%TO.P,Y1,4*%
%TO.N,N/C*%
X142239Y11018519D03*
%TD*%
D32*
%TO.P,H2,1,1*%
%TO.N,GND*%
X-1Y-1D03*
D33*
X-1Y-1D03*
%TD*%
D30*
%TO.P,R10,1*%
%TO.N,VBUS*%
X12699999Y5839999D03*
%TO.P,R10,2*%
%TO.N,GND*%
X12699999Y6859999D03*
%TD*%
D44*
%TO.P,JP2,1,A*%
%TO.N,GND*%
X19608799Y23444199D03*
%TO.P,JP2,2,B*%
%TO.N,/QSPI_CS*%
X20421599Y23444199D03*
%TD*%
D30*
%TO.P,R4,1*%
%TO.N,Net-(P1-PadA7)*%
X10667999Y5839999D03*
%TO.P,R4,2*%
%TO.N,/D-*%
X10667999Y6859999D03*
%TD*%
D45*
%TO.N,GND*%
X5918199Y16636999D03*
X3936999Y19049999D03*
X1092199Y23469599D03*
X3987799Y10566399D03*
%TO.N,/SCL*%
X17500599Y19862799D03*
%TO.N,GND*%
X12191999Y1015999D03*
X8635999Y1015999D03*
X4063999Y-1016001D03*
X4063999Y1269999D03*
X4063999Y3555999D03*
X4063999Y4825999D03*
X-1016001Y23367999D03*
X9905999Y24942799D03*
X11937999Y24891999D03*
X11937999Y26489541D03*
X9905999Y26489541D03*
%TO.N,/TX*%
X14477999Y19557999D03*
%TO.N,/RX*%
X13461999Y19557999D03*
%TO.N,+3V3*%
X17525999Y13969999D03*
X5079999Y18033999D03*
X5841999Y13461999D03*
X23748999Y21970999D03*
%TO.N,/SDA*%
X5488519Y21490519D03*
X11875443Y19311515D03*
%TO.N,/SCL*%
X10667999Y19557999D03*
X5867935Y22415208D03*
%TO.N,/SCK*%
X7873999Y8889999D03*
%TO.N,/PICO*%
X8889999Y8889999D03*
%TO.N,/POCI*%
X9905999Y8889999D03*
%TO.N,+3V3*%
X1396999Y8712199D03*
%TO.N,GND*%
X18531419Y24013579D03*
X26923999Y14477999D03*
X7365999Y24129999D03*
X-914401Y20573999D03*
X-1524001Y3047999D03*
X15747999Y9397999D03*
X22859999Y1269999D03*
X-1524001Y9905999D03*
X22097999Y11937999D03*
X12191999Y-1016001D03*
X27177999Y20827999D03*
X22605999Y18541999D03*
X-1524001Y6857999D03*
X5587999Y8889999D03*
X25399999Y1269999D03*
X8635999Y-1016001D03*
X15239999Y24129999D03*
X27177999Y8127999D03*
X4571999Y21081999D03*
X17779999Y-1016001D03*
X20573999Y-1016001D03*
X6349999Y6095999D03*
%TO.N,/D+*%
X15847763Y12495881D03*
X10921999Y8889999D03*
%TO.N,VBUS*%
X24129999Y8889999D03*
X26923999Y10159999D03*
X17271999Y10413999D03*
%TO.N,/BUZZ*%
X7619999Y18795999D03*
%TD*%
D46*
%TO.N,+3V3*%
X15925799Y23002239D02*
X15740379Y22816819D01*
X15925799Y24149218D02*
X15925799Y23002239D01*
X16979279Y24475519D02*
X16252100Y24475519D01*
X16252100Y24475519D02*
X15925799Y24149218D01*
X17578799Y23875999D02*
X16979279Y24475519D01*
%TO.N,/LED1*%
X6513479Y11568079D02*
X6715399Y11769999D01*
X6513479Y10679079D02*
X6513479Y11568079D01*
X5735998Y9901598D02*
X6513479Y10679079D01*
X6715399Y11769999D02*
X7230499Y11769999D01*
X5106598Y9901598D02*
X5735998Y9901598D01*
X2732799Y7527799D02*
X5106598Y9901598D01*
%TO.N,GND*%
X3809999Y10744199D02*
X3987799Y10566399D01*
X3809999Y12473999D02*
X3809999Y10744199D01*
%TO.N,Net-(J5-Pad2)*%
X-508001Y9905999D02*
X-1676401Y11074399D01*
X-1676401Y11074399D02*
X-1676401Y15341599D01*
X4694598Y10231798D02*
X4368799Y9905999D01*
X-1676401Y15341599D02*
X-762001Y16255999D01*
X4825999Y11062973D02*
X4694598Y10931572D01*
X4825999Y12443999D02*
X4825999Y11062973D01*
X4694598Y10931572D02*
X4694598Y10231798D01*
X4368799Y9905999D02*
X-508001Y9905999D01*
%TO.N,+3V3*%
X1432799Y8676399D02*
X1396999Y8712199D01*
X1432799Y7527799D02*
X1432799Y8676399D01*
X18190690Y24693090D02*
X17703799Y24206199D01*
X21282908Y24693090D02*
X18190690Y24693090D01*
X22557199Y23418799D02*
X21282908Y24693090D01*
X22557199Y23162799D02*
X23748999Y21970999D01*
X22557199Y23418799D02*
X22557199Y23162799D01*
%TO.N,GND*%
X18531419Y23560619D02*
X17787619Y22816819D01*
X18531419Y24013579D02*
X18531419Y23560619D01*
%TO.N,/SDA*%
X12067999Y19118959D02*
X12067999Y17407499D01*
X11875443Y21017555D02*
X10576559Y22316439D01*
X11875443Y19311515D02*
X12067999Y19118959D01*
X11875443Y19311515D02*
X11875443Y21017555D01*
X17378699Y21521419D02*
X17787619Y21521419D01*
X16177279Y20319999D02*
X17378699Y21521419D01*
X11875443Y19311515D02*
X12883927Y20319999D01*
X12883927Y20319999D02*
X16177279Y20319999D01*
X10576559Y22316439D02*
X10576559Y22916514D01*
%TO.N,/SCL*%
X17787619Y20149819D02*
X17500599Y19862799D01*
X17787619Y20871179D02*
X17787619Y20149819D01*
%TO.N,+3V3*%
X14113287Y21521419D02*
X15740379Y21521419D01*
X12420599Y21437599D02*
X14029467Y21437599D01*
X11572239Y22285959D02*
X12420599Y21437599D01*
X11572239Y22916514D02*
X11572239Y22285959D01*
X14029467Y21437599D02*
X14113287Y21521419D01*
%TO.N,/SCL*%
X9450799Y19862799D02*
X10363199Y19862799D01*
X10363199Y19862799D02*
X10667999Y19557999D01*
%TO.N,Net-(JP1-Pad3)*%
X7712305Y19862799D02*
X7399452Y19549946D01*
X8430799Y19862799D02*
X7712305Y19862799D01*
%TO.N,Net-(JP1-Pad1)*%
X7744999Y21589999D02*
X7619999Y21589999D01*
X8456199Y20878799D02*
X7744999Y21589999D01*
%TO.N,/SDA*%
X10413999Y23875999D02*
X10576559Y23713439D01*
X9002172Y23875999D02*
X10413999Y23875999D01*
X10576559Y23713439D02*
X10576559Y22916514D01*
X8996568Y23870395D02*
X9002172Y23875999D01*
X8996568Y21962633D02*
X8996568Y23870395D01*
X9279365Y21962633D02*
X8996568Y21962633D01*
X9476199Y21765799D02*
X9279365Y21962633D01*
X9476199Y20878799D02*
X9476199Y21765799D01*
%TO.N,/SCL*%
X9575799Y22541864D02*
X10667999Y21449664D01*
X10667999Y21449664D02*
X10667999Y19557999D01*
X9575799Y22916514D02*
X9575799Y22541864D01*
X11667999Y17407499D02*
X11667999Y18557999D01*
X11667999Y18557999D02*
X10667999Y19557999D01*
%TO.N,/TX*%
X12867999Y17947999D02*
X14477999Y19557999D01*
X12867999Y17407499D02*
X12867999Y17947999D01*
%TO.N,/RX*%
X12467999Y18563999D02*
X13461999Y19557999D01*
X12467999Y17407499D02*
X12467999Y18563999D01*
%TO.N,/SCL*%
X1810808Y22415208D02*
X1625599Y22229999D01*
X5867935Y22415208D02*
X1810808Y22415208D01*
%TO.N,/SDA*%
X5159039Y21819999D02*
X5488519Y21490519D01*
X2785599Y21819999D02*
X5159039Y21819999D01*
%TO.N,GND*%
X3193258Y21235499D02*
X4418499Y21235499D01*
X4418499Y21235499D02*
X4571999Y21081999D01*
X3108758Y21319999D02*
X3193258Y21235499D01*
X2785599Y21319999D02*
X3108758Y21319999D01*
%TO.N,+3V3*%
X4168199Y20215799D02*
X5029199Y20215799D01*
X3563999Y20819999D02*
X4168199Y20215799D01*
X2785599Y20819999D02*
X3563999Y20819999D01*
%TO.N,GND*%
X6591999Y14969999D02*
X7230499Y14969999D01*
X4797999Y16763999D02*
X6591999Y14969999D01*
%TO.N,+3V3*%
X5483799Y20215799D02*
X5841999Y20573999D01*
X5029199Y20215799D02*
X5483799Y20215799D01*
X5841999Y20573999D02*
X6095999Y20827999D01*
X5750670Y20482670D02*
X5841999Y20573999D01*
X18861999Y15107499D02*
X18663499Y15107499D01*
X6095999Y20827999D02*
X6705479Y20827999D01*
X17525999Y13969999D02*
X16925999Y13369999D01*
X18663499Y15107499D02*
X17525999Y13969999D01*
X4825999Y13463999D02*
X5839999Y13463999D01*
X5079999Y18033999D02*
X5750670Y18704670D01*
X16925999Y13369999D02*
X14105499Y13369999D01*
X23748999Y21970999D02*
X25334999Y21970999D01*
X3837999Y17017999D02*
X4853999Y18033999D01*
X5750670Y18704670D02*
X5750670Y20482670D01*
X5839999Y13463999D02*
X5841999Y13461999D01*
X4853999Y18033999D02*
X5079999Y18033999D01*
%TO.N,/QSPI_CS*%
X20523199Y22109199D02*
X20384999Y21970999D01*
X20523199Y23418799D02*
X20523199Y22109199D01*
X21537199Y23418799D02*
X20523199Y23418799D01*
%TO.N,/SCK*%
X8467999Y9483999D02*
X7873999Y8889999D01*
X8467999Y10532499D02*
X8467999Y9483999D01*
%TO.N,/PICO*%
X8867999Y10532499D02*
X8867999Y8911999D01*
X8867999Y8911999D02*
X8889999Y8889999D01*
%TO.N,/POCI*%
X9267999Y10532499D02*
X9267999Y9976488D01*
X9905999Y9338488D02*
X9905999Y8889999D01*
X9267999Y9976488D02*
X9905999Y9338488D01*
%TO.N,Net-(P1-PadA6)*%
X9653999Y5839999D02*
X10163999Y5329999D01*
X9651999Y5839999D02*
X9653999Y5839999D01*
X10163999Y5329999D02*
X10163999Y3669999D01*
%TO.N,Net-(P1-PadA7)*%
X10663999Y5835999D02*
X10663999Y3669999D01*
X10667999Y5839999D02*
X10663999Y5835999D01*
%TO.N,Net-(P1-PadB5)*%
X12163999Y4599999D02*
X12163999Y3669999D01*
X11683999Y5079999D02*
X12163999Y4599999D01*
X11683999Y5839999D02*
X11683999Y5079999D01*
%TO.N,+3V3*%
X16509034Y22457084D02*
X16149299Y22816819D01*
X13267999Y17407499D02*
X13267999Y13703988D01*
X-878401Y19819999D02*
X-1168401Y19529999D01*
X1035119Y20057922D02*
X1035119Y21624479D01*
X13601988Y13369999D02*
X13388479Y13156490D01*
X797196Y19819999D02*
X1035119Y20057922D01*
X1035119Y21624479D02*
X839599Y21819999D01*
X465599Y19819999D02*
X-878401Y19819999D01*
X13267999Y13703988D02*
X13601988Y13369999D01*
X16149299Y22816819D02*
X15740379Y22816819D01*
X14105499Y13369999D02*
X13601988Y13369999D01*
X13388479Y11983508D02*
X13601988Y11769999D01*
X2204002Y20819999D02*
X2785599Y20819999D01*
X13601988Y11769999D02*
X14105499Y11769999D01*
X16509034Y21881154D02*
X16509034Y22457084D01*
X839599Y21819999D02*
X465599Y21819999D01*
X13388479Y13156490D02*
X13388479Y11983508D01*
X14105499Y11769999D02*
X14105499Y11369999D01*
X465599Y19819999D02*
X797196Y19819999D01*
X465599Y21819999D02*
X1204002Y21819999D01*
X15740379Y21521419D02*
X16149299Y21521419D01*
X1204002Y21819999D02*
X2204002Y20819999D01*
X16149299Y21521419D02*
X16509034Y21881154D01*
%TO.N,GND*%
X19189912Y13774519D02*
X18534086Y13774519D01*
X25466432Y13207999D02*
X24637999Y13207999D01*
X8635999Y6859999D02*
X7363999Y5587999D01*
X2719180Y12879180D02*
X2719180Y12486528D01*
X18033999Y12699999D02*
X15747999Y10413999D01*
X-660401Y20319999D02*
X-914401Y20573999D01*
X7363999Y5587999D02*
X7363999Y3669999D01*
X-168401Y21319999D02*
X-914401Y20573999D01*
X20319999Y13969999D02*
X19811999Y13461999D01*
X22224999Y18160999D02*
X22605999Y18541999D01*
X25913519Y12468479D02*
X26669999Y11711999D01*
X9117999Y14969999D02*
X9392999Y15244999D01*
X3837999Y15493999D02*
X2719180Y14375180D01*
X24383999Y12070499D02*
X24383999Y11175999D01*
X2719180Y14375180D02*
X2719180Y12879180D01*
X465599Y20319999D02*
X-660401Y20319999D01*
X2424651Y12191999D02*
X-508001Y12191999D01*
X23113999Y10921999D02*
X22097999Y11937999D01*
X12699999Y6859999D02*
X13209999Y6859999D01*
X24637999Y13207999D02*
X24383999Y12953999D01*
X465599Y21319999D02*
X-168401Y21319999D01*
X19811999Y13152432D02*
X19189912Y13774519D01*
X11683999Y6859999D02*
X12699999Y6859999D01*
X24383999Y11175999D02*
X24129999Y10921999D01*
X22097999Y13205999D02*
X21333999Y13969999D01*
X19811999Y10695999D02*
X19783999Y10667999D01*
X2719180Y12486528D02*
X2424651Y12191999D01*
X20384999Y18160999D02*
X22224999Y18160999D01*
X13209999Y6859999D02*
X15747999Y9397999D01*
X22097999Y13205999D02*
X22097999Y11937999D01*
X25913519Y12760912D02*
X25466432Y13207999D01*
X18534086Y13774519D02*
X18033999Y13274432D01*
X18033999Y13274432D02*
X18033999Y12699999D01*
X15747999Y10413999D02*
X15747999Y9397999D01*
X7230499Y14969999D02*
X9117999Y14969999D01*
X19811999Y13461999D02*
X19811999Y12832499D01*
X21333999Y13969999D02*
X20319999Y13969999D01*
X24129999Y10921999D02*
X23113999Y10921999D01*
X19811999Y12832499D02*
X19811999Y10695999D01*
X24383999Y12953999D02*
X24383999Y12070499D01*
X25913519Y12468479D02*
X25913519Y12760912D01*
%TO.N,Net-(C1-Pad2)*%
X2382519Y11018519D02*
X1889759Y11018519D01*
X3809999Y14475999D02*
X3807999Y14477999D01*
X3220479Y12844479D02*
X3220479Y11856479D01*
X3220479Y11856479D02*
X2382519Y11018519D01*
X3809999Y13433999D02*
X3809999Y14475999D01*
X3809999Y13433999D02*
X3220479Y12844479D01*
%TO.N,/QSPI_CS*%
X19049999Y20643627D02*
X18735785Y20329413D01*
X19049999Y21335999D02*
X19049999Y20643627D01*
X18735785Y20329413D02*
X18540904Y20134532D01*
X20384999Y21970999D02*
X19684999Y21970999D01*
X18540904Y19051094D02*
X16059809Y16569999D01*
X19684999Y21970999D02*
X19049999Y21335999D01*
X16059809Y16569999D02*
X14105499Y16569999D01*
X18540904Y20134532D02*
X18540904Y19051094D01*
%TO.N,/QSPI_DATA1*%
X19049123Y19050875D02*
X16168247Y16169999D01*
X16168247Y16169999D02*
X14105499Y16169999D01*
X20072566Y20700999D02*
X19049123Y19677556D01*
X19049123Y19677556D02*
X19049123Y19050875D01*
X20384999Y20700999D02*
X20072566Y20700999D01*
%TO.N,/QSPI_DATA2*%
X19937685Y19430999D02*
X16276685Y15769999D01*
X16276685Y15769999D02*
X14105499Y15769999D01*
X20384999Y19430999D02*
X19937685Y19430999D01*
%TO.N,/QSPI_DATA0*%
X24699999Y17525999D02*
X18541123Y17525999D01*
X25334999Y18160999D02*
X24699999Y17525999D01*
X16385123Y15369999D02*
X14105499Y15369999D01*
X18541123Y17525999D02*
X16385123Y15369999D01*
%TO.N,/QSPI_SCLK*%
X26669999Y18408432D02*
X26669999Y17913566D01*
X25647432Y19430999D02*
X26669999Y18408432D01*
X26669999Y17913566D02*
X25922912Y17166479D01*
X25922912Y17166479D02*
X18690041Y17166479D01*
X18690041Y17166479D02*
X16493561Y14969999D01*
X25334999Y19430999D02*
X25647432Y19430999D01*
X16493561Y14969999D02*
X14105499Y14969999D01*
%TO.N,/QSPI_DATA3*%
X27029519Y17764648D02*
X27029519Y18557350D01*
X14105499Y14569999D02*
X16601999Y14569999D01*
X26028870Y16763999D02*
X27029519Y17764648D01*
X25334999Y20700999D02*
X25647432Y20700999D01*
X27029519Y18557350D02*
X26669999Y18916870D01*
X26669999Y19678432D02*
X26669999Y18916870D01*
X25647432Y20700999D02*
X26669999Y19678432D01*
X16601999Y14569999D02*
X18795999Y16763999D01*
X18795999Y16763999D02*
X26028870Y16763999D01*
D47*
%TO.N,/D+*%
X10921999Y8889999D02*
X10919999Y8889999D01*
X15373645Y12969999D02*
X15847763Y12495881D01*
X10919999Y8889999D02*
X9651999Y7621999D01*
X9651999Y7621999D02*
X9651999Y6859999D01*
X14105499Y12969999D02*
X15373645Y12969999D01*
D46*
%TO.N,/D-*%
X10667999Y7621999D02*
X10667999Y6859999D01*
X11681999Y8635999D02*
X13969999Y8635999D01*
X14861999Y12569999D02*
X14105499Y12569999D01*
X15239999Y9905999D02*
X15239999Y12191999D01*
X15239999Y12191999D02*
X14861999Y12569999D01*
X13969999Y8635999D02*
X15239999Y9905999D01*
X10667999Y7621999D02*
X11681999Y8635999D01*
%TO.N,Net-(R11-Pad2)*%
X20825999Y12260499D02*
X20761999Y12324499D01*
X20825999Y10667999D02*
X20825999Y12260499D01*
%TO.N,VBUS*%
X17357999Y8381999D02*
X17357999Y10327999D01*
X27283519Y12058479D02*
X26669999Y12671999D01*
X26669999Y12671999D02*
X26669999Y13009499D01*
X23954499Y9065499D02*
X24129999Y8889999D01*
X8234488Y2815488D02*
X12593510Y2815488D01*
X12699999Y5839999D02*
X12951999Y5839999D01*
X23954499Y9839999D02*
X23954499Y9065499D01*
X25933499Y16001999D02*
X25933499Y14944999D01*
X8163999Y2885977D02*
X8234488Y2815488D01*
X12951999Y5839999D02*
X15493999Y8381999D01*
X26669999Y13009499D02*
X25333999Y14345499D01*
X17357999Y10327999D02*
X17271999Y10413999D01*
X12963999Y5575999D02*
X12699999Y5839999D01*
X15493999Y8381999D02*
X17357999Y8381999D01*
X8163999Y3669999D02*
X8163999Y2885977D01*
X26923999Y10159999D02*
X27283519Y10519519D01*
X27283519Y10519519D02*
X27283519Y12058479D01*
X12593510Y2815488D02*
X12663999Y2885977D01*
X25933499Y14944999D02*
X25333999Y14345499D01*
X12663999Y2885977D02*
X12663999Y3669999D01*
X12963999Y3669999D02*
X12963999Y5575999D01*
%TO.N,Net-(P1-PadA5)*%
X9163999Y5313999D02*
X9163999Y3669999D01*
X8637999Y5839999D02*
X9163999Y5313999D01*
X8635999Y5839999D02*
X8637999Y5839999D01*
%TO.N,+BATT*%
X25383999Y3285999D02*
X18739999Y3285999D01*
X25829499Y8206499D02*
X26669999Y7365999D01*
X25333999Y12070499D02*
X25333999Y9385499D01*
X25333999Y9385499D02*
X25829499Y8889999D01*
X26669999Y7365999D02*
X26669999Y4571999D01*
X26669999Y4571999D02*
X25383999Y3285999D01*
X18739999Y3667999D02*
X17271999Y5135999D01*
X18739999Y3285999D02*
X18739999Y3667999D01*
X25829499Y8889999D02*
X25829499Y8206499D01*
%TO.N,Net-(D1-Pad1)*%
X24358499Y16001999D02*
X23115999Y16001999D01*
%TO.N,Net-(C2-Pad2)*%
X2052430Y14244430D02*
X1021190Y14244430D01*
X3278479Y15470479D02*
X2052430Y14244430D01*
X5334437Y15493999D02*
X4797999Y15493999D01*
X3524229Y16083519D02*
X3278479Y15837769D01*
X4151769Y16083519D02*
X3524229Y16083519D01*
X7230499Y14569999D02*
X7210019Y14590479D01*
X6258437Y14569999D02*
X5334437Y15493999D01*
X4797999Y15493999D02*
X4397519Y15493999D01*
X4397519Y15493999D02*
X4397519Y15837769D01*
X3278479Y15837769D02*
X3278479Y15470479D01*
X1021190Y14244430D02*
X142239Y13365479D01*
X4397519Y15837769D02*
X4151769Y16083519D01*
X7230499Y14569999D02*
X6258437Y14569999D01*
%TO.N,Net-(C4-Pad1)*%
X18861999Y10705999D02*
X18823999Y10667999D01*
X21757999Y8381999D02*
X23512499Y8381999D01*
X23512499Y8381999D02*
X23954499Y7939999D01*
X18861999Y12324499D02*
X18861999Y10705999D01*
X21757999Y10579999D02*
X21845999Y10667999D01*
X21757999Y8381999D02*
X21757999Y10579999D01*
X21109999Y8381999D02*
X21757999Y8381999D01*
X18823999Y10667999D02*
X21109999Y8381999D01*
%TO.N,Net-(J5-Pad2)*%
X6452988Y12443999D02*
X4825999Y12443999D01*
X7230499Y12169999D02*
X6726988Y12169999D01*
X6726988Y12169999D02*
X6452988Y12443999D01*
%TO.N,Net-(R2-Pad2)*%
X5841999Y14477999D02*
X4827999Y14477999D01*
X6149999Y14169999D02*
X5841999Y14477999D01*
X7230499Y14169999D02*
X6149999Y14169999D01*
%TO.N,Net-(R8-Pad2)*%
X24013519Y13091519D02*
X23433999Y12511999D01*
X22095999Y16001999D02*
X22810479Y15287519D01*
X24013519Y15035912D02*
X24013519Y13091519D01*
X22810479Y15287519D02*
X23761912Y15287519D01*
X23433999Y12511999D02*
X23433999Y12070499D01*
X23761912Y15287519D02*
X24013519Y15035912D01*
%TO.N,Net-(R9-Pad1)*%
X23433999Y14345499D02*
X22217499Y14345499D01*
X22217499Y14345499D02*
X22097999Y14225999D01*
%TO.N,Net-(R14-Pad2)*%
X16761999Y23875999D02*
X16761999Y22860507D01*
X16761999Y22860507D02*
X17455927Y22166579D01*
X17455927Y22166579D02*
X17787619Y22166579D01*
%TO.N,/BUZZ*%
X7619999Y18795999D02*
X8067999Y18347999D01*
X8067999Y18347999D02*
X8067999Y17407499D01*
%TD*%
%TA.AperFunction,Conductor*%
%TO.N,GND*%
G36*
X7592999Y10949537D02*
G01*
X7647537Y10894999D01*
X7667499Y10820499D01*
X7667499Y10111781D01*
X7668292Y10106396D01*
X7668292Y10106392D01*
X7671267Y10086187D01*
X7677641Y10042887D01*
X7729067Y9938144D01*
X7811649Y9855706D01*
X7821558Y9850862D01*
X7870101Y9791978D01*
X7882831Y9715908D01*
X7855821Y9643664D01*
X7796308Y9594603D01*
X7769301Y9585304D01*
X7636764Y9553484D01*
X7636761Y9553483D01*
X7628031Y9551387D01*
X7620052Y9547269D01*
X7620050Y9547268D01*
X7491521Y9480929D01*
X7477368Y9473624D01*
X7470601Y9467720D01*
X7470597Y9467718D01*
X7366031Y9376499D01*
X7349603Y9362168D01*
X7252112Y9223452D01*
X7190523Y9065486D01*
X7168393Y8897388D01*
X7186998Y8728864D01*
X7190086Y8720427D01*
X7190086Y8720425D01*
X7200286Y8692553D01*
X7245265Y8569643D01*
X7250274Y8562188D01*
X7250275Y8562187D01*
X7258430Y8550052D01*
X7339829Y8428916D01*
X7346471Y8422873D01*
X7346472Y8422871D01*
X7451272Y8327511D01*
X7465232Y8314808D01*
X7473127Y8310521D01*
X7473129Y8310520D01*
X7606343Y8238191D01*
X7606346Y8238190D01*
X7614234Y8233907D01*
X7686307Y8214999D01*
X7769548Y8193161D01*
X7769550Y8193161D01*
X7778232Y8190883D01*
X7787208Y8190742D01*
X7938780Y8188361D01*
X7947759Y8188220D01*
X8113028Y8226071D01*
X8140787Y8240032D01*
X8219733Y8279738D01*
X8264497Y8302252D01*
X8283526Y8318505D01*
X8353137Y8351709D01*
X8430028Y8345658D01*
X8465922Y8324168D01*
X8467265Y8326058D01*
X8474587Y8320855D01*
X8481232Y8314808D01*
X8489127Y8310521D01*
X8489129Y8310520D01*
X8622343Y8238191D01*
X8622346Y8238190D01*
X8630234Y8233907D01*
X8702307Y8214999D01*
X8785548Y8193161D01*
X8785550Y8193161D01*
X8794232Y8190883D01*
X8803208Y8190742D01*
X8954780Y8188361D01*
X8963759Y8188220D01*
X9129028Y8226071D01*
X9156787Y8240032D01*
X9235733Y8279738D01*
X9280497Y8302252D01*
X9299526Y8318505D01*
X9369137Y8351709D01*
X9446028Y8345658D01*
X9481922Y8324168D01*
X9483265Y8326058D01*
X9490586Y8320855D01*
X9497232Y8314808D01*
X9505129Y8310520D01*
X9512448Y8305319D01*
X9511533Y8304031D01*
X9560060Y8257981D01*
X9581966Y8184030D01*
X9563961Y8109032D01*
X9538376Y8074769D01*
X9346515Y7882908D01*
X9346512Y7882904D01*
X9323949Y7860341D01*
X9318626Y7849894D01*
X9318624Y7849891D01*
X9314784Y7842355D01*
X9302569Y7822422D01*
X9297596Y7815578D01*
X9297593Y7815572D01*
X9290703Y7806089D01*
X9287080Y7794940D01*
X9287079Y7794937D01*
X9284467Y7786896D01*
X9275517Y7765289D01*
X9266353Y7747303D01*
X9264518Y7735719D01*
X9264518Y7735718D01*
X9263196Y7727369D01*
X9257739Y7704635D01*
X9251499Y7685432D01*
X9251499Y7510446D01*
X9231537Y7435946D01*
X9176999Y7381408D01*
X9102499Y7361446D01*
X9032778Y7378765D01*
X9016338Y7387470D01*
X8912003Y7424109D01*
X8894386Y7427975D01*
X8876471Y7429668D01*
X8869457Y7429999D01*
X8805615Y7429999D01*
X8790144Y7425854D01*
X8785999Y7410383D01*
X8785999Y6858999D01*
X8766037Y6784499D01*
X8711499Y6729961D01*
X8636999Y6709999D01*
X8035615Y6709999D01*
X8020144Y6705854D01*
X8015999Y6690383D01*
X8015999Y6676541D01*
X8016330Y6669527D01*
X8018023Y6651612D01*
X8021889Y6633995D01*
X8058528Y6529662D01*
X8068837Y6510191D01*
X8121461Y6438944D01*
X8149666Y6367158D01*
X8138199Y6290887D01*
X8121462Y6261897D01*
X8061772Y6181084D01*
X8018381Y6057525D01*
X8015499Y6027037D01*
X8015499Y5652961D01*
X8018381Y5622473D01*
X8061772Y5498914D01*
X8139576Y5393576D01*
X8244914Y5315772D01*
X8368473Y5272381D01*
X8377513Y5271526D01*
X8377515Y5271526D01*
X8384399Y5270876D01*
X8398961Y5269499D01*
X8608673Y5269499D01*
X8683173Y5249537D01*
X8714032Y5225858D01*
X8739858Y5200032D01*
X8778422Y5133237D01*
X8783499Y5094673D01*
X8783499Y4694499D01*
X8763537Y4619999D01*
X8708999Y4565461D01*
X8634499Y4545499D01*
X8469353Y4545499D01*
X8464966Y4544977D01*
X8464967Y4544977D01*
X8454252Y4543702D01*
X8454251Y4543702D01*
X8452287Y4543468D01*
X8452286Y4543468D01*
X8443153Y4542381D01*
X8443025Y4543458D01*
X8384430Y4543398D01*
X8384326Y4542505D01*
X8369681Y4544212D01*
X8362929Y4545000D01*
X8362921Y4545000D01*
X8358645Y4545499D01*
X7669353Y4545499D01*
X7643153Y4542381D01*
X7643056Y4543193D01*
X7584340Y4543131D01*
X7584209Y4542010D01*
X7574681Y4543121D01*
X7573769Y4543120D01*
X7573081Y4543307D01*
X7562875Y4544497D01*
X7554245Y4544999D01*
X7533615Y4544999D01*
X7518144Y4540854D01*
X7508922Y4506435D01*
X7507346Y4506857D01*
X7494037Y4457186D01*
X7473468Y4430355D01*
X7471478Y4427449D01*
X7461758Y4417712D01*
X7456196Y4405132D01*
X7456195Y4405130D01*
X7423485Y4331141D01*
X7416493Y4315326D01*
X7413499Y4289645D01*
X7413499Y3668999D01*
X7393537Y3594499D01*
X7338999Y3539961D01*
X7264499Y3519999D01*
X7043499Y3519999D01*
X6968999Y3539961D01*
X6914461Y3594499D01*
X6894499Y3668999D01*
X6894499Y3700154D01*
X6892946Y3714000D01*
X6891648Y3725573D01*
X6900440Y3783708D01*
X6899114Y3784063D01*
X6902281Y3795883D01*
X6903181Y3801833D01*
X6904325Y3803509D01*
X6913999Y3839615D01*
X6913999Y4525383D01*
X6909854Y4540854D01*
X6894383Y4544999D01*
X6873845Y4544999D01*
X6865033Y4544476D01*
X6854376Y4543208D01*
X6833050Y4537347D01*
X6753706Y4502104D01*
X6731416Y4486785D01*
X6671894Y4427159D01*
X6662134Y4412905D01*
X6603573Y4362713D01*
X6527761Y4348525D01*
X6459355Y4371281D01*
X6454168Y4374573D01*
X6454166Y4374574D01*
X6447135Y4379036D01*
X6425947Y4386581D01*
X6285799Y4436485D01*
X6285800Y4436485D01*
X6277950Y4439280D01*
X6269679Y4440266D01*
X6269676Y4440267D01*
X6167367Y4452466D01*
X6099623Y4460544D01*
X6091345Y4459674D01*
X6091343Y4459674D01*
X6024546Y4452653D01*
X5921016Y4441772D01*
X5913138Y4439090D01*
X5913133Y4439089D01*
X5833279Y4411904D01*
X5751006Y4383896D01*
X5720665Y4365230D01*
X5621461Y4304199D01*
X5598044Y4289793D01*
X5592095Y4283967D01*
X5592092Y4283965D01*
X5544704Y4237559D01*
X5469731Y4164140D01*
X5465220Y4157141D01*
X5465218Y4157138D01*
X5421319Y4089020D01*
X5372445Y4013182D01*
X5369595Y4005353D01*
X5369595Y4005352D01*
X5317527Y3862295D01*
X5311021Y3844421D01*
X5309977Y3836157D01*
X5303434Y3784358D01*
X5293499Y3705716D01*
X5293499Y2509844D01*
X5308453Y2376527D01*
X5367514Y2206926D01*
X5371928Y2199862D01*
X5371929Y2199860D01*
X5409399Y2139896D01*
X5462683Y2054624D01*
X5589229Y1927192D01*
X5596259Y1922731D01*
X5596261Y1922729D01*
X5631068Y1900640D01*
X5740863Y1830962D01*
X5748708Y1828169D01*
X5748709Y1828168D01*
X5769325Y1820827D01*
X5910048Y1770718D01*
X5918319Y1769732D01*
X5918322Y1769731D01*
X6020631Y1757532D01*
X6088375Y1749454D01*
X6096653Y1750324D01*
X6096655Y1750324D01*
X6163452Y1757345D01*
X6266982Y1768226D01*
X6274860Y1770908D01*
X6274865Y1770909D01*
X6410578Y1817110D01*
X6436992Y1826102D01*
X6589954Y1920205D01*
X6595903Y1926031D01*
X6595906Y1926033D01*
X6712317Y2040031D01*
X6712318Y2040033D01*
X6718267Y2045858D01*
X6754030Y2101351D01*
X6805724Y2181564D01*
X6862861Y2233372D01*
X6938247Y2249671D01*
X7011683Y2226093D01*
X7037914Y2202803D01*
X7038213Y2203122D01*
X7146586Y2101351D01*
X7146590Y2101348D01*
X7153417Y2094937D01*
X7161628Y2090423D01*
X7283690Y2023319D01*
X7283692Y2023318D01*
X7291907Y2018802D01*
X7444980Y1979499D01*
X7563349Y1979499D01*
X7567993Y1980086D01*
X7567998Y1980086D01*
X7615763Y1986120D01*
X7680791Y1994335D01*
X7689506Y1997785D01*
X7689508Y1997786D01*
X7818138Y2048715D01*
X7827731Y2052513D01*
X7955586Y2145405D01*
X8056323Y2267176D01*
X8060314Y2275657D01*
X8094734Y2348802D01*
X8144518Y2407712D01*
X8223705Y2434245D01*
X8231269Y2434542D01*
X8239693Y2434873D01*
X8245541Y2434988D01*
X12537033Y2434988D01*
X12553927Y2433190D01*
X12563293Y2432748D01*
X12575338Y2430155D01*
X12587572Y2431603D01*
X12599870Y2431023D01*
X12599697Y2427345D01*
X12654416Y2419408D01*
X12714983Y2371655D01*
X12730409Y2345954D01*
X12730635Y2345473D01*
X12733532Y2336558D01*
X12818213Y2203122D01*
X12837611Y2184906D01*
X12926586Y2101351D01*
X12926590Y2101348D01*
X12933417Y2094937D01*
X12941628Y2090423D01*
X13063690Y2023319D01*
X13063692Y2023318D01*
X13071907Y2018802D01*
X13224980Y1979499D01*
X13343349Y1979499D01*
X13347993Y1980086D01*
X13347998Y1980086D01*
X13395763Y1986120D01*
X13460791Y1994335D01*
X13469506Y1997785D01*
X13469508Y1997786D01*
X13598138Y2048715D01*
X13607731Y2052513D01*
X13735586Y2145405D01*
X13741561Y2152627D01*
X13741564Y2152630D01*
X13780713Y2199954D01*
X13843582Y2244634D01*
X13920367Y2251893D01*
X13990495Y2219786D01*
X14021879Y2183937D01*
X14102683Y2054624D01*
X14229229Y1927192D01*
X14236259Y1922731D01*
X14236261Y1922729D01*
X14271068Y1900640D01*
X14380863Y1830962D01*
X14388708Y1828169D01*
X14388709Y1828168D01*
X14409325Y1820827D01*
X14550048Y1770718D01*
X14558319Y1769732D01*
X14558322Y1769731D01*
X14660631Y1757532D01*
X14728375Y1749454D01*
X14736653Y1750324D01*
X14736655Y1750324D01*
X14803452Y1757345D01*
X14906982Y1768226D01*
X14914860Y1770908D01*
X14914865Y1770909D01*
X15050578Y1817110D01*
X15076992Y1826102D01*
X15229954Y1920205D01*
X15235903Y1926031D01*
X15235906Y1926033D01*
X15352317Y2040031D01*
X15352318Y2040033D01*
X15358267Y2045858D01*
X15362778Y2052857D01*
X15362780Y2052860D01*
X15440197Y2172988D01*
X15455553Y2196816D01*
X15460730Y2211039D01*
X15514128Y2357749D01*
X15514128Y2357750D01*
X15516977Y2365577D01*
X15525731Y2434873D01*
X15533912Y2499633D01*
X15533912Y2499638D01*
X15534499Y2504282D01*
X15534499Y3700154D01*
X15519545Y3833471D01*
X15460484Y4003072D01*
X15449837Y4020112D01*
X15369729Y4148310D01*
X15365315Y4155374D01*
X15238769Y4282806D01*
X15231739Y4287267D01*
X15231737Y4287269D01*
X15094168Y4374573D01*
X15094166Y4374574D01*
X15087135Y4379036D01*
X15065947Y4386581D01*
X14925799Y4436485D01*
X14925800Y4436485D01*
X14917950Y4439280D01*
X14909679Y4440266D01*
X14909676Y4440267D01*
X14807367Y4452466D01*
X14739623Y4460544D01*
X14731345Y4459674D01*
X14731343Y4459674D01*
X14664546Y4452653D01*
X14561016Y4441772D01*
X14553138Y4439090D01*
X14553133Y4439089D01*
X14473279Y4411904D01*
X14391006Y4383896D01*
X14367427Y4369390D01*
X14293517Y4347356D01*
X14218488Y4365230D01*
X14166560Y4411904D01*
X14155785Y4427582D01*
X14096160Y4487103D01*
X14073844Y4502383D01*
X13994454Y4537481D01*
X13973081Y4543308D01*
X13962875Y4544497D01*
X13954245Y4544999D01*
X13933615Y4544999D01*
X13918144Y4540854D01*
X13913999Y4525383D01*
X13913999Y3839615D01*
X13927786Y3788162D01*
X13931885Y3781062D01*
X13935787Y3723825D01*
X13933499Y3705716D01*
X13933499Y3668999D01*
X13913537Y3594499D01*
X13858999Y3539961D01*
X13784499Y3519999D01*
X13563499Y3519999D01*
X13488999Y3539961D01*
X13434461Y3594499D01*
X13414499Y3668999D01*
X13414499Y4289645D01*
X13411381Y4315845D01*
X13365938Y4418152D01*
X13366573Y4418434D01*
X13344958Y4479477D01*
X13344499Y4491165D01*
X13344499Y5519522D01*
X13346297Y5536416D01*
X13346739Y5545782D01*
X13349332Y5557827D01*
X13345532Y5589933D01*
X13345213Y5595347D01*
X13345006Y5595330D01*
X13344499Y5601462D01*
X13344499Y5607607D01*
X13343490Y5613672D01*
X13343092Y5618481D01*
X13356848Y5694373D01*
X13386226Y5736117D01*
X13915724Y6265615D01*
X16661999Y6265615D01*
X16666144Y6250144D01*
X16681615Y6245999D01*
X17102383Y6245999D01*
X17117854Y6250144D01*
X17121999Y6265615D01*
X17421999Y6265615D01*
X17426144Y6250144D01*
X17441615Y6245999D01*
X17862382Y6245999D01*
X17877853Y6250144D01*
X17881998Y6265615D01*
X17881998Y6285054D01*
X17881667Y6292078D01*
X17879941Y6310338D01*
X17876078Y6327947D01*
X17838939Y6433703D01*
X17828630Y6453174D01*
X17763258Y6541680D01*
X17747680Y6557258D01*
X17659174Y6622630D01*
X17639703Y6632939D01*
X17533944Y6670079D01*
X17516343Y6673941D01*
X17498070Y6675668D01*
X17491058Y6675999D01*
X17441615Y6675999D01*
X17426144Y6671854D01*
X17421999Y6656383D01*
X17421999Y6265615D01*
X17121999Y6265615D01*
X17121999Y6656382D01*
X17117854Y6671853D01*
X17102383Y6675998D01*
X17052944Y6675998D01*
X17045920Y6675667D01*
X17027660Y6673941D01*
X17010051Y6670078D01*
X16904295Y6632939D01*
X16884824Y6622630D01*
X16796318Y6557258D01*
X16780740Y6541680D01*
X16715368Y6453174D01*
X16705059Y6433703D01*
X16667919Y6327944D01*
X16664057Y6310343D01*
X16662330Y6292070D01*
X16661999Y6285058D01*
X16661999Y6265615D01*
X13915724Y6265615D01*
X15607966Y7957858D01*
X15674761Y7996422D01*
X15713325Y8001499D01*
X16208499Y8001499D01*
X16282999Y7981537D01*
X16337537Y7926999D01*
X16357499Y7852499D01*
X16357499Y7287353D01*
X16360617Y7261153D01*
X16406060Y7158846D01*
X16485286Y7079758D01*
X16497866Y7074196D01*
X16497868Y7074195D01*
X16577425Y7039023D01*
X16587672Y7034493D01*
X16602317Y7032786D01*
X16609069Y7031998D01*
X16609077Y7031998D01*
X16613353Y7031499D01*
X18102645Y7031499D01*
X18128845Y7034617D01*
X18231152Y7080060D01*
X18310240Y7159286D01*
X18323968Y7190336D01*
X18350975Y7251425D01*
X18350975Y7251426D01*
X18355505Y7261672D01*
X18358499Y7287353D01*
X18358499Y9476645D01*
X18355381Y9502845D01*
X18309938Y9605152D01*
X18230712Y9684240D01*
X18218132Y9689802D01*
X18218130Y9689803D01*
X18138573Y9724975D01*
X18138572Y9724975D01*
X18128326Y9729505D01*
X18113681Y9731212D01*
X18106929Y9732000D01*
X18106921Y9732000D01*
X18102645Y9732499D01*
X17935476Y9732499D01*
X17860976Y9752461D01*
X17806438Y9806999D01*
X17786476Y9881499D01*
X17806438Y9955999D01*
X17814476Y9968447D01*
X17885119Y10066758D01*
X17885120Y10066760D01*
X17890360Y10074052D01*
X17907697Y10117178D01*
X17950250Y10223030D01*
X17950251Y10223035D01*
X17953600Y10231365D01*
X17970636Y10351071D01*
X18000896Y10422014D01*
X18062574Y10468323D01*
X18139144Y10477590D01*
X18210088Y10447330D01*
X18258733Y10379445D01*
X18290303Y10289547D01*
X18369000Y10183000D01*
X18475547Y10104303D01*
X18600525Y10060414D01*
X18631361Y10057499D01*
X18834672Y10057499D01*
X18909172Y10037537D01*
X18940031Y10013858D01*
X20713858Y8240032D01*
X20752422Y8173237D01*
X20757499Y8134673D01*
X20757499Y7287353D01*
X20760617Y7261153D01*
X20806060Y7158846D01*
X20885286Y7079758D01*
X20897866Y7074196D01*
X20897868Y7074195D01*
X20977425Y7039023D01*
X20987672Y7034493D01*
X21002317Y7032786D01*
X21009069Y7031998D01*
X21009077Y7031998D01*
X21013353Y7031499D01*
X22502645Y7031499D01*
X22528845Y7034617D01*
X22631152Y7080060D01*
X22710240Y7159286D01*
X22723968Y7190336D01*
X22750975Y7251425D01*
X22750975Y7251426D01*
X22755505Y7261672D01*
X22758499Y7287353D01*
X22758499Y7403015D01*
X22778461Y7477515D01*
X22832999Y7532053D01*
X22907499Y7552015D01*
X22981999Y7532053D01*
X23027350Y7491540D01*
X23038230Y7476810D01*
X23044849Y7467849D01*
X23153815Y7387365D01*
X23281630Y7342480D01*
X23290673Y7341625D01*
X23290674Y7341625D01*
X23293394Y7341368D01*
X23313165Y7339499D01*
X24595833Y7339499D01*
X24615604Y7341368D01*
X24618324Y7341625D01*
X24618325Y7341625D01*
X24627368Y7342480D01*
X24755183Y7387365D01*
X24864149Y7467849D01*
X24944633Y7576815D01*
X24989518Y7704630D01*
X24992499Y7736165D01*
X24992499Y8143833D01*
X24994032Y8143833D01*
X25009102Y8212792D01*
X25061037Y8269814D01*
X25134525Y8293228D01*
X25156524Y8291361D01*
X25156630Y8292480D01*
X25188165Y8289499D01*
X25303674Y8289499D01*
X25378174Y8269537D01*
X25432712Y8214999D01*
X25450652Y8164958D01*
X25452092Y8156306D01*
X25453076Y8149388D01*
X25459055Y8098875D01*
X25463029Y8090600D01*
X25464536Y8081544D01*
X25470385Y8070704D01*
X25488682Y8036794D01*
X25491870Y8030537D01*
X25513888Y7984685D01*
X25517490Y7980399D01*
X25519770Y7978119D01*
X25521158Y7976605D01*
X25524688Y7970063D01*
X25533732Y7961703D01*
X25564036Y7933690D01*
X25568254Y7929635D01*
X25921075Y7576815D01*
X26245858Y7252032D01*
X26284422Y7185237D01*
X26289499Y7146673D01*
X26289499Y6808983D01*
X26269537Y6734483D01*
X26214999Y6679945D01*
X26140499Y6659983D01*
X26085650Y6670447D01*
X26072546Y6675635D01*
X25982770Y6686499D01*
X24490166Y6686499D01*
X22997229Y6686498D01*
X22992776Y6685959D01*
X22992773Y6685959D01*
X22916953Y6676785D01*
X22916950Y6676784D01*
X22907452Y6675635D01*
X22898556Y6672113D01*
X22898553Y6672112D01*
X22799615Y6632939D01*
X22767216Y6620111D01*
X22647077Y6528921D01*
X22555887Y6408782D01*
X22500363Y6268546D01*
X22489499Y6178770D01*
X22489500Y5093229D01*
X22490039Y5088776D01*
X22490039Y5088773D01*
X22499137Y5013588D01*
X22500363Y5003452D01*
X22503885Y4994556D01*
X22503886Y4994553D01*
X22529712Y4929325D01*
X22555887Y4863216D01*
X22562027Y4855127D01*
X22562028Y4855125D01*
X22640934Y4751170D01*
X22647077Y4743077D01*
X22655170Y4736934D01*
X22737580Y4674382D01*
X22767216Y4651887D01*
X22907452Y4596363D01*
X22997228Y4585499D01*
X23063668Y4585499D01*
X25785674Y4585500D01*
X25860174Y4565538D01*
X25914712Y4511000D01*
X25934674Y4436500D01*
X25914712Y4362000D01*
X25891033Y4331141D01*
X25270032Y3710140D01*
X25203237Y3671576D01*
X25164673Y3666499D01*
X20881706Y3666499D01*
X20807206Y3686461D01*
X20752668Y3740999D01*
X20743169Y3760649D01*
X20733743Y3784456D01*
X20724112Y3808782D01*
X20632921Y3928921D01*
X20512782Y4020112D01*
X20372546Y4075635D01*
X20282771Y4086499D01*
X18921325Y4086499D01*
X18846825Y4106461D01*
X18815966Y4130140D01*
X17926140Y5019966D01*
X17887576Y5086761D01*
X17882499Y5125325D01*
X17882499Y5328637D01*
X17879584Y5359473D01*
X17835695Y5484451D01*
X17803606Y5527896D01*
X17775401Y5599682D01*
X17786868Y5675953D01*
X17803606Y5704944D01*
X17828630Y5738824D01*
X17838939Y5758295D01*
X17876079Y5864054D01*
X17879941Y5881655D01*
X17881668Y5899928D01*
X17881999Y5906940D01*
X17881999Y5926383D01*
X17877854Y5941854D01*
X17862383Y5945999D01*
X16681616Y5945999D01*
X16666145Y5941854D01*
X16662000Y5926383D01*
X16662000Y5906944D01*
X16662331Y5899920D01*
X16664057Y5881660D01*
X16667920Y5864051D01*
X16705059Y5758295D01*
X16715368Y5738824D01*
X16740392Y5704944D01*
X16768597Y5633158D01*
X16757130Y5556887D01*
X16740392Y5527896D01*
X16708303Y5484451D01*
X16664414Y5359473D01*
X16661499Y5328637D01*
X16661499Y4943361D01*
X16664414Y4912525D01*
X16708303Y4787547D01*
X16787000Y4681000D01*
X16893547Y4602303D01*
X17018525Y4558414D01*
X17049361Y4555499D01*
X17252672Y4555499D01*
X17327172Y4535537D01*
X17358031Y4511858D01*
X17529031Y4340858D01*
X17567595Y4274063D01*
X17567595Y4196935D01*
X17529031Y4130140D01*
X17462236Y4091576D01*
X17423672Y4086499D01*
X17197227Y4086499D01*
X17107452Y4075635D01*
X16967216Y4020112D01*
X16847077Y3928921D01*
X16755886Y3808782D01*
X16700363Y3668546D01*
X16689499Y3578771D01*
X16689499Y2993227D01*
X16700363Y2903452D01*
X16755886Y2763216D01*
X16847077Y2643077D01*
X16967216Y2551886D01*
X17107452Y2496363D01*
X17197227Y2485499D01*
X20282771Y2485499D01*
X20372546Y2496363D01*
X20512782Y2551886D01*
X20632921Y2643077D01*
X20724112Y2763216D01*
X20743169Y2811349D01*
X20789155Y2873269D01*
X20859939Y2903900D01*
X20881706Y2905499D01*
X25327522Y2905499D01*
X25344416Y2903701D01*
X25353782Y2903259D01*
X25365827Y2900666D01*
X25378061Y2902114D01*
X25397933Y2904466D01*
X25403350Y2904786D01*
X25403333Y2904993D01*
X25409453Y2905499D01*
X25415607Y2905499D01*
X25427323Y2907449D01*
X25434163Y2908587D01*
X25441110Y2909576D01*
X25450027Y2910632D01*
X25491623Y2915555D01*
X25499898Y2919529D01*
X25508954Y2921036D01*
X25553706Y2945183D01*
X25559961Y2948370D01*
X25597362Y2966330D01*
X25605813Y2970388D01*
X25610099Y2973990D01*
X25612379Y2976270D01*
X25613893Y2977658D01*
X25620435Y2981188D01*
X25656807Y3020535D01*
X25660862Y3024753D01*
X26173173Y3537064D01*
X26239968Y3575628D01*
X26317096Y3575628D01*
X26383891Y3537064D01*
X26422455Y3470269D01*
X26422824Y3394545D01*
X26388918Y3262888D01*
X26334115Y2903288D01*
X26315786Y2539999D01*
X26334115Y2176710D01*
X26388918Y1817110D01*
X26389852Y1813481D01*
X26389854Y1813474D01*
X26447086Y1591245D01*
X26479636Y1464853D01*
X26605349Y1123515D01*
X26764780Y796564D01*
X26766762Y793364D01*
X26951119Y495703D01*
X26956310Y487321D01*
X26958597Y484346D01*
X27165135Y215654D01*
X27177993Y198926D01*
X27180569Y196195D01*
X27180574Y196189D01*
X27417896Y-55427D01*
X27427578Y-65692D01*
X27430422Y-68155D01*
X27493061Y-122411D01*
X27536305Y-186276D01*
X27544237Y-244028D01*
X27543801Y-251240D01*
X27541632Y-269107D01*
X27510140Y-440957D01*
X27497887Y-507818D01*
X27493583Y-525282D01*
X27421382Y-756984D01*
X27415002Y-773808D01*
X27315397Y-995118D01*
X27307036Y-1011049D01*
X27181481Y-1218744D01*
X27171259Y-1233552D01*
X27021594Y-1424585D01*
X27009663Y-1438053D01*
X26838051Y-1609665D01*
X26824583Y-1621596D01*
X26731390Y-1694608D01*
X26660434Y-1724840D01*
X26583868Y-1715543D01*
X26522209Y-1669209D01*
X26491977Y-1598253D01*
X26490499Y-1577318D01*
X26490498Y-525718D01*
X26490498Y-521231D01*
X26479635Y-431454D01*
X26476111Y-422552D01*
X26427851Y-300664D01*
X26424111Y-291218D01*
X26404864Y-265860D01*
X26339064Y-179172D01*
X26332921Y-171079D01*
X26324828Y-164936D01*
X26220873Y-86030D01*
X26220871Y-86029D01*
X26212782Y-79889D01*
X26072546Y-24365D01*
X25982770Y-13501D01*
X24490166Y-13501D01*
X22997229Y-13502D01*
X22992776Y-14041D01*
X22992773Y-14041D01*
X22916953Y-23215D01*
X22916950Y-23216D01*
X22907452Y-24365D01*
X22898556Y-27887D01*
X22898553Y-27888D01*
X22840271Y-50964D01*
X22767216Y-79889D01*
X22759127Y-86029D01*
X22759125Y-86030D01*
X22655170Y-164936D01*
X22647077Y-171079D01*
X22640934Y-179172D01*
X22575135Y-265860D01*
X22555887Y-291218D01*
X22500363Y-431454D01*
X22489499Y-521230D01*
X22489500Y-1606771D01*
X22500363Y-1696548D01*
X22503885Y-1705444D01*
X22503886Y-1705447D01*
X22532146Y-1776823D01*
X22555887Y-1836784D01*
X22562027Y-1844873D01*
X22562028Y-1844875D01*
X22618987Y-1919916D01*
X22648129Y-1991327D01*
X22637661Y-2067741D01*
X22590389Y-2128684D01*
X22518978Y-2157826D01*
X22500304Y-2159001D01*
X15442704Y-2159001D01*
X15368204Y-2139039D01*
X15313666Y-2084501D01*
X15293704Y-2010001D01*
X15313666Y-1935501D01*
X15338455Y-1903544D01*
X15352313Y-1889973D01*
X15352315Y-1889971D01*
X15358267Y-1884142D01*
X15362778Y-1877143D01*
X15362780Y-1877140D01*
X15424383Y-1781551D01*
X15455553Y-1733184D01*
X15461974Y-1715543D01*
X15514128Y-1572251D01*
X15514128Y-1572250D01*
X15516977Y-1564423D01*
X15533695Y-1432084D01*
X15533912Y-1430367D01*
X15533912Y-1430362D01*
X15534499Y-1425718D01*
X15534499Y-729846D01*
X15519545Y-596529D01*
X15460484Y-426928D01*
X15365315Y-274626D01*
X15238769Y-147194D01*
X15231739Y-142733D01*
X15231737Y-142731D01*
X15094168Y-55427D01*
X15094166Y-55426D01*
X15087135Y-50964D01*
X15065947Y-43419D01*
X14925799Y6485D01*
X14925800Y6485D01*
X14917950Y9280D01*
X14909679Y10266D01*
X14909676Y10267D01*
X14807367Y22466D01*
X14739623Y30544D01*
X14731345Y29674D01*
X14731343Y29674D01*
X14664546Y22653D01*
X14561016Y11772D01*
X14553138Y9090D01*
X14553133Y9089D01*
X14472512Y-18357D01*
X14391006Y-46104D01*
X14238044Y-140207D01*
X14232095Y-146033D01*
X14232092Y-146035D01*
X14132025Y-244028D01*
X14109731Y-265860D01*
X14105220Y-272859D01*
X14105218Y-272862D01*
X14092526Y-292557D01*
X14012445Y-416818D01*
X14009595Y-424647D01*
X14009595Y-424648D01*
X13958207Y-565837D01*
X13951021Y-585579D01*
X13949977Y-593843D01*
X13942756Y-651009D01*
X13933499Y-724284D01*
X13933499Y-1420156D01*
X13948453Y-1553473D01*
X14007514Y-1723074D01*
X14102683Y-1875376D01*
X14108551Y-1881285D01*
X14132111Y-1905010D01*
X14170442Y-1971939D01*
X14170173Y-2049067D01*
X14131376Y-2115727D01*
X14064447Y-2154058D01*
X14026385Y-2159001D01*
X6802704Y-2159001D01*
X6728204Y-2139039D01*
X6673666Y-2084501D01*
X6653704Y-2010001D01*
X6673666Y-1935501D01*
X6698455Y-1903544D01*
X6712313Y-1889973D01*
X6712315Y-1889971D01*
X6718267Y-1884142D01*
X6722778Y-1877143D01*
X6722780Y-1877140D01*
X6784383Y-1781551D01*
X6815553Y-1733184D01*
X6821974Y-1715543D01*
X6874128Y-1572251D01*
X6874128Y-1572250D01*
X6876977Y-1564423D01*
X6893695Y-1432084D01*
X6893912Y-1430367D01*
X6893912Y-1430362D01*
X6894499Y-1425718D01*
X6894499Y-729846D01*
X6879545Y-596529D01*
X6820484Y-426928D01*
X6725315Y-274626D01*
X6598769Y-147194D01*
X6591739Y-142733D01*
X6591737Y-142731D01*
X6454168Y-55427D01*
X6454166Y-55426D01*
X6447135Y-50964D01*
X6425947Y-43419D01*
X6285799Y6485D01*
X6285800Y6485D01*
X6277950Y9280D01*
X6269679Y10266D01*
X6269676Y10267D01*
X6167367Y22466D01*
X6099623Y30544D01*
X6091345Y29674D01*
X6091343Y29674D01*
X6024546Y22653D01*
X5921016Y11772D01*
X5913138Y9090D01*
X5913133Y9089D01*
X5832512Y-18357D01*
X5751006Y-46104D01*
X5598044Y-140207D01*
X5592095Y-146033D01*
X5592092Y-146035D01*
X5492025Y-244028D01*
X5469731Y-265860D01*
X5465220Y-272859D01*
X5465218Y-272862D01*
X5452526Y-292557D01*
X5372445Y-416818D01*
X5369595Y-424647D01*
X5369595Y-424648D01*
X5318207Y-565837D01*
X5311021Y-585579D01*
X5309977Y-593843D01*
X5302756Y-651009D01*
X5293499Y-724284D01*
X5293499Y-1420156D01*
X5308453Y-1553473D01*
X5367514Y-1723074D01*
X5462683Y-1875376D01*
X5468551Y-1881285D01*
X5492111Y-1905010D01*
X5530442Y-1971939D01*
X5530173Y-2049067D01*
X5491376Y-2115727D01*
X5424447Y-2154058D01*
X5386385Y-2159001D01*
X1219909Y-2159001D01*
X1145409Y-2139039D01*
X1090871Y-2084501D01*
X1070909Y-2010001D01*
X1090871Y-1935501D01*
X1137129Y-1886112D01*
X1338092Y-1751832D01*
X1345812Y-1745908D01*
X1431205Y-1671021D01*
X1440103Y-1657704D01*
X1434785Y-1646919D01*
X13870Y-226004D01*
X-1Y-217996D01*
X-13872Y-226004D01*
X-948231Y-1160363D01*
X-1015026Y-1198927D01*
X-1092154Y-1198927D01*
X-1158949Y-1160363D01*
X-1160363Y-1158949D01*
X-1198927Y-1092154D01*
X-1198927Y-1015026D01*
X-1160363Y-948231D01*
X-226004Y-13872D01*
X-217996Y-1D01*
X217994Y-1D01*
X226002Y-13872D01*
X1644214Y-1432084D01*
X1658085Y-1440092D01*
X1668500Y-1434080D01*
X1745906Y-1345814D01*
X1751830Y-1338094D01*
X1906636Y-1106412D01*
X1911498Y-1097990D01*
X2034739Y-848084D01*
X2038462Y-839096D01*
X2128027Y-575245D01*
X2130547Y-565837D01*
X2184906Y-292557D01*
X2186176Y-282911D01*
X2204400Y-4868D01*
X2204400Y4866D01*
X2186176Y282909D01*
X2184906Y292555D01*
X2130547Y565835D01*
X2128027Y575243D01*
X2038462Y839094D01*
X2034739Y848082D01*
X1960929Y997753D01*
X16689999Y997753D01*
X16690538Y988814D01*
X16699703Y913075D01*
X16704377Y894672D01*
X16752587Y772908D01*
X16762468Y755371D01*
X16841291Y651527D01*
X16855527Y637291D01*
X16959371Y558468D01*
X16976908Y548587D01*
X17098672Y500377D01*
X17117075Y495703D01*
X17192814Y486538D01*
X17201753Y485999D01*
X18570383Y485999D01*
X18585854Y490144D01*
X18589999Y505615D01*
X18889999Y505615D01*
X18894144Y490144D01*
X18909615Y485999D01*
X20278245Y485999D01*
X20287184Y486538D01*
X20362923Y495703D01*
X20381326Y500377D01*
X20503090Y548587D01*
X20520627Y558468D01*
X20624471Y637291D01*
X20638707Y651527D01*
X20717530Y755371D01*
X20727411Y772908D01*
X20775621Y894672D01*
X20780295Y913075D01*
X20789460Y988814D01*
X20789999Y997753D01*
X20789999Y1116383D01*
X20785854Y1131854D01*
X20770383Y1135999D01*
X18909615Y1135999D01*
X18894144Y1131854D01*
X18889999Y1116383D01*
X18889999Y505615D01*
X18589999Y505615D01*
X18589999Y1116383D01*
X18585854Y1131854D01*
X18570383Y1135999D01*
X16709615Y1135999D01*
X16694144Y1131854D01*
X16689999Y1116383D01*
X16689999Y997753D01*
X1960929Y997753D01*
X1911498Y1097988D01*
X1906636Y1106410D01*
X1751830Y1338092D01*
X1745906Y1345812D01*
X1671019Y1431205D01*
X1657702Y1440103D01*
X1646917Y1434785D01*
X226002Y13870D01*
X217994Y-1D01*
X-217996Y-1D01*
X-226004Y13870D01*
X-1644216Y1432082D01*
X-1658087Y1440090D01*
X-1668502Y1434078D01*
X-1745908Y1345812D01*
X-1751832Y1338092D01*
X-1886112Y1137129D01*
X-1944100Y1086275D01*
X-2019746Y1071228D01*
X-2092781Y1096020D01*
X-2143635Y1154008D01*
X-2159001Y1219909D01*
X-2159001Y1657702D01*
X-1440105Y1657702D01*
X-1434787Y1646917D01*
X-13872Y226002D01*
X-1Y217994D01*
X13870Y226002D01*
X1243483Y1455615D01*
X16689999Y1455615D01*
X16694144Y1440144D01*
X16709615Y1435999D01*
X18570383Y1435999D01*
X18585854Y1440144D01*
X18589999Y1455615D01*
X18889999Y1455615D01*
X18894144Y1440144D01*
X18909615Y1435999D01*
X20770383Y1435999D01*
X20785854Y1440144D01*
X20789999Y1455615D01*
X20789999Y1574245D01*
X20789460Y1583184D01*
X20780295Y1658923D01*
X20775621Y1677326D01*
X20727411Y1799090D01*
X20717530Y1816627D01*
X20638707Y1920471D01*
X20624471Y1934707D01*
X20520627Y2013530D01*
X20503090Y2023411D01*
X20381326Y2071621D01*
X20362923Y2076295D01*
X20287184Y2085460D01*
X20278245Y2085999D01*
X18909615Y2085999D01*
X18894144Y2081854D01*
X18889999Y2066383D01*
X18889999Y1455615D01*
X18589999Y1455615D01*
X18589999Y2066383D01*
X18585854Y2081854D01*
X18570383Y2085999D01*
X17201753Y2085999D01*
X17192814Y2085460D01*
X17117075Y2076295D01*
X17098672Y2071621D01*
X16976908Y2023411D01*
X16959371Y2013530D01*
X16855527Y1934707D01*
X16841291Y1920471D01*
X16762468Y1816627D01*
X16752587Y1799090D01*
X16704377Y1677326D01*
X16699703Y1658923D01*
X16690538Y1583184D01*
X16689999Y1574245D01*
X16689999Y1455615D01*
X1243483Y1455615D01*
X1432082Y1644214D01*
X1440090Y1658085D01*
X1434078Y1668500D01*
X1345812Y1745906D01*
X1338092Y1751830D01*
X1106410Y1906636D01*
X1097988Y1911498D01*
X848082Y2034739D01*
X839094Y2038462D01*
X575243Y2128027D01*
X565835Y2130547D01*
X292555Y2184906D01*
X282909Y2186176D01*
X4866Y2204400D01*
X-4868Y2204400D01*
X-282911Y2186176D01*
X-292557Y2184906D01*
X-565837Y2130547D01*
X-575245Y2128027D01*
X-839096Y2038462D01*
X-848084Y2034739D01*
X-1097990Y1911498D01*
X-1106412Y1906636D01*
X-1338094Y1751830D01*
X-1345814Y1745906D01*
X-1431207Y1671019D01*
X-1440105Y1657702D01*
X-2159001Y1657702D01*
X-2159001Y4402135D01*
X-1423649Y4402135D01*
X-1384137Y4237559D01*
X-1363170Y4196935D01*
X-1328694Y4130140D01*
X-1306510Y4087158D01*
X-1195247Y3959616D01*
X-1056773Y3862295D01*
X-1048404Y3859032D01*
X-907452Y3804077D01*
X-907450Y3804076D01*
X-899082Y3800814D01*
X-890176Y3799641D01*
X-890174Y3799641D01*
X-774834Y3784456D01*
X-774827Y3784456D01*
X-769992Y3783819D01*
X-681458Y3783819D01*
X-555874Y3799016D01*
X-397548Y3858843D01*
X-258062Y3954709D01*
X-214972Y4003072D01*
X-151445Y4074372D01*
X-151442Y4074376D01*
X-145470Y4081079D01*
X-66272Y4230659D01*
X-64084Y4239369D01*
X-27228Y4386100D01*
X-27228Y4386102D01*
X-25040Y4394812D01*
X-24275Y4540854D01*
X-24200Y4555076D01*
X-24200Y4555077D01*
X-24153Y4564063D01*
X-63665Y4728639D01*
X-125913Y4849244D01*
X-137170Y4871054D01*
X-137171Y4871055D01*
X-141292Y4879040D01*
X-232117Y4983153D01*
X832299Y4983153D01*
X835417Y4956953D01*
X880860Y4854646D01*
X960086Y4775558D01*
X972666Y4769996D01*
X972668Y4769995D01*
X1052225Y4734823D01*
X1062472Y4730293D01*
X1076659Y4728639D01*
X1083869Y4727798D01*
X1083877Y4727798D01*
X1088153Y4727299D01*
X1777445Y4727299D01*
X1803645Y4730417D01*
X1905952Y4775860D01*
X1951825Y4821813D01*
X1977645Y4847678D01*
X2044407Y4886300D01*
X2121535Y4886367D01*
X2188363Y4847861D01*
X2250635Y4785697D01*
X2272954Y4770415D01*
X2352344Y4735317D01*
X2373717Y4729490D01*
X2383923Y4728301D01*
X2392553Y4727799D01*
X2563183Y4727799D01*
X2578654Y4731944D01*
X2582799Y4747415D01*
X2882799Y4747415D01*
X2886944Y4731944D01*
X2902415Y4727799D01*
X3072953Y4727799D01*
X3081765Y4728322D01*
X3092422Y4729590D01*
X3113748Y4735451D01*
X3193092Y4770694D01*
X3215382Y4786013D01*
X3274903Y4845638D01*
X3290183Y4867954D01*
X3325281Y4947344D01*
X3331108Y4968717D01*
X3332297Y4978923D01*
X3332799Y4987553D01*
X3332799Y5358183D01*
X3328654Y5373654D01*
X3313183Y5377799D01*
X2902415Y5377799D01*
X2886944Y5373654D01*
X2882799Y5358183D01*
X2882799Y4747415D01*
X2582799Y4747415D01*
X2582799Y5697415D01*
X2882799Y5697415D01*
X2886944Y5681944D01*
X2902415Y5677799D01*
X3313183Y5677799D01*
X3328654Y5681944D01*
X3332799Y5697415D01*
X3332799Y6067953D01*
X3332276Y6076765D01*
X3331008Y6087422D01*
X3325147Y6108748D01*
X3289904Y6188092D01*
X3274585Y6210382D01*
X3214960Y6269903D01*
X3192644Y6285183D01*
X3113254Y6320281D01*
X3091881Y6326108D01*
X3081675Y6327297D01*
X3073045Y6327799D01*
X2902415Y6327799D01*
X2886944Y6323654D01*
X2882799Y6308183D01*
X2882799Y5697415D01*
X2582799Y5697415D01*
X2582799Y6308183D01*
X2578654Y6323654D01*
X2563183Y6327799D01*
X2392645Y6327799D01*
X2383833Y6327276D01*
X2373176Y6326008D01*
X2351850Y6320147D01*
X2272506Y6284904D01*
X2250213Y6269583D01*
X2188658Y6207921D01*
X2121897Y6169299D01*
X2044769Y6169232D01*
X1977941Y6207737D01*
X1975292Y6210382D01*
X1905512Y6280040D01*
X1892932Y6285602D01*
X1892930Y6285603D01*
X1813373Y6320775D01*
X1813372Y6320775D01*
X1803126Y6325305D01*
X1788481Y6327012D01*
X1781729Y6327800D01*
X1781721Y6327800D01*
X1777445Y6328299D01*
X1088153Y6328299D01*
X1061953Y6325181D01*
X959646Y6279738D01*
X880558Y6200512D01*
X874996Y6187932D01*
X874995Y6187930D01*
X866729Y6169232D01*
X835293Y6098126D01*
X833996Y6086999D01*
X832803Y6076765D01*
X832299Y6072445D01*
X832299Y4983153D01*
X-232117Y4983153D01*
X-235955Y4987553D01*
X-246648Y4999811D01*
X-246649Y4999812D01*
X-252555Y5006582D01*
X-391029Y5103903D01*
X-433903Y5120619D01*
X-540350Y5162121D01*
X-540352Y5162122D01*
X-548720Y5165384D01*
X-557626Y5166557D01*
X-557628Y5166557D01*
X-672968Y5181742D01*
X-672975Y5181742D01*
X-677810Y5182379D01*
X-766344Y5182379D01*
X-891928Y5167182D01*
X-1050254Y5107355D01*
X-1189740Y5011489D01*
X-1218755Y4978923D01*
X-1296357Y4891826D01*
X-1296360Y4891822D01*
X-1302332Y4885119D01*
X-1381530Y4735539D01*
X-1383717Y4726831D01*
X-1383718Y4726829D01*
X-1420139Y4581827D01*
X-1422762Y4571386D01*
X-1422845Y4555499D01*
X-1423360Y4457186D01*
X-1423649Y4402135D01*
X-2159001Y4402135D01*
X-2159001Y10659172D01*
X-2139039Y10733672D01*
X-2084501Y10788210D01*
X-2010001Y10808172D01*
X-1935501Y10788210D01*
X-1904642Y10764531D01*
X-816991Y9676881D01*
X-806306Y9663651D01*
X-800003Y9656724D01*
X-793322Y9646377D01*
X-783651Y9638753D01*
X-783650Y9638752D01*
X-767933Y9626362D01*
X-763876Y9622757D01*
X-763742Y9622916D01*
X-759053Y9618943D01*
X-754705Y9614595D01*
X-749703Y9611021D01*
X-749701Y9611019D01*
X-739394Y9603654D01*
X-733802Y9599456D01*
X-693843Y9567954D01*
X-685180Y9564912D01*
X-677712Y9559575D01*
X-665912Y9556046D01*
X-628978Y9545000D01*
X-622329Y9542840D01*
X-574325Y9525982D01*
X-568748Y9525499D01*
X-565521Y9525499D01*
X-563474Y9525410D01*
X-556350Y9523280D01*
X-502798Y9525384D01*
X-496948Y9525499D01*
X866188Y9525499D01*
X940688Y9505537D01*
X995226Y9450999D01*
X1015188Y9376499D01*
X995226Y9301999D01*
X964137Y9264218D01*
X907815Y9215085D01*
X872603Y9184368D01*
X775112Y9045652D01*
X713523Y8887686D01*
X691393Y8719588D01*
X692379Y8710657D01*
X692379Y8710656D01*
X695012Y8686810D01*
X709998Y8551064D01*
X713086Y8542627D01*
X713086Y8542625D01*
X718872Y8526815D01*
X768265Y8391843D01*
X773278Y8384383D01*
X841188Y8283320D01*
X866171Y8210351D01*
X853792Y8139970D01*
X851345Y8134434D01*
X840115Y8109032D01*
X835293Y8098126D01*
X832299Y8072445D01*
X832299Y6983153D01*
X835417Y6956953D01*
X880860Y6854646D01*
X960086Y6775558D01*
X972666Y6769996D01*
X972668Y6769995D01*
X1052225Y6734823D01*
X1062472Y6730293D01*
X1077117Y6728586D01*
X1083869Y6727798D01*
X1083877Y6727798D01*
X1088153Y6727299D01*
X1777445Y6727299D01*
X1803645Y6730417D01*
X1905952Y6775860D01*
X1915668Y6785593D01*
X1915674Y6785597D01*
X1977293Y6847324D01*
X2044054Y6885946D01*
X2121182Y6886013D01*
X2188010Y6847508D01*
X2250029Y6785597D01*
X2260086Y6775558D01*
X2272666Y6769996D01*
X2272668Y6769995D01*
X2352225Y6734823D01*
X2362472Y6730293D01*
X2377117Y6728586D01*
X2383869Y6727798D01*
X2383877Y6727798D01*
X2388153Y6727299D01*
X3077445Y6727299D01*
X3103645Y6730417D01*
X3205952Y6775860D01*
X3285040Y6855086D01*
X3298684Y6885946D01*
X3325775Y6947225D01*
X3325775Y6947226D01*
X3330305Y6957472D01*
X3333299Y6983153D01*
X3333299Y7029615D01*
X8015999Y7029615D01*
X8020144Y7014144D01*
X8035615Y7009999D01*
X8466383Y7009999D01*
X8481854Y7014144D01*
X8485999Y7029615D01*
X8485999Y7410383D01*
X8481854Y7425854D01*
X8466383Y7429999D01*
X8402541Y7429999D01*
X8395527Y7429668D01*
X8377612Y7427975D01*
X8359995Y7424109D01*
X8255662Y7387470D01*
X8236191Y7377161D01*
X8148894Y7312682D01*
X8133316Y7297104D01*
X8068837Y7209807D01*
X8058528Y7190336D01*
X8021889Y7086003D01*
X8018023Y7068386D01*
X8016330Y7050471D01*
X8015999Y7043457D01*
X8015999Y7029615D01*
X3333299Y7029615D01*
X3333299Y7528472D01*
X3353261Y7602972D01*
X3376940Y7633831D01*
X5220566Y9477457D01*
X5287361Y9516021D01*
X5325925Y9521098D01*
X5679521Y9521098D01*
X5696415Y9519300D01*
X5705781Y9518858D01*
X5717826Y9516265D01*
X5730060Y9517713D01*
X5749932Y9520065D01*
X5755349Y9520385D01*
X5755332Y9520592D01*
X5761452Y9521098D01*
X5767606Y9521098D01*
X5779322Y9523048D01*
X5786162Y9524186D01*
X5793109Y9525175D01*
X5802026Y9526231D01*
X5843622Y9531154D01*
X5851897Y9535128D01*
X5860953Y9536635D01*
X5905705Y9560782D01*
X5911960Y9563969D01*
X5949361Y9581929D01*
X5957812Y9585987D01*
X5962098Y9589589D01*
X5964378Y9591869D01*
X5965892Y9593257D01*
X5972434Y9596787D01*
X6008807Y9636135D01*
X6012862Y9640353D01*
X6371373Y9998864D01*
X6742597Y10370089D01*
X6755827Y10380774D01*
X6762754Y10387077D01*
X6773101Y10393758D01*
X6781331Y10404197D01*
X6793116Y10419147D01*
X6796721Y10423204D01*
X6796562Y10423338D01*
X6800535Y10428027D01*
X6804883Y10432375D01*
X6814163Y10445361D01*
X6815824Y10447686D01*
X6820022Y10453278D01*
X6851524Y10493237D01*
X6854566Y10501900D01*
X6859903Y10509368D01*
X6874478Y10558102D01*
X6876638Y10564751D01*
X6893496Y10612755D01*
X6893979Y10618332D01*
X6893979Y10621559D01*
X6894068Y10623606D01*
X6896198Y10630730D01*
X6894094Y10684282D01*
X6893979Y10690132D01*
X6893979Y10820499D01*
X6913941Y10894999D01*
X6968479Y10949537D01*
X7042979Y10969499D01*
X7518499Y10969499D01*
X7592999Y10949537D01*
G37*
%TD.AperFunction*%
%TA.AperFunction,Conductor*%
G36*
X27476248Y9591573D02*
G01*
X27534103Y9540568D01*
X27558705Y9467468D01*
X27558999Y9458111D01*
X27558999Y5327585D01*
X27539037Y5253085D01*
X27507551Y5214959D01*
X27427578Y5145690D01*
X27425002Y5142958D01*
X27424997Y5142954D01*
X27307892Y5018795D01*
X27242252Y4978295D01*
X27165157Y4976042D01*
X27097264Y5012637D01*
X27056764Y5078277D01*
X27050499Y5121030D01*
X27050499Y7309522D01*
X27052297Y7326416D01*
X27052739Y7335782D01*
X27055332Y7347827D01*
X27051532Y7379933D01*
X27051212Y7385350D01*
X27051005Y7385333D01*
X27050499Y7391453D01*
X27050499Y7397607D01*
X27047411Y7416163D01*
X27046422Y7423110D01*
X27045366Y7432027D01*
X27040443Y7473623D01*
X27036469Y7481898D01*
X27034962Y7490954D01*
X27024445Y7510446D01*
X27010805Y7535724D01*
X27007632Y7541951D01*
X26985609Y7587814D01*
X26982007Y7592099D01*
X26979734Y7594372D01*
X26978341Y7595890D01*
X26974810Y7602435D01*
X26935449Y7638820D01*
X26931231Y7642875D01*
X26506467Y8067639D01*
X26467903Y8134434D01*
X26467903Y8211562D01*
X26506467Y8278357D01*
X26562456Y8313581D01*
X26582562Y8320642D01*
X26630183Y8337365D01*
X26739149Y8417849D01*
X26819633Y8526815D01*
X26864518Y8654630D01*
X26867499Y8686165D01*
X26867499Y9093833D01*
X26864518Y9125368D01*
X26819633Y9253183D01*
X26821528Y9253848D01*
X26807451Y9315314D01*
X26830131Y9389032D01*
X26886632Y9441534D01*
X26958691Y9458834D01*
X26985005Y9458420D01*
X26988780Y9458361D01*
X26997759Y9458220D01*
X27163028Y9496071D01*
X27191640Y9510461D01*
X27243617Y9536603D01*
X27314497Y9572252D01*
X27321329Y9578087D01*
X27327542Y9582215D01*
X27400642Y9606817D01*
X27476248Y9591573D01*
G37*
%TD.AperFunction*%
%TA.AperFunction,Conductor*%
G36*
X18162236Y13494160D02*
G01*
X18225799Y13450474D01*
X18259004Y13380859D01*
X18261499Y13353706D01*
X18261499Y12266165D01*
X18264480Y12234630D01*
X18309365Y12106815D01*
X18389849Y11997849D01*
X18398809Y11991231D01*
X18398810Y11991230D01*
X18421024Y11974822D01*
X18469090Y11914502D01*
X18481499Y11854971D01*
X18481499Y11311275D01*
X18461537Y11236775D01*
X18421023Y11191423D01*
X18399181Y11175290D01*
X18369000Y11152998D01*
X18290303Y11046451D01*
X18246414Y10921473D01*
X18243499Y10890637D01*
X18243499Y10640695D01*
X18223537Y10566195D01*
X18168999Y10511657D01*
X18094499Y10491695D01*
X18019999Y10511657D01*
X17965461Y10566195D01*
X17955118Y10588027D01*
X17953428Y10592499D01*
X17897344Y10740922D01*
X17801311Y10880650D01*
X17794603Y10886627D01*
X17681427Y10987464D01*
X17681423Y10987467D01*
X17674720Y10993439D01*
X17666782Y10997642D01*
X17666779Y10997644D01*
X17532822Y11068570D01*
X17524880Y11072775D01*
X17516167Y11074964D01*
X17516166Y11074964D01*
X17408106Y11102107D01*
X17360440Y11114080D01*
X17256001Y11114627D01*
X17199872Y11114921D01*
X17190894Y11114968D01*
X17178082Y11111892D01*
X17034764Y11077484D01*
X17034761Y11077483D01*
X17026031Y11075387D01*
X17018052Y11071269D01*
X17018050Y11071268D01*
X16883352Y11001745D01*
X16875368Y10997624D01*
X16868601Y10991720D01*
X16868597Y10991718D01*
X16757726Y10894999D01*
X16747603Y10886168D01*
X16742438Y10878819D01*
X16729892Y10860968D01*
X16650112Y10747452D01*
X16588523Y10589486D01*
X16566393Y10421388D01*
X16567379Y10412457D01*
X16567379Y10412456D01*
X16569648Y10391903D01*
X16584998Y10252864D01*
X16588086Y10244427D01*
X16588086Y10244425D01*
X16595916Y10223030D01*
X16643265Y10093643D01*
X16648274Y10086188D01*
X16648275Y10086187D01*
X16730246Y9964201D01*
X16755229Y9891231D01*
X16740380Y9815546D01*
X16689678Y9757425D01*
X16615810Y9732499D01*
X16613353Y9732499D01*
X16587153Y9729381D01*
X16484846Y9683938D01*
X16405758Y9604712D01*
X16400196Y9592132D01*
X16400195Y9592130D01*
X16365254Y9513095D01*
X16360493Y9502326D01*
X16357499Y9476645D01*
X16357499Y8911499D01*
X16337537Y8836999D01*
X16282999Y8782461D01*
X16208499Y8762499D01*
X15550476Y8762499D01*
X15533582Y8764297D01*
X15524216Y8764739D01*
X15512171Y8767332D01*
X15499937Y8765884D01*
X15480065Y8763532D01*
X15474648Y8763212D01*
X15474665Y8763005D01*
X15468545Y8762499D01*
X15462391Y8762499D01*
X15450675Y8760549D01*
X15443835Y8759411D01*
X15436888Y8758422D01*
X15427971Y8757366D01*
X15386375Y8752443D01*
X15378100Y8748469D01*
X15369044Y8746962D01*
X15334825Y8728498D01*
X15324294Y8722816D01*
X15318037Y8719628D01*
X15280637Y8701669D01*
X15280634Y8701667D01*
X15272185Y8697610D01*
X15267900Y8694008D01*
X15265635Y8691743D01*
X15264107Y8690341D01*
X15257563Y8686810D01*
X15249203Y8677766D01*
X15221178Y8647449D01*
X15217123Y8643231D01*
X13568869Y6994977D01*
X13502074Y6956413D01*
X13424946Y6956413D01*
X13358151Y6994977D01*
X13317973Y7068400D01*
X13314112Y7085997D01*
X13277470Y7190336D01*
X13267161Y7209807D01*
X13202682Y7297104D01*
X13187104Y7312682D01*
X13099807Y7377161D01*
X13080336Y7387470D01*
X12976003Y7424109D01*
X12958386Y7427975D01*
X12940471Y7429668D01*
X12933457Y7429999D01*
X12869615Y7429999D01*
X12854144Y7425854D01*
X12849999Y7410383D01*
X12849999Y6858999D01*
X12830037Y6784499D01*
X12775499Y6729961D01*
X12700999Y6709999D01*
X11682999Y6709999D01*
X11608499Y6729961D01*
X11553961Y6784499D01*
X11533999Y6858999D01*
X11533999Y7029615D01*
X11833999Y7029615D01*
X11838144Y7014144D01*
X11853615Y7009999D01*
X12530383Y7009999D01*
X12545854Y7014144D01*
X12549999Y7029615D01*
X12549999Y7410383D01*
X12545854Y7425854D01*
X12530383Y7429999D01*
X12466541Y7429999D01*
X12459527Y7429668D01*
X12441612Y7427975D01*
X12423995Y7424109D01*
X12319662Y7387470D01*
X12300191Y7377161D01*
X12280523Y7362634D01*
X12208737Y7334429D01*
X12132466Y7345896D01*
X12103475Y7362634D01*
X12083807Y7377161D01*
X12064336Y7387470D01*
X11960003Y7424109D01*
X11942386Y7427975D01*
X11924471Y7429668D01*
X11917457Y7429999D01*
X11853615Y7429999D01*
X11838144Y7425854D01*
X11833999Y7410383D01*
X11833999Y7029615D01*
X11533999Y7029615D01*
X11533999Y7410383D01*
X11529854Y7425854D01*
X11514383Y7429999D01*
X11450541Y7429999D01*
X11443527Y7429668D01*
X11425612Y7427975D01*
X11399134Y7422165D01*
X11398778Y7423786D01*
X11332465Y7418743D01*
X11262938Y7452130D01*
X11219419Y7515808D01*
X11213570Y7592714D01*
X11246957Y7662241D01*
X11254644Y7670535D01*
X11795967Y8211858D01*
X11862762Y8250422D01*
X11901326Y8255499D01*
X13913522Y8255499D01*
X13930416Y8253701D01*
X13939782Y8253259D01*
X13951827Y8250666D01*
X13964061Y8252114D01*
X13983933Y8254466D01*
X13989350Y8254786D01*
X13989333Y8254993D01*
X13995453Y8255499D01*
X14001607Y8255499D01*
X14013323Y8257449D01*
X14020163Y8258587D01*
X14027110Y8259576D01*
X14036027Y8260632D01*
X14077623Y8265555D01*
X14085898Y8269529D01*
X14094954Y8271036D01*
X14139706Y8295183D01*
X14145961Y8298370D01*
X14177637Y8313581D01*
X14191813Y8320388D01*
X14196099Y8323990D01*
X14198379Y8326270D01*
X14199893Y8327658D01*
X14206435Y8331188D01*
X14242808Y8370536D01*
X14246863Y8374754D01*
X15469117Y9597009D01*
X15482347Y9607694D01*
X15489274Y9613997D01*
X15499621Y9620678D01*
X15519637Y9646068D01*
X15523241Y9650124D01*
X15523082Y9650258D01*
X15527055Y9654947D01*
X15531403Y9659295D01*
X15542344Y9674606D01*
X15546542Y9680198D01*
X15578044Y9720157D01*
X15581086Y9728820D01*
X15586423Y9736288D01*
X15597862Y9774537D01*
X15600998Y9785022D01*
X15603158Y9791671D01*
X15620016Y9839675D01*
X15620499Y9845252D01*
X15620499Y9848479D01*
X15620588Y9850526D01*
X15622718Y9857650D01*
X15620614Y9911202D01*
X15620499Y9917052D01*
X15620499Y11647471D01*
X15640461Y11721971D01*
X15694999Y11776509D01*
X15771839Y11796453D01*
X15912544Y11794243D01*
X15921523Y11794102D01*
X16086792Y11831953D01*
X16134726Y11856061D01*
X16183066Y11880374D01*
X16238261Y11908134D01*
X16264044Y11930155D01*
X16360357Y12012414D01*
X16360359Y12012416D01*
X16367186Y12018247D01*
X16404374Y12070000D01*
X16460887Y12148645D01*
X16460889Y12148649D01*
X16466124Y12155934D01*
X16479770Y12189879D01*
X16526014Y12304912D01*
X16526015Y12304917D01*
X16529364Y12313247D01*
X16553253Y12481103D01*
X16553408Y12495881D01*
X16533039Y12664201D01*
X16486323Y12787832D01*
X16478662Y12864578D01*
X16510402Y12934873D01*
X16573036Y12979880D01*
X16625704Y12989499D01*
X16869522Y12989499D01*
X16886416Y12987701D01*
X16895782Y12987259D01*
X16907827Y12984666D01*
X16920061Y12986114D01*
X16939933Y12988466D01*
X16945350Y12988786D01*
X16945333Y12988993D01*
X16951453Y12989499D01*
X16957607Y12989499D01*
X16969323Y12991449D01*
X16976163Y12992587D01*
X16983110Y12993576D01*
X16992027Y12994632D01*
X17033623Y12999555D01*
X17041898Y13003529D01*
X17050954Y13005036D01*
X17095706Y13029183D01*
X17101961Y13032370D01*
X17139362Y13050330D01*
X17147813Y13054388D01*
X17152099Y13057990D01*
X17154379Y13060270D01*
X17155893Y13061658D01*
X17162435Y13065188D01*
X17198808Y13104536D01*
X17202863Y13108754D01*
X17321509Y13227400D01*
X17388304Y13265964D01*
X17430196Y13268605D01*
X17430232Y13270883D01*
X17590780Y13268361D01*
X17599759Y13268220D01*
X17765028Y13306071D01*
X17819901Y13333669D01*
X17887522Y13367679D01*
X17916497Y13382252D01*
X17972833Y13430368D01*
X18015731Y13467006D01*
X18085346Y13500211D01*
X18162236Y13494160D01*
G37*
%TD.AperFunction*%
%TA.AperFunction,Conductor*%
G36*
X26745499Y11842037D02*
G01*
X26800037Y11787499D01*
X26819999Y11712999D01*
X26819999Y11151616D01*
X26824551Y11134628D01*
X26844622Y11114557D01*
X26859379Y11106037D01*
X26897942Y11039242D01*
X26903019Y11000679D01*
X26903019Y10992865D01*
X26883057Y10918365D01*
X26828519Y10863827D01*
X26788804Y10847982D01*
X26775459Y10844778D01*
X26678031Y10821387D01*
X26670052Y10817269D01*
X26670050Y10817268D01*
X26549023Y10754801D01*
X26527368Y10743624D01*
X26520601Y10737720D01*
X26520597Y10737718D01*
X26430558Y10659172D01*
X26399603Y10632168D01*
X26394438Y10624819D01*
X26391287Y10620335D01*
X26302112Y10493452D01*
X26240523Y10335486D01*
X26218393Y10167388D01*
X26236998Y9998864D01*
X26240086Y9990427D01*
X26240086Y9990425D01*
X26262224Y9929932D01*
X26295265Y9839643D01*
X26300274Y9832188D01*
X26300275Y9832187D01*
X26373912Y9722603D01*
X26398895Y9649633D01*
X26384046Y9573948D01*
X26333344Y9515827D01*
X26260374Y9490844D01*
X26250240Y9490499D01*
X25863499Y9490499D01*
X25788999Y9510461D01*
X25734461Y9564999D01*
X25714499Y9639499D01*
X25714499Y11092971D01*
X25734461Y11167471D01*
X25774974Y11212822D01*
X25797188Y11229230D01*
X25797189Y11229231D01*
X25806149Y11235849D01*
X25883846Y11341042D01*
X25944165Y11389106D01*
X26020436Y11400573D01*
X26092222Y11372368D01*
X26123549Y11341041D01*
X26178743Y11266315D01*
X26194318Y11250740D01*
X26282824Y11185368D01*
X26302295Y11175059D01*
X26408054Y11137919D01*
X26425655Y11134057D01*
X26443928Y11132330D01*
X26450940Y11131999D01*
X26500383Y11131999D01*
X26515854Y11136144D01*
X26519999Y11151615D01*
X26519999Y11712999D01*
X26539961Y11787499D01*
X26594499Y11842037D01*
X26668999Y11861999D01*
X26670999Y11861999D01*
X26745499Y11842037D01*
G37*
%TD.AperFunction*%
%TA.AperFunction,Conductor*%
G36*
X22935131Y13529938D02*
G01*
X22961642Y13510569D01*
X22961849Y13510849D01*
X23070815Y13430365D01*
X23198630Y13385480D01*
X23207673Y13384625D01*
X23207674Y13384625D01*
X23210394Y13384368D01*
X23230165Y13382499D01*
X23406673Y13382499D01*
X23481173Y13362537D01*
X23535711Y13307999D01*
X23555673Y13233499D01*
X23535711Y13158999D01*
X23512032Y13128140D01*
X23461032Y13077140D01*
X23394237Y13038576D01*
X23355673Y13033499D01*
X23230165Y13033499D01*
X23210394Y13031630D01*
X23207674Y13031373D01*
X23207673Y13031373D01*
X23198630Y13030518D01*
X23070815Y12985633D01*
X22961849Y12905149D01*
X22960766Y12906616D01*
X22905546Y12874735D01*
X22828418Y12874735D01*
X22761623Y12913299D01*
X22723059Y12980094D01*
X22718848Y13019025D01*
X22717999Y13019025D01*
X22717999Y13036383D01*
X22713854Y13051854D01*
X22698383Y13055999D01*
X22267615Y13055999D01*
X22252144Y13051854D01*
X22247999Y13036383D01*
X22247999Y12655615D01*
X22252144Y12640144D01*
X22267615Y12635999D01*
X22331457Y12635999D01*
X22338471Y12636330D01*
X22356386Y12638023D01*
X22374003Y12641889D01*
X22478336Y12678528D01*
X22497807Y12688837D01*
X22594064Y12759934D01*
X22596062Y12757229D01*
X22646190Y12786171D01*
X22723318Y12786171D01*
X22790113Y12747607D01*
X22828677Y12680812D01*
X22833417Y12636833D01*
X22833499Y12636833D01*
X22833499Y11504165D01*
X22836480Y11472630D01*
X22881365Y11344815D01*
X22961849Y11235849D01*
X23070815Y11155365D01*
X23198630Y11110480D01*
X23207673Y11109625D01*
X23207674Y11109625D01*
X23210394Y11109368D01*
X23230165Y11107499D01*
X23637833Y11107499D01*
X23657604Y11109368D01*
X23660324Y11109625D01*
X23660325Y11109625D01*
X23669368Y11110480D01*
X23797183Y11155365D01*
X23806140Y11161981D01*
X23806144Y11161983D01*
X23820895Y11172879D01*
X23892681Y11201085D01*
X23968952Y11189619D01*
X23997947Y11172878D01*
X24012096Y11162427D01*
X24031556Y11152123D01*
X24140164Y11113983D01*
X24157759Y11110123D01*
X24176732Y11108330D01*
X24183744Y11107999D01*
X24214383Y11107999D01*
X24229854Y11112144D01*
X24233999Y11127615D01*
X24233999Y12071499D01*
X24253961Y12145999D01*
X24308499Y12200537D01*
X24382999Y12220499D01*
X24384999Y12220499D01*
X24459499Y12200537D01*
X24514037Y12145999D01*
X24533999Y12071499D01*
X24533999Y11127616D01*
X24538144Y11112145D01*
X24553615Y11108000D01*
X24584249Y11108000D01*
X24591276Y11108331D01*
X24610235Y11110123D01*
X24627836Y11113984D01*
X24746946Y11155812D01*
X24747525Y11154162D01*
X24809962Y11168461D01*
X24883680Y11145781D01*
X24936181Y11089280D01*
X24953499Y11019561D01*
X24953499Y10533235D01*
X24933537Y10458735D01*
X24878999Y10404197D01*
X24804499Y10384235D01*
X24755133Y10392650D01*
X24627368Y10437518D01*
X24618325Y10438373D01*
X24618324Y10438373D01*
X24615604Y10438630D01*
X24595833Y10440499D01*
X23313165Y10440499D01*
X23293394Y10438630D01*
X23290674Y10438373D01*
X23290673Y10438373D01*
X23281630Y10437518D01*
X23153815Y10392633D01*
X23044849Y10312149D01*
X22964365Y10203183D01*
X22919480Y10075368D01*
X22916499Y10043833D01*
X22916499Y9758226D01*
X22896537Y9683726D01*
X22841999Y9629188D01*
X22767499Y9609226D01*
X22692999Y9629188D01*
X22662232Y9652775D01*
X22640447Y9674522D01*
X22630712Y9684240D01*
X22618132Y9689802D01*
X22618130Y9689803D01*
X22538573Y9724975D01*
X22538572Y9724975D01*
X22528326Y9729505D01*
X22513681Y9731212D01*
X22506929Y9732000D01*
X22506921Y9732000D01*
X22502645Y9732499D01*
X22287499Y9732499D01*
X22212999Y9752461D01*
X22158461Y9806999D01*
X22138499Y9881499D01*
X22138499Y9982703D01*
X22158461Y10057203D01*
X22198975Y10102555D01*
X22283462Y10164958D01*
X22292422Y10171576D01*
X22370226Y10276914D01*
X22374663Y10289547D01*
X22394405Y10345765D01*
X22413617Y10400473D01*
X22416499Y10430961D01*
X22416499Y10905037D01*
X22413617Y10935525D01*
X22374863Y11045881D01*
X22373917Y11048574D01*
X22373917Y11048575D01*
X22370226Y11059084D01*
X22314428Y11134628D01*
X22299040Y11155462D01*
X22292422Y11164422D01*
X22187084Y11242226D01*
X22063525Y11285617D01*
X22054485Y11286472D01*
X22054483Y11286472D01*
X22047599Y11287122D01*
X22033037Y11288499D01*
X21658961Y11288499D01*
X21644399Y11287122D01*
X21637515Y11286472D01*
X21637513Y11286472D01*
X21628473Y11285617D01*
X21504914Y11242226D01*
X21457978Y11207558D01*
X21444023Y11197251D01*
X21372237Y11169046D01*
X21295966Y11180513D01*
X21235647Y11228579D01*
X21207442Y11300365D01*
X21206499Y11317103D01*
X21206499Y11911353D01*
X21226461Y11985853D01*
X21235647Y11999877D01*
X21308015Y12097855D01*
X21314633Y12106815D01*
X21359518Y12234630D01*
X21362499Y12266165D01*
X21362499Y12641993D01*
X21382461Y12716493D01*
X21436999Y12771031D01*
X21511499Y12790993D01*
X21585999Y12771031D01*
X21601401Y12759213D01*
X21601934Y12759934D01*
X21698191Y12688837D01*
X21717662Y12678528D01*
X21821995Y12641889D01*
X21839612Y12638023D01*
X21857527Y12636330D01*
X21864541Y12635999D01*
X21928383Y12635999D01*
X21943854Y12640144D01*
X21947999Y12655615D01*
X21947999Y13206999D01*
X21967961Y13281499D01*
X22022499Y13336037D01*
X22096999Y13355999D01*
X22698383Y13355999D01*
X22713854Y13360144D01*
X22717999Y13375615D01*
X22717999Y13389466D01*
X22717949Y13390528D01*
X22717999Y13390757D01*
X22717999Y13392973D01*
X22718482Y13392973D01*
X22734384Y13465885D01*
X22786296Y13522928D01*
X22859774Y13546373D01*
X22935131Y13529938D01*
G37*
%TD.AperFunction*%
%TA.AperFunction,Conductor*%
G36*
X3885499Y12604037D02*
G01*
X3940037Y12549499D01*
X3959999Y12474999D01*
X3959999Y11913616D01*
X3964144Y11898145D01*
X3979615Y11894000D01*
X4029054Y11894000D01*
X4036078Y11894331D01*
X4054338Y11896057D01*
X4071947Y11899920D01*
X4177703Y11937059D01*
X4197175Y11947368D01*
X4207974Y11955345D01*
X4279759Y11983551D01*
X4356030Y11972085D01*
X4416350Y11924019D01*
X4444556Y11852234D01*
X4445499Y11835494D01*
X4445499Y11282058D01*
X4425537Y11207558D01*
X4410178Y11185735D01*
X4407542Y11182624D01*
X4403194Y11178276D01*
X4399619Y11173273D01*
X4392253Y11162965D01*
X4388055Y11157373D01*
X4356553Y11117414D01*
X4353511Y11108751D01*
X4348174Y11101283D01*
X4334456Y11055411D01*
X4333602Y11052557D01*
X4331432Y11045881D01*
X4314581Y10997896D01*
X4314098Y10992319D01*
X4314098Y10989092D01*
X4314009Y10987043D01*
X4311879Y10979920D01*
X4313287Y10944095D01*
X4313983Y10926368D01*
X4314098Y10920518D01*
X4314098Y10451124D01*
X4294136Y10376624D01*
X4270457Y10345765D01*
X4254832Y10330140D01*
X4188037Y10291576D01*
X4149473Y10286499D01*
X2889169Y10286499D01*
X2814669Y10306461D01*
X2760131Y10360999D01*
X2740169Y10435499D01*
X2740169Y10776342D01*
X2760131Y10850842D01*
X2783810Y10881701D01*
X3449597Y11547489D01*
X3462827Y11558174D01*
X3469754Y11564477D01*
X3480101Y11571158D01*
X3500117Y11596548D01*
X3503720Y11600603D01*
X3503561Y11600737D01*
X3507534Y11605426D01*
X3511883Y11609775D01*
X3522836Y11625103D01*
X3527009Y11630661D01*
X3558524Y11670637D01*
X3561566Y11679298D01*
X3566903Y11686767D01*
X3581477Y11735499D01*
X3583647Y11742176D01*
X3587760Y11753887D01*
X3600496Y11790155D01*
X3600979Y11795732D01*
X3600979Y11797981D01*
X3603077Y11807725D01*
X3603198Y11808130D01*
X3603193Y11808263D01*
X3603278Y11808659D01*
X3606340Y11808000D01*
X3626997Y11864938D01*
X3643780Y11884960D01*
X3655447Y11896627D01*
X3659999Y11913615D01*
X3659999Y12474999D01*
X3679961Y12549499D01*
X3734499Y12604037D01*
X3808999Y12623999D01*
X3810999Y12623999D01*
X3885499Y12604037D01*
G37*
%TD.AperFunction*%
%TA.AperFunction,Conductor*%
G36*
X21450999Y16363537D02*
G01*
X21505537Y16308999D01*
X21525499Y16234499D01*
X21525499Y16000213D01*
X21505537Y15925713D01*
X21450999Y15871175D01*
X21376499Y15851213D01*
X21301999Y15871175D01*
X21256647Y15911689D01*
X21246067Y15926014D01*
X21234149Y15942149D01*
X21125183Y16022633D01*
X20997368Y16067518D01*
X20988325Y16068373D01*
X20988324Y16068373D01*
X20985224Y16068666D01*
X20965833Y16070499D01*
X20558165Y16070499D01*
X20538774Y16068666D01*
X20535674Y16068373D01*
X20535673Y16068373D01*
X20526630Y16067518D01*
X20398815Y16022633D01*
X20289849Y15942149D01*
X20209365Y15833183D01*
X20164480Y15705368D01*
X20161499Y15673833D01*
X20161499Y14541165D01*
X20164480Y14509630D01*
X20209365Y14381815D01*
X20289849Y14272849D01*
X20398815Y14192365D01*
X20526630Y14147480D01*
X20535673Y14146625D01*
X20535674Y14146625D01*
X20538394Y14146368D01*
X20558165Y14144499D01*
X20965833Y14144499D01*
X20985604Y14146368D01*
X20988324Y14146625D01*
X20988325Y14146625D01*
X20997368Y14147480D01*
X21125183Y14192365D01*
X21234149Y14272849D01*
X21235346Y14271229D01*
X21289935Y14302746D01*
X21367063Y14302746D01*
X21433858Y14264182D01*
X21472422Y14197387D01*
X21477499Y14158823D01*
X21477499Y14038961D01*
X21480381Y14008473D01*
X21523772Y13884914D01*
X21543204Y13858606D01*
X21583461Y13804102D01*
X21611666Y13732316D01*
X21600199Y13656046D01*
X21583460Y13627053D01*
X21543463Y13572902D01*
X21483144Y13524837D01*
X21406873Y13513370D01*
X21335087Y13541576D01*
X21303761Y13572902D01*
X21234149Y13667149D01*
X21125183Y13747633D01*
X20997368Y13792518D01*
X20988325Y13793373D01*
X20988324Y13793373D01*
X20985604Y13793630D01*
X20965833Y13795499D01*
X20558165Y13795499D01*
X20538394Y13793630D01*
X20535674Y13793373D01*
X20535673Y13793373D01*
X20526630Y13792518D01*
X20398815Y13747633D01*
X20389858Y13741017D01*
X20389854Y13741015D01*
X20375103Y13730119D01*
X20303317Y13701913D01*
X20227046Y13713379D01*
X20198051Y13730120D01*
X20183902Y13740571D01*
X20164442Y13750875D01*
X20055834Y13789015D01*
X20038239Y13792875D01*
X20019266Y13794668D01*
X20012254Y13794999D01*
X19981615Y13794999D01*
X19966144Y13790854D01*
X19961999Y13775383D01*
X19961999Y11889616D01*
X19966144Y11874145D01*
X19981615Y11870000D01*
X20012249Y11870000D01*
X20019276Y11870331D01*
X20038235Y11872123D01*
X20055836Y11875984D01*
X20164442Y11914123D01*
X20183902Y11924427D01*
X20198051Y11934878D01*
X20269836Y11963084D01*
X20346107Y11951620D01*
X20375100Y11934881D01*
X20385026Y11927550D01*
X20433090Y11867231D01*
X20445499Y11807700D01*
X20445499Y11295142D01*
X20425537Y11220642D01*
X20370999Y11166104D01*
X20296499Y11146142D01*
X20221999Y11166104D01*
X20207975Y11175290D01*
X20141174Y11224630D01*
X20121703Y11234939D01*
X20015944Y11272079D01*
X19998343Y11275941D01*
X19980070Y11277668D01*
X19973058Y11277999D01*
X19953615Y11277999D01*
X19938144Y11273854D01*
X19933999Y11258383D01*
X19933999Y10666999D01*
X19914037Y10592499D01*
X19859499Y10537961D01*
X19784999Y10517999D01*
X19782999Y10517999D01*
X19708499Y10537961D01*
X19653961Y10592499D01*
X19633999Y10666999D01*
X19633999Y11258382D01*
X19629854Y11273853D01*
X19614383Y11277998D01*
X19594944Y11277998D01*
X19587920Y11277667D01*
X19569660Y11275941D01*
X19552052Y11272078D01*
X19440868Y11233033D01*
X19363963Y11227183D01*
X19294435Y11260569D01*
X19250916Y11324247D01*
X19242499Y11373616D01*
X19242499Y11781561D01*
X19262461Y11856061D01*
X19316999Y11910599D01*
X19391499Y11930561D01*
X19448552Y11916389D01*
X19449052Y11917812D01*
X19568164Y11875983D01*
X19585759Y11872123D01*
X19604732Y11870330D01*
X19611744Y11869999D01*
X19642383Y11869999D01*
X19657854Y11874144D01*
X19661999Y11889615D01*
X19661999Y13775382D01*
X19657854Y13790853D01*
X19642383Y13794998D01*
X19611749Y13794998D01*
X19604722Y13794667D01*
X19585763Y13792875D01*
X19568162Y13789014D01*
X19459556Y13750875D01*
X19440096Y13740571D01*
X19425947Y13730120D01*
X19354162Y13701914D01*
X19277891Y13713378D01*
X19248895Y13730119D01*
X19234144Y13741015D01*
X19234140Y13741017D01*
X19225183Y13747633D01*
X19097368Y13792518D01*
X19088325Y13793373D01*
X19088324Y13793373D01*
X19085604Y13793630D01*
X19065833Y13795499D01*
X18658165Y13795499D01*
X18638394Y13793630D01*
X18635674Y13793373D01*
X18635673Y13793373D01*
X18626630Y13792518D01*
X18498815Y13747633D01*
X18475103Y13730119D01*
X18453236Y13713968D01*
X18381450Y13685764D01*
X18305179Y13697231D01*
X18244860Y13745298D01*
X18216656Y13817084D01*
X18217199Y13854815D01*
X18220208Y13875954D01*
X18231489Y13955221D01*
X18231644Y13969999D01*
X18227670Y14002838D01*
X18222270Y14047465D01*
X18233138Y14123824D01*
X18264832Y14170724D01*
X18285979Y14191871D01*
X18352774Y14230435D01*
X18429902Y14230435D01*
X18479862Y14206364D01*
X18498815Y14192365D01*
X18626630Y14147480D01*
X18635673Y14146625D01*
X18635674Y14146625D01*
X18638394Y14146368D01*
X18658165Y14144499D01*
X19065833Y14144499D01*
X19085604Y14146368D01*
X19088324Y14146625D01*
X19088325Y14146625D01*
X19097368Y14147480D01*
X19225183Y14192365D01*
X19334149Y14272849D01*
X19414633Y14381815D01*
X19459518Y14509630D01*
X19462499Y14541165D01*
X19462499Y15673833D01*
X19459518Y15705368D01*
X19414633Y15833183D01*
X19334149Y15942149D01*
X19225183Y16022633D01*
X19097368Y16067518D01*
X19088325Y16068373D01*
X19088324Y16068373D01*
X19085224Y16068666D01*
X19065833Y16070499D01*
X19000326Y16070499D01*
X18925826Y16090461D01*
X18871288Y16144999D01*
X18851326Y16219499D01*
X18871288Y16293999D01*
X18894967Y16324858D01*
X18909967Y16339858D01*
X18976762Y16378422D01*
X19015326Y16383499D01*
X21376499Y16383499D01*
X21450999Y16363537D01*
G37*
%TD.AperFunction*%
%TA.AperFunction,Conductor*%
G36*
X4623499Y27539037D02*
G01*
X4678037Y27484499D01*
X4697999Y27409999D01*
X4697999Y26331615D01*
X4702144Y26316144D01*
X4717615Y26311999D01*
X6778383Y26311999D01*
X6793854Y26316144D01*
X6797999Y26331615D01*
X6797999Y27409999D01*
X6817961Y27484499D01*
X6872499Y27539037D01*
X6946999Y27558999D01*
X7226379Y27558999D01*
X7300879Y27539037D01*
X7355417Y27484499D01*
X7375379Y27409999D01*
X7375379Y25545218D01*
X7378497Y25519018D01*
X7423940Y25416711D01*
X7503166Y25337623D01*
X7515746Y25332061D01*
X7515748Y25332060D01*
X7595305Y25296888D01*
X7605552Y25292358D01*
X7620197Y25290651D01*
X7626949Y25289863D01*
X7626957Y25289863D01*
X7631233Y25289364D01*
X8919405Y25289364D01*
X8945605Y25292482D01*
X9047912Y25337925D01*
X9127000Y25417151D01*
X9136190Y25437936D01*
X9167735Y25509290D01*
X9167735Y25509291D01*
X9172265Y25519537D01*
X9175259Y25545218D01*
X9175259Y27409999D01*
X9195221Y27484499D01*
X9249759Y27539037D01*
X9324259Y27558999D01*
X12824539Y27558999D01*
X12899039Y27539037D01*
X12953577Y27484499D01*
X12973539Y27409999D01*
X12973539Y25545218D01*
X12976657Y25519018D01*
X13022100Y25416711D01*
X13101326Y25337623D01*
X13113906Y25332061D01*
X13113908Y25332060D01*
X13193465Y25296888D01*
X13203712Y25292358D01*
X13218357Y25290651D01*
X13225109Y25289863D01*
X13225117Y25289863D01*
X13229393Y25289364D01*
X14517565Y25289364D01*
X14543765Y25292482D01*
X14646072Y25337925D01*
X14725160Y25417151D01*
X14734350Y25437936D01*
X14765895Y25509290D01*
X14765895Y25509291D01*
X14770425Y25519537D01*
X14773419Y25545218D01*
X14773419Y26104718D01*
X15266030Y26104718D01*
X15283803Y25901564D01*
X15286052Y25888810D01*
X15338835Y25691824D01*
X15343266Y25679650D01*
X15429448Y25494831D01*
X15435932Y25483599D01*
X15521189Y25361840D01*
X15533458Y25351545D01*
X15540933Y25354265D01*
X16283996Y26097328D01*
X16292004Y26111199D01*
X16283996Y26125070D01*
X15546311Y26862755D01*
X15532440Y26870763D01*
X15525549Y26866785D01*
X15435932Y26738799D01*
X15429448Y26727567D01*
X15343266Y26542748D01*
X15338835Y26530574D01*
X15286052Y26333588D01*
X15283803Y26320834D01*
X15266030Y26117680D01*
X15266030Y26104718D01*
X14773419Y26104718D01*
X14773419Y27409999D01*
X14793381Y27484499D01*
X14847919Y27539037D01*
X14922419Y27558999D01*
X16009104Y27558999D01*
X16083604Y27539037D01*
X16138142Y27484499D01*
X16158104Y27409999D01*
X16138142Y27335499D01*
X16083604Y27280961D01*
X16072074Y27274959D01*
X15893631Y27191750D01*
X15882399Y27185266D01*
X15760640Y27100009D01*
X15750345Y27087740D01*
X15753065Y27080265D01*
X16496128Y26337202D01*
X16509999Y26329194D01*
X16523870Y26337202D01*
X17261555Y27074887D01*
X17269563Y27088758D01*
X17265585Y27095649D01*
X17137599Y27185266D01*
X17126367Y27191750D01*
X16947924Y27274959D01*
X16888841Y27324536D01*
X16862461Y27397012D01*
X16875854Y27472969D01*
X16925431Y27532052D01*
X16997907Y27558432D01*
X17010894Y27558999D01*
X18547920Y27558999D01*
X18622420Y27539037D01*
X18676958Y27484499D01*
X18696920Y27409999D01*
X18676958Y27335499D01*
X18622420Y27280961D01*
X18610890Y27274959D01*
X18427480Y27189434D01*
X18422152Y27185704D01*
X18422148Y27185701D01*
X18255039Y27068689D01*
X18255036Y27068687D01*
X18249704Y27064953D01*
X18096245Y26911494D01*
X18092511Y26906162D01*
X18092509Y26906159D01*
X17975497Y26739050D01*
X17975494Y26739046D01*
X17971764Y26733718D01*
X17969015Y26727822D01*
X17914763Y26611478D01*
X17865186Y26552395D01*
X17792710Y26526015D01*
X17716753Y26539408D01*
X17657670Y26588985D01*
X17644683Y26611478D01*
X17590550Y26727567D01*
X17584066Y26738799D01*
X17498809Y26860558D01*
X17486540Y26870853D01*
X17479065Y26868133D01*
X16736002Y26125070D01*
X16727994Y26111199D01*
X16736002Y26097328D01*
X17473687Y25359643D01*
X17487558Y25351635D01*
X17494449Y25355613D01*
X17584066Y25483599D01*
X17590550Y25494831D01*
X17644683Y25610920D01*
X17694260Y25670003D01*
X17766736Y25696383D01*
X17842693Y25682990D01*
X17901776Y25633413D01*
X17914762Y25610921D01*
X17971764Y25488680D01*
X17975494Y25483352D01*
X17975497Y25483348D01*
X18081431Y25332060D01*
X18096245Y25310904D01*
X18109479Y25297670D01*
X18148043Y25230875D01*
X18148043Y25153747D01*
X18109479Y25086952D01*
X18065082Y25059263D01*
X18065735Y25058053D01*
X18020985Y25033907D01*
X18014728Y25030719D01*
X17977328Y25012760D01*
X17977325Y25012758D01*
X17968876Y25008701D01*
X17964591Y25005099D01*
X17962326Y25002834D01*
X17960798Y25001432D01*
X17954254Y24997901D01*
X17945894Y24988857D01*
X17917869Y24958540D01*
X17913814Y24954322D01*
X17581558Y24622066D01*
X17514763Y24583502D01*
X17437635Y24583502D01*
X17370840Y24622066D01*
X17288269Y24704637D01*
X17277584Y24717867D01*
X17271281Y24724794D01*
X17264600Y24735141D01*
X17239210Y24755157D01*
X17235154Y24758761D01*
X17235020Y24758602D01*
X17230331Y24762575D01*
X17225983Y24766923D01*
X17210672Y24777864D01*
X17205080Y24782062D01*
X17165121Y24813564D01*
X17165120Y24813564D01*
X17166592Y24815431D01*
X17123101Y24857133D01*
X17101580Y24931198D01*
X17119975Y25006100D01*
X17165084Y25056378D01*
X17259358Y25122389D01*
X17269653Y25134658D01*
X17266933Y25142133D01*
X16523870Y25885196D01*
X16509999Y25893204D01*
X16496128Y25885196D01*
X15758443Y25147511D01*
X15750435Y25133640D01*
X15754413Y25126749D01*
X15882399Y25037132D01*
X15893631Y25030648D01*
X15955583Y25001759D01*
X16014667Y24952182D01*
X16041046Y24879705D01*
X16027653Y24803749D01*
X16002027Y24765578D01*
X15981398Y24743262D01*
X15979277Y24740967D01*
X15975223Y24736751D01*
X15696681Y24458208D01*
X15683451Y24447523D01*
X15676524Y24441220D01*
X15666177Y24434539D01*
X15658553Y24424868D01*
X15658552Y24424867D01*
X15646162Y24409150D01*
X15642557Y24405093D01*
X15642716Y24404959D01*
X15638743Y24400270D01*
X15634395Y24395922D01*
X15630821Y24390920D01*
X15630819Y24390918D01*
X15623454Y24380611D01*
X15619256Y24375019D01*
X15587754Y24335060D01*
X15584712Y24326397D01*
X15579375Y24318929D01*
X15575846Y24307129D01*
X15564803Y24270203D01*
X15562633Y24263527D01*
X15552656Y24235115D01*
X15545782Y24215542D01*
X15545299Y24209965D01*
X15545299Y24206738D01*
X15545210Y24204689D01*
X15543080Y24197566D01*
X15545093Y24146337D01*
X15545184Y24144014D01*
X15545299Y24138164D01*
X15545299Y23434304D01*
X15525337Y23359804D01*
X15470799Y23305266D01*
X15435789Y23290632D01*
X15431715Y23289512D01*
X15420613Y23288191D01*
X15318306Y23242748D01*
X15239218Y23163522D01*
X15233656Y23150942D01*
X15233655Y23150940D01*
X15205284Y23086766D01*
X15193953Y23061136D01*
X15192656Y23050009D01*
X15191463Y23039775D01*
X15190959Y23035455D01*
X15190959Y22598183D01*
X15194077Y22571983D01*
X15198616Y22561765D01*
X15203178Y22551493D01*
X15215176Y22475303D01*
X15203283Y22430765D01*
X15198979Y22421029D01*
X15193150Y22399651D01*
X15191961Y22389445D01*
X15191459Y22380815D01*
X15191459Y22336195D01*
X15195604Y22320724D01*
X15211075Y22316579D01*
X15741379Y22316579D01*
X15815879Y22296617D01*
X15870417Y22242079D01*
X15890379Y22167579D01*
X15890379Y22165579D01*
X15870417Y22091079D01*
X15815879Y22036541D01*
X15741379Y22016579D01*
X15211075Y22016579D01*
X15195604Y22012434D01*
X15195583Y22012354D01*
X15157019Y21945560D01*
X15090224Y21906996D01*
X15051660Y21901919D01*
X14169764Y21901919D01*
X14152870Y21903717D01*
X14143504Y21904159D01*
X14131459Y21906752D01*
X14119225Y21905304D01*
X14099353Y21902952D01*
X14093936Y21902632D01*
X14093953Y21902425D01*
X14087833Y21901919D01*
X14081679Y21901919D01*
X14069963Y21899969D01*
X14063123Y21898831D01*
X14056176Y21897842D01*
X14047259Y21896786D01*
X14005663Y21891863D01*
X13997388Y21887889D01*
X13988332Y21886382D01*
X13977492Y21880533D01*
X13943562Y21862225D01*
X13937335Y21859052D01*
X13891472Y21837029D01*
X13891471Y21837028D01*
X13890620Y21838801D01*
X13820398Y21818099D01*
X13231805Y21818099D01*
X13157305Y21838061D01*
X13102767Y21892599D01*
X13082805Y21967099D01*
X13102767Y22041599D01*
X13108863Y22051280D01*
X13130104Y22082302D01*
X13165201Y22161689D01*
X13171028Y22183062D01*
X13172217Y22193268D01*
X13172719Y22201898D01*
X13172719Y22746898D01*
X13168574Y22762369D01*
X13153103Y22766514D01*
X12571999Y22766514D01*
X12497499Y22786476D01*
X12442961Y22841014D01*
X12422999Y22915514D01*
X12422999Y23086130D01*
X12722999Y23086130D01*
X12727144Y23070659D01*
X12742615Y23066514D01*
X13153103Y23066514D01*
X13168574Y23070659D01*
X13172719Y23086130D01*
X13172719Y23631038D01*
X13172196Y23639850D01*
X13170928Y23650507D01*
X13165067Y23671833D01*
X13129824Y23751177D01*
X13114505Y23773467D01*
X13054880Y23832988D01*
X13032564Y23848268D01*
X12953174Y23883366D01*
X12931801Y23889193D01*
X12921595Y23890382D01*
X12912965Y23890884D01*
X12742615Y23890884D01*
X12727144Y23886739D01*
X12722999Y23871268D01*
X12722999Y23086130D01*
X12422999Y23086130D01*
X12422999Y23871268D01*
X12418854Y23886739D01*
X12403383Y23890884D01*
X12233125Y23890884D01*
X12224313Y23890361D01*
X12213656Y23889093D01*
X12192332Y23883233D01*
X12133763Y23857218D01*
X12057574Y23845220D01*
X12013032Y23857114D01*
X11952536Y23883859D01*
X11952533Y23883860D01*
X11942286Y23888390D01*
X11927641Y23890097D01*
X11920889Y23890885D01*
X11920881Y23890885D01*
X11916605Y23891384D01*
X11227873Y23891384D01*
X11201673Y23888266D01*
X11191457Y23883728D01*
X11191456Y23883728D01*
X11190342Y23883233D01*
X11134921Y23858616D01*
X11058734Y23846617D01*
X11014192Y23858510D01*
X10951567Y23886197D01*
X10893120Y23933275D01*
X10892170Y23935253D01*
X10888568Y23939538D01*
X10886295Y23941811D01*
X10884901Y23943331D01*
X10881370Y23949875D01*
X10842009Y23986260D01*
X10837791Y23990315D01*
X10722989Y24105117D01*
X10712304Y24118347D01*
X10706001Y24125274D01*
X10699320Y24135621D01*
X10673930Y24155637D01*
X10669874Y24159241D01*
X10669740Y24159082D01*
X10665051Y24163055D01*
X10660703Y24167403D01*
X10645392Y24178344D01*
X10639800Y24182542D01*
X10599841Y24214044D01*
X10591178Y24217086D01*
X10583710Y24222423D01*
X10534975Y24236998D01*
X10528308Y24239165D01*
X10489168Y24252910D01*
X10489167Y24252910D01*
X10480323Y24256016D01*
X10474746Y24256499D01*
X10471519Y24256499D01*
X10469470Y24256588D01*
X10462347Y24258718D01*
X10409406Y24256638D01*
X10408795Y24256614D01*
X10402945Y24256499D01*
X9058649Y24256499D01*
X9041755Y24258297D01*
X9032389Y24258739D01*
X9020344Y24261332D01*
X9008110Y24259884D01*
X8988238Y24257532D01*
X8982821Y24257212D01*
X8982838Y24257005D01*
X8976718Y24256499D01*
X8970564Y24256499D01*
X8958848Y24254549D01*
X8952008Y24253411D01*
X8945061Y24252422D01*
X8940753Y24251912D01*
X8894548Y24246443D01*
X8886273Y24242469D01*
X8877217Y24240962D01*
X8866382Y24235116D01*
X8866379Y24235115D01*
X8856600Y24229838D01*
X8849316Y24225908D01*
X8843364Y24224429D01*
X8833023Y24217752D01*
X8831185Y24216956D01*
X8819421Y24210368D01*
X8780357Y24191610D01*
X8776072Y24188008D01*
X8773794Y24185729D01*
X8772279Y24184340D01*
X8765736Y24180810D01*
X8757375Y24171765D01*
X8756034Y24170725D01*
X8751487Y24166214D01*
X8747290Y24162395D01*
X8736946Y24155716D01*
X8729322Y24146045D01*
X8716931Y24130327D01*
X8713326Y24126270D01*
X8713485Y24126136D01*
X8709512Y24121447D01*
X8705164Y24117099D01*
X8701589Y24112096D01*
X8697615Y24107406D01*
X8697435Y24107558D01*
X8693086Y24102219D01*
X8688112Y24096838D01*
X8688109Y24096834D01*
X8679750Y24087791D01*
X8675509Y24078198D01*
X8672044Y24073389D01*
X8666150Y24065913D01*
X8666147Y24065908D01*
X8658523Y24056237D01*
X8655481Y24047574D01*
X8650144Y24040106D01*
X8646615Y24028306D01*
X8635572Y23991380D01*
X8634845Y23989143D01*
X8634838Y23988926D01*
X8634569Y23988027D01*
X8630415Y23976199D01*
X8629913Y23976376D01*
X8626886Y23971002D01*
X8628403Y23970469D01*
X8626806Y23965920D01*
X8616551Y23936719D01*
X8616068Y23931142D01*
X8616068Y23927915D01*
X8615979Y23925866D01*
X8613849Y23918743D01*
X8615128Y23886196D01*
X8615953Y23865191D01*
X8616068Y23859341D01*
X8616068Y21985820D01*
X8615512Y21972964D01*
X8611996Y21932367D01*
X8614966Y21920412D01*
X8614966Y21920409D01*
X8622249Y21891090D01*
X8624622Y21879634D01*
X8631605Y21837678D01*
X8637453Y21826839D01*
X8638123Y21824883D01*
X8638369Y21824048D01*
X8638746Y21823271D01*
X8639566Y21821375D01*
X8642534Y21809429D01*
X8649212Y21799087D01*
X8649213Y21799084D01*
X8665605Y21773696D01*
X8671558Y21763630D01*
X8691756Y21726198D01*
X8689954Y21725225D01*
X8713790Y21668525D01*
X8704125Y21592005D01*
X8657495Y21530568D01*
X8586395Y21500678D01*
X8566169Y21499299D01*
X8435525Y21499299D01*
X8361025Y21519261D01*
X8330166Y21542940D01*
X8091140Y21781966D01*
X8052576Y21848761D01*
X8047499Y21887325D01*
X8047499Y22231545D01*
X8044381Y22257745D01*
X7998938Y22360052D01*
X7919712Y22439140D01*
X7907132Y22444702D01*
X7907130Y22444703D01*
X7827573Y22479875D01*
X7827572Y22479875D01*
X7817326Y22484405D01*
X7802681Y22486112D01*
X7795929Y22486900D01*
X7795921Y22486900D01*
X7791645Y22487399D01*
X6692515Y22487399D01*
X6618015Y22507361D01*
X6563477Y22561899D01*
X6553134Y22583732D01*
X6496456Y22733726D01*
X6493280Y22742131D01*
X6397247Y22881859D01*
X6385507Y22892319D01*
X6277363Y22988673D01*
X6277359Y22988676D01*
X6270656Y22994648D01*
X6262718Y22998851D01*
X6262715Y22998853D01*
X6128758Y23069779D01*
X6120816Y23073984D01*
X6112103Y23076173D01*
X6112102Y23076173D01*
X6039626Y23094378D01*
X5956376Y23115289D01*
X5851937Y23115836D01*
X5795808Y23116130D01*
X5786830Y23116177D01*
X5778099Y23114081D01*
X5778100Y23114081D01*
X5630700Y23078693D01*
X5630697Y23078692D01*
X5621967Y23076596D01*
X5613988Y23072478D01*
X5613986Y23072477D01*
X5508662Y23018115D01*
X5471304Y22998833D01*
X5464537Y22992929D01*
X5464533Y22992927D01*
X5394869Y22932155D01*
X5343539Y22887377D01*
X5338375Y22880029D01*
X5323619Y22859033D01*
X5264449Y22809559D01*
X5201714Y22795708D01*
X1917353Y22795708D01*
X1873355Y22802352D01*
X1863218Y22805485D01*
X1852828Y22810564D01*
X1841385Y22812233D01*
X1841383Y22812234D01*
X1790070Y22819720D01*
X1790064Y22819720D01*
X1784727Y22820499D01*
X1466471Y22820499D01*
X1397778Y22810387D01*
X1293334Y22759107D01*
X1284631Y22750389D01*
X1281146Y22746898D01*
X1211131Y22676761D01*
X1205721Y22665694D01*
X1205720Y22665692D01*
X1165113Y22582619D01*
X1160034Y22572228D01*
X1158365Y22560785D01*
X1158364Y22560783D01*
X1151499Y22513722D01*
X1150099Y22504127D01*
X1150099Y22351707D01*
X1130137Y22277207D01*
X1075599Y22222669D01*
X1001099Y22202707D01*
X926599Y22222669D01*
X919795Y22227046D01*
X912361Y22234467D01*
X901297Y22239875D01*
X901296Y22239876D01*
X818219Y22280485D01*
X818218Y22280485D01*
X807828Y22285564D01*
X796385Y22287233D01*
X796383Y22287234D01*
X745070Y22294720D01*
X745064Y22294720D01*
X739727Y22295499D01*
X191471Y22295499D01*
X122778Y22285387D01*
X87290Y22267963D01*
X43869Y22246644D01*
X18334Y22234107D01*
X9631Y22225389D01*
X-13819Y22201898D01*
X-63869Y22151761D01*
X-69279Y22140694D01*
X-69280Y22140692D01*
X-109887Y22057619D01*
X-114966Y22047228D01*
X-116635Y22035785D01*
X-116636Y22035783D01*
X-119437Y22016579D01*
X-124901Y21979127D01*
X-124901Y21660871D01*
X-119560Y21624588D01*
X-114789Y21592178D01*
X-118623Y21591614D01*
X-116874Y21547432D01*
X-114480Y21547083D01*
X-123406Y21485901D01*
X-120256Y21474144D01*
X-85837Y21464922D01*
X-86011Y21464272D01*
X-32884Y21450037D01*
X-2086Y21426417D01*
X-1116Y21425449D01*
X37482Y21358676D01*
X37522Y21281548D01*
X-961Y21214780D01*
X-1997Y21213742D01*
X-68754Y21175113D01*
X-102185Y21170696D01*
X-120256Y21165854D01*
X-123400Y21154119D01*
X-114338Y21092554D01*
X-117796Y21047641D01*
X-114966Y21047228D01*
X-124901Y20979127D01*
X-124901Y20660871D01*
X-118334Y20616261D01*
X-114789Y20592178D01*
X-118623Y20591614D01*
X-116874Y20547432D01*
X-114480Y20547083D01*
X-123406Y20485901D01*
X-119849Y20472627D01*
X-102080Y20454858D01*
X-63516Y20388063D01*
X-63516Y20310935D01*
X-102080Y20244140D01*
X-168875Y20205576D01*
X-207439Y20200499D01*
X-821924Y20200499D01*
X-838818Y20202297D01*
X-848184Y20202739D01*
X-860229Y20205332D01*
X-872463Y20203884D01*
X-892335Y20201532D01*
X-897752Y20201212D01*
X-897735Y20201005D01*
X-903855Y20200499D01*
X-910009Y20200499D01*
X-921725Y20198549D01*
X-928565Y20197411D01*
X-935512Y20196422D01*
X-944429Y20195366D01*
X-986025Y20190443D01*
X-994300Y20186469D01*
X-1003356Y20184962D01*
X-1014196Y20179113D01*
X-1048106Y20160816D01*
X-1054363Y20157628D01*
X-1091762Y20139670D01*
X-1091768Y20139666D01*
X-1100215Y20135610D01*
X-1102664Y20133551D01*
X-1180863Y20110499D01*
X-1391039Y20110499D01*
X-1421875Y20107584D01*
X-1546853Y20063695D01*
X-1653400Y19984998D01*
X-1660018Y19976038D01*
X-1683995Y19943576D01*
X-1732097Y19878451D01*
X-1775986Y19753473D01*
X-1778901Y19722637D01*
X-1778901Y19337361D01*
X-1775986Y19306525D01*
X-1732097Y19181547D01*
X-1725479Y19172587D01*
X-1700008Y19138102D01*
X-1671803Y19066316D01*
X-1683270Y18990045D01*
X-1700008Y18961054D01*
X-1725032Y18927174D01*
X-1735341Y18907703D01*
X-1772481Y18801944D01*
X-1776343Y18784343D01*
X-1778070Y18766070D01*
X-1778401Y18759058D01*
X-1778401Y18739615D01*
X-1774256Y18724144D01*
X-1758785Y18719999D01*
X-578018Y18719999D01*
X-562547Y18724144D01*
X-558402Y18739615D01*
X-558402Y18759054D01*
X-558733Y18766078D01*
X-560459Y18784338D01*
X-564322Y18801947D01*
X-601461Y18907703D01*
X-611770Y18927174D01*
X-636794Y18961054D01*
X-664999Y19032840D01*
X-653532Y19109111D01*
X-636794Y19138102D01*
X-611323Y19172587D01*
X-604705Y19181547D01*
X-560816Y19306525D01*
X-559961Y19315568D01*
X-558455Y19322432D01*
X-522990Y19390923D01*
X-458031Y19432505D01*
X-412917Y19439499D01*
X-273901Y19439499D01*
X-199401Y19419537D01*
X-144863Y19364999D01*
X-124901Y19290499D01*
X-124901Y19160871D01*
X-117282Y19109111D01*
X-114789Y19092178D01*
X-118856Y19091579D01*
X-117107Y19047540D01*
X-114966Y19047228D01*
X-123973Y18985485D01*
X-124901Y18979127D01*
X-124901Y18660871D01*
X-114789Y18592178D01*
X-105912Y18574098D01*
X-75459Y18512074D01*
X-63509Y18487734D01*
X-54791Y18479031D01*
X-24502Y18448795D01*
X18837Y18405531D01*
X29904Y18400121D01*
X29906Y18400120D01*
X112979Y18359513D01*
X112980Y18359513D01*
X123370Y18354434D01*
X134813Y18352765D01*
X134815Y18352764D01*
X186128Y18345278D01*
X186134Y18345278D01*
X191471Y18344499D01*
X739727Y18344499D01*
X808420Y18354611D01*
X912864Y18405891D01*
X917651Y18410686D01*
X986556Y18436588D01*
X1062649Y18423992D01*
X1122249Y18375038D01*
X1149388Y18302842D01*
X1150099Y18288299D01*
X1150099Y18135871D01*
X1160211Y18067178D01*
X1211491Y17962734D01*
X1293837Y17880531D01*
X1304904Y17875121D01*
X1304906Y17875120D01*
X1387979Y17834513D01*
X1387980Y17834513D01*
X1398370Y17829434D01*
X1409813Y17827765D01*
X1409815Y17827764D01*
X1461128Y17820278D01*
X1461134Y17820278D01*
X1466471Y17819499D01*
X1784727Y17819499D01*
X1853420Y17829611D01*
X1957864Y17880891D01*
X2040067Y17963237D01*
X2048750Y17980999D01*
X2086085Y18057379D01*
X2086085Y18057380D01*
X2091164Y18067770D01*
X2092834Y18079215D01*
X2100320Y18130528D01*
X2100320Y18130534D01*
X2101099Y18135871D01*
X2101099Y18288913D01*
X2121061Y18363413D01*
X2175599Y18417951D01*
X2250099Y18437913D01*
X2324599Y18417951D01*
X2336623Y18410217D01*
X2350197Y18400535D01*
X2433128Y18359997D01*
X2454955Y18353251D01*
X2506177Y18345778D01*
X2516916Y18344999D01*
X2615983Y18344999D01*
X2631454Y18349144D01*
X2635599Y18364615D01*
X2635599Y18695499D01*
X2655561Y18769999D01*
X2710099Y18824537D01*
X2784599Y18844499D01*
X2793432Y18844499D01*
X2867932Y18824537D01*
X2922470Y18769999D01*
X2942432Y18695499D01*
X2937355Y18656933D01*
X2935599Y18650380D01*
X2935599Y18364615D01*
X2939744Y18349144D01*
X2955215Y18344999D01*
X3054228Y18344999D01*
X3065070Y18345793D01*
X3116820Y18353410D01*
X3138670Y18360200D01*
X3221515Y18400876D01*
X3241268Y18415018D01*
X3305953Y18479815D01*
X3320063Y18499597D01*
X3360601Y18582528D01*
X3367347Y18604355D01*
X3374604Y18654097D01*
X3371454Y18665854D01*
X3337035Y18675076D01*
X3337080Y18675245D01*
X3282158Y18689961D01*
X3227620Y18744499D01*
X3207658Y18818999D01*
X3227620Y18893499D01*
X3251220Y18924279D01*
X3253217Y18926279D01*
X3319983Y18964893D01*
X3353387Y18969303D01*
X3371454Y18974144D01*
X3374598Y18985879D01*
X3365536Y19047444D01*
X3368994Y19092357D01*
X3366164Y19092770D01*
X3375320Y19155528D01*
X3375320Y19155534D01*
X3376099Y19160871D01*
X3376099Y19479127D01*
X3365987Y19547820D01*
X3370054Y19548419D01*
X3368305Y19592458D01*
X3366164Y19592770D01*
X3375320Y19655528D01*
X3375320Y19655534D01*
X3376099Y19660871D01*
X3376099Y19979127D01*
X3365987Y20047820D01*
X3370054Y20048419D01*
X3368305Y20092459D01*
X3366164Y20092771D01*
X3367292Y20100499D01*
X3372569Y20136674D01*
X3403077Y20207512D01*
X3464916Y20253605D01*
X3541518Y20262603D01*
X3612356Y20232095D01*
X3625362Y20220527D01*
X3640314Y20205576D01*
X3859209Y19986681D01*
X3869894Y19973451D01*
X3876197Y19966524D01*
X3882878Y19956177D01*
X3892549Y19948553D01*
X3892550Y19948552D01*
X3908267Y19936162D01*
X3912324Y19932557D01*
X3912458Y19932716D01*
X3917147Y19928743D01*
X3921495Y19924395D01*
X3926497Y19920821D01*
X3926499Y19920819D01*
X3936806Y19913454D01*
X3942398Y19909256D01*
X3982357Y19877754D01*
X3991020Y19874712D01*
X3998488Y19869375D01*
X4010288Y19865846D01*
X4010292Y19865844D01*
X4047222Y19854799D01*
X4053887Y19852634D01*
X4101875Y19835782D01*
X4107452Y19835299D01*
X4110683Y19835299D01*
X4112724Y19835211D01*
X4119851Y19833079D01*
X4173417Y19835184D01*
X4179269Y19835299D01*
X4342795Y19835299D01*
X4417295Y19815337D01*
X4471833Y19760799D01*
X4491795Y19686299D01*
X4474476Y19616578D01*
X4462259Y19593505D01*
X4425119Y19487744D01*
X4421257Y19470143D01*
X4419530Y19451870D01*
X4419199Y19444858D01*
X4419199Y19425415D01*
X4423344Y19409944D01*
X4438815Y19405799D01*
X5030199Y19405799D01*
X5104699Y19385837D01*
X5159237Y19331299D01*
X5179199Y19256799D01*
X5179199Y19254799D01*
X5159237Y19180299D01*
X5104699Y19125761D01*
X5030199Y19105799D01*
X4438816Y19105799D01*
X4423345Y19101654D01*
X4419200Y19086183D01*
X4419200Y19066744D01*
X4419531Y19059720D01*
X4421257Y19041460D01*
X4425120Y19023851D01*
X4462259Y18918095D01*
X4472568Y18898624D01*
X4537940Y18810118D01*
X4553518Y18794540D01*
X4584453Y18771691D01*
X4632519Y18711372D01*
X4643986Y18635101D01*
X4615781Y18563315D01*
X4593879Y18539559D01*
X4567134Y18516227D01*
X4555603Y18506168D01*
X4458112Y18367452D01*
X4396523Y18209486D01*
X4392036Y18175405D01*
X4388744Y18150398D01*
X4359229Y18079141D01*
X4346378Y18064487D01*
X3693812Y17411920D01*
X3621263Y17372221D01*
X3614525Y17371584D01*
X3489547Y17327695D01*
X3383000Y17248998D01*
X3376382Y17240038D01*
X3356773Y17213489D01*
X3304303Y17142451D01*
X3260414Y17017473D01*
X3257499Y16986637D01*
X3257499Y16656417D01*
X3237537Y16581917D01*
X3182999Y16527379D01*
X3108499Y16507417D01*
X3033999Y16527379D01*
X2979461Y16581917D01*
X2964576Y16617852D01*
X2949162Y16675376D01*
X2944732Y16687548D01*
X2858550Y16872367D01*
X2852066Y16883599D01*
X2766809Y17005358D01*
X2754540Y17015653D01*
X2747065Y17012933D01*
X1026443Y15292311D01*
X1018435Y15278440D01*
X1022413Y15271549D01*
X1150399Y15181932D01*
X1161631Y15175448D01*
X1346450Y15089266D01*
X1358624Y15084835D01*
X1555610Y15032052D01*
X1568364Y15029803D01*
X1771518Y15012030D01*
X1784480Y15012030D01*
X1921798Y15024044D01*
X1997754Y15010651D01*
X2056838Y14961074D01*
X2083217Y14888597D01*
X2069824Y14812641D01*
X2040143Y14770253D01*
X1938463Y14668572D01*
X1871669Y14630007D01*
X1833104Y14624930D01*
X1077667Y14624930D01*
X1060773Y14626728D01*
X1051407Y14627170D01*
X1039362Y14629763D01*
X1027128Y14628315D01*
X1007256Y14625963D01*
X1001839Y14625643D01*
X1001856Y14625436D01*
X995736Y14624930D01*
X989582Y14624930D01*
X977866Y14622980D01*
X971026Y14621842D01*
X964079Y14620853D01*
X955162Y14619797D01*
X913566Y14614874D01*
X905291Y14610900D01*
X896235Y14609393D01*
X885395Y14603544D01*
X851465Y14585236D01*
X845238Y14582063D01*
X799375Y14560040D01*
X795090Y14556438D01*
X792817Y14554165D01*
X791299Y14552772D01*
X784754Y14549241D01*
X776394Y14540197D01*
X748369Y14509880D01*
X744314Y14505662D01*
X547712Y14309060D01*
X480917Y14270496D01*
X442353Y14265419D01*
X-452317Y14265419D01*
X-478517Y14262301D01*
X-580824Y14216858D01*
X-659912Y14137632D01*
X-665474Y14125052D01*
X-665475Y14125050D01*
X-699286Y14048572D01*
X-705177Y14035246D01*
X-708171Y14009565D01*
X-708171Y12721393D01*
X-705053Y12695193D01*
X-659610Y12592886D01*
X-580384Y12513798D01*
X-567804Y12508236D01*
X-567802Y12508235D01*
X-488245Y12473063D01*
X-477998Y12468533D01*
X-463353Y12466826D01*
X-456601Y12466038D01*
X-456593Y12466038D01*
X-452317Y12465539D01*
X736795Y12465539D01*
X762995Y12468657D01*
X865302Y12514100D01*
X910538Y12559415D01*
X977299Y12598037D01*
X1054427Y12598105D01*
X1121255Y12559599D01*
X1167136Y12513798D01*
X1179716Y12508236D01*
X1179718Y12508235D01*
X1259275Y12473063D01*
X1269522Y12468533D01*
X1284167Y12466826D01*
X1290919Y12466038D01*
X1290927Y12466038D01*
X1295203Y12465539D01*
X2484315Y12465539D01*
X2510515Y12468657D01*
X2612822Y12514100D01*
X2614333Y12515614D01*
X2679286Y12538616D01*
X2755123Y12524561D01*
X2813773Y12474471D01*
X2839520Y12401768D01*
X2839979Y12390075D01*
X2839979Y12075805D01*
X2820017Y12001305D01*
X2796338Y11970446D01*
X2742638Y11916746D01*
X2675843Y11878182D01*
X2598715Y11878182D01*
X2577032Y11885829D01*
X2520246Y11910934D01*
X2520243Y11910935D01*
X2509996Y11915465D01*
X2495351Y11917172D01*
X2488599Y11917960D01*
X2488591Y11917960D01*
X2484315Y11918459D01*
X1295203Y11918459D01*
X1269003Y11915341D01*
X1166696Y11869898D01*
X1156978Y11860163D01*
X1121460Y11824583D01*
X1054699Y11785961D01*
X977571Y11785893D01*
X910743Y11824399D01*
X864862Y11870200D01*
X852282Y11875762D01*
X852280Y11875763D01*
X772723Y11910935D01*
X772722Y11910935D01*
X762476Y11915465D01*
X747831Y11917172D01*
X741079Y11917960D01*
X741071Y11917960D01*
X736795Y11918459D01*
X-452317Y11918459D01*
X-478517Y11915341D01*
X-580824Y11869898D01*
X-590542Y11860163D01*
X-649891Y11800710D01*
X-659912Y11790672D01*
X-665474Y11778092D01*
X-665475Y11778090D01*
X-696150Y11708704D01*
X-705177Y11688286D01*
X-706474Y11677159D01*
X-707537Y11668039D01*
X-708171Y11662605D01*
X-708171Y11003996D01*
X-728133Y10929496D01*
X-782671Y10874958D01*
X-857171Y10854996D01*
X-931671Y10874958D01*
X-962530Y10898637D01*
X-1252260Y11188366D01*
X-1290824Y11255161D01*
X-1295901Y11293725D01*
X-1295901Y14920823D01*
X-1275939Y14995323D01*
X-1221401Y15049861D01*
X-1146901Y15069823D01*
X-1108337Y15064746D01*
X-984479Y15031558D01*
X-984474Y15031557D01*
X-978200Y15029876D01*
X-971729Y15029310D01*
X-971724Y15029309D01*
X-768482Y15011528D01*
X-762001Y15010961D01*
X-755520Y15011528D01*
X-552278Y15029309D01*
X-552273Y15029310D01*
X-545802Y15029876D01*
X-539528Y15031557D01*
X-539523Y15031558D01*
X-342454Y15084363D01*
X-336173Y15086046D01*
X-139482Y15177764D01*
X-134154Y15181494D01*
X-134150Y15181497D01*
X32959Y15298509D01*
X32962Y15298511D01*
X38294Y15302245D01*
X191753Y15455704D01*
X205681Y15475595D01*
X312501Y15628148D01*
X312504Y15628152D01*
X316234Y15633480D01*
X373235Y15755720D01*
X422812Y15814803D01*
X495288Y15841183D01*
X571245Y15827790D01*
X630328Y15778213D01*
X643315Y15755720D01*
X697448Y15639631D01*
X703932Y15628399D01*
X789189Y15506640D01*
X801458Y15496345D01*
X808933Y15499065D01*
X1551996Y16242128D01*
X1560004Y16255999D01*
X1551996Y16269870D01*
X814311Y17007555D01*
X800440Y17015563D01*
X793549Y17011585D01*
X703932Y16883599D01*
X697448Y16872367D01*
X643315Y16756278D01*
X593738Y16697195D01*
X521262Y16670815D01*
X445305Y16684208D01*
X386222Y16733785D01*
X373235Y16756278D01*
X345721Y16815283D01*
X316234Y16878518D01*
X312504Y16883846D01*
X312501Y16883850D01*
X195489Y17050959D01*
X195487Y17050962D01*
X191753Y17056294D01*
X38294Y17209753D01*
X32962Y17213487D01*
X32959Y17213489D01*
X5752Y17232540D01*
X1018345Y17232540D01*
X1021065Y17225065D01*
X1764128Y16482002D01*
X1777999Y16473994D01*
X1791870Y16482002D01*
X2529555Y17219687D01*
X2537563Y17233558D01*
X2533585Y17240449D01*
X2405599Y17330066D01*
X2394367Y17336550D01*
X2209548Y17422732D01*
X2197374Y17427163D01*
X2000388Y17479946D01*
X1987634Y17482195D01*
X1784480Y17499968D01*
X1771518Y17499968D01*
X1568364Y17482195D01*
X1555610Y17479946D01*
X1358624Y17427163D01*
X1346450Y17422732D01*
X1161631Y17336550D01*
X1150399Y17330066D01*
X1028640Y17244809D01*
X1018345Y17232540D01*
X5752Y17232540D01*
X-134150Y17330501D01*
X-134154Y17330504D01*
X-139482Y17334234D01*
X-336173Y17425952D01*
X-342454Y17427635D01*
X-539523Y17480440D01*
X-539528Y17480441D01*
X-545802Y17482122D01*
X-552273Y17482688D01*
X-552278Y17482689D01*
X-755520Y17500470D01*
X-762001Y17501037D01*
X-768482Y17500470D01*
X-971724Y17482689D01*
X-971729Y17482688D01*
X-978200Y17482122D01*
X-984474Y17480441D01*
X-984479Y17480440D01*
X-1181548Y17427635D01*
X-1187829Y17425952D01*
X-1384520Y17334234D01*
X-1389848Y17330504D01*
X-1389852Y17330501D01*
X-1556961Y17213489D01*
X-1556964Y17213487D01*
X-1562296Y17209753D01*
X-1715755Y17056294D01*
X-1719489Y17050962D01*
X-1719491Y17050959D01*
X-1836503Y16883850D01*
X-1836506Y16883846D01*
X-1840236Y16878518D01*
X-1842983Y16872628D01*
X-1842986Y16872622D01*
X-1874961Y16804050D01*
X-1924538Y16744966D01*
X-1997015Y16718587D01*
X-2072971Y16731980D01*
X-2132055Y16781557D01*
X-2158434Y16854034D01*
X-2159001Y16867020D01*
X-2159001Y18380944D01*
X-1778400Y18380944D01*
X-1778069Y18373920D01*
X-1776343Y18355660D01*
X-1772480Y18338051D01*
X-1735341Y18232295D01*
X-1725032Y18212824D01*
X-1659660Y18124318D01*
X-1644082Y18108740D01*
X-1555576Y18043368D01*
X-1536105Y18033059D01*
X-1430346Y17995919D01*
X-1412745Y17992057D01*
X-1394472Y17990330D01*
X-1387460Y17989999D01*
X-1338017Y17989999D01*
X-1322546Y17994144D01*
X-1318401Y18009615D01*
X-1318401Y18009616D01*
X-1018401Y18009616D01*
X-1014256Y17994145D01*
X-998785Y17990000D01*
X-949346Y17990000D01*
X-942322Y17990331D01*
X-924062Y17992057D01*
X-906453Y17995920D01*
X-800697Y18033059D01*
X-781226Y18043368D01*
X-692720Y18108740D01*
X-677142Y18124318D01*
X-611770Y18212824D01*
X-601461Y18232295D01*
X-564321Y18338054D01*
X-560459Y18355655D01*
X-558732Y18373928D01*
X-558401Y18380940D01*
X-558401Y18400383D01*
X-562546Y18415854D01*
X-578017Y18419999D01*
X-998785Y18419999D01*
X-1014256Y18415854D01*
X-1018401Y18400383D01*
X-1018401Y18009616D01*
X-1318401Y18009616D01*
X-1318401Y18400383D01*
X-1322546Y18415854D01*
X-1338017Y18419999D01*
X-1758784Y18419999D01*
X-1774255Y18415854D01*
X-1778400Y18400383D01*
X-1778400Y18380944D01*
X-2159001Y18380944D01*
X-2159001Y24371845D01*
X-702001Y24371845D01*
X-701478Y24363033D01*
X-700210Y24352376D01*
X-694349Y24331050D01*
X-659106Y24251706D01*
X-643787Y24229416D01*
X-584162Y24169895D01*
X-561846Y24154615D01*
X-482456Y24119517D01*
X-461083Y24113690D01*
X-450877Y24112501D01*
X-442247Y24111999D01*
X178383Y24111999D01*
X193854Y24116144D01*
X197999Y24131615D01*
X497999Y24131615D01*
X502144Y24116144D01*
X517615Y24111999D01*
X1138153Y24111999D01*
X1146965Y24112522D01*
X1157622Y24113790D01*
X1178948Y24119651D01*
X1258292Y24154894D01*
X1280582Y24170213D01*
X1340103Y24229838D01*
X1355383Y24252154D01*
X1390481Y24331544D01*
X1396308Y24352917D01*
X1397497Y24363123D01*
X1397999Y24371753D01*
X1397999Y24371845D01*
X4697999Y24371845D01*
X4698522Y24363033D01*
X4699790Y24352376D01*
X4705651Y24331050D01*
X4740894Y24251706D01*
X4756213Y24229416D01*
X4815838Y24169895D01*
X4838154Y24154615D01*
X4917544Y24119517D01*
X4938917Y24113690D01*
X4949123Y24112501D01*
X4957753Y24111999D01*
X5578383Y24111999D01*
X5593854Y24116144D01*
X5597999Y24131615D01*
X5897999Y24131615D01*
X5902144Y24116144D01*
X5917615Y24111999D01*
X6538153Y24111999D01*
X6546965Y24112522D01*
X6557622Y24113790D01*
X6578948Y24119651D01*
X6658292Y24154894D01*
X6680582Y24170213D01*
X6740103Y24229838D01*
X6755383Y24252154D01*
X6790481Y24331544D01*
X6796308Y24352917D01*
X6797497Y24363123D01*
X6797999Y24371753D01*
X6797999Y25992383D01*
X6793854Y26007854D01*
X6778383Y26011999D01*
X5917615Y26011999D01*
X5902144Y26007854D01*
X5897999Y25992383D01*
X5897999Y24131615D01*
X5597999Y24131615D01*
X5597999Y25992383D01*
X5593854Y26007854D01*
X5578383Y26011999D01*
X4717615Y26011999D01*
X4702144Y26007854D01*
X4697999Y25992383D01*
X4697999Y24371845D01*
X1397999Y24371845D01*
X1397999Y25992383D01*
X1393854Y26007854D01*
X1378383Y26011999D01*
X517615Y26011999D01*
X502144Y26007854D01*
X497999Y25992383D01*
X497999Y24131615D01*
X197999Y24131615D01*
X197999Y25992383D01*
X193854Y26007854D01*
X178383Y26011999D01*
X-682385Y26011999D01*
X-697856Y26007854D01*
X-702001Y25992383D01*
X-702001Y24371845D01*
X-2159001Y24371845D01*
X-2159001Y25358285D01*
X-2157167Y25381593D01*
X-2156086Y25388417D01*
X-2156086Y25388420D01*
X-2154252Y25399999D01*
X-2156087Y25411581D01*
X-2156087Y25423308D01*
X-2155999Y25423308D01*
X-2156707Y25437936D01*
X-2153944Y25483599D01*
X-2145330Y25626002D01*
X-2143803Y25651244D01*
X-2141634Y25669105D01*
X-2101372Y25888810D01*
X-2097887Y25907823D01*
X-2093583Y25925286D01*
X-2078015Y25975243D01*
X-2021382Y26156987D01*
X-2015004Y26173806D01*
X-1915399Y26395116D01*
X-1907038Y26411047D01*
X-1781483Y26618742D01*
X-1771261Y26633550D01*
X-1621596Y26824583D01*
X-1609665Y26838051D01*
X-1438053Y27009663D01*
X-1424585Y27021594D01*
X-1233552Y27171259D01*
X-1218744Y27181481D01*
X-1011049Y27307036D01*
X-995118Y27315397D01*
X-912153Y27352737D01*
X-836024Y27365109D01*
X-763908Y27337760D01*
X-715128Y27278016D01*
X-702001Y27216864D01*
X-702001Y26331615D01*
X-697856Y26316144D01*
X-682385Y26311999D01*
X1378383Y26311999D01*
X1393854Y26316144D01*
X1397999Y26331615D01*
X1397999Y27409999D01*
X1417961Y27484499D01*
X1472499Y27539037D01*
X1546999Y27558999D01*
X4548999Y27558999D01*
X4623499Y27539037D01*
G37*
%TD.AperFunction*%
%TA.AperFunction,Conductor*%
G36*
X12707208Y16683996D02*
G01*
X12716481Y16679463D01*
X12757692Y16673451D01*
X12760008Y16673113D01*
X12830846Y16642605D01*
X12876940Y16580766D01*
X12887499Y16525674D01*
X12887499Y13760465D01*
X12885701Y13743571D01*
X12885259Y13734205D01*
X12882666Y13722160D01*
X12884114Y13709926D01*
X12886466Y13690054D01*
X12886786Y13684637D01*
X12886993Y13684654D01*
X12887499Y13678534D01*
X12887499Y13672380D01*
X12888510Y13666307D01*
X12890587Y13653824D01*
X12891576Y13646877D01*
X12897555Y13596364D01*
X12901529Y13588089D01*
X12903036Y13579033D01*
X12920659Y13546373D01*
X12927182Y13534283D01*
X12930370Y13528026D01*
X12938713Y13510653D01*
X12952388Y13482174D01*
X12955990Y13477888D01*
X12958270Y13475608D01*
X12959658Y13474094D01*
X12963188Y13467552D01*
X12989857Y13442900D01*
X13031011Y13377675D01*
X13034040Y13300606D01*
X13031465Y13290791D01*
X13027481Y13277471D01*
X13025313Y13270799D01*
X13008462Y13222814D01*
X13007979Y13217237D01*
X13007979Y13214010D01*
X13007890Y13211961D01*
X13005760Y13204838D01*
X13007129Y13169990D01*
X13007864Y13151286D01*
X13007979Y13145436D01*
X13007979Y12039985D01*
X13006181Y12023091D01*
X13005739Y12013725D01*
X13003146Y12001680D01*
X13004594Y11989446D01*
X13006946Y11969574D01*
X13007266Y11964157D01*
X13007473Y11964174D01*
X13007979Y11958054D01*
X13007979Y11951900D01*
X13008990Y11945827D01*
X13011067Y11933344D01*
X13012056Y11926397D01*
X13018035Y11875884D01*
X13022009Y11867609D01*
X13023516Y11858553D01*
X13029365Y11847713D01*
X13047662Y11813803D01*
X13050850Y11807546D01*
X13058742Y11791112D01*
X13072868Y11761694D01*
X13076470Y11757408D01*
X13078750Y11755128D01*
X13080138Y11753614D01*
X13083668Y11747072D01*
X13092709Y11738714D01*
X13092711Y11738712D01*
X13123031Y11710685D01*
X13127248Y11706630D01*
X13292999Y11540879D01*
X13303688Y11527644D01*
X13309987Y11520721D01*
X13311836Y11517858D01*
X13312269Y11517020D01*
X13312812Y11516347D01*
X13316667Y11510377D01*
X13315940Y11509907D01*
X13346220Y11451243D01*
X13342588Y11374200D01*
X13300922Y11309296D01*
X13232385Y11273920D01*
X13200641Y11270499D01*
X13184781Y11270499D01*
X13179396Y11269706D01*
X13179392Y11269706D01*
X13127345Y11262044D01*
X13127343Y11262044D01*
X13115887Y11260357D01*
X13109538Y11257240D01*
X13035160Y11254301D01*
X13028790Y11256002D01*
X13019517Y11260535D01*
X12985284Y11265529D01*
X12956560Y11269720D01*
X12956554Y11269720D01*
X12951217Y11270499D01*
X12784781Y11270499D01*
X12779396Y11269706D01*
X12779392Y11269706D01*
X12727345Y11262044D01*
X12727343Y11262044D01*
X12715887Y11260357D01*
X12709538Y11257240D01*
X12635160Y11254301D01*
X12628790Y11256002D01*
X12619517Y11260535D01*
X12585284Y11265529D01*
X12556560Y11269720D01*
X12556554Y11269720D01*
X12551217Y11270499D01*
X12384781Y11270499D01*
X12379396Y11269706D01*
X12379392Y11269706D01*
X12327345Y11262044D01*
X12327343Y11262044D01*
X12315887Y11260357D01*
X12309538Y11257240D01*
X12235160Y11254301D01*
X12228790Y11256002D01*
X12219517Y11260535D01*
X12185284Y11265529D01*
X12156560Y11269720D01*
X12156554Y11269720D01*
X12151217Y11270499D01*
X11984781Y11270499D01*
X11979396Y11269706D01*
X11979392Y11269706D01*
X11927345Y11262044D01*
X11927343Y11262044D01*
X11915887Y11260357D01*
X11909538Y11257240D01*
X11835160Y11254301D01*
X11828790Y11256002D01*
X11819517Y11260535D01*
X11785284Y11265529D01*
X11756560Y11269720D01*
X11756554Y11269720D01*
X11751217Y11270499D01*
X11584781Y11270499D01*
X11579396Y11269706D01*
X11579392Y11269706D01*
X11527345Y11262044D01*
X11527343Y11262044D01*
X11515887Y11260357D01*
X11509538Y11257240D01*
X11435160Y11254301D01*
X11428790Y11256002D01*
X11419517Y11260535D01*
X11385284Y11265529D01*
X11356560Y11269720D01*
X11356554Y11269720D01*
X11351217Y11270499D01*
X11184781Y11270499D01*
X11179396Y11269706D01*
X11179392Y11269706D01*
X11127345Y11262044D01*
X11127343Y11262044D01*
X11115887Y11260357D01*
X11109538Y11257240D01*
X11035160Y11254301D01*
X11028790Y11256002D01*
X11019517Y11260535D01*
X10985284Y11265529D01*
X10956560Y11269720D01*
X10956554Y11269720D01*
X10951217Y11270499D01*
X10784781Y11270499D01*
X10779396Y11269706D01*
X10779392Y11269706D01*
X10727345Y11262044D01*
X10727343Y11262044D01*
X10715887Y11260357D01*
X10709538Y11257240D01*
X10635160Y11254301D01*
X10628790Y11256002D01*
X10619517Y11260535D01*
X10585284Y11265529D01*
X10556560Y11269720D01*
X10556554Y11269720D01*
X10551217Y11270499D01*
X10384781Y11270499D01*
X10379396Y11269706D01*
X10379392Y11269706D01*
X10327345Y11262044D01*
X10327343Y11262044D01*
X10315887Y11260357D01*
X10309538Y11257240D01*
X10235160Y11254301D01*
X10228790Y11256002D01*
X10219517Y11260535D01*
X10185284Y11265529D01*
X10156560Y11269720D01*
X10156554Y11269720D01*
X10151217Y11270499D01*
X9984781Y11270499D01*
X9979396Y11269706D01*
X9979392Y11269706D01*
X9927345Y11262044D01*
X9927343Y11262044D01*
X9915887Y11260357D01*
X9909538Y11257240D01*
X9835160Y11254301D01*
X9828790Y11256002D01*
X9819517Y11260535D01*
X9785284Y11265529D01*
X9756560Y11269720D01*
X9756554Y11269720D01*
X9751217Y11270499D01*
X9584781Y11270499D01*
X9579396Y11269706D01*
X9579392Y11269706D01*
X9527345Y11262044D01*
X9527343Y11262044D01*
X9515887Y11260357D01*
X9509538Y11257240D01*
X9435160Y11254301D01*
X9428790Y11256002D01*
X9419517Y11260535D01*
X9385284Y11265529D01*
X9356560Y11269720D01*
X9356554Y11269720D01*
X9351217Y11270499D01*
X9184781Y11270499D01*
X9179396Y11269706D01*
X9179392Y11269706D01*
X9127345Y11262044D01*
X9127343Y11262044D01*
X9115887Y11260357D01*
X9109538Y11257240D01*
X9035160Y11254301D01*
X9028790Y11256002D01*
X9019517Y11260535D01*
X8985284Y11265529D01*
X8956560Y11269720D01*
X8956554Y11269720D01*
X8951217Y11270499D01*
X8784781Y11270499D01*
X8779396Y11269706D01*
X8779392Y11269706D01*
X8727345Y11262044D01*
X8727343Y11262044D01*
X8715887Y11260357D01*
X8709538Y11257240D01*
X8635160Y11254301D01*
X8628790Y11256002D01*
X8619517Y11260535D01*
X8585284Y11265529D01*
X8556560Y11269720D01*
X8556554Y11269720D01*
X8551217Y11270499D01*
X8384781Y11270499D01*
X8379396Y11269706D01*
X8379392Y11269706D01*
X8327345Y11262044D01*
X8327343Y11262044D01*
X8315887Y11260357D01*
X8309538Y11257240D01*
X8235160Y11254301D01*
X8228790Y11256002D01*
X8219517Y11260535D01*
X8185284Y11265529D01*
X8156560Y11269720D01*
X8156554Y11269720D01*
X8151217Y11270499D01*
X8117499Y11270499D01*
X8042999Y11290461D01*
X7988461Y11344999D01*
X7968499Y11419499D01*
X7968499Y11453217D01*
X7966904Y11464056D01*
X7960044Y11510653D01*
X7960044Y11510655D01*
X7958357Y11522111D01*
X7955240Y11528460D01*
X7952301Y11602838D01*
X7954002Y11609208D01*
X7958535Y11618481D01*
X7963529Y11652714D01*
X7967720Y11681438D01*
X7967720Y11681444D01*
X7968499Y11686781D01*
X7968499Y11853217D01*
X7967477Y11860163D01*
X7960044Y11910653D01*
X7960044Y11910655D01*
X7958357Y11922111D01*
X7955240Y11928460D01*
X7952301Y12002838D01*
X7954002Y12009208D01*
X7958535Y12018481D01*
X7963866Y12055023D01*
X7967720Y12081438D01*
X7967720Y12081444D01*
X7968499Y12086781D01*
X7968499Y12253217D01*
X7966076Y12269681D01*
X7960044Y12310653D01*
X7960044Y12310655D01*
X7958357Y12322111D01*
X7955240Y12328460D01*
X7952301Y12402838D01*
X7954002Y12409208D01*
X7958535Y12418481D01*
X7964218Y12457437D01*
X7965243Y12464465D01*
X8768000Y12464465D01*
X8768331Y12457437D01*
X8770082Y12438908D01*
X8773948Y12421289D01*
X8811484Y12314403D01*
X8821793Y12294931D01*
X8887879Y12205457D01*
X8903457Y12189879D01*
X8992931Y12123793D01*
X9012403Y12113484D01*
X9119289Y12075948D01*
X9136906Y12072082D01*
X9155446Y12070330D01*
X9162460Y12069999D01*
X10498383Y12069999D01*
X10513854Y12074144D01*
X10517999Y12089615D01*
X10517999Y12089616D01*
X10817999Y12089616D01*
X10822144Y12074145D01*
X10837615Y12070000D01*
X12173533Y12070000D01*
X12180561Y12070331D01*
X12199090Y12072082D01*
X12216709Y12075948D01*
X12323595Y12113484D01*
X12343067Y12123793D01*
X12432541Y12189879D01*
X12448119Y12205457D01*
X12514205Y12294931D01*
X12524514Y12314403D01*
X12562050Y12421289D01*
X12565916Y12438906D01*
X12567668Y12457446D01*
X12567999Y12464460D01*
X12567999Y13800383D01*
X12563854Y13815854D01*
X12548383Y13819999D01*
X10837615Y13819999D01*
X10822144Y13815854D01*
X10817999Y13800383D01*
X10817999Y12089616D01*
X10517999Y12089616D01*
X10517999Y13800383D01*
X10513854Y13815854D01*
X10498383Y13819999D01*
X8787616Y13819999D01*
X8772145Y13815854D01*
X8768000Y13800383D01*
X8768000Y12464465D01*
X7965243Y12464465D01*
X7967720Y12481438D01*
X7967720Y12481444D01*
X7968499Y12486781D01*
X7968499Y12653217D01*
X7963256Y12688837D01*
X7960044Y12710653D01*
X7960044Y12710655D01*
X7958357Y12722111D01*
X7955240Y12728460D01*
X7952301Y12802838D01*
X7954002Y12809208D01*
X7958535Y12818481D01*
X7965864Y12868720D01*
X7967720Y12881438D01*
X7967720Y12881444D01*
X7968499Y12886781D01*
X7968499Y13053217D01*
X7965406Y13074232D01*
X7960044Y13110653D01*
X7960044Y13110655D01*
X7958357Y13122111D01*
X7955240Y13128460D01*
X7952301Y13202838D01*
X7954002Y13209208D01*
X7958535Y13218481D01*
X7965812Y13268361D01*
X7967720Y13281438D01*
X7967720Y13281444D01*
X7968499Y13286781D01*
X7968499Y13453217D01*
X7965553Y13473233D01*
X7960044Y13510653D01*
X7960044Y13510655D01*
X7958357Y13522111D01*
X7955240Y13528460D01*
X7952301Y13602838D01*
X7954002Y13609208D01*
X7958535Y13618481D01*
X7966398Y13672380D01*
X7967720Y13681438D01*
X7967720Y13681444D01*
X7968499Y13686781D01*
X7968499Y13853217D01*
X7965101Y13876303D01*
X7960044Y13910653D01*
X7960044Y13910655D01*
X7958357Y13922111D01*
X7955240Y13928460D01*
X7952301Y14002838D01*
X7954002Y14009208D01*
X7958535Y14018481D01*
X7965096Y14063456D01*
X7967720Y14081438D01*
X7967720Y14081444D01*
X7968499Y14086781D01*
X7968499Y14139615D01*
X8767999Y14139615D01*
X8772144Y14124144D01*
X8787615Y14119999D01*
X10498383Y14119999D01*
X10513854Y14124144D01*
X10517999Y14139615D01*
X10817999Y14139615D01*
X10822144Y14124144D01*
X10837615Y14119999D01*
X12548382Y14119999D01*
X12563853Y14124144D01*
X12567998Y14139615D01*
X12567998Y15475533D01*
X12567667Y15482561D01*
X12565916Y15501090D01*
X12562050Y15518709D01*
X12524514Y15625595D01*
X12514205Y15645067D01*
X12448119Y15734541D01*
X12432541Y15750119D01*
X12343067Y15816205D01*
X12323595Y15826514D01*
X12216709Y15864050D01*
X12199092Y15867916D01*
X12180552Y15869668D01*
X12173538Y15869999D01*
X10837615Y15869999D01*
X10822144Y15865854D01*
X10817999Y15850383D01*
X10817999Y14139615D01*
X10517999Y14139615D01*
X10517999Y15850382D01*
X10513854Y15865853D01*
X10498383Y15869998D01*
X9162465Y15869998D01*
X9155437Y15869667D01*
X9136908Y15867916D01*
X9119289Y15864050D01*
X9012403Y15826514D01*
X8992931Y15816205D01*
X8903457Y15750119D01*
X8887879Y15734541D01*
X8821793Y15645067D01*
X8811484Y15625595D01*
X8773948Y15518709D01*
X8770082Y15501092D01*
X8768330Y15482552D01*
X8767999Y15475538D01*
X8767999Y14139615D01*
X7968499Y14139615D01*
X7968499Y14253217D01*
X7966968Y14263622D01*
X7960044Y14310653D01*
X7960044Y14310655D01*
X7958357Y14322111D01*
X7955240Y14328460D01*
X7952301Y14402838D01*
X7954002Y14409208D01*
X7958535Y14418481D01*
X7968499Y14486781D01*
X7968499Y14653217D01*
X7966012Y14670115D01*
X7960043Y14710656D01*
X7958357Y14722111D01*
X7954987Y14728974D01*
X7952036Y14803697D01*
X7955012Y14814837D01*
X7959720Y14830069D01*
X7967219Y14881479D01*
X7967999Y14892220D01*
X7967998Y15047736D01*
X7967206Y15058555D01*
X7959559Y15110512D01*
X7955082Y15124919D01*
X7952037Y15201986D01*
X7953922Y15209044D01*
X7958535Y15218481D01*
X7961200Y15236746D01*
X7967720Y15281438D01*
X7967720Y15281444D01*
X7968499Y15286781D01*
X7968499Y15453217D01*
X7964504Y15480360D01*
X7960044Y15510653D01*
X7960044Y15510655D01*
X7958357Y15522111D01*
X7955240Y15528460D01*
X7952301Y15602838D01*
X7954002Y15609208D01*
X7958535Y15618481D01*
X7966610Y15673833D01*
X7967720Y15681438D01*
X7967720Y15681444D01*
X7968499Y15686781D01*
X7968499Y15853217D01*
X7966905Y15864050D01*
X7960044Y15910653D01*
X7960044Y15910655D01*
X7958357Y15922111D01*
X7955240Y15928460D01*
X7952301Y16002838D01*
X7954002Y16009208D01*
X7958535Y16018481D01*
X7965814Y16068373D01*
X7967720Y16081438D01*
X7967720Y16081444D01*
X7968499Y16086781D01*
X7968499Y16253217D01*
X7966099Y16269525D01*
X7960044Y16310653D01*
X7960044Y16310655D01*
X7958357Y16322111D01*
X7955240Y16328460D01*
X7952301Y16402838D01*
X7954002Y16409208D01*
X7958535Y16418481D01*
X7968499Y16486781D01*
X7968499Y16520499D01*
X7988461Y16594999D01*
X8042999Y16649537D01*
X8117499Y16669499D01*
X8151217Y16669499D01*
X8156602Y16670292D01*
X8156606Y16670292D01*
X8208653Y16677954D01*
X8208655Y16677954D01*
X8220111Y16679641D01*
X8226460Y16682758D01*
X8300838Y16685697D01*
X8307208Y16683996D01*
X8316481Y16679463D01*
X8350714Y16674469D01*
X8379438Y16670278D01*
X8379444Y16670278D01*
X8384781Y16669499D01*
X8551217Y16669499D01*
X8556602Y16670292D01*
X8556606Y16670292D01*
X8608653Y16677954D01*
X8608655Y16677954D01*
X8620111Y16679641D01*
X8626460Y16682758D01*
X8700838Y16685697D01*
X8707208Y16683996D01*
X8716481Y16679463D01*
X8750714Y16674469D01*
X8779438Y16670278D01*
X8779444Y16670278D01*
X8784781Y16669499D01*
X8951217Y16669499D01*
X8956602Y16670292D01*
X8956606Y16670292D01*
X9008653Y16677954D01*
X9008655Y16677954D01*
X9020111Y16679641D01*
X9026460Y16682758D01*
X9100838Y16685697D01*
X9107208Y16683996D01*
X9116481Y16679463D01*
X9150714Y16674469D01*
X9179438Y16670278D01*
X9179444Y16670278D01*
X9184781Y16669499D01*
X9351217Y16669499D01*
X9356602Y16670292D01*
X9356606Y16670292D01*
X9408653Y16677954D01*
X9408655Y16677954D01*
X9420111Y16679641D01*
X9426460Y16682758D01*
X9500838Y16685697D01*
X9507208Y16683996D01*
X9516481Y16679463D01*
X9550714Y16674469D01*
X9579438Y16670278D01*
X9579444Y16670278D01*
X9584781Y16669499D01*
X9751217Y16669499D01*
X9756602Y16670292D01*
X9756606Y16670292D01*
X9808653Y16677954D01*
X9808655Y16677954D01*
X9820111Y16679641D01*
X9826460Y16682758D01*
X9900838Y16685697D01*
X9907208Y16683996D01*
X9916481Y16679463D01*
X9950714Y16674469D01*
X9979438Y16670278D01*
X9979444Y16670278D01*
X9984781Y16669499D01*
X10151217Y16669499D01*
X10156602Y16670292D01*
X10156606Y16670292D01*
X10208653Y16677954D01*
X10208655Y16677954D01*
X10220111Y16679641D01*
X10226460Y16682758D01*
X10300838Y16685697D01*
X10307208Y16683996D01*
X10316481Y16679463D01*
X10350714Y16674469D01*
X10379438Y16670278D01*
X10379444Y16670278D01*
X10384781Y16669499D01*
X10551217Y16669499D01*
X10556602Y16670292D01*
X10556606Y16670292D01*
X10608653Y16677954D01*
X10608655Y16677954D01*
X10620111Y16679641D01*
X10626460Y16682758D01*
X10700838Y16685697D01*
X10707208Y16683996D01*
X10716481Y16679463D01*
X10750714Y16674469D01*
X10779438Y16670278D01*
X10779444Y16670278D01*
X10784781Y16669499D01*
X10951217Y16669499D01*
X10956602Y16670292D01*
X10956606Y16670292D01*
X11008653Y16677954D01*
X11008655Y16677954D01*
X11020111Y16679641D01*
X11026460Y16682758D01*
X11100838Y16685697D01*
X11107208Y16683996D01*
X11116481Y16679463D01*
X11150714Y16674469D01*
X11179438Y16670278D01*
X11179444Y16670278D01*
X11184781Y16669499D01*
X11351217Y16669499D01*
X11356602Y16670292D01*
X11356606Y16670292D01*
X11408653Y16677954D01*
X11408655Y16677954D01*
X11420111Y16679641D01*
X11426460Y16682758D01*
X11500838Y16685697D01*
X11507208Y16683996D01*
X11516481Y16679463D01*
X11550714Y16674469D01*
X11579438Y16670278D01*
X11579444Y16670278D01*
X11584781Y16669499D01*
X11751217Y16669499D01*
X11756602Y16670292D01*
X11756606Y16670292D01*
X11808653Y16677954D01*
X11808655Y16677954D01*
X11820111Y16679641D01*
X11826460Y16682758D01*
X11900838Y16685697D01*
X11907208Y16683996D01*
X11916481Y16679463D01*
X11950714Y16674469D01*
X11979438Y16670278D01*
X11979444Y16670278D01*
X11984781Y16669499D01*
X12151217Y16669499D01*
X12156602Y16670292D01*
X12156606Y16670292D01*
X12208653Y16677954D01*
X12208655Y16677954D01*
X12220111Y16679641D01*
X12226460Y16682758D01*
X12300838Y16685697D01*
X12307208Y16683996D01*
X12316481Y16679463D01*
X12350714Y16674469D01*
X12379438Y16670278D01*
X12379444Y16670278D01*
X12384781Y16669499D01*
X12551217Y16669499D01*
X12556602Y16670292D01*
X12556606Y16670292D01*
X12608653Y16677954D01*
X12608655Y16677954D01*
X12620111Y16679641D01*
X12626460Y16682758D01*
X12700838Y16685697D01*
X12707208Y16683996D01*
G37*
%TD.AperFunction*%
%TA.AperFunction,Conductor*%
G36*
X27502240Y17508977D02*
G01*
X27548390Y17447179D01*
X27558999Y17391961D01*
X27558999Y12968101D01*
X27539037Y12893601D01*
X27484499Y12839063D01*
X27409999Y12819101D01*
X27335499Y12839063D01*
X27280961Y12893601D01*
X27269416Y12918732D01*
X27248402Y12978571D01*
X27233695Y13020451D01*
X27154998Y13126998D01*
X27048451Y13205695D01*
X27028065Y13212854D01*
X26977747Y13249112D01*
X26974810Y13245935D01*
X26935462Y13282308D01*
X26931244Y13286363D01*
X26457142Y13760465D01*
X25978140Y14239466D01*
X25939576Y14306261D01*
X25934499Y14344825D01*
X25934499Y14346173D01*
X25954461Y14420673D01*
X25978140Y14451532D01*
X26162617Y14636009D01*
X26175847Y14646694D01*
X26182774Y14652997D01*
X26193121Y14659678D01*
X26201359Y14670127D01*
X26213136Y14685067D01*
X26216741Y14689124D01*
X26216582Y14689258D01*
X26220555Y14693947D01*
X26224903Y14698295D01*
X26235844Y14713606D01*
X26240042Y14719198D01*
X26271544Y14759157D01*
X26274586Y14767820D01*
X26279923Y14775288D01*
X26294498Y14824023D01*
X26296665Y14830690D01*
X26310410Y14869830D01*
X26310410Y14869831D01*
X26313516Y14878675D01*
X26313999Y14884252D01*
X26313999Y14887479D01*
X26314088Y14889528D01*
X26316218Y14896651D01*
X26314114Y14950203D01*
X26313999Y14956053D01*
X26313999Y15150028D01*
X26333961Y15224528D01*
X26388499Y15279066D01*
X26391310Y15280425D01*
X26400098Y15285377D01*
X26409547Y15289118D01*
X26493511Y15352850D01*
X26514773Y15368989D01*
X26522866Y15375132D01*
X26549129Y15409732D01*
X26602739Y15480360D01*
X26602740Y15480362D01*
X26608880Y15488451D01*
X26617441Y15510074D01*
X26657728Y15611824D01*
X26657729Y15611828D01*
X26661252Y15620726D01*
X26662796Y15633480D01*
X26670960Y15700952D01*
X26671499Y15705405D01*
X26671499Y16298593D01*
X26661252Y16383272D01*
X26657729Y16392170D01*
X26657728Y16392174D01*
X26612620Y16506101D01*
X26608880Y16515547D01*
X26601194Y16525674D01*
X26562176Y16577077D01*
X26533034Y16648487D01*
X26543501Y16724902D01*
X26575498Y16772518D01*
X27258637Y17455658D01*
X27271867Y17466343D01*
X27278794Y17472646D01*
X27289141Y17479327D01*
X27296766Y17488999D01*
X27305873Y17497286D01*
X27307746Y17495227D01*
X27354781Y17530352D01*
X27431374Y17539420D01*
X27502240Y17508977D01*
G37*
%TD.AperFunction*%
%TA.AperFunction,Conductor*%
G36*
X24692439Y15211283D02*
G01*
X24750159Y15160125D01*
X24774568Y15086961D01*
X24766422Y15028630D01*
X24736480Y14943368D01*
X24733499Y14911833D01*
X24733499Y13779165D01*
X24736480Y13747630D01*
X24781365Y13619815D01*
X24861849Y13510849D01*
X24970815Y13430365D01*
X25098630Y13385480D01*
X25107673Y13384625D01*
X25107674Y13384625D01*
X25110394Y13384368D01*
X25130165Y13382499D01*
X25537833Y13382499D01*
X25557604Y13384368D01*
X25560324Y13384625D01*
X25560325Y13384625D01*
X25569368Y13385480D01*
X25618982Y13402903D01*
X25695888Y13408753D01*
X25765415Y13375366D01*
X25773710Y13367679D01*
X26043823Y13097566D01*
X26082387Y13030771D01*
X26082387Y12953643D01*
X26079053Y12942855D01*
X26075380Y12932395D01*
X26031864Y12868720D01*
X25962338Y12835331D01*
X25885431Y12841179D01*
X25821753Y12884697D01*
X25814944Y12893241D01*
X25806149Y12905149D01*
X25697183Y12985633D01*
X25569368Y13030518D01*
X25560325Y13031373D01*
X25560324Y13031373D01*
X25557604Y13031630D01*
X25537833Y13033499D01*
X25130165Y13033499D01*
X25110394Y13031630D01*
X25107674Y13031373D01*
X25107673Y13031373D01*
X25098630Y13030518D01*
X24970815Y12985633D01*
X24961858Y12979017D01*
X24961854Y12979015D01*
X24947103Y12968119D01*
X24875317Y12939913D01*
X24799046Y12951379D01*
X24770051Y12968120D01*
X24755902Y12978571D01*
X24736442Y12988875D01*
X24627834Y13027015D01*
X24610239Y13030875D01*
X24591266Y13032668D01*
X24584254Y13032999D01*
X24543019Y13032999D01*
X24468519Y13052961D01*
X24413981Y13107499D01*
X24394019Y13181999D01*
X24394019Y14979435D01*
X24395817Y14996329D01*
X24396259Y15005695D01*
X24398852Y15017740D01*
X24395052Y15049846D01*
X24394733Y15055261D01*
X24394526Y15055244D01*
X24394019Y15061377D01*
X24394019Y15066977D01*
X24394036Y15067071D01*
X24394019Y15067359D01*
X24394019Y15067520D01*
X24394117Y15067520D01*
X24407457Y15141114D01*
X24457316Y15199960D01*
X24529918Y15225992D01*
X24542194Y15226499D01*
X24617593Y15226499D01*
X24617838Y15226529D01*
X24692439Y15211283D01*
G37*
%TD.AperFunction*%
%TA.AperFunction,Conductor*%
G36*
X3193858Y14637032D02*
G01*
X3232422Y14570237D01*
X3237499Y14531673D01*
X3237499Y14240961D01*
X3238876Y14226399D01*
X3239250Y14222442D01*
X3240381Y14210473D01*
X3283772Y14086914D01*
X3290388Y14077956D01*
X3290390Y14077953D01*
X3312092Y14048572D01*
X3340298Y13976786D01*
X3328831Y13900515D01*
X3312094Y13871525D01*
X3246303Y13782451D01*
X3202414Y13657473D01*
X3199499Y13626637D01*
X3199499Y13423325D01*
X3179537Y13348825D01*
X3155858Y13317966D01*
X2994528Y13156636D01*
X2927733Y13118072D01*
X2850605Y13118072D01*
X2783810Y13156636D01*
X2745246Y13223431D01*
X2740169Y13261995D01*
X2740169Y14009565D01*
X2737051Y14035765D01*
X2691608Y14138072D01*
X2681872Y14147791D01*
X2675495Y14157070D01*
X2649749Y14229774D01*
X2663805Y14305611D01*
X2692931Y14346823D01*
X2983140Y14637032D01*
X3049935Y14675596D01*
X3127063Y14675596D01*
X3193858Y14637032D01*
G37*
%TD.AperFunction*%
%TA.AperFunction,Conductor*%
G36*
X6340418Y19251684D02*
G01*
X6389036Y19230190D01*
X6406672Y19222393D01*
X6421317Y19220686D01*
X6428069Y19219898D01*
X6428077Y19219898D01*
X6432353Y19219399D01*
X6815163Y19219399D01*
X6889663Y19199437D01*
X6944201Y19144899D01*
X6964163Y19070399D01*
X6953985Y19016275D01*
X6943961Y18990564D01*
X6936523Y18971486D01*
X6914393Y18803388D01*
X6915379Y18794457D01*
X6915379Y18794456D01*
X6916496Y18784338D01*
X6932998Y18634864D01*
X6936086Y18626427D01*
X6936086Y18626425D01*
X6955235Y18574098D01*
X6991265Y18475643D01*
X6996274Y18468188D01*
X6996275Y18468187D01*
X7079390Y18344499D01*
X7085829Y18334916D01*
X7092471Y18328873D01*
X7092472Y18328871D01*
X7195939Y18234724D01*
X7211232Y18220808D01*
X7219127Y18216521D01*
X7219129Y18216520D01*
X7352343Y18144191D01*
X7352346Y18144190D01*
X7360234Y18139907D01*
X7524232Y18096883D01*
X7535416Y18096707D01*
X7540840Y18096622D01*
X7615017Y18075491D01*
X7668692Y18020103D01*
X7687499Y17947640D01*
X7687499Y17945447D01*
X7681294Y17904353D01*
X7677463Y17896517D01*
X7675794Y17885074D01*
X7675793Y17885072D01*
X7668447Y17834714D01*
X7667499Y17828217D01*
X7667499Y17119499D01*
X7647537Y17044999D01*
X7592999Y16990461D01*
X7518499Y16970499D01*
X6809781Y16970499D01*
X6804396Y16969706D01*
X6804392Y16969706D01*
X6758775Y16962990D01*
X6740887Y16960357D01*
X6730490Y16955252D01*
X6730489Y16955252D01*
X6696281Y16938457D01*
X6636144Y16908931D01*
X6627444Y16900215D01*
X6627443Y16900215D01*
X6562407Y16835066D01*
X6562405Y16835063D01*
X6553706Y16826349D01*
X6548297Y16815283D01*
X6519455Y16756278D01*
X6502463Y16721517D01*
X6500794Y16710074D01*
X6500793Y16710072D01*
X6495281Y16672284D01*
X6492499Y16653217D01*
X6492499Y16486781D01*
X6493292Y16481396D01*
X6493292Y16481392D01*
X6500869Y16429924D01*
X6502641Y16417887D01*
X6505758Y16411538D01*
X6508697Y16337160D01*
X6506996Y16330790D01*
X6502463Y16321517D01*
X6492499Y16253217D01*
X6492499Y16086781D01*
X6493292Y16081396D01*
X6493292Y16081392D01*
X6495512Y16066314D01*
X6502641Y16017887D01*
X6505758Y16011538D01*
X6508697Y15937160D01*
X6506996Y15930790D01*
X6502463Y15921517D01*
X6498936Y15897342D01*
X6494343Y15865854D01*
X6492499Y15853217D01*
X6492499Y15686781D01*
X6493292Y15681396D01*
X6493292Y15681392D01*
X6500824Y15630228D01*
X6502641Y15617887D01*
X6505758Y15611538D01*
X6508697Y15537160D01*
X6506996Y15530790D01*
X6502463Y15521517D01*
X6499483Y15501090D01*
X6495755Y15475533D01*
X6492499Y15453217D01*
X6492499Y15286781D01*
X6495994Y15263042D01*
X6498179Y15248195D01*
X6489280Y15171582D01*
X6443266Y15109683D01*
X6372468Y15079084D01*
X6295855Y15087983D01*
X6245409Y15121136D01*
X5643427Y15723117D01*
X5632742Y15736347D01*
X5626439Y15743274D01*
X5619758Y15753621D01*
X5594368Y15773637D01*
X5590312Y15777241D01*
X5590178Y15777082D01*
X5585489Y15781055D01*
X5581141Y15785403D01*
X5565830Y15796344D01*
X5560238Y15800542D01*
X5520279Y15832044D01*
X5511616Y15835086D01*
X5504148Y15840423D01*
X5455413Y15854998D01*
X5448746Y15857165D01*
X5409606Y15870910D01*
X5409605Y15870910D01*
X5400761Y15874016D01*
X5395184Y15874499D01*
X5392936Y15874499D01*
X5383187Y15876598D01*
X5382785Y15876718D01*
X5382653Y15876713D01*
X5382257Y15876798D01*
X5382810Y15879365D01*
X5325702Y15897342D01*
X5285850Y15934520D01*
X5259616Y15970038D01*
X5252998Y15978998D01*
X5244038Y15985616D01*
X5244036Y15985618D01*
X5211759Y16009458D01*
X5163692Y16069776D01*
X5152225Y16146047D01*
X5180430Y16217833D01*
X5211758Y16249162D01*
X5243680Y16272740D01*
X5259258Y16288318D01*
X5324630Y16376824D01*
X5334939Y16396295D01*
X5372079Y16502054D01*
X5375941Y16519655D01*
X5377668Y16537928D01*
X5377999Y16544940D01*
X5377999Y16594383D01*
X5373854Y16609854D01*
X5358383Y16613999D01*
X4796999Y16613999D01*
X4722499Y16633961D01*
X4667961Y16688499D01*
X4647999Y16762999D01*
X4647999Y16764999D01*
X4667961Y16839499D01*
X4722499Y16894037D01*
X4796999Y16913999D01*
X5358382Y16913999D01*
X5373853Y16918144D01*
X5377998Y16933615D01*
X5377998Y16983054D01*
X5377667Y16990078D01*
X5375941Y17008338D01*
X5372078Y17025947D01*
X5334939Y17131703D01*
X5324630Y17151174D01*
X5310258Y17170632D01*
X5282053Y17242417D01*
X5293520Y17318688D01*
X5341586Y17379008D01*
X5363154Y17392264D01*
X5470497Y17446252D01*
X5543938Y17508977D01*
X5592593Y17550532D01*
X5592595Y17550534D01*
X5599422Y17556365D01*
X5664566Y17647022D01*
X5693123Y17686763D01*
X5693125Y17686767D01*
X5698360Y17694052D01*
X5748790Y17819499D01*
X5758250Y17843030D01*
X5758251Y17843035D01*
X5761600Y17851365D01*
X5785489Y18019221D01*
X5785644Y18033999D01*
X5782815Y18057379D01*
X5776270Y18111465D01*
X5787138Y18187824D01*
X5818832Y18234724D01*
X5979788Y18395680D01*
X5993018Y18406365D01*
X5999945Y18412668D01*
X6010292Y18419349D01*
X6030308Y18444739D01*
X6033912Y18448795D01*
X6033753Y18448929D01*
X6037726Y18453618D01*
X6042074Y18457966D01*
X6053015Y18473277D01*
X6057213Y18478869D01*
X6088715Y18518828D01*
X6091757Y18527491D01*
X6097094Y18534959D01*
X6111669Y18583694D01*
X6113836Y18590361D01*
X6127581Y18629501D01*
X6127581Y18629502D01*
X6130687Y18638346D01*
X6131170Y18643923D01*
X6131170Y18647150D01*
X6131259Y18649199D01*
X6133389Y18656322D01*
X6131285Y18709874D01*
X6131170Y18715724D01*
X6131170Y19115408D01*
X6151132Y19189908D01*
X6205670Y19244446D01*
X6280170Y19264408D01*
X6340418Y19251684D01*
G37*
%TD.AperFunction*%
%TA.AperFunction,Conductor*%
G36*
X22106732Y22920688D02*
G01*
X22135722Y22903951D01*
X22216114Y22844572D01*
X22339673Y22801181D01*
X22348345Y22800361D01*
X22421630Y22760259D01*
X23010062Y22171827D01*
X23048626Y22105032D01*
X23052428Y22047021D01*
X23045623Y21995325D01*
X23043393Y21978388D01*
X23061998Y21809864D01*
X23065086Y21801427D01*
X23065086Y21801425D01*
X23087545Y21740055D01*
X23120265Y21650643D01*
X23125274Y21643188D01*
X23125275Y21643187D01*
X23208387Y21519503D01*
X23214829Y21509916D01*
X23221471Y21503873D01*
X23221472Y21503871D01*
X23329547Y21405531D01*
X23340232Y21395808D01*
X23348127Y21391521D01*
X23348129Y21391520D01*
X23481343Y21319191D01*
X23481346Y21319190D01*
X23489234Y21314907D01*
X23547516Y21299617D01*
X23644548Y21274161D01*
X23644550Y21274161D01*
X23653232Y21271883D01*
X23662208Y21271742D01*
X23813780Y21269361D01*
X23822759Y21269220D01*
X23831513Y21271225D01*
X23831514Y21271225D01*
X23955484Y21299617D01*
X24032560Y21296790D01*
X24097897Y21255804D01*
X24133987Y21187640D01*
X24131160Y21110564D01*
X24117653Y21083803D01*
X24119195Y21082987D01*
X24113983Y21073143D01*
X24107365Y21064183D01*
X24062480Y20936368D01*
X24059499Y20904833D01*
X24059499Y20497165D01*
X24062480Y20465630D01*
X24107365Y20337815D01*
X24187849Y20228849D01*
X24246065Y20185850D01*
X24294129Y20125531D01*
X24305596Y20049260D01*
X24277391Y19977474D01*
X24246066Y19946149D01*
X24187849Y19903149D01*
X24107365Y19794183D01*
X24062480Y19666368D01*
X24059499Y19634833D01*
X24059499Y19227165D01*
X24062480Y19195630D01*
X24107365Y19067815D01*
X24187849Y18958849D01*
X24246065Y18915850D01*
X24294129Y18855531D01*
X24305596Y18779260D01*
X24277391Y18707474D01*
X24246066Y18676149D01*
X24187849Y18633149D01*
X24107365Y18524183D01*
X24062480Y18396368D01*
X24059499Y18364833D01*
X24059499Y18055499D01*
X24039537Y17980999D01*
X23984999Y17926461D01*
X23910499Y17906499D01*
X21797075Y17906499D01*
X21722575Y17926461D01*
X21668037Y17980999D01*
X21657585Y18006233D01*
X21657371Y18006447D01*
X21640383Y18010999D01*
X20383999Y18010999D01*
X20309499Y18030961D01*
X20254961Y18085499D01*
X20234999Y18159999D01*
X20234999Y18161999D01*
X20254961Y18236499D01*
X20309499Y18291037D01*
X20383999Y18310999D01*
X21640382Y18310999D01*
X21655853Y18315144D01*
X21659998Y18330615D01*
X21659998Y18361249D01*
X21659667Y18368276D01*
X21657875Y18387235D01*
X21654014Y18404836D01*
X21615875Y18513442D01*
X21605572Y18532901D01*
X21538406Y18623835D01*
X21522832Y18639409D01*
X21473514Y18675836D01*
X21425448Y18736155D01*
X21413981Y18812426D01*
X21442186Y18884212D01*
X21473513Y18915539D01*
X21523188Y18952230D01*
X21523189Y18952231D01*
X21532149Y18958849D01*
X21612633Y19067815D01*
X21657518Y19195630D01*
X21660499Y19227165D01*
X21660499Y19634833D01*
X21657518Y19666368D01*
X21612633Y19794183D01*
X21532149Y19903149D01*
X21473933Y19946148D01*
X21425869Y20006467D01*
X21414402Y20082738D01*
X21442607Y20154524D01*
X21473932Y20185849D01*
X21532149Y20228849D01*
X21612633Y20337815D01*
X21657518Y20465630D01*
X21660499Y20497165D01*
X21660499Y20904833D01*
X21657518Y20936368D01*
X21612633Y21064183D01*
X21532149Y21173149D01*
X21473933Y21216148D01*
X21425869Y21276467D01*
X21414402Y21352738D01*
X21442607Y21424524D01*
X21473932Y21455849D01*
X21532149Y21498849D01*
X21612633Y21607815D01*
X21657518Y21735630D01*
X21660499Y21767165D01*
X21660499Y22174833D01*
X21657518Y22206368D01*
X21612633Y22334183D01*
X21532149Y22443149D01*
X21423183Y22523633D01*
X21423732Y22524376D01*
X21374506Y22570119D01*
X21351826Y22643838D01*
X21369044Y22719019D01*
X21421546Y22775519D01*
X21500726Y22798299D01*
X21724237Y22798299D01*
X21738799Y22799676D01*
X21745683Y22800326D01*
X21745685Y22800326D01*
X21754725Y22801181D01*
X21878284Y22844572D01*
X21958676Y22903950D01*
X22030461Y22932155D01*
X22106732Y22920688D01*
G37*
%TD.AperFunction*%
%TA.AperFunction,Conductor*%
G36*
X24254589Y27539037D02*
G01*
X24309127Y27484499D01*
X24329089Y27409999D01*
X24309127Y27335499D01*
X24262869Y27286110D01*
X24061906Y27151830D01*
X24054186Y27145906D01*
X23968793Y27071019D01*
X23959895Y27057702D01*
X23965213Y27046917D01*
X25386128Y25626002D01*
X25399999Y25617994D01*
X25413870Y25626002D01*
X26348229Y26560361D01*
X26415024Y26598925D01*
X26492152Y26598925D01*
X26558947Y26560361D01*
X26560361Y26558947D01*
X26598925Y26492152D01*
X26598925Y26415024D01*
X26560361Y26348229D01*
X25626002Y25413870D01*
X25617994Y25399999D01*
X25626002Y25386128D01*
X27044214Y23967916D01*
X27058085Y23959908D01*
X27068500Y23965920D01*
X27145906Y24054186D01*
X27151830Y24061906D01*
X27286110Y24262869D01*
X27344098Y24313723D01*
X27419744Y24328770D01*
X27492779Y24303978D01*
X27543633Y24245990D01*
X27558999Y24180089D01*
X27558999Y18926747D01*
X27539037Y18852247D01*
X27484499Y18797709D01*
X27409999Y18777747D01*
X27335499Y18797709D01*
X27308857Y18817333D01*
X27294968Y18830172D01*
X27290751Y18834227D01*
X27195786Y18929192D01*
X27094140Y19030837D01*
X27055576Y19097632D01*
X27050499Y19136196D01*
X27050499Y19621955D01*
X27052297Y19638849D01*
X27052739Y19648215D01*
X27055332Y19660260D01*
X27051532Y19692366D01*
X27051212Y19697783D01*
X27051005Y19697766D01*
X27050499Y19703886D01*
X27050499Y19710040D01*
X27047411Y19728596D01*
X27046422Y19735543D01*
X27044837Y19748932D01*
X27040443Y19786056D01*
X27036469Y19794331D01*
X27034962Y19803387D01*
X27010815Y19848140D01*
X27007628Y19854395D01*
X26991774Y19887411D01*
X26985610Y19900247D01*
X26982008Y19904532D01*
X26979743Y19906797D01*
X26978339Y19908328D01*
X26974810Y19914868D01*
X26935462Y19951241D01*
X26931244Y19955296D01*
X26778956Y20107584D01*
X26625301Y20261238D01*
X26586737Y20328033D01*
X26586737Y20405161D01*
X26590071Y20415949D01*
X26607518Y20465630D01*
X26610499Y20497165D01*
X26610499Y20904833D01*
X26607518Y20936368D01*
X26562633Y21064183D01*
X26482149Y21173149D01*
X26423933Y21216148D01*
X26375869Y21276467D01*
X26364402Y21352738D01*
X26392607Y21424524D01*
X26423932Y21455849D01*
X26482149Y21498849D01*
X26562633Y21607815D01*
X26607518Y21735630D01*
X26610499Y21767165D01*
X26610499Y22174833D01*
X26607518Y22206368D01*
X26562633Y22334183D01*
X26482149Y22443149D01*
X26373183Y22523633D01*
X26245368Y22568518D01*
X26236325Y22569373D01*
X26236324Y22569373D01*
X26233604Y22569630D01*
X26213833Y22571499D01*
X24456165Y22571499D01*
X24436394Y22569630D01*
X24433674Y22569373D01*
X24433673Y22569373D01*
X24424630Y22568518D01*
X24296815Y22523633D01*
X24295438Y22527554D01*
X24242184Y22515230D01*
X24162269Y22541792D01*
X24158431Y22544459D01*
X24151720Y22550439D01*
X24001880Y22629775D01*
X23993167Y22631964D01*
X23993166Y22631964D01*
X23858890Y22665692D01*
X23837440Y22671080D01*
X23752667Y22671524D01*
X23676875Y22671921D01*
X23667894Y22671968D01*
X23664583Y22671173D01*
X23590844Y22682061D01*
X23544658Y22713448D01*
X23171340Y23086766D01*
X23132776Y23153561D01*
X23127699Y23192125D01*
X23127699Y23655837D01*
X23124817Y23686325D01*
X23105296Y23741913D01*
X23959908Y23741913D01*
X23965920Y23731498D01*
X24054186Y23654092D01*
X24061906Y23648168D01*
X24293588Y23493362D01*
X24302010Y23488500D01*
X24551916Y23365259D01*
X24560904Y23361536D01*
X24824755Y23271971D01*
X24834163Y23269451D01*
X25107443Y23215092D01*
X25117089Y23213822D01*
X25395132Y23195598D01*
X25404866Y23195598D01*
X25682909Y23213822D01*
X25692555Y23215092D01*
X25965835Y23269451D01*
X25975243Y23271971D01*
X26239094Y23361536D01*
X26248082Y23365259D01*
X26497988Y23488500D01*
X26506410Y23493362D01*
X26738092Y23648168D01*
X26745812Y23654092D01*
X26831205Y23728979D01*
X26840103Y23742296D01*
X26834785Y23753081D01*
X25413870Y25173996D01*
X25399999Y25182004D01*
X25386128Y25173996D01*
X23967916Y23755784D01*
X23959908Y23741913D01*
X23105296Y23741913D01*
X23081426Y23809884D01*
X23036087Y23871268D01*
X23010240Y23906262D01*
X23003622Y23915222D01*
X22965937Y23943057D01*
X22907244Y23986408D01*
X22898284Y23993026D01*
X22774725Y24036417D01*
X22765685Y24037272D01*
X22765683Y24037272D01*
X22758799Y24037922D01*
X22744237Y24039299D01*
X22536525Y24039299D01*
X22462025Y24059261D01*
X22431166Y24082940D01*
X21848957Y24665149D01*
X21810393Y24731944D01*
X21810393Y24809072D01*
X21848957Y24875867D01*
X21915752Y24914431D01*
X22009546Y24939563D01*
X22015827Y24941246D01*
X22212518Y25032964D01*
X22217846Y25036694D01*
X22217850Y25036697D01*
X22384959Y25153709D01*
X22384962Y25153711D01*
X22390294Y25157445D01*
X22543753Y25310904D01*
X22558567Y25332060D01*
X22602731Y25395132D01*
X23195598Y25395132D01*
X23213822Y25117089D01*
X23215092Y25107443D01*
X23269451Y24834163D01*
X23271971Y24824755D01*
X23361536Y24560904D01*
X23365259Y24551916D01*
X23488500Y24302010D01*
X23493362Y24293588D01*
X23648168Y24061906D01*
X23654092Y24054186D01*
X23728979Y23968793D01*
X23742296Y23959895D01*
X23753081Y23965213D01*
X25173996Y25386128D01*
X25182004Y25399999D01*
X25173996Y25413870D01*
X23755784Y26832082D01*
X23741913Y26840090D01*
X23731498Y26834078D01*
X23654092Y26745812D01*
X23648168Y26738092D01*
X23493362Y26506410D01*
X23488500Y26497988D01*
X23365259Y26248082D01*
X23361536Y26239094D01*
X23271971Y25975243D01*
X23269451Y25965835D01*
X23215092Y25692555D01*
X23213822Y25682909D01*
X23195598Y25404866D01*
X23195598Y25395132D01*
X22602731Y25395132D01*
X22664501Y25483348D01*
X22664504Y25483352D01*
X22668234Y25488680D01*
X22759952Y25685371D01*
X22816122Y25895000D01*
X22816697Y25901564D01*
X22834470Y26104718D01*
X22835037Y26111199D01*
X22833823Y26125070D01*
X22816689Y26320922D01*
X22816688Y26320927D01*
X22816122Y26327398D01*
X22810541Y26348229D01*
X22761635Y26530746D01*
X22759952Y26537027D01*
X22668234Y26733718D01*
X22664504Y26739046D01*
X22664501Y26739050D01*
X22547489Y26906159D01*
X22547487Y26906162D01*
X22543753Y26911494D01*
X22390294Y27064953D01*
X22384962Y27068687D01*
X22384959Y27068689D01*
X22217850Y27185701D01*
X22217846Y27185704D01*
X22212518Y27189434D01*
X22029108Y27274959D01*
X21970025Y27324536D01*
X21943645Y27397012D01*
X21957038Y27472969D01*
X22006615Y27532052D01*
X22079091Y27558432D01*
X22092078Y27558999D01*
X24180089Y27558999D01*
X24254589Y27539037D01*
G37*
%TD.AperFunction*%
%TA.AperFunction,Conductor*%
G36*
X4733203Y21419537D02*
G01*
X4787741Y21364999D01*
X4801393Y21330519D01*
X4801518Y21329384D01*
X4859785Y21170163D01*
X4864794Y21162708D01*
X4864795Y21162707D01*
X4954349Y21029436D01*
X4951632Y21027610D01*
X4977925Y20973246D01*
X4972290Y20896324D01*
X4928950Y20832525D01*
X4859516Y20798943D01*
X4831569Y20796299D01*
X4806561Y20796299D01*
X4775725Y20793384D01*
X4650747Y20749495D01*
X4544200Y20670798D01*
X4537582Y20661838D01*
X4533840Y20656772D01*
X4473520Y20608708D01*
X4413990Y20596299D01*
X4387525Y20596299D01*
X4313025Y20616261D01*
X4282166Y20639940D01*
X3872989Y21049117D01*
X3862304Y21062347D01*
X3856001Y21069274D01*
X3849320Y21079621D01*
X3823930Y21099637D01*
X3819874Y21103241D01*
X3819740Y21103082D01*
X3815051Y21107055D01*
X3810703Y21111403D01*
X3795392Y21122344D01*
X3789800Y21126542D01*
X3749841Y21158044D01*
X3742279Y21160699D01*
X3737603Y21163641D01*
X3734506Y21165854D01*
X3733722Y21166414D01*
X3735299Y21168621D01*
X3690850Y21207400D01*
X3665870Y21280371D01*
X3680722Y21356056D01*
X3731426Y21414174D01*
X3804397Y21439154D01*
X3814525Y21439499D01*
X4658703Y21439499D01*
X4733203Y21419537D01*
G37*
%TD.AperFunction*%
%TA.AperFunction,Conductor*%
G36*
X18920432Y24292628D02*
G01*
X18974970Y24238090D01*
X18994932Y24163590D01*
X18993930Y24146337D01*
X18991800Y24128066D01*
X18991299Y24119445D01*
X18991299Y23613815D01*
X18995444Y23598344D01*
X19010915Y23594199D01*
X19609799Y23594199D01*
X19684299Y23574237D01*
X19738837Y23519699D01*
X19758799Y23445199D01*
X19758799Y23443199D01*
X19738837Y23368699D01*
X19684299Y23314161D01*
X19609799Y23294199D01*
X19010915Y23294199D01*
X18995444Y23290054D01*
X18991299Y23274583D01*
X18991299Y22769045D01*
X18991822Y22760233D01*
X18993090Y22749576D01*
X18998951Y22728250D01*
X19034194Y22648906D01*
X19049513Y22626616D01*
X19109140Y22567093D01*
X19127995Y22554183D01*
X19178189Y22495622D01*
X19192377Y22419811D01*
X19167773Y22353740D01*
X19169195Y22352987D01*
X19163983Y22343143D01*
X19157365Y22334183D01*
X19112480Y22206368D01*
X19109499Y22174833D01*
X19109499Y21995325D01*
X19089537Y21920825D01*
X19065858Y21889966D01*
X18820881Y21644989D01*
X18807651Y21634304D01*
X18800724Y21628001D01*
X18790377Y21621320D01*
X18782753Y21611649D01*
X18782752Y21611648D01*
X18770362Y21595931D01*
X18766757Y21591874D01*
X18766916Y21591740D01*
X18762943Y21587051D01*
X18758595Y21582703D01*
X18755021Y21577701D01*
X18755019Y21577699D01*
X18747654Y21567392D01*
X18743456Y21561800D01*
X18711954Y21521841D01*
X18708912Y21513178D01*
X18703575Y21505710D01*
X18691183Y21464272D01*
X18689003Y21456984D01*
X18686833Y21450308D01*
X18675616Y21418365D01*
X18669982Y21402323D01*
X18669499Y21396746D01*
X18669499Y21393519D01*
X18669410Y21391470D01*
X18667280Y21384347D01*
X18669380Y21330906D01*
X18669384Y21330795D01*
X18669499Y21324945D01*
X18669499Y20862953D01*
X18649537Y20788453D01*
X18625858Y20757594D01*
X18591398Y20723134D01*
X18524603Y20684570D01*
X18447475Y20684570D01*
X18380680Y20723134D01*
X18342116Y20789929D01*
X18337039Y20828493D01*
X18337039Y21089815D01*
X18333921Y21116015D01*
X18325094Y21135888D01*
X18313096Y21212077D01*
X18324988Y21256616D01*
X18325650Y21258113D01*
X18334045Y21277102D01*
X18336190Y21295499D01*
X18336540Y21298499D01*
X18336540Y21298507D01*
X18337039Y21302783D01*
X18337039Y21740055D01*
X18333921Y21766255D01*
X18326219Y21783595D01*
X18314221Y21859784D01*
X18326114Y21904323D01*
X18334045Y21922262D01*
X18335342Y21933388D01*
X18335343Y21933391D01*
X18336540Y21943659D01*
X18336540Y21943667D01*
X18337039Y21947943D01*
X18337039Y22385215D01*
X18333921Y22411415D01*
X18324820Y22431905D01*
X18312822Y22508095D01*
X18324715Y22552633D01*
X18329019Y22562369D01*
X18334848Y22583747D01*
X18336037Y22593953D01*
X18336539Y22602583D01*
X18336539Y22647203D01*
X18332394Y22662674D01*
X18316923Y22666819D01*
X17786619Y22666819D01*
X17712119Y22686781D01*
X17657581Y22741319D01*
X17637619Y22815819D01*
X17637619Y22817819D01*
X17657581Y22892319D01*
X17712119Y22946857D01*
X17786619Y22966819D01*
X18316923Y22966819D01*
X18332394Y22970964D01*
X18336539Y22986435D01*
X18336539Y23030963D01*
X18336016Y23039775D01*
X18334748Y23050432D01*
X18328887Y23071758D01*
X18293644Y23151102D01*
X18278325Y23173392D01*
X18218700Y23232913D01*
X18196382Y23248195D01*
X18163918Y23262547D01*
X18103852Y23310929D01*
X18076023Y23382861D01*
X18087890Y23459071D01*
X18092485Y23468545D01*
X18096408Y23475954D01*
X18103026Y23484914D01*
X18146417Y23608473D01*
X18149299Y23638961D01*
X18149299Y24051873D01*
X18169261Y24126373D01*
X18192940Y24157232D01*
X18304657Y24268949D01*
X18371452Y24307513D01*
X18410016Y24312590D01*
X18845932Y24312590D01*
X18920432Y24292628D01*
G37*
%TD.AperFunction*%
%TD*%
M02*
